<svg width="880" height="326" viewBox="0 0 880 326" xmlns="http://www.w3.org/2000/svg" font-family="One UI Sans">
<path d="M34,0 h812 a34,34 0 0 1 34,34 v258 a34,34 0 0 1 -34,34 h-812 a34,34 0 0 1 -34,-34 v-258 a34,34 0 0 1 34,-34 z" fill="#1C1E22" stroke="#2C3036"/>
<path d="M44.56 44.385H45.61L42.355 54.0H40.165L44.005 43.335H46.269999999999996L50.11 54.0H47.83ZM48.04 51.915H42.49V50.055H48.04Z M51.355 43.335H55.3Q56.71 43.335 57.55 43.7325Q58.39 44.13 58.7575 44.775000000000006Q59.125 45.42 59.125 46.17Q59.125 46.95 58.765 47.557500000000005Q58.405 48.165 57.715 48.5025Q57.025 48.84 56.004999999999995 48.84L56.08 48.315Q57.205 48.315 57.955 48.66Q58.705 49.005 59.0875 49.6275Q59.47 50.25 59.47 51.06Q59.47 51.825 59.095 52.5Q58.72 53.175 57.8575 53.5875Q56.995 54.0 55.555 54.0H51.355ZM57.324999999999996 50.82Q57.324999999999996 50.205 56.86749999999999 49.86Q56.41 49.515 55.449999999999996 49.515H52.735V47.76H55.224999999999994Q56.125 47.76 56.552499999999995 47.4075Q56.98 47.055 56.98 46.47Q56.98 45.885 56.552499999999995 45.5475Q56.125 45.21 55.224999999999994 45.21H53.455V52.125H55.449999999999996Q56.41 52.125 56.86749999999999 51.7725Q57.324999999999996 51.42 57.324999999999996 50.82Z M68.86 48.66Q68.86 47.595 68.5 46.807500000000005Q68.14 46.02 67.4725 45.6Q66.80499999999999 45.18 65.89 45.18Q64.99 45.18 64.32249999999999 45.6Q63.654999999999994 46.02 63.294999999999995 46.807500000000005Q62.934999999999995 47.595 62.934999999999995 48.66Q62.934999999999995 49.74 63.294999999999995 50.5275Q63.654999999999994 51.315 64.32249999999999 51.735Q64.99 52.155 65.89 52.155Q66.80499999999999 52.155 67.4725 51.735Q68.14 51.315 68.5 50.5275Q68.86 49.74 68.86 48.66ZM65.89 54.21Q64.36 54.21 63.19 53.519999999999996Q62.019999999999996 52.83 61.36749999999999 51.585Q60.714999999999996 50.34 60.714999999999996 48.66Q60.714999999999996 46.995 61.36749999999999 45.75Q62.019999999999996 44.505 63.19 43.815Q64.36 43.125 65.89 43.125Q67.44999999999999 43.125 68.61249999999998 43.815Q69.77499999999999 44.505 70.4275 45.75Q71.08 46.995 71.08 48.66Q71.08 50.34 70.4275 51.585Q69.77499999999999 52.83 68.60499999999999 53.519999999999996Q67.43499999999999 54.21 65.89 54.21Z M72.64 49.74V43.335H74.80000000000001V49.74Q74.80000000000001 50.58 75.055 51.1125Q75.31 51.645 75.79750000000001 51.900000000000006Q76.28500000000001 52.155 77.00500000000001 52.155Q77.71000000000001 52.155 78.1975 51.900000000000006Q78.685 51.645 78.94 51.1125Q79.19500000000001 50.58 79.19500000000001 49.74V43.335H81.355V49.74Q81.355 51.21 80.845 52.207499999999996Q80.33500000000001 53.205 79.3675 53.707499999999996Q78.4 54.21 76.99000000000001 54.21Q75.61000000000001 54.21 74.63500000000002 53.707499999999996Q73.66000000000001 53.205 73.15 52.207499999999996Q72.64 51.21 72.64 49.74Z M85.975 43.815H88.13499999999999V54.0H85.975ZM82.75 43.335H91.36V45.36H82.75Z" fill="#697079"/>
<path d="M54,86 h16 a14,14 0 0 1 14,14 v16 a14,14 0 0 1 -14,14 h-16 a14,14 0 0 1 -14,-14 v-16 a14,14 0 0 1 14,-14 z" fill="#16243E"/>
<g transform="translate(51.0,97.0) scale(0.9166666666666666)" stroke="#5AA0FF" stroke-width="1.9" stroke-linecap="round" stroke-linejoin="round" fill="#5AA0FF"><circle cx="12" cy="9" r="3.6"/><path d="M5.5 19c0-3.4 2.9-5.6 6.5-5.6S18.5 15.6 18.5 19" fill="none"/></g>
<path d="M101.386 91.202H105.79599999999999Q108.064 91.202 109.342 92.327Q110.62 93.452 110.62 95.36Q110.62 96.908 109.765 97.88900000000001Q108.91 98.87 107.362 99.23L106.84 99.338Q106.624 99.392 106.435 99.419Q106.246 99.446 106.012 99.464H103.042V97.466H105.634Q107.002 97.466 107.686 96.90799999999999Q108.37 96.35 108.37 95.324Q108.37 94.316 107.686 93.767Q107.002 93.218 105.634 93.218H103.618V104.0H101.386ZM105.706 98.528 107.884 98.33 110.8 104.0H108.37Z M112.222 99.356Q112.222 97.916 112.78899999999999 96.818Q113.356 95.72 114.4 95.099Q115.444 94.47800000000001 116.812 94.47800000000001Q118.216 94.47800000000001 119.24199999999999 95.099Q120.268 95.72 120.844 96.818Q121.42 97.916 121.42 99.356Q121.42 100.796 120.844 101.894Q120.268 102.992 119.24199999999999 103.613Q118.216 104.234 116.812 104.234Q115.444 104.234 114.4 103.613Q113.356 102.992 112.78899999999999 101.894Q112.222 100.796 112.222 99.356ZM114.454 99.356Q114.454 100.202 114.74199999999999 100.85900000000001Q115.03 101.516 115.561 101.867Q116.092 102.218 116.812 102.218Q117.568 102.218 118.09 101.867Q118.612 101.516 118.9 100.85900000000001Q119.188 100.202 119.188 99.356Q119.188 98.492 118.9 97.85300000000001Q118.612 97.214 118.09 96.854Q117.568 96.494 116.812 96.494Q116.092 96.494 115.561 96.854Q115.03 97.214 114.74199999999999 97.85300000000001Q114.454 98.492 114.454 99.356Z M123.112 90.806H125.30799999999999V104.0H123.112Z M127.018 99.374Q127.018 97.898 127.60300000000001 96.8Q128.18800000000002 95.702 129.23200000000003 95.09Q130.276 94.47800000000001 131.644 94.47800000000001Q133.048 94.47800000000001 134.05599999999998 95.09Q135.064 95.702 135.595 96.773Q136.126 97.844 136.126 99.194V99.968H128.18800000000002V98.402H134.88400000000001L133.984 98.96Q133.984 98.132 133.69600000000003 97.53800000000001Q133.40800000000002 96.944 132.895 96.62Q132.382 96.296 131.662 96.296Q130.942 96.296 130.38400000000001 96.638Q129.826 96.98 129.529 97.619Q129.232 98.258 129.232 99.158V99.482Q129.232 100.832 129.90699999999998 101.579Q130.582 102.326 131.788 102.326Q132.526 102.326 133.084 102.02Q133.642 101.714 134.038 101.102L135.73000000000002 102.128Q135.064 103.172 134.029 103.703Q132.994 104.234 131.716 104.234Q130.33 104.234 129.27700000000002 103.649Q128.22400000000002 103.064 127.62100000000001 101.975Q127.018 100.886 127.018 99.374Z" fill="#F2F4F8"/>
<path d="M108.78999999999999 119.675Q108.78999999999999 117.665 107.76249999999999 116.6075Q106.735 115.55 104.89 115.55H102.625V123.785H104.89Q106.735 123.785 107.76249999999999 122.72749999999999Q108.78999999999999 121.67 108.78999999999999 119.675ZM104.965 125.0H101.305V114.33500000000001H104.965Q106.57 114.33500000000001 107.73249999999999 114.9725Q108.895 115.61 109.5175 116.80250000000001Q110.14 117.995 110.14 119.675Q110.14 121.34 109.5175 122.5325Q108.895 123.725 107.73249999999999 124.3625Q106.57 125.0 104.965 125.0Z M111.46 121.175Q111.46 119.96 111.91749999999999 119.06Q112.375 118.16 113.20750000000001 117.66499999999999Q114.04 117.17 115.15 117.17Q116.23 117.17 117.03999999999999 117.65Q117.85 118.13 118.3 119.0Q118.75 119.87 118.75 121.025V121.595H112.195V120.47H118.03L117.475 120.875Q117.475 120.11 117.1825 119.53999999999999Q116.89 118.97 116.3725 118.655Q115.855 118.34 115.15 118.34Q114.415 118.34 113.8675 118.685Q113.32 119.03 113.0275 119.64500000000001Q112.735 120.26 112.735 121.085V121.175Q112.735 122.495 113.38 123.2525Q114.025 124.01 115.195 124.01Q115.975 124.01 116.5225 123.695Q117.07 123.38 117.445 122.75L118.48 123.365Q117.925 124.28 117.0775 124.73Q116.23 125.18 115.165 125.18Q114.04 125.18 113.20750000000001 124.685Q112.375 124.19 111.91749999999999 123.28999999999999Q111.46 122.39 111.46 121.175Z M124.69000000000001 123.005Q124.69000000000001 122.555 124.38250000000001 122.285Q124.075 122.015 123.31 121.835L122.36500000000001 121.61Q121.15 121.31 120.5875 120.77000000000001Q120.025 120.23 120.025 119.345Q120.025 118.67 120.3775 118.1825Q120.73 117.695 121.375 117.4325Q122.02000000000001 117.17 122.905 117.17Q124.03 117.17 124.825 117.6575Q125.62 118.145 125.95 119.03L124.855 119.495Q124.61500000000001 118.88 124.07500000000002 118.61Q123.53500000000001 118.34 122.92 118.34Q122.14000000000001 118.34 121.72750000000002 118.60249999999999Q121.31500000000001 118.865 121.31500000000001 119.33Q121.31500000000001 119.81 121.6525 120.0275Q121.99000000000001 120.245 122.72500000000001 120.425L123.67 120.65Q124.87 120.935 125.42500000000001 121.4975Q125.98 122.06 125.98 122.99Q125.98 123.995 125.2 124.5875Q124.42 125.18 123.08500000000001 125.18Q121.825 125.18 120.9325 124.6325Q120.04 124.085 119.74000000000001 123.125L120.86500000000001 122.705Q121.105 123.35 121.66 123.68Q122.215 124.01 123.04 124.01Q123.85000000000001 124.01 124.27000000000001 123.755Q124.69000000000001 123.5 124.69000000000001 123.005Z M128.79999999999998 125.0H127.52499999999999V117.35H128.79999999999998ZM127.32999999999998 115.08500000000001Q127.32999999999998 114.695 127.56249999999999 114.47Q127.79499999999999 114.245 128.17 114.245Q128.55999999999997 114.245 128.78499999999997 114.47Q129.01 114.695 129.01 115.08500000000001Q129.01 115.46000000000001 128.78499999999997 115.6925Q128.55999999999997 115.925 128.17 115.925Q127.79499999999999 115.925 127.56249999999999 115.6925Q127.32999999999998 115.46000000000001 127.32999999999998 115.08500000000001Z M136.405 124.88V122.705H136.78Q136.45000000000002 123.74 135.67000000000002 124.3175Q134.89000000000001 124.895 133.82500000000002 124.895Q132.79000000000002 124.895 132.0175 124.41499999999999Q131.245 123.935 130.8175 123.07249999999999Q130.39000000000001 122.21 130.39000000000001 121.04Q130.39000000000001 119.855 130.8175 118.9925Q131.245 118.13 132.0175 117.65Q132.79000000000002 117.17 133.82500000000002 117.17Q134.89000000000001 117.17 135.70000000000002 117.7775Q136.51000000000002 118.385 136.84 119.54H136.405V117.35H137.68V124.73Q137.68 126.05 137.23000000000002 126.8825Q136.78 127.715 136.0 128.10500000000002Q135.22 128.495 134.215 128.495Q133.12 128.495 132.22 128.015Q131.32 127.535 130.72 126.62L131.77 126.005Q132.16 126.62 132.79000000000002 126.95750000000001Q133.42000000000002 127.295 134.20000000000002 127.295Q135.205 127.295 135.805 126.7175Q136.405 126.14 136.405 124.88ZM134.02 118.37Q133.285 118.37 132.76 118.715Q132.235 119.06 131.965 119.6675Q131.695 120.275 131.695 121.04Q131.695 121.79 131.965 122.39750000000001Q132.235 123.005 132.76 123.35Q133.285 123.695 134.02 123.695Q134.77 123.695 135.31 123.35749999999999Q135.85 123.02 136.135 122.41999999999999Q136.42000000000002 121.82 136.42000000000002 121.04Q136.42000000000002 120.245 136.135 119.64500000000001Q135.85 119.045 135.31 118.70750000000001Q134.77 118.37 134.02 118.37Z M139.69 117.35H140.965V119.555H140.485Q140.77 118.445 141.54250000000002 117.8075Q142.315 117.17 143.335 117.17Q146.125 117.17 146.125 120.56V125.0H144.85V120.56Q144.85 119.42 144.39999999999998 118.88Q143.95 118.34 143.035 118.34Q142.45 118.34 141.9775 118.655Q141.505 118.97 141.235 119.525Q140.965 120.08 140.965 120.8V125.0H139.69Z M147.655 121.175Q147.655 119.96 148.1125 119.06Q148.57 118.16 149.40249999999997 117.66499999999999Q150.23499999999999 117.17 151.345 117.17Q152.42499999999998 117.17 153.23499999999999 117.65Q154.045 118.13 154.495 119.0Q154.945 119.87 154.945 121.025V121.595H148.39V120.47H154.225L153.67 120.875Q153.67 120.11 153.3775 119.53999999999999Q153.08499999999998 118.97 152.5675 118.655Q152.04999999999998 118.34 151.345 118.34Q150.60999999999999 118.34 150.0625 118.685Q149.515 119.03 149.2225 119.64500000000001Q148.93 120.26 148.93 121.085V121.175Q148.93 122.495 149.575 123.2525Q150.22 124.01 151.39 124.01Q152.17 124.01 152.71749999999997 123.695Q153.265 123.38 153.64 122.75L154.67499999999998 123.365Q154.12 124.28 153.27249999999998 124.73Q152.42499999999998 125.18 151.35999999999999 125.18Q150.23499999999999 125.18 149.40249999999997 124.685Q148.57 124.19 148.1125 123.28999999999999Q147.655 122.39 147.655 121.175Z M156.535 117.35H157.81V119.555H157.33Q157.495 118.88 157.8775 118.35499999999999Q158.26 117.83 158.785 117.52250000000001Q159.31 117.215 159.91 117.215Q160.075 117.215 160.2325 117.23Q160.39 117.245 160.555 117.29V118.55Q160.3 118.49 159.925 118.49Q159.295 118.49 158.815 118.7825Q158.335 119.075 158.0725 119.6Q157.81 120.125 157.81 120.845V125.0H156.535Z M165.47500000000002 122.54Q165.47500000000002 121.85 165.69250000000002 121.28Q165.91000000000003 120.71 166.45000000000002 120.19999999999999Q166.99 119.69 167.92000000000002 119.18L168.85000000000002 118.67Q169.87 118.1 170.32 117.7025Q170.77 117.305 170.77 116.705Q170.77 116.045 170.365 115.655Q169.96 115.265 169.24 115.265Q168.50500000000002 115.265 168.07000000000002 115.64750000000001Q167.63500000000002 116.03 167.63500000000002 116.645Q167.63500000000002 116.99 167.74 117.245Q167.845 117.5 168.145 117.85249999999999Q168.44500000000002 118.205 169.03 118.85L174.655 125.0H173.05L167.92000000000002 119.405Q167.56 119.015 167.2075 118.5875Q166.85500000000002 118.16 166.63 117.6725Q166.405 117.185 166.405 116.63Q166.405 115.895 166.78 115.34Q167.155 114.785 167.8 114.47Q168.44500000000002 114.155 169.25500000000002 114.155Q170.03500000000003 114.155 170.65750000000003 114.47Q171.28 114.785 171.64 115.3325Q172.0 115.88 172.0 116.58500000000001Q172.0 117.44 171.37 118.1Q170.74 118.76 169.405 119.51L168.49 120.02Q167.78500000000003 120.41 167.39500000000004 120.7775Q167.00500000000002 121.145 166.85500000000002 121.54249999999999Q166.705 121.94 166.705 122.435Q166.705 123.245 167.35000000000002 123.6875Q167.995 124.13 168.925 124.13Q169.88500000000002 124.13 170.6425 123.74Q171.4 123.35 171.9325 122.57Q172.465 121.79 172.735 120.65L172.96 119.69L174.07000000000002 119.96L173.86 120.845Q173.53 122.225 172.84750000000003 123.19999999999999Q172.16500000000002 124.175 171.16000000000003 124.67750000000001Q170.155 125.18 168.82000000000002 125.18Q167.845 125.18 167.0875 124.86500000000001Q166.33 124.55 165.90250000000003 123.9575Q165.47500000000002 123.365 165.47500000000002 122.54Z M179.53 121.175Q179.53 120.005 179.98000000000002 119.0975Q180.43 118.19 181.255 117.68Q182.07999999999998 117.17 183.20499999999998 117.17Q184.26999999999998 117.17 185.065 117.63499999999999Q185.85999999999999 118.1 186.325 118.985L185.29 119.585Q184.95999999999998 118.955 184.435 118.6625Q183.91 118.37 183.20499999999998 118.37Q182.47 118.37 181.9375 118.7225Q181.405 119.075 181.12 119.705Q180.83499999999998 120.335 180.83499999999998 121.175Q180.83499999999998 122.42 181.46499999999997 123.2Q182.095 123.98 183.20499999999998 123.98Q183.91 123.98 184.495 123.6725Q185.07999999999998 123.365 185.47 122.675L186.505 123.29Q186.01 124.175 185.1625 124.67750000000001Q184.315 125.18 183.20499999999998 125.18Q182.07999999999998 125.18 181.255 124.6625Q180.43 124.145 179.98000000000002 123.245Q179.53 122.345 179.53 121.175Z M187.95999999999998 117.35H189.23499999999999V119.555H188.755Q188.92 118.88 189.30249999999998 118.35499999999999Q189.68499999999997 117.83 190.20999999999998 117.52250000000001Q190.73499999999999 117.215 191.33499999999998 117.215Q191.49999999999997 117.215 191.65749999999997 117.23Q191.815 117.245 191.98 117.29V118.55Q191.725 118.49 191.35 118.49Q190.71999999999997 118.49 190.23999999999998 118.7825Q189.76 119.075 189.4975 119.6Q189.23499999999999 120.125 189.23499999999999 120.845V125.0H187.95999999999998Z M192.98499999999999 121.175Q192.98499999999999 119.96 193.4425 119.06Q193.89999999999998 118.16 194.73249999999996 117.66499999999999Q195.56499999999997 117.17 196.67499999999998 117.17Q197.75499999999997 117.17 198.56499999999997 117.65Q199.37499999999997 118.13 199.825 119.0Q200.27499999999998 119.87 200.27499999999998 121.025V121.595H193.71999999999997V120.47H199.55499999999998L198.99999999999997 120.875Q198.99999999999997 120.11 198.70749999999998 119.53999999999999Q198.41499999999996 118.97 197.89749999999998 118.655Q197.37999999999997 118.34 196.67499999999998 118.34Q195.93999999999997 118.34 195.39249999999998 118.685Q194.84499999999997 119.03 194.55249999999998 119.64500000000001Q194.26 120.26 194.26 121.085V121.175Q194.26 122.495 194.90499999999997 123.2525Q195.54999999999998 124.01 196.71999999999997 124.01Q197.49999999999997 124.01 198.04749999999996 123.695Q198.59499999999997 123.38 198.96999999999997 122.75L200.00499999999997 123.365Q199.45 124.28 198.60249999999996 124.73Q197.75499999999997 125.18 196.68999999999997 125.18Q195.56499999999997 125.18 194.73249999999996 124.685Q193.89999999999998 124.19 193.4425 123.28999999999999Q192.98499999999999 122.39 192.98499999999999 121.175Z M206.59 120.485Q206.59 119.375 206.11 118.8575Q205.63000000000002 118.34 204.73000000000002 118.34Q204.115 118.34 203.57500000000002 118.625Q203.03500000000003 118.91 202.645 119.45L201.685 118.73Q202.25500000000002 117.98 203.05 117.575Q203.84500000000003 117.17 204.76000000000002 117.17Q206.20000000000002 117.17 207.03250000000003 117.965Q207.865 118.76 207.865 120.455V125.0H206.59ZM201.46 122.915Q201.46 121.76 202.3 121.0925Q203.14000000000001 120.425 204.55 120.425H206.875V121.55H204.61Q203.71 121.55 203.22250000000003 121.88749999999999Q202.735 122.225 202.735 122.87Q202.735 123.425 203.09500000000003 123.7325Q203.455 124.04 204.13000000000002 124.04Q204.82000000000002 124.04 205.375 123.7175Q205.93 123.395 206.26 122.8475Q206.59 122.3 206.59 121.625L207.16000000000003 121.97Q207.16000000000003 122.9 206.74 123.6275Q206.32000000000002 124.355 205.58500000000004 124.76750000000001Q204.85000000000002 125.18 203.905 125.18Q203.155 125.18 202.60750000000002 124.9025Q202.06 124.625 201.76 124.11500000000001Q201.46 123.605 201.46 122.915Z M210.4 122.63V115.43L211.675 114.995V122.42Q211.675 123.26 211.97500000000002 123.59Q212.275 123.92 212.965 123.92Q213.19 123.92 213.4375 123.8825Q213.685 123.845 213.925 123.785V124.955Q213.64000000000001 125.03 213.31 125.075Q212.98 125.12 212.68 125.12Q211.96 125.12 211.45 124.8725Q210.94 124.625 210.67000000000002 124.0775Q210.4 123.53 210.4 122.63ZM209.11 117.35H213.505V118.505H209.11Z M216.685 125.0H215.41V117.35H216.685ZM215.215 115.08500000000001Q215.215 114.695 215.4475 114.47Q215.68 114.245 216.055 114.245Q216.445 114.245 216.67000000000002 114.47Q216.895 114.695 216.895 115.08500000000001Q216.895 115.46000000000001 216.67000000000002 115.6925Q216.445 115.925 216.055 115.925Q215.68 115.925 215.4475 115.6925Q215.215 115.46000000000001 215.215 115.08500000000001Z M222.055 124.175H221.515L224.2 117.35H225.52L222.415 125.0H221.065L217.96 117.35H219.37Z M226.375 121.175Q226.375 119.96 226.83249999999998 119.06Q227.29 118.16 228.1225 117.66499999999999Q228.95499999999998 117.17 230.065 117.17Q231.14499999999998 117.17 231.95499999999998 117.65Q232.765 118.13 233.21499999999997 119.0Q233.665 119.87 233.665 121.025V121.595H227.10999999999999V120.47H232.945L232.39 120.875Q232.39 120.11 232.09749999999997 119.53999999999999Q231.80499999999998 118.97 231.28749999999997 118.655Q230.76999999999998 118.34 230.065 118.34Q229.32999999999998 118.34 228.78249999999997 118.685Q228.23499999999999 119.03 227.9425 119.64500000000001Q227.65 120.26 227.65 121.085V121.175Q227.65 122.495 228.29500000000002 123.2525Q228.94 124.01 230.10999999999999 124.01Q230.89 124.01 231.4375 123.695Q231.98499999999999 123.38 232.35999999999999 122.75L233.39499999999998 123.365Q232.84 124.28 231.9925 124.73Q231.14499999999998 125.18 230.07999999999998 125.18Q228.95499999999998 125.18 228.1225 124.685Q227.29 124.19 226.83249999999998 123.28999999999999Q226.375 122.39 226.375 121.175Z M235.645 123.575H237.13L236.14 126.98H235.075Z M242.44 121.175Q242.44 119.96 242.89749999999998 119.06Q243.355 118.16 244.1875 117.66499999999999Q245.01999999999998 117.17 246.13 117.17Q247.20999999999998 117.17 248.01999999999998 117.65Q248.82999999999998 118.13 249.27999999999997 119.0Q249.73 119.87 249.73 121.025V121.595H243.17499999999998V120.47H249.01L248.45499999999998 120.875Q248.45499999999998 120.11 248.16249999999997 119.53999999999999Q247.86999999999998 118.97 247.35249999999996 118.655Q246.83499999999998 118.34 246.13 118.34Q245.39499999999998 118.34 244.84749999999997 118.685Q244.29999999999998 119.03 244.0075 119.64500000000001Q243.715 120.26 243.715 121.085V121.175Q243.715 122.495 244.36 123.2525Q245.005 124.01 246.17499999999998 124.01Q246.95499999999998 124.01 247.5025 123.695Q248.04999999999998 123.38 248.42499999999998 122.75L249.45999999999998 123.365Q248.905 124.28 248.0575 124.73Q247.20999999999998 125.18 246.14499999999998 125.18Q245.01999999999998 125.18 244.1875 124.685Q243.355 124.19 242.89749999999998 123.28999999999999Q242.44 122.39 242.44 121.175Z M251.32 117.35H252.595V119.555H252.115Q252.4 118.445 253.1725 117.8075Q253.945 117.17 254.965 117.17Q257.755 117.17 257.755 120.56V125.0H256.48V120.56Q256.48 119.42 256.03 118.88Q255.57999999999998 118.34 254.665 118.34Q254.07999999999998 118.34 253.6075 118.655Q253.135 118.97 252.865 119.525Q252.595 120.08 252.595 120.8V125.0H251.32Z M259.28499999999997 121.16Q259.28499999999997 119.945 259.7125 119.0525Q260.14 118.16 260.9125 117.66499999999999Q261.685 117.17 262.71999999999997 117.17Q263.78499999999997 117.17 264.59499999999997 117.7775Q265.405 118.385 265.735 119.54H265.3V114.005H266.575V125.0H265.3V122.81H265.735Q265.405 123.965 264.59499999999997 124.5725Q263.78499999999997 125.18 262.71999999999997 125.18Q261.685 125.18 260.9125 124.685Q260.14 124.19 259.7125 123.2825Q259.28499999999997 122.375 259.28499999999997 121.16ZM260.59 121.16Q260.59 121.97 260.86 122.6075Q261.13 123.245 261.655 123.61250000000001Q262.18 123.98 262.91499999999996 123.98Q263.66499999999996 123.98 264.205 123.6275Q264.745 123.275 265.03 122.6375Q265.315 122.0 265.315 121.16Q265.315 120.335 265.03 119.7125Q264.745 119.09 264.205 118.73Q263.66499999999996 118.37 262.91499999999996 118.37Q262.18 118.37 261.655 118.73750000000001Q261.13 119.105 260.86 119.735Q260.59 120.365 260.59 121.16Z M272.99499999999995 122.63V115.43L274.27 114.995V122.42Q274.27 123.26 274.56999999999994 123.59Q274.86999999999995 123.92 275.55999999999995 123.92Q275.78499999999997 123.92 276.03249999999997 123.8825Q276.28 123.845 276.52 123.785V124.955Q276.23499999999996 125.03 275.905 125.075Q275.575 125.12 275.275 125.12Q274.55499999999995 125.12 274.04499999999996 124.8725Q273.53499999999997 124.625 273.265 124.0775Q272.99499999999995 123.53 272.99499999999995 122.63ZM271.705 117.35H276.09999999999997V118.505H271.705Z M277.585 121.175Q277.585 120.005 278.03499999999997 119.0975Q278.485 118.19 279.31 117.68Q280.135 117.17 281.26 117.17Q282.385 117.17 283.21000000000004 117.68Q284.035 118.19 284.485 119.0975Q284.935 120.005 284.935 121.175Q284.935 122.345 284.485 123.245Q284.035 124.145 283.21000000000004 124.6625Q282.385 125.18 281.26 125.18Q280.135 125.18 279.31 124.6625Q278.485 124.145 278.03499999999997 123.245Q277.585 122.345 277.585 121.175ZM278.89 121.175Q278.89 122.0 279.17499999999995 122.6375Q279.46 123.275 279.99249999999995 123.6275Q280.525 123.98 281.26 123.98Q282.01 123.98 282.53499999999997 123.6275Q283.06 123.275 283.345 122.6375Q283.63 122.0 283.63 121.175Q283.63 120.335 283.345 119.705Q283.06 119.075 282.53499999999997 118.7225Q282.01 118.37 281.26 118.37Q280.525 118.37 279.99249999999995 118.7225Q279.46 119.075 279.17499999999995 119.705Q278.89 120.335 278.89 121.175Z M289.93 121.175Q289.93 119.96 290.38750000000005 119.06Q290.845 118.16 291.6775 117.66499999999999Q292.51000000000005 117.17 293.62 117.17Q294.70000000000005 117.17 295.51000000000005 117.65Q296.32000000000005 118.13 296.77000000000004 119.0Q297.22 119.87 297.22 121.025V121.595H290.665V120.47H296.5L295.94500000000005 120.875Q295.94500000000005 120.11 295.65250000000003 119.53999999999999Q295.36 118.97 294.84250000000003 118.655Q294.32500000000005 118.34 293.62 118.34Q292.88500000000005 118.34 292.33750000000003 118.685Q291.79 119.03 291.49750000000006 119.64500000000001Q291.20500000000004 120.26 291.20500000000004 121.085V121.175Q291.20500000000004 122.495 291.85 123.2525Q292.495 124.01 293.665 124.01Q294.44500000000005 124.01 294.99250000000006 123.695Q295.54 123.38 295.915 122.75L296.95000000000005 123.365Q296.39500000000004 124.28 295.5475 124.73Q294.70000000000005 125.18 293.63500000000005 125.18Q292.51000000000005 125.18 291.6775 124.685Q290.845 124.19 290.38750000000005 123.28999999999999Q289.93 122.39 289.93 121.175Z M298.81 117.35H300.085V119.555H299.605Q299.89 118.445 300.6625 117.8075Q301.435 117.17 302.455 117.17Q305.245 117.17 305.245 120.56V125.0H303.97V120.56Q303.97 119.42 303.52 118.88Q303.07 118.34 302.15500000000003 118.34Q301.57 118.34 301.09749999999997 118.655Q300.625 118.97 300.355 119.525Q300.085 120.08 300.085 120.8V125.0H298.81Z M306.775 121.16Q306.775 119.945 307.2025 119.0525Q307.63 118.16 308.40250000000003 117.66499999999999Q309.175 117.17 310.21 117.17Q311.275 117.17 312.085 117.7775Q312.895 118.385 313.225 119.54H312.79V114.005H314.065V125.0H312.79V122.81H313.225Q312.895 123.965 312.085 124.5725Q311.275 125.18 310.21 125.18Q309.175 125.18 308.40250000000003 124.685Q307.63 124.19 307.2025 123.2825Q306.775 122.375 306.775 121.16ZM308.08 121.16Q308.08 121.97 308.35 122.6075Q308.62 123.245 309.145 123.61250000000001Q309.67 123.98 310.405 123.98Q311.155 123.98 311.695 123.6275Q312.235 123.275 312.52 122.6375Q312.805 122.0 312.805 121.16Q312.805 120.335 312.52 119.7125Q312.235 119.09 311.695 118.73Q311.155 118.37 310.405 118.37Q309.67 118.37 309.145 118.73750000000001Q308.62 119.105 308.35 119.735Q308.08 120.365 308.08 121.16Z" fill="#9CA3AD"/>
<line x1="98" y1="131" x2="840" y2="131" stroke="#2B2E34"/>
<path d="M54,144 h16 a14,14 0 0 1 14,14 v16 a14,14 0 0 1 -14,14 h-16 a14,14 0 0 1 -14,-14 v-16 a14,14 0 0 1 14,-14 z" fill="#16243E"/>
<g transform="translate(51.0,155.0) scale(0.9166666666666666)" stroke="#5AA0FF" stroke-width="1.9" stroke-linecap="round" stroke-linejoin="round" fill="#5AA0FF"><path d="M6 4.5h8.5a2 2 0 0 1 2 2V19H8a2 2 0 0 1-2-2V4.5z" fill="none"/><path d="M9 8.5h5M9 11.5h5" fill="none"/></g>
<path d="M100.774 155.61Q100.774 153.594 101.539 152.10899999999998Q102.304 150.624 103.681 149.796Q105.05799999999999 148.968 106.912 148.968Q108.748 148.968 110.116 149.814Q111.484 150.66 112.312 152.226L110.35 153.252Q109.774 152.154 108.928 151.632Q108.082 151.11 106.912 151.11Q105.742 151.11 104.887 151.65Q104.032 152.19 103.564 153.207Q103.096 154.224 103.096 155.61Q103.096 156.978 103.564 157.995Q104.032 159.012 104.887 159.55200000000002Q105.742 160.092 106.912 160.092Q108.118 160.092 108.973 159.561Q109.828 159.03 110.386 157.95L112.366 158.994Q111.538 160.56 110.152 161.397Q108.766 162.234 106.912 162.234Q105.076 162.234 103.69 161.406Q102.304 160.578 101.539 159.09300000000002Q100.774 157.608 100.774 155.61Z M114.148 158.148V152.73H116.344V158.04Q116.344 159.174 116.794 159.70499999999998Q117.244 160.236 118.144 160.236Q118.738 160.236 119.179 159.93Q119.62 159.624 119.881 159.066Q120.142 158.508 120.142 157.788V152.73H122.338V162.0H120.16V159.426H120.718Q120.412 160.722 119.512 161.478Q118.612 162.234 117.424 162.234Q115.804 162.234 114.976 161.21699999999998Q114.148 160.2 114.148 158.148Z M124.498 152.73H126.676V155.286H126.11800000000001Q126.28 154.566 126.712 153.945Q127.144 153.324 127.756 152.937Q128.368 152.55 129.088 152.55Q129.268 152.55 129.448 152.568Q129.62800000000001 152.586 129.826 152.64V154.728Q129.466 154.656 129.034 154.656Q128.368 154.656 127.837 154.953Q127.30600000000001 155.25 127.0 155.826Q126.694 156.402 126.694 157.248V162.0H124.498Z M131.35600000000002 152.73H133.53400000000002V155.286H132.976Q133.138 154.566 133.57 153.945Q134.002 153.324 134.614 152.937Q135.226 152.55 135.946 152.55Q136.126 152.55 136.306 152.568Q136.48600000000002 152.586 136.684 152.64V154.728Q136.324 154.656 135.892 154.656Q135.226 154.656 134.695 154.953Q134.16400000000002 155.25 133.858 155.826Q133.55200000000002 156.402 133.55200000000002 157.248V162.0H131.35600000000002Z M137.746 157.374Q137.746 155.898 138.33100000000002 154.8Q138.91600000000003 153.702 139.96000000000004 153.09Q141.00400000000002 152.478 142.372 152.478Q143.776 152.478 144.784 153.09Q145.792 153.702 146.323 154.773Q146.854 155.844 146.854 157.194V157.968H138.91600000000003V156.402H145.61200000000002L144.71200000000002 156.96Q144.71200000000002 156.132 144.42400000000004 155.538Q144.13600000000002 154.944 143.62300000000002 154.62Q143.11 154.296 142.39000000000001 154.296Q141.67000000000002 154.296 141.11200000000002 154.63799999999998Q140.554 154.98 140.257 155.619Q139.96 156.258 139.96 157.158V157.482Q139.96 158.832 140.635 159.579Q141.31 160.326 142.51600000000002 160.326Q143.25400000000002 160.326 143.812 160.01999999999998Q144.37 159.714 144.76600000000002 159.102L146.45800000000003 160.128Q145.792 161.172 144.757 161.703Q143.722 162.234 142.44400000000002 162.234Q141.05800000000002 162.234 140.00500000000002 161.649Q138.95200000000003 161.064 138.34900000000002 159.975Q137.746 158.886 137.746 157.374Z M148.54600000000002 152.73H150.72400000000002V155.286H150.166Q150.49 154.008 151.39000000000001 153.243Q152.29000000000002 152.478 153.478 152.478Q156.77200000000002 152.478 156.77200000000002 156.564V162.0H154.57600000000002V156.69Q154.57600000000002 155.556 154.12600000000003 155.01600000000002Q153.67600000000002 154.476 152.758 154.476Q152.18200000000002 154.476 151.723 154.78199999999998Q151.264 155.088 151.00300000000001 155.64600000000002Q150.74200000000002 156.204 150.74200000000002 156.942V162.0H148.54600000000002Z M159.508 158.976V150.588L161.704 149.832V158.616Q161.704 159.498 162.02800000000002 159.831Q162.352 160.164 163.036 160.164Q163.306 160.164 163.594 160.119Q163.882 160.074 164.152 160.02V161.946Q163.792 162.036 163.351 162.099Q162.91 162.162 162.532 162.162Q161.632 162.162 160.948 161.856Q160.264 161.55 159.88600000000002 160.857Q159.508 160.164 159.508 158.976ZM158.068 152.73H163.702V154.674H158.068Z M165.754 148.806H167.95V162.0H165.754Z M170.074 164.034Q170.398 164.088 170.668 164.106Q170.938 164.124 171.19 164.124Q171.712 164.124 172.036 163.881Q172.36 163.638 172.63 162.918L173.35 161.028L173.584 160.992L176.716 152.73H178.984L174.718 163.386Q174.34 164.34 173.917 164.94299999999998Q173.494 165.546 172.918 165.834Q172.342 166.122 171.442 166.122Q171.154 166.122 170.79399999999998 166.09500000000003Q170.434 166.068 170.074 165.978ZM174.916 161.01 173.512 162.9 169.318 152.73H171.73Z" fill="#F2F4F8"/>
<path d="M104.455 172.95H105.175L101.545 183.0H100.21L104.155 172.335H105.535L109.48 183.0H108.085ZM107.74 180.375H102.115V179.16H107.74Z M118.87 181.005Q118.87 180.555 118.5625 180.285Q118.255 180.015 117.49 179.835L116.545 179.61Q115.33 179.31 114.7675 178.76999999999998Q114.205 178.23 114.205 177.345Q114.205 176.67 114.5575 176.1825Q114.91 175.695 115.555 175.4325Q116.2 175.17 117.085 175.17Q118.21 175.17 119.005 175.6575Q119.8 176.145 120.13 177.03L119.035 177.495Q118.795 176.88 118.255 176.61Q117.715 176.34 117.1 176.34Q116.32 176.34 115.9075 176.60250000000002Q115.495 176.865 115.495 177.33Q115.495 177.81 115.83250000000001 178.0275Q116.17 178.245 116.905 178.425L117.85 178.65Q119.05 178.935 119.60499999999999 179.4975Q120.16 180.06 120.16 180.99Q120.16 181.995 119.38 182.5875Q118.6 183.18 117.265 183.18Q116.005 183.18 115.1125 182.6325Q114.22 182.085 113.92 181.125L115.045 180.705Q115.285 181.35 115.84 181.68Q116.395 182.01 117.22 182.01Q118.03 182.01 118.45 181.755Q118.87 181.5 118.87 181.005Z M122.29 180.63V173.43L123.565 172.995V180.42Q123.565 181.26 123.86500000000001 181.58999999999997Q124.165 181.92 124.855 181.92Q125.08 181.92 125.3275 181.8825Q125.575 181.845 125.815 181.785V182.955Q125.53 183.03 125.2 183.075Q124.87 183.12 124.57000000000001 183.12Q123.85000000000001 183.12 123.34 182.8725Q122.83 182.625 122.56 182.0775Q122.29 181.53 122.29 180.63ZM121.0 175.35H125.395V176.505H121.0Z M127.24 179.79V175.35H128.51500000000001V179.79Q128.51500000000001 180.93 128.965 181.47Q129.415 182.01 130.315 182.01Q130.9 182.01 131.365 181.695Q131.83 181.38 132.10000000000002 180.8175Q132.37 180.255 132.37 179.55V175.35H133.645V183.0H132.37V180.795H132.85Q132.565 181.905 131.8 182.54250000000002Q131.035 183.18 130.01500000000001 183.18Q128.65 183.18 127.945 182.325Q127.24 181.47 127.24 179.79Z M135.235 179.16Q135.235 177.945 135.66250000000002 177.0525Q136.09 176.16 136.8625 175.665Q137.63500000000002 175.17 138.67000000000002 175.17Q139.735 175.17 140.54500000000002 175.77749999999997Q141.35500000000002 176.385 141.685 177.54H141.25V172.005H142.525V183.0H141.25V180.81H141.685Q141.35500000000002 181.965 140.54500000000002 182.5725Q139.735 183.18 138.67000000000002 183.18Q137.63500000000002 183.18 136.8625 182.685Q136.09 182.19 135.66250000000002 181.2825Q135.235 180.375 135.235 179.16ZM136.54 179.16Q136.54 179.97 136.81 180.60750000000002Q137.08 181.245 137.60500000000002 181.6125Q138.13 181.98 138.865 181.98Q139.615 181.98 140.155 181.6275Q140.695 181.275 140.98000000000002 180.6375Q141.26500000000001 180.0 141.26500000000001 179.16Q141.26500000000001 178.335 140.98000000000002 177.7125Q140.695 177.09 140.155 176.73000000000002Q139.615 176.37 138.865 176.37Q138.13 176.37 137.60500000000002 176.7375Q137.08 177.105 136.81 177.735Q136.54 178.365 136.54 179.16Z M144.115 179.175Q144.115 177.96 144.5725 177.06Q145.03 176.16 145.8625 175.665Q146.695 175.17 147.805 175.17Q148.885 175.17 149.695 175.64999999999998Q150.505 176.13 150.95499999999998 177.0Q151.405 177.87 151.405 179.025V179.595H144.85V178.47H150.685L150.13 178.875Q150.13 178.11 149.83749999999998 177.54000000000002Q149.545 176.97 149.02749999999997 176.655Q148.51 176.34 147.805 176.34Q147.07 176.34 146.52249999999998 176.685Q145.975 177.03 145.6825 177.64499999999998Q145.39000000000001 178.26 145.39000000000001 179.085V179.175Q145.39000000000001 180.495 146.03500000000003 181.2525Q146.68 182.01 147.85 182.01Q148.63 182.01 149.1775 181.695Q149.725 181.38 150.1 180.75L151.135 181.365Q150.58 182.28 149.73250000000002 182.73000000000002Q148.885 183.18 147.82 183.18Q146.695 183.18 145.8625 182.685Q145.03 182.19 144.5725 181.29Q144.115 180.39 144.115 179.175Z M152.995 175.35H154.27V177.555H153.79000000000002Q154.07500000000002 176.445 154.84750000000003 175.8075Q155.62 175.17 156.64000000000001 175.17Q159.43 175.17 159.43 178.56V183.0H158.155V178.56Q158.155 177.42 157.70499999999998 176.88Q157.255 176.34 156.34 176.34Q155.755 176.34 155.2825 176.655Q154.81 176.97 154.54000000000002 177.525Q154.27 178.08 154.27 178.8V183.0H152.995Z M161.965 180.63V173.43L163.24 172.995V180.42Q163.24 181.26 163.54000000000002 181.58999999999997Q163.84 181.92 164.53 181.92Q164.755 181.92 165.0025 181.8825Q165.25 181.845 165.49 181.785V182.955Q165.205 183.03 164.875 183.075Q164.545 183.12 164.245 183.12Q163.525 183.12 163.015 182.8725Q162.505 182.625 162.235 182.0775Q161.965 181.53 161.965 180.63ZM160.675 175.35H165.07V176.505H160.675Z M167.365 181.575H168.85L167.85999999999999 184.98H166.795Z M179.30499999999998 178.485Q179.30499999999998 177.375 178.825 176.85750000000002Q178.345 176.34 177.445 176.34Q176.82999999999998 176.34 176.29 176.625Q175.75 176.91 175.35999999999999 177.45L174.39999999999998 176.73Q174.97 175.98 175.765 175.575Q176.56 175.17 177.475 175.17Q178.915 175.17 179.7475 175.96499999999997Q180.57999999999998 176.76 180.57999999999998 178.455V183.0H179.30499999999998ZM174.17499999999998 180.915Q174.17499999999998 179.76 175.015 179.0925Q175.855 178.425 177.265 178.425H179.58999999999997V179.55H177.325Q176.42499999999998 179.55 175.9375 179.8875Q175.45 180.225 175.45 180.87Q175.45 181.425 175.81 181.73250000000002Q176.17 182.04 176.845 182.04Q177.535 182.04 178.08999999999997 181.7175Q178.64499999999998 181.395 178.97499999999997 180.84750000000003Q179.30499999999998 180.3 179.30499999999998 179.625L179.875 179.97Q179.875 180.9 179.45499999999998 181.6275Q179.035 182.355 178.3 182.76749999999998Q177.565 183.18 176.61999999999998 183.18Q175.86999999999998 183.18 175.3225 182.9025Q174.77499999999998 182.625 174.47499999999997 182.115Q174.17499999999998 181.605 174.17499999999998 180.915Z M182.52999999999997 172.005H183.80499999999998V183.0H182.52999999999997Z M190.09 175.35H191.425L193.645 182.46H192.925L195.145 175.35H196.435L193.96 183.0H192.55L190.36 176.07H191.11L188.965 183.0H187.555L185.08 175.35H186.445L188.65 182.46H187.9Z M202.43499999999997 178.485Q202.43499999999997 177.375 201.95499999999998 176.85750000000002Q201.475 176.34 200.575 176.34Q199.95999999999998 176.34 199.42 176.625Q198.88 176.91 198.48999999999998 177.45L197.52999999999997 176.73Q198.1 175.98 198.89499999999998 175.575Q199.69 175.17 200.605 175.17Q202.045 175.17 202.8775 175.96499999999997Q203.70999999999998 176.76 203.70999999999998 178.455V183.0H202.43499999999997ZM197.30499999999998 180.915Q197.30499999999998 179.76 198.14499999999998 179.0925Q198.98499999999999 178.425 200.39499999999998 178.425H202.71999999999997V179.55H200.45499999999998Q199.55499999999998 179.55 199.0675 179.8875Q198.57999999999998 180.225 198.57999999999998 180.87Q198.57999999999998 181.425 198.94 181.73250000000002Q199.29999999999998 182.04 199.975 182.04Q200.665 182.04 201.21999999999997 181.7175Q201.77499999999998 181.395 202.10499999999996 180.84750000000003Q202.43499999999997 180.3 202.43499999999997 179.625L203.005 179.97Q203.005 180.9 202.58499999999998 181.6275Q202.165 182.355 201.43 182.76749999999998Q200.695 183.18 199.74999999999997 183.18Q198.99999999999997 183.18 198.4525 182.9025Q197.90499999999997 182.625 197.60499999999996 182.115Q197.30499999999998 181.605 197.30499999999998 180.915Z M205.39000000000001 185.205Q205.63 185.25 205.85500000000002 185.27249999999998Q206.08 185.295 206.32 185.295Q206.77 185.295 207.055 185.0775Q207.34 184.86 207.58 184.23L208.225 182.565L208.36 182.49L211.165 175.35H212.485L208.765 184.545Q208.495 185.22 208.18 185.655Q207.865 186.09 207.4375 186.29250000000002Q207.01 186.495 206.38 186.495Q206.155 186.495 205.9 186.4725Q205.645 186.45 205.39000000000001 186.39ZM209.155 182.505 208.285 183.645 204.925 175.35H206.335Z M218.10999999999999 181.005Q218.10999999999999 180.555 217.8025 180.285Q217.495 180.015 216.73 179.835L215.785 179.61Q214.57 179.31 214.0075 178.76999999999998Q213.445 178.23 213.445 177.345Q213.445 176.67 213.7975 176.1825Q214.15 175.695 214.79500000000002 175.4325Q215.44 175.17 216.325 175.17Q217.45 175.17 218.245 175.6575Q219.04 176.145 219.37 177.03L218.275 177.495Q218.035 176.88 217.495 176.61Q216.95499999999998 176.34 216.34 176.34Q215.56 176.34 215.14749999999998 176.60250000000002Q214.73499999999999 176.865 214.73499999999999 177.33Q214.73499999999999 177.81 215.0725 178.0275Q215.41 178.245 216.14499999999998 178.425L217.09 178.65Q218.29 178.935 218.845 179.4975Q219.4 180.06 219.4 180.99Q219.4 181.995 218.62 182.5875Q217.84 183.18 216.505 183.18Q215.245 183.18 214.35250000000002 182.6325Q213.46 182.085 213.16 181.125L214.285 180.705Q214.525 181.35 215.07999999999998 181.68Q215.635 182.01 216.46 182.01Q217.26999999999998 182.01 217.69 181.755Q218.10999999999999 181.5 218.10999999999999 181.005Z M224.76999999999998 172.005H226.045V183.0H224.76999999999998Z M227.63500000000002 179.175Q227.63500000000002 177.96 228.09250000000003 177.06Q228.55 176.16 229.3825 175.665Q230.215 175.17 231.32500000000002 175.17Q232.405 175.17 233.215 175.64999999999998Q234.025 176.13 234.47500000000002 177.0Q234.925 177.87 234.925 179.025V179.595H228.37V178.47H234.205L233.65 178.875Q233.65 178.11 233.35750000000002 177.54000000000002Q233.065 176.97 232.5475 176.655Q232.03 176.34 231.32500000000002 176.34Q230.59 176.34 230.04250000000002 176.685Q229.495 177.03 229.20250000000001 177.64499999999998Q228.91000000000003 178.26 228.91000000000003 179.085V179.175Q228.91000000000003 180.495 229.555 181.2525Q230.20000000000002 182.01 231.37 182.01Q232.15 182.01 232.6975 181.695Q233.245 181.38 233.62 180.75L234.655 181.365Q234.10000000000002 182.28 233.2525 182.73000000000002Q232.405 183.18 231.34 183.18Q230.215 183.18 229.3825 182.685Q228.55 182.19 228.09250000000003 181.29Q227.63500000000002 180.39 227.63500000000002 179.175Z M241.23999999999998 178.485Q241.23999999999998 177.375 240.76 176.85750000000002Q240.28 176.34 239.38 176.34Q238.765 176.34 238.225 176.625Q237.685 176.91 237.295 177.45L236.33499999999998 176.73Q236.905 175.98 237.7 175.575Q238.495 175.17 239.41 175.17Q240.85 175.17 241.6825 175.96499999999997Q242.515 176.76 242.515 178.455V183.0H241.23999999999998ZM236.10999999999999 180.915Q236.10999999999999 179.76 236.95 179.0925Q237.79 178.425 239.2 178.425H241.52499999999998V179.55H239.26Q238.35999999999999 179.55 237.8725 179.8875Q237.385 180.225 237.385 180.87Q237.385 181.425 237.745 181.73250000000002Q238.105 182.04 238.78 182.04Q239.47 182.04 240.02499999999998 181.7175Q240.57999999999998 181.395 240.90999999999997 180.84750000000003Q241.23999999999998 180.3 241.23999999999998 179.625L241.81 179.97Q241.81 180.9 241.39 181.6275Q240.97 182.355 240.235 182.76749999999998Q239.5 183.18 238.55499999999998 183.18Q237.80499999999998 183.18 237.2575 182.9025Q236.70999999999998 182.625 236.40999999999997 182.115Q236.10999999999999 181.605 236.10999999999999 180.915Z M244.465 175.35H245.74V177.555H245.26000000000002Q245.425 176.88 245.8075 176.35500000000002Q246.19 175.83 246.715 175.5225Q247.24 175.215 247.84 175.215Q248.005 175.215 248.1625 175.23000000000002Q248.32 175.245 248.485 175.29V176.55Q248.23000000000002 176.49 247.85500000000002 176.49Q247.225 176.49 246.745 176.7825Q246.26500000000001 177.075 246.0025 177.6Q245.74 178.125 245.74 178.845V183.0H244.465Z M249.91 175.35H251.185V177.555H250.705Q250.99 176.445 251.7625 175.8075Q252.535 175.17 253.555 175.17Q256.345 175.17 256.345 178.56V183.0H255.07V178.56Q255.07 177.42 254.62 176.88Q254.17 176.34 253.255 176.34Q252.67 176.34 252.1975 176.655Q251.725 176.97 251.45499999999998 177.525Q251.185 178.08 251.185 178.8V183.0H249.91Z M259.56999999999994 183.0H258.29499999999996V175.35H259.56999999999994ZM258.09999999999997 173.085Q258.09999999999997 172.695 258.3325 172.47Q258.56499999999994 172.245 258.93999999999994 172.245Q259.3299999999999 172.245 259.55499999999995 172.47Q259.7799999999999 172.695 259.7799999999999 173.085Q259.7799999999999 173.46 259.55499999999995 173.6925Q259.3299999999999 173.925 258.93999999999994 173.925Q258.56499999999994 173.925 258.3325 173.6925Q258.09999999999997 173.46 258.09999999999997 173.085Z M261.58 175.35H262.85499999999996V177.555H262.375Q262.65999999999997 176.445 263.4325 175.8075Q264.205 175.17 265.22499999999997 175.17Q268.015 175.17 268.015 178.56V183.0H266.74V178.56Q266.74 177.42 266.28999999999996 176.88Q265.84 176.34 264.925 176.34Q264.34 176.34 263.86749999999995 176.655Q263.395 176.97 263.125 177.525Q262.85499999999996 178.08 262.85499999999996 178.8V183.0H261.58Z M275.56 182.88V180.705H275.935Q275.60499999999996 181.74 274.82499999999993 182.3175Q274.04499999999996 182.895 272.97999999999996 182.895Q271.945 182.895 271.1725 182.41500000000002Q270.4 181.935 269.97249999999997 181.0725Q269.54499999999996 180.21 269.54499999999996 179.04Q269.54499999999996 177.855 269.97249999999997 176.9925Q270.4 176.13 271.1725 175.64999999999998Q271.945 175.17 272.97999999999996 175.17Q274.04499999999996 175.17 274.85499999999996 175.77749999999997Q275.66499999999996 176.385 275.995 177.54H275.56V175.35H276.835V182.73Q276.835 184.05 276.385 184.8825Q275.935 185.715 275.155 186.10500000000002Q274.375 186.495 273.37 186.495Q272.275 186.495 271.375 186.015Q270.47499999999997 185.535 269.875 184.62L270.92499999999995 184.005Q271.315 184.62 271.945 184.95749999999998Q272.575 185.295 273.35499999999996 185.295Q274.35999999999996 185.295 274.96 184.71749999999997Q275.56 184.14 275.56 182.88ZM273.17499999999995 176.37Q272.44 176.37 271.91499999999996 176.715Q271.39 177.06 271.12 177.66750000000002Q270.84999999999997 178.275 270.84999999999997 179.04Q270.84999999999997 179.79 271.12 180.39749999999998Q271.39 181.005 271.91499999999996 181.35Q272.44 181.695 273.17499999999995 181.695Q273.92499999999995 181.695 274.465 181.35750000000002Q275.005 181.02 275.28999999999996 180.42000000000002Q275.575 179.82 275.575 179.04Q275.575 178.245 275.28999999999996 177.64499999999998Q275.005 177.045 274.465 176.70749999999998Q273.92499999999995 176.37 273.17499999999995 176.37Z" fill="#9CA3AD"/>
<line x1="98" y1="189" x2="840" y2="189" stroke="#2B2E34"/>
<path d="M54,202 h16 a14,14 0 0 1 14,14 v16 a14,14 0 0 1 -14,14 h-16 a14,14 0 0 1 -14,-14 v-16 a14,14 0 0 1 14,-14 z" fill="#16243E"/>
<g transform="translate(51.0,213.0) scale(0.9166666666666666)" stroke="#5AA0FF" stroke-width="1.9" stroke-linecap="round" stroke-linejoin="round" fill="#5AA0FF"><circle cx="12" cy="12" r="7.5" fill="none"/><circle cx="12" cy="12" r="3.4" fill="none"/></g>
<path d="M101.386 207.202H109.756V209.254H102.304L103.636 208.12V220.0H101.386ZM102.052 212.872H109.234V214.906H102.052Z M111.03399999999999 215.356Q111.03399999999999 213.916 111.601 212.81799999999998Q112.16799999999999 211.72 113.21199999999999 211.099Q114.256 210.478 115.624 210.478Q117.02799999999999 210.478 118.054 211.099Q119.08 211.72 119.656 212.81799999999998Q120.232 213.916 120.232 215.356Q120.232 216.796 119.656 217.894Q119.08 218.992 118.054 219.613Q117.02799999999999 220.234 115.624 220.234Q114.256 220.234 113.21199999999999 219.613Q112.16799999999999 218.992 111.601 217.894Q111.03399999999999 216.796 111.03399999999999 215.356ZM113.26599999999999 215.356Q113.26599999999999 216.202 113.554 216.85899999999998Q113.842 217.516 114.37299999999999 217.867Q114.904 218.218 115.624 218.218Q116.38 218.218 116.90199999999999 217.867Q117.42399999999999 217.516 117.71199999999999 216.85899999999998Q118.0 216.202 118.0 215.356Q118.0 214.492 117.71199999999999 213.853Q117.42399999999999 213.214 116.90199999999999 212.85399999999998Q116.38 212.494 115.624 212.494Q114.904 212.494 114.37299999999999 212.85399999999998Q113.842 213.214 113.554 213.853Q113.26599999999999 214.492 113.26599999999999 215.356Z M121.45599999999999 215.356Q121.45599999999999 213.916 122.023 212.81799999999998Q122.58999999999999 211.72 123.63399999999999 211.099Q124.678 210.478 126.04599999999999 210.478Q127.378 210.478 128.386 211.063Q129.394 211.648 129.988 212.854L128.152 213.808Q127.80999999999999 213.124 127.28799999999998 212.809Q126.76599999999999 212.494 126.04599999999999 212.494Q125.326 212.494 124.79499999999999 212.85399999999998Q124.264 213.214 123.976 213.853Q123.68799999999999 214.492 123.68799999999999 215.356Q123.68799999999999 216.652 124.327 217.435Q124.966 218.218 126.04599999999999 218.218Q126.76599999999999 218.218 127.35999999999999 217.894Q127.954 217.57 128.35 216.85L130.168 217.822Q129.57399999999998 218.974 128.503 219.60399999999998Q127.43199999999999 220.234 126.04599999999999 220.234Q124.678 220.234 123.63399999999999 219.613Q122.58999999999999 218.992 122.023 217.894Q121.45599999999999 216.796 121.45599999999999 215.356Z M131.626 216.148V210.73H133.822V216.04Q133.822 217.174 134.272 217.70499999999998Q134.722 218.236 135.62199999999999 218.236Q136.216 218.236 136.65699999999998 217.93Q137.09799999999998 217.624 137.35899999999998 217.066Q137.62 216.508 137.62 215.788V210.73H139.816V220.0H137.638V217.426H138.196Q137.89 218.722 136.99 219.478Q136.09 220.234 134.902 220.234Q133.28199999999998 220.234 132.454 219.21699999999998Q131.626 218.2 131.626 216.148Z M147.052 217.462Q147.052 217.066 146.773 216.823Q146.494 216.58 145.77399999999997 216.418L144.56799999999998 216.13Q143.03799999999998 215.77 142.327 215.077Q141.61599999999999 214.38400000000001 141.61599999999999 213.214Q141.61599999999999 212.35 142.084 211.738Q142.552 211.126 143.37099999999998 210.80200000000002Q144.19 210.478 145.25199999999998 210.478Q146.65599999999998 210.478 147.69099999999997 211.08100000000002Q148.726 211.684 149.176 212.836L147.42999999999998 213.502Q147.142 212.872 146.539 212.59300000000002Q145.93599999999998 212.314 145.28799999999998 212.314Q144.54999999999998 212.314 144.14499999999998 212.55700000000002Q143.73999999999998 212.8 143.73999999999998 213.232Q143.73999999999998 213.664 144.046 213.87099999999998Q144.35199999999998 214.078 145.03599999999997 214.24L146.242 214.528Q147.754 214.888 148.474 215.59Q149.194 216.292 149.194 217.48Q149.194 218.74 148.213 219.48700000000002Q147.232 220.234 145.522 220.234Q143.92 220.234 142.795 219.56799999999998Q141.67 218.902 141.256 217.678L143.05599999999998 217.03Q143.344 217.732 143.974 218.065Q144.60399999999998 218.398 145.486 218.398Q146.242 218.398 146.647 218.164Q147.052 217.93 147.052 217.462Z" fill="#F2F4F8"/>
<path d="M101.155 236.92V230.335H102.475V236.92Q102.475 237.985 102.805 238.6525Q103.135 239.32 103.75 239.6275Q104.365 239.935 105.22 239.935Q106.075 239.935 106.69 239.6275Q107.305 239.32 107.635 238.6525Q107.965 237.985 107.965 236.92V230.335H109.285V236.92Q109.285 238.36 108.78999999999999 239.305Q108.295 240.25 107.3875 240.715Q106.48 241.18 105.22 241.18Q103.96 241.18 103.0525 240.715Q102.145 240.25 101.65 239.305Q101.155 238.36 101.155 236.92Z M111.745 230.335H113.065V241.0H111.745Z M123.07 229.375H124.40499999999999L119.755 242.86H118.41999999999999Z M129.60999999999999 236.92V230.335H130.92999999999998V236.92Q130.92999999999998 237.985 131.26 238.6525Q131.58999999999997 239.32 132.20499999999998 239.6275Q132.82 239.935 133.67499999999998 239.935Q134.52999999999997 239.935 135.14499999999998 239.6275Q135.76 239.32 136.08999999999997 238.6525Q136.42 237.985 136.42 236.92V230.335H137.73999999999998V236.92Q137.73999999999998 238.36 137.24499999999998 239.305Q136.74999999999997 240.25 135.84249999999997 240.715Q134.93499999999997 241.18 133.67499999999998 241.18Q132.415 241.18 131.5075 240.715Q130.6 240.25 130.105 239.305Q129.60999999999999 238.36 129.60999999999999 236.92Z M140.89 241.0H139.43499999999997L143.17 235.3L143.515 235.12L146.635 230.335H148.08999999999997L144.415 235.9L144.07 236.08ZM144.04 235.03 144.355 235.18 148.165 241.0H146.635L143.49999999999997 236.14L143.18499999999997 236.005L139.54 230.335H141.07Z M153.58 235.54Q153.58 235.14999999999998 153.8125 234.92499999999998Q154.045 234.7 154.42 234.7Q154.81 234.7 155.035 234.92499999999998Q155.26 235.14999999999998 155.26 235.54Q155.26 235.915 155.035 236.14749999999998Q154.81 236.38 154.42 236.38Q154.045 236.38 153.8125 236.14749999999998Q153.58 235.915 153.58 235.54Z M165.325 240.505H164.53L168.11499999999998 230.335H169.465L165.595 241.0H164.215L160.345 230.335H161.73999999999998Z M171.955 241.0H170.68V233.35H171.955ZM170.485 231.085Q170.485 230.695 170.71750000000003 230.47Q170.95000000000002 230.245 171.32500000000002 230.245Q171.715 230.245 171.94 230.47Q172.16500000000002 230.695 172.16500000000002 231.085Q172.16500000000002 231.46 171.94 231.6925Q171.715 231.925 171.32500000000002 231.925Q170.95000000000002 231.925 170.71750000000003 231.6925Q170.485 231.46 170.485 231.085Z M178.31499999999997 239.005Q178.31499999999997 238.555 178.0075 238.285Q177.7 238.015 176.93499999999997 237.835L175.98999999999998 237.61Q174.77499999999998 237.31 174.21249999999998 236.76999999999998Q173.64999999999998 236.23 173.64999999999998 235.345Q173.64999999999998 234.67 174.0025 234.1825Q174.355 233.695 175.0 233.4325Q175.64499999999998 233.17 176.52999999999997 233.17Q177.65499999999997 233.17 178.45 233.6575Q179.24499999999998 234.145 179.575 235.03L178.48 235.495Q178.23999999999998 234.88 177.7 234.61Q177.15999999999997 234.34 176.545 234.34Q175.765 234.34 175.35249999999996 234.60250000000002Q174.93999999999997 234.865 174.93999999999997 235.33Q174.93999999999997 235.81 175.27749999999997 236.0275Q175.61499999999998 236.245 176.34999999999997 236.425L177.295 236.65Q178.49499999999998 236.935 179.04999999999998 237.4975Q179.605 238.06 179.605 238.99Q179.605 239.995 178.825 240.5875Q178.045 241.18 176.70999999999998 241.18Q175.45 241.18 174.5575 240.6325Q173.665 240.085 173.36499999999998 239.125L174.48999999999998 238.705Q174.73 239.35 175.28499999999997 239.68Q175.83999999999997 240.01 176.665 240.01Q177.47499999999997 240.01 177.89499999999998 239.755Q178.31499999999997 239.5 178.31499999999997 239.005Z M181.08999999999997 237.79V233.35H182.36499999999998V237.79Q182.36499999999998 238.93 182.815 239.47Q183.265 240.01 184.165 240.01Q184.74999999999997 240.01 185.21499999999997 239.695Q185.67999999999998 239.38 185.95 238.8175Q186.21999999999997 238.255 186.21999999999997 237.55V233.35H187.49499999999998V241.0H186.21999999999997V238.795H186.7Q186.415 239.905 185.64999999999998 240.54250000000002Q184.885 241.18 183.86499999999998 241.18Q182.49999999999997 241.18 181.79499999999996 240.325Q181.08999999999997 239.47 181.08999999999997 237.79Z M194.23 236.485Q194.23 235.375 193.75 234.85750000000002Q193.27 234.34 192.37 234.34Q191.755 234.34 191.215 234.625Q190.675 234.91 190.285 235.45L189.325 234.73Q189.895 233.98 190.69 233.575Q191.485 233.17 192.4 233.17Q193.84 233.17 194.6725 233.96499999999997Q195.505 234.76 195.505 236.455V241.0H194.23ZM189.1 238.915Q189.1 237.76 189.94 237.0925Q190.78 236.425 192.19 236.425H194.515V237.55H192.25Q191.35 237.55 190.8625 237.8875Q190.375 238.225 190.375 238.87Q190.375 239.425 190.735 239.73250000000002Q191.095 240.04 191.77 240.04Q192.46 240.04 193.015 239.7175Q193.57 239.395 193.89999999999998 238.84750000000003Q194.23 238.3 194.23 237.625L194.8 237.97Q194.8 238.9 194.38 239.6275Q193.96 240.355 193.22500000000002 240.76749999999998Q192.49 241.18 191.545 241.18Q190.795 241.18 190.2475 240.9025Q189.7 240.625 189.39999999999998 240.115Q189.1 239.605 189.1 238.915Z M197.45499999999998 230.005H198.73V241.0H197.45499999999998Z M204.61 235.54Q204.61 235.14999999999998 204.8425 234.92499999999998Q205.075 234.7 205.45 234.7Q205.84 234.7 206.065 234.92499999999998Q206.29 235.14999999999998 206.29 235.54Q206.29 235.915 206.065 236.14749999999998Q205.84 236.38 205.45 236.38Q205.075 236.38 204.8425 236.14749999999998Q204.61 235.915 204.61 235.54Z M212.47 230.335H216.08499999999998Q217.39 230.335 218.2 230.695Q219.01 231.055 219.39249999999998 231.6775Q219.77499999999998 232.3 219.77499999999998 233.095Q219.77499999999998 233.92 219.39249999999998 234.52749999999997Q219.01 235.135 218.2525 235.46499999999997Q217.495 235.795 216.34 235.795L216.51999999999998 235.345Q217.75 235.345 218.56 235.6825Q219.37 236.02 219.77499999999998 236.635Q220.17999999999998 237.25 220.17999999999998 238.09Q220.17999999999998 238.915 219.77499999999998 239.575Q219.37 240.235 218.515 240.6175Q217.66 241.0 216.28 241.0H212.47ZM218.85999999999999 237.97Q218.85999999999999 237.13 218.21499999999997 236.665Q217.57 236.2 216.23499999999999 236.2H213.23499999999999V235.015H216.07Q217.315 235.015 217.885 234.535Q218.45499999999998 234.055 218.45499999999998 233.23Q218.45499999999998 232.435 217.8775 231.985Q217.29999999999998 231.535 216.07 231.535H213.76V239.8H216.23499999999999Q217.57 239.8 218.21499999999997 239.3125Q218.85999999999999 238.825 218.85999999999999 237.97Z M221.995 233.35H223.27V235.555H222.79000000000002Q222.955 234.88 223.3375 234.35500000000002Q223.72 233.83 224.245 233.5225Q224.77 233.215 225.37 233.215Q225.535 233.215 225.6925 233.23000000000002Q225.85000000000002 233.245 226.01500000000001 233.29V234.55Q225.76000000000002 234.49 225.38500000000002 234.49Q224.755 234.49 224.275 234.7825Q223.79500000000002 235.075 223.53250000000003 235.6Q223.27 236.125 223.27 236.845V241.0H221.995Z M232.165 236.485Q232.165 235.375 231.685 234.85750000000002Q231.205 234.34 230.305 234.34Q229.69 234.34 229.15 234.625Q228.61 234.91 228.22 235.45L227.26 234.73Q227.83 233.98 228.625 233.575Q229.42000000000002 233.17 230.335 233.17Q231.775 233.17 232.60750000000002 233.96499999999997Q233.44 234.76 233.44 236.455V241.0H232.165ZM227.035 238.915Q227.035 237.76 227.875 237.0925Q228.715 236.425 230.125 236.425H232.45V237.55H230.185Q229.285 237.55 228.7975 237.8875Q228.31 238.225 228.31 238.87Q228.31 239.425 228.67000000000002 239.73250000000002Q229.03 240.04 229.705 240.04Q230.395 240.04 230.95 239.7175Q231.505 239.395 231.83499999999998 238.84750000000003Q232.165 238.3 232.165 237.625L232.735 237.97Q232.735 238.9 232.315 239.6275Q231.895 240.355 231.16000000000003 240.76749999999998Q230.425 241.18 229.48 241.18Q228.73 241.18 228.1825 240.9025Q227.635 240.625 227.33499999999998 240.115Q227.035 239.605 227.035 238.915Z M235.39 233.35H236.665V235.555H236.185Q236.47 234.445 237.2425 233.8075Q238.015 233.17 239.035 233.17Q241.825 233.17 241.825 236.56V241.0H240.54999999999998V236.56Q240.54999999999998 235.42 240.09999999999997 234.88Q239.64999999999998 234.34 238.73499999999999 234.34Q238.14999999999998 234.34 237.67749999999998 234.655Q237.20499999999998 234.97 236.935 235.525Q236.665 236.08 236.665 236.8V241.0H235.39Z M243.355 237.16Q243.355 235.945 243.78249999999997 235.0525Q244.20999999999998 234.16 244.9825 233.665Q245.755 233.17 246.79 233.17Q247.855 233.17 248.665 233.77749999999997Q249.475 234.385 249.80499999999998 235.54H249.36999999999998V230.005H250.64499999999998V241.0H249.36999999999998V238.81H249.80499999999998Q249.475 239.965 248.665 240.5725Q247.855 241.18 246.79 241.18Q245.755 241.18 244.9825 240.685Q244.20999999999998 240.19 243.78249999999997 239.2825Q243.355 238.375 243.355 237.16ZM244.65999999999997 237.16Q244.65999999999997 237.97 244.92999999999998 238.60750000000002Q245.2 239.245 245.72499999999997 239.6125Q246.24999999999997 239.98 246.98499999999999 239.98Q247.73499999999999 239.98 248.27499999999998 239.6275Q248.81499999999997 239.275 249.09999999999997 238.6375Q249.385 238.0 249.385 237.16Q249.385 236.335 249.09999999999997 235.7125Q248.81499999999997 235.09 248.27499999999998 234.73000000000002Q247.73499999999999 234.37 246.98499999999999 234.37Q246.24999999999997 234.37 245.72499999999997 234.7375Q245.2 235.105 244.92999999999998 235.735Q244.65999999999997 236.365 244.65999999999997 237.16Z M253.93 241.0H252.655V233.35H253.93ZM252.46 231.085Q252.46 230.695 252.6925 230.47Q252.925 230.245 253.3 230.245Q253.69 230.245 253.91500000000002 230.47Q254.14000000000001 230.695 254.14000000000001 231.085Q254.14000000000001 231.46 253.91500000000002 231.6925Q253.69 231.925 253.3 231.925Q252.925 231.925 252.6925 231.6925Q252.46 231.46 252.46 231.085Z M255.94 233.35H257.215V235.555H256.735Q257.02 234.445 257.7925 233.8075Q258.565 233.17 259.585 233.17Q262.375 233.17 262.375 236.56V241.0H261.1V236.56Q261.1 235.42 260.65 234.88Q260.2 234.34 259.285 234.34Q258.7 234.34 258.22749999999996 234.655Q257.755 234.97 257.485 235.525Q257.215 236.08 257.215 236.8V241.0H255.94Z M269.92 240.88V238.705H270.295Q269.965 239.74 269.18499999999995 240.3175Q268.405 240.895 267.34 240.895Q266.305 240.895 265.5325 240.41500000000002Q264.76 239.935 264.3325 239.0725Q263.905 238.21 263.905 237.04Q263.905 235.855 264.3325 234.9925Q264.76 234.13 265.5325 233.64999999999998Q266.305 233.17 267.34 233.17Q268.405 233.17 269.215 233.77749999999997Q270.025 234.385 270.355 235.54H269.92V233.35H271.195V240.73Q271.195 242.05 270.745 242.8825Q270.295 243.715 269.515 244.10500000000002Q268.735 244.495 267.73 244.495Q266.635 244.495 265.735 244.015Q264.835 243.535 264.235 242.62L265.28499999999997 242.005Q265.675 242.62 266.305 242.95749999999998Q266.935 243.295 267.715 243.295Q268.71999999999997 243.295 269.32 242.71749999999997Q269.92 242.14 269.92 240.88ZM267.53499999999997 234.37Q266.8 234.37 266.275 234.715Q265.75 235.06 265.48 235.66750000000002Q265.21 236.275 265.21 237.04Q265.21 237.79 265.48 238.39749999999998Q265.75 239.005 266.275 239.35Q266.8 239.695 267.53499999999997 239.695Q268.28499999999997 239.695 268.825 239.35750000000002Q269.365 239.02 269.65 238.42000000000002Q269.935 237.82 269.935 237.04Q269.935 236.245 269.65 235.64499999999998Q269.365 235.045 268.825 234.70749999999998Q268.28499999999997 234.37 267.53499999999997 234.37Z" fill="#9CA3AD"/>
<line x1="98" y1="247" x2="840" y2="247" stroke="#2B2E34"/>
<path d="M54,260 h16 a14,14 0 0 1 14,14 v16 a14,14 0 0 1 -14,14 h-16 a14,14 0 0 1 -14,-14 v-16 a14,14 0 0 1 14,-14 z" fill="#16243E"/>
<g transform="translate(51.0,271.0) scale(0.9166666666666666)" stroke="#5AA0FF" stroke-width="1.9" stroke-linecap="round" stroke-linejoin="round" fill="#5AA0FF"><path d="M12 3.5l1.7 4.6 4.8 1.7-4.8 1.7L12 16.3l-1.7-4.8L5.5 9.8l4.8-1.7z"/></g>
<path d="M101.386 265.202H104.338L108.44200000000001 275.804H107.884L111.862 265.202H114.814V278.0H112.672V266.156H113.5L109.09 278.0H107.11L102.574 266.156H103.51V278.0H101.386Z M119.476 278.0H117.28V268.73H119.476ZM117.1 266.048Q117.1 265.454 117.46000000000001 265.11199999999997Q117.82000000000001 264.77 118.396 264.77Q118.99 264.77 119.34100000000001 265.11199999999997Q119.69200000000001 265.454 119.69200000000001 266.048Q119.69200000000001 266.62399999999997 119.34100000000001 266.984Q118.99 267.344 118.396 267.344Q117.82000000000001 267.344 117.46000000000001 266.984Q117.1 266.62399999999997 117.1 266.048Z M121.654 268.73H123.832V271.286H123.274Q123.598 270.008 124.49799999999999 269.243Q125.398 268.478 126.586 268.478Q129.88 268.478 129.88 272.564V278.0H127.684V272.69Q127.684 271.556 127.234 271.01599999999996Q126.78399999999999 270.476 125.866 270.476Q125.28999999999999 270.476 124.83099999999999 270.78200000000004Q124.372 271.088 124.11099999999999 271.646Q123.85 272.204 123.85 272.942V278.0H121.654Z M131.5 273.356Q131.5 271.862 132.00400000000002 270.773Q132.508 269.684 133.417 269.081Q134.326 268.478 135.568 268.478Q136.792 268.478 137.719 269.207Q138.64600000000002 269.936 138.988 271.25H138.43V264.806H140.626V278.0H138.448V275.444H138.988Q138.62800000000001 276.758 137.70100000000002 277.496Q136.774 278.234 135.568 278.234Q134.326 278.234 133.417 277.64Q132.508 277.046 132.00400000000002 275.948Q131.5 274.85 131.5 273.356ZM133.732 273.356Q133.732 274.184 134.011 274.832Q134.29 275.48 134.812 275.84900000000005Q135.334 276.218 136.072 276.218Q136.81 276.218 137.341 275.867Q137.872 275.516 138.16000000000003 274.85900000000004Q138.448 274.202 138.448 273.356Q138.448 272.492 138.16000000000003 271.862Q137.872 271.232 137.341 270.86300000000006Q136.81 270.494 136.072 270.494Q135.334 270.494 134.812 270.86300000000006Q134.29 271.232 134.011 271.871Q133.732 272.51 133.732 273.356Z M147.862 275.462Q147.862 275.066 147.583 274.823Q147.304 274.58 146.58399999999997 274.418L145.378 274.13Q143.84799999999998 273.77 143.137 273.077Q142.426 272.384 142.426 271.214Q142.426 270.35 142.894 269.738Q143.362 269.126 144.18099999999998 268.802Q145.0 268.478 146.06199999999998 268.478Q147.46599999999998 268.478 148.50099999999998 269.081Q149.536 269.684 149.986 270.836L148.23999999999998 271.502Q147.952 270.872 147.349 270.593Q146.74599999999998 270.314 146.09799999999998 270.314Q145.35999999999999 270.314 144.95499999999998 270.557Q144.54999999999998 270.8 144.54999999999998 271.232Q144.54999999999998 271.664 144.856 271.871Q145.16199999999998 272.078 145.84599999999998 272.24L147.052 272.528Q148.564 272.888 149.284 273.59Q150.004 274.292 150.004 275.48Q150.004 276.74 149.023 277.48699999999997Q148.042 278.234 146.332 278.234Q144.73 278.234 143.605 277.568Q142.48 276.902 142.066 275.678L143.86599999999999 275.03Q144.154 275.732 144.784 276.06500000000005Q145.414 276.398 146.296 276.398Q147.052 276.398 147.457 276.164Q147.862 275.93 147.862 275.462Z M151.19199999999998 273.374Q151.19199999999998 271.898 151.777 270.8Q152.362 269.702 153.406 269.09000000000003Q154.45 268.478 155.81799999999998 268.478Q157.22199999999998 268.478 158.22999999999996 269.09000000000003Q159.23799999999997 269.702 159.76899999999998 270.773Q160.29999999999998 271.844 160.29999999999998 273.194V273.968H152.362V272.402H159.058L158.158 272.96Q158.158 272.132 157.87 271.538Q157.582 270.944 157.069 270.62Q156.55599999999998 270.296 155.83599999999998 270.296Q155.11599999999999 270.296 154.558 270.63800000000003Q153.99999999999997 270.98 153.70299999999997 271.619Q153.40599999999998 272.258 153.40599999999998 273.158V273.482Q153.40599999999998 274.832 154.08099999999996 275.579Q154.75599999999997 276.326 155.962 276.326Q156.7 276.326 157.25799999999998 276.02Q157.81599999999997 275.714 158.212 275.102L159.904 276.128Q159.23799999999997 277.172 158.20299999999997 277.703Q157.16799999999998 278.234 155.89 278.234Q154.504 278.234 153.451 277.649Q152.398 277.064 151.795 275.975Q151.19199999999998 274.886 151.19199999999998 273.374Z M162.64 274.976V266.588L164.83599999999998 265.832V274.616Q164.83599999999998 275.498 165.15999999999997 275.831Q165.48399999999998 276.164 166.16799999999998 276.164Q166.438 276.164 166.726 276.119Q167.01399999999998 276.074 167.284 276.02V277.946Q166.92399999999998 278.036 166.48299999999998 278.099Q166.04199999999997 278.162 165.664 278.162Q164.76399999999998 278.162 164.07999999999998 277.856Q163.396 277.55 163.01799999999997 276.85699999999997Q162.64 276.164 162.64 274.976ZM161.2 268.73H166.83399999999997V270.674H161.2Z" fill="#F2F4F8"/>
<path d="M100.735 293.675Q100.735 291.995 101.35 290.7575Q101.965 289.52 103.09 288.8375Q104.215 288.155 105.73 288.155Q107.17 288.155 108.28 288.8225Q109.39 289.49 110.08 290.78L108.94 291.38Q108.41499999999999 290.375 107.6125 289.8875Q106.81 289.4 105.73 289.4Q104.605 289.4 103.7875 289.9175Q102.97 290.435 102.5275 291.395Q102.085 292.355 102.085 293.675Q102.085 294.98 102.5275 295.94Q102.97 296.9 103.7875 297.4175Q104.605 297.935 105.73 297.935Q106.84 297.935 107.6575 297.44Q108.475 296.945 109.0 295.97L110.14 296.585Q109.45 297.86 108.325 298.52Q107.2 299.18 105.73 299.18Q104.215 299.18 103.09 298.4975Q101.965 297.815 101.35 296.5775Q100.735 295.34 100.735 293.675Z M111.88 288.005H113.155V299.0H111.88Z M114.74499999999999 295.175Q114.74499999999999 293.96 115.20249999999999 293.06Q115.66 292.16 116.4925 291.665Q117.325 291.17 118.435 291.17Q119.515 291.17 120.32499999999999 291.65Q121.13499999999999 292.13 121.585 293.0Q122.035 293.87 122.035 295.025V295.595H115.47999999999999V294.47H121.315L120.75999999999999 294.875Q120.75999999999999 294.11 120.4675 293.54Q120.175 292.97 119.6575 292.655Q119.14 292.34 118.435 292.34Q117.7 292.34 117.1525 292.68499999999995Q116.60499999999999 293.03 116.3125 293.645Q116.02 294.26 116.02 295.085V295.175Q116.02 296.495 116.66499999999999 297.2525Q117.31 298.01 118.47999999999999 298.01Q119.25999999999999 298.01 119.80749999999999 297.695Q120.35499999999999 297.38 120.72999999999999 296.75L121.765 297.365Q121.21 298.28 120.3625 298.73Q119.515 299.18 118.45 299.18Q117.325 299.18 116.4925 298.685Q115.66 298.19 115.20249999999999 297.28999999999996Q114.74499999999999 296.39 114.74499999999999 295.175Z M128.35 294.485Q128.35 293.375 127.87 292.85749999999996Q127.39 292.34 126.49000000000001 292.34Q125.875 292.34 125.33500000000001 292.625Q124.795 292.91 124.405 293.45L123.44500000000001 292.73Q124.015 291.98 124.81 291.57500000000005Q125.605 291.17 126.52000000000001 291.17Q127.96000000000001 291.17 128.79250000000002 291.96500000000003Q129.625 292.76 129.625 294.455V299.0H128.35ZM123.22 296.915Q123.22 295.76 124.06 295.0925Q124.9 294.425 126.31 294.425H128.635V295.55H126.37Q125.47 295.55 124.9825 295.88750000000005Q124.495 296.225 124.495 296.87Q124.495 297.425 124.855 297.7325Q125.215 298.04 125.89 298.04Q126.58 298.04 127.13499999999999 297.7175Q127.69 297.395 128.01999999999998 296.84749999999997Q128.35 296.3 128.35 295.625L128.92000000000002 295.97Q128.92000000000002 296.9 128.5 297.6275Q128.08 298.355 127.345 298.76750000000004Q126.61 299.18 125.665 299.18Q124.915 299.18 124.3675 298.90250000000003Q123.82000000000001 298.625 123.52000000000001 298.115Q123.22 297.605 123.22 296.915Z M131.575 291.35H132.85V293.555H132.37Q132.655 292.445 133.4275 291.8075Q134.2 291.17 135.22 291.17Q138.01 291.17 138.01 294.56V299.0H136.73499999999999V294.56Q136.73499999999999 293.42 136.28499999999997 292.88Q135.83499999999998 292.34 134.92 292.34Q134.33499999999998 292.34 133.86249999999998 292.655Q133.39 292.97 133.12 293.525Q132.85 294.08 132.85 294.8V299.0H131.575Z M140.35 297.575H141.83499999999998L140.84499999999997 300.98H139.77999999999997Z M147.565 291.35H148.84V293.555H148.36Q148.57 292.775 148.99 292.24249999999995Q149.41 291.71 149.965 291.44Q150.52 291.17 151.15 291.17Q152.17000000000002 291.17 152.815 291.7325Q153.46 292.295 153.67000000000002 293.45H153.205Q153.55 292.34 154.35250000000002 291.755Q155.155 291.17 156.085 291.17Q157.42000000000002 291.17 158.065 292.025Q158.71 292.88 158.71 294.56V299.0H157.435V294.56Q157.435 293.42 157.0075 292.88Q156.58 292.34 155.74 292.34Q155.23 292.34 154.78 292.6475Q154.33 292.955 154.0525 293.495Q153.775 294.035 153.775 294.74V299.0H152.5V294.56Q152.5 293.42 152.07999999999998 292.88Q151.66 292.34 150.805 292.34Q150.29500000000002 292.34 149.84500000000003 292.655Q149.395 292.97 149.1175 293.51750000000004Q148.84 294.065 148.84 294.77V299.0H147.565Z M161.935 299.0H160.66V291.35H161.935ZM160.465 289.085Q160.465 288.695 160.6975 288.47Q160.93 288.245 161.305 288.245Q161.695 288.245 161.92000000000002 288.47Q162.145 288.695 162.145 289.085Q162.145 289.46 161.92000000000002 289.6925Q161.695 289.925 161.305 289.925Q160.93 289.925 160.6975 289.6925Q160.465 289.46 160.465 289.085Z M163.945 291.35H165.22V293.555H164.74Q165.025 292.445 165.7975 291.8075Q166.57 291.17 167.59 291.17Q170.38 291.17 170.38 294.56V299.0H169.105V294.56Q169.105 293.42 168.65499999999997 292.88Q168.20499999999998 292.34 167.29 292.34Q166.70499999999998 292.34 166.2325 292.655Q165.76 292.97 165.49 293.525Q165.22 294.08 165.22 294.8V299.0H163.945Z M173.605 299.0H172.32999999999998V291.35H173.605ZM172.135 289.085Q172.135 288.695 172.3675 288.47Q172.6 288.245 172.975 288.245Q173.36499999999998 288.245 173.58999999999997 288.47Q173.815 288.695 173.815 289.085Q173.815 289.46 173.58999999999997 289.6925Q173.36499999999998 289.925 172.975 289.925Q172.6 289.925 172.3675 289.6925Q172.135 289.46 172.135 289.085Z M175.615 291.35H176.89000000000001V293.555H176.41000000000003Q176.62 292.775 177.04000000000002 292.24249999999995Q177.46 291.71 178.01500000000001 291.44Q178.57000000000002 291.17 179.20000000000002 291.17Q180.22000000000003 291.17 180.865 291.7325Q181.51000000000002 292.295 181.72000000000003 293.45H181.25500000000002Q181.60000000000002 292.34 182.40250000000003 291.755Q183.205 291.17 184.13500000000002 291.17Q185.47000000000003 291.17 186.115 292.025Q186.76000000000002 292.88 186.76000000000002 294.56V299.0H185.485V294.56Q185.485 293.42 185.0575 292.88Q184.63000000000002 292.34 183.79000000000002 292.34Q183.28 292.34 182.83 292.6475Q182.38000000000002 292.955 182.10250000000002 293.495Q181.82500000000002 294.035 181.82500000000002 294.74V299.0H180.55V294.56Q180.55 293.42 180.13 292.88Q179.71 292.34 178.85500000000002 292.34Q178.34500000000003 292.34 177.89500000000004 292.655Q177.44500000000002 292.97 177.16750000000002 293.51750000000004Q176.89000000000001 294.065 176.89000000000001 294.77V299.0H175.615Z M193.43499999999997 294.485Q193.43499999999997 293.375 192.95499999999998 292.85749999999996Q192.475 292.34 191.575 292.34Q190.95999999999998 292.34 190.42 292.625Q189.88 292.91 189.48999999999998 293.45L188.52999999999997 292.73Q189.1 291.98 189.89499999999998 291.57500000000005Q190.69 291.17 191.605 291.17Q193.045 291.17 193.8775 291.96500000000003Q194.70999999999998 292.76 194.70999999999998 294.455V299.0H193.43499999999997ZM188.30499999999998 296.915Q188.30499999999998 295.76 189.14499999999998 295.0925Q189.98499999999999 294.425 191.39499999999998 294.425H193.71999999999997V295.55H191.45499999999998Q190.55499999999998 295.55 190.0675 295.88750000000005Q189.57999999999998 296.225 189.57999999999998 296.87Q189.57999999999998 297.425 189.94 297.7325Q190.29999999999998 298.04 190.975 298.04Q191.665 298.04 192.21999999999997 297.7175Q192.77499999999998 297.395 193.10499999999996 296.84749999999997Q193.43499999999997 296.3 193.43499999999997 295.625L194.005 295.97Q194.005 296.9 193.58499999999998 297.6275Q193.165 298.355 192.43 298.76750000000004Q191.695 299.18 190.74999999999997 299.18Q189.99999999999997 299.18 189.4525 298.90250000000003Q188.90499999999997 298.625 188.60499999999996 298.115Q188.30499999999998 297.605 188.30499999999998 296.915Z M196.66 288.005H197.935V299.0H196.66Z M200.335 297.575H201.82L200.82999999999998 300.98H199.765Z M210.91000000000003 298.175H210.37L213.055 291.35H214.37500000000003L211.27 299.0H209.92000000000002L206.81500000000003 291.35H208.22500000000002Z M215.23 295.175Q215.23 293.96 215.6875 293.06Q216.14499999999998 292.16 216.97749999999996 291.665Q217.80999999999997 291.17 218.92 291.17Q219.99999999999997 291.17 220.80999999999997 291.65Q221.61999999999998 292.13 222.07 293.0Q222.51999999999998 293.87 222.51999999999998 295.025V295.595H215.96499999999997V294.47H221.79999999999998L221.24499999999998 294.875Q221.24499999999998 294.11 220.9525 293.54Q220.65999999999997 292.97 220.14249999999998 292.655Q219.62499999999997 292.34 218.92 292.34Q218.18499999999997 292.34 217.6375 292.68499999999995Q217.08999999999997 293.03 216.79749999999999 293.645Q216.505 294.26 216.505 295.085V295.175Q216.505 296.495 217.14999999999998 297.2525Q217.795 298.01 218.96499999999997 298.01Q219.74499999999998 298.01 220.29249999999996 297.695Q220.83999999999997 297.38 221.21499999999997 296.75L222.24999999999997 297.365Q221.695 298.28 220.84749999999997 298.73Q219.99999999999997 299.18 218.93499999999997 299.18Q217.80999999999997 299.18 216.97749999999996 298.685Q216.14499999999998 298.19 215.6875 297.28999999999996Q215.23 296.39 215.23 295.175Z M224.10999999999999 291.35H225.385V293.555H224.905Q225.07 292.88 225.4525 292.355Q225.83499999999998 291.83 226.35999999999999 291.5225Q226.885 291.215 227.48499999999999 291.215Q227.64999999999998 291.215 227.80749999999998 291.23Q227.96499999999997 291.245 228.13 291.29V292.55Q227.875 292.49 227.5 292.49Q226.86999999999998 292.49 226.39 292.7825Q225.91 293.075 225.64749999999998 293.6Q225.385 294.125 225.385 294.845V299.0H224.10999999999999Z M229.285 301.205Q229.52499999999998 301.25 229.75 301.27250000000004Q229.975 301.295 230.21499999999997 301.295Q230.665 301.295 230.95 301.0775Q231.23499999999999 300.86 231.475 300.23L232.11999999999998 298.565L232.255 298.49L235.05999999999997 291.35H236.38L232.65999999999997 300.545Q232.39 301.22 232.075 301.655Q231.76 302.09 231.33249999999998 302.2925Q230.90499999999997 302.495 230.27499999999998 302.495Q230.04999999999998 302.495 229.795 302.47249999999997Q229.54 302.45 229.285 302.39ZM233.04999999999998 298.505 232.17999999999998 299.645 228.82 291.35H230.23Z M249.85 293.675Q249.85 292.34 249.4075 291.3875Q248.965 290.435 248.14749999999998 289.9175Q247.32999999999998 289.4 246.20499999999998 289.4Q245.095 289.4 244.26999999999998 289.9175Q243.445 290.435 243.0025 291.3875Q242.56 292.34 242.56 293.675Q242.56 294.995 243.0025 295.9475Q243.445 296.9 244.26999999999998 297.4175Q245.095 297.935 246.20499999999998 297.935Q247.32999999999998 297.935 248.14749999999998 297.4175Q248.965 296.9 249.4075 295.9475Q249.85 294.995 249.85 293.675ZM246.20499999999998 299.18Q244.70499999999998 299.18 243.57999999999998 298.505Q242.45499999999998 297.83 241.83249999999998 296.5925Q241.21 295.355 241.21 293.675Q241.21 291.98 241.83249999999998 290.7425Q242.45499999999998 289.505 243.57999999999998 288.83Q244.70499999999998 288.155 246.20499999999998 288.155Q247.70499999999998 288.155 248.82999999999998 288.83Q249.95499999999998 289.505 250.5775 290.7425Q251.2 291.98 251.2 293.675Q251.2 295.355 250.5775 296.5925Q249.95499999999998 297.83 248.82999999999998 298.505Q247.70499999999998 299.18 246.20499999999998 299.18Z M252.94 291.35H254.215V293.555H253.735Q254.02 292.445 254.79250000000002 291.8075Q255.565 291.17 256.585 291.17Q259.375 291.17 259.375 294.56V299.0H258.1V294.56Q258.1 293.42 257.65 292.88Q257.2 292.34 256.285 292.34Q255.7 292.34 255.2275 292.655Q254.755 292.97 254.485 293.525Q254.215 294.08 254.215 294.8V299.0H252.94Z M260.905 295.175Q260.905 293.96 261.36249999999995 293.06Q261.82 292.16 262.65250000000003 291.665Q263.485 291.17 264.59499999999997 291.17Q265.675 291.17 266.485 291.65Q267.295 292.13 267.745 293.0Q268.195 293.87 268.195 295.025V295.595H261.64V294.47H267.47499999999997L266.92 294.875Q266.92 294.11 266.6275 293.54Q266.335 292.97 265.8175 292.655Q265.3 292.34 264.59499999999997 292.34Q263.86 292.34 263.3125 292.68499999999995Q262.765 293.03 262.47249999999997 293.645Q262.18 294.26 262.18 295.085V295.175Q262.18 296.495 262.825 297.2525Q263.46999999999997 298.01 264.64 298.01Q265.42 298.01 265.9675 297.695Q266.515 297.38 266.89 296.75L267.925 297.365Q267.37 298.28 266.52250000000004 298.73Q265.675 299.18 264.61 299.18Q263.485 299.18 262.65250000000003 298.685Q261.82 298.19 261.36249999999995 297.28999999999996Q260.905 296.39 260.905 295.175Z M273.76 294.92V288.335H275.08000000000004V294.92Q275.08000000000004 295.985 275.41 296.65250000000003Q275.74 297.32 276.355 297.6275Q276.97 297.935 277.82500000000005 297.935Q278.68 297.935 279.295 297.6275Q279.91 297.32 280.24 296.65250000000003Q280.57 295.985 280.57 294.92V288.335H281.89000000000004V294.92Q281.89000000000004 296.36 281.39500000000004 297.305Q280.90000000000003 298.25 279.99250000000006 298.71500000000003Q279.08500000000004 299.18 277.82500000000005 299.18Q276.565 299.18 275.6575 298.71500000000003Q274.75 298.25 274.255 297.305Q273.76 296.36 273.76 294.92Z M284.34999999999997 288.335H285.66999999999996V299.0H284.34999999999997Z" fill="#9CA3AD"/>
</svg>