<svg width="129" height="52" viewBox="0 0 129 52" xmlns="http://www.w3.org/2000/svg" font-family="One UI Sans">
<path d="M26.0,1 h77.0 a25.0,25.0 0 0 1 25.0,25.0 v0.0 a25.0,25.0 0 0 1 -25.0,25.0 h-77.0 a25.0,25.0 0 0 1 -25.0,-25.0 v-0.0 a25.0,25.0 0 0 1 25.0,-25.0 z" fill="#5A93FF"/>
<g transform="translate(13,15.0) scale(0.9167)" fill="#FFFFFF" stroke="#FFFFFF" stroke-linecap="round" stroke-linejoin="round"><path d="M12 4.2a7.8 7.8 0 0 0-2.5 15.2c.4.07.55-.17.55-.38v-1.5c-2.2.48-2.67-1-2.67-1-.36-.92-.88-1.16-.88-1.16-.72-.49.06-.48.06-.48.8.056 1.22.82 1.22.82.71 1.22 1.86.87 2.31.66.07-.51.28-.87.5-1.07-1.75-.2-3.6-.88-3.6-3.9 0-.86.31-1.57.82-2.12-.08-.2-.36-1 .08-2.1 0 0 .67-.21 2.2.81a7.6 7.6 0 0 1 4 0c1.53-1.02 2.2-.81 2.2-.81.44 1.1.16 1.9.08 2.1.51.55.82 1.26.82 2.12 0 3.03-1.85 3.7-3.61 3.9.29.24.54.72.54 1.45v2.15c0 .21.15.45.55.38A7.8 7.8 0 0 0 12 4.2z"/></g>
<path d="M52.731 25.965Q52.731 24.044 53.453500000000005 22.6415Q54.176 21.238999999999997 55.502 20.4655Q56.828 19.692 58.579 19.692Q60.245000000000005 19.692 61.5285 20.4485Q62.812 21.205 63.543 22.564999999999998L61.707 23.585Q61.214 22.633 60.415 22.1655Q59.616 21.698 58.579 21.698Q57.44 21.698 56.6155 22.2165Q55.791 22.735 55.3575 23.686999999999998Q54.924 24.639 54.924 25.965Q54.924 27.256999999999998 55.3575 28.209Q55.791 29.161 56.6155 29.688000000000002Q57.44 30.215 58.596000000000004 30.215Q59.616 30.215 60.415 29.7305Q61.214 29.246 61.673 28.378999999999998Q62.132000000000005 27.512 62.132000000000005 26.372999999999998V26.253999999999998L63.441 27.155H58.664V25.285H64.308V25.965Q64.308 27.886 63.56 29.296999999999997Q62.812 30.708 61.519999999999996 31.464499999999997Q60.228 32.221 58.579 32.221Q56.828 32.221 55.5105 31.447499999999998Q54.193 30.674 53.462 29.262999999999998Q52.731 27.852 52.731 25.965Z M68.133 32.0H66.059V23.244999999999997H68.133ZM65.889 20.711999999999996Q65.889 20.150999999999996 66.229 19.827999999999996Q66.569 19.504999999999995 67.113 19.504999999999995Q67.674 19.504999999999995 68.00550000000001 19.827999999999996Q68.337 20.150999999999996 68.337 20.711999999999996Q68.337 21.255999999999997 68.00550000000001 21.595999999999997Q67.674 21.936 67.113 21.936Q66.569 21.936 66.229 21.595999999999997Q65.889 21.255999999999997 65.889 20.711999999999996Z M70.802 29.144V21.222L72.876 20.508V28.804Q72.876 29.637 73.182 29.9515Q73.488 30.266 74.134 30.266Q74.389 30.266 74.661 30.2235Q74.933 30.181 75.188 30.13V31.949Q74.848 32.034 74.4315 32.0935Q74.015 32.153 73.658 32.153Q72.808 32.153 72.162 31.863999999999997Q71.516 31.575 71.159 30.920499999999997Q70.802 30.266 70.802 29.144ZM69.44200000000001 23.244999999999997H74.763V25.081H69.44200000000001Z M76.99 19.912999999999997H79.13199999999999V32.0H76.99ZM84.589 19.912999999999997H86.714V32.0H84.589ZM85.507 26.883H78.197V24.894H85.507Z M88.99199999999999 28.362V23.244999999999997H91.06599999999999V28.259999999999998Q91.06599999999999 29.331 91.49099999999999 29.8325Q91.916 30.334 92.76599999999999 30.334Q93.327 30.334 93.7435 30.045Q94.16 29.756 94.4065 29.229Q94.65299999999999 28.701999999999998 94.65299999999999 28.022V23.244999999999997H96.72699999999999V32.0H94.66999999999999V29.569H95.19699999999999Q94.90799999999999 30.793 94.05799999999999 31.506999999999998Q93.208 32.221 92.086 32.221Q90.556 32.221 89.774 31.2605Q88.99199999999999 30.3 88.99199999999999 28.362Z M100.807 32.0H98.767V19.539H100.841V25.659H100.314Q100.654 24.401 101.521 23.704Q102.388 23.006999999999998 103.561 23.006999999999998Q104.734 23.006999999999998 105.5925 23.5765Q106.451 24.146 106.9185 25.174500000000002Q107.386 26.203 107.386 27.614Q107.386 29.025 106.9185 30.061999999999998Q106.451 31.099 105.5925 31.659999999999997Q104.734 32.221 103.561 32.221Q102.388 32.221 101.521 31.5325Q100.654 30.844 100.314 29.603H100.807ZM100.841 27.631Q100.841 28.43 101.113 29.042Q101.385 29.654 101.88650000000001 29.985500000000002Q102.388 30.317 103.085 30.317Q103.782 30.317 104.26650000000001 29.9685Q104.751 29.62 105.0145 29.008000000000003Q105.278 28.396 105.278 27.614Q105.278 26.832 105.0145 26.22Q104.751 25.608 104.26650000000001 25.259500000000003Q103.782 24.911 103.085 24.911Q102.388 24.911 101.88650000000001 25.259500000000003Q101.385 25.608 101.113 26.2115Q100.841 26.814999999999998 100.841 27.631Z" fill="#FFFFFF"/>
</svg>