<svg width="205" height="52" viewBox="0 0 205 52" xmlns="http://www.w3.org/2000/svg" font-family="One UI Sans">
<path d="M26.0,1 h153.0 a25.0,25.0 0 0 1 25.0,25.0 v0.0 a25.0,25.0 0 0 1 -25.0,25.0 h-153.0 a25.0,25.0 0 0 1 -25.0,-25.0 v-0.0 a25.0,25.0 0 0 1 25.0,-25.0 z" fill="#1A1C20" stroke="#2A2E34"/>
<g transform="translate(13,15.0) scale(0.9167)" fill="#5A93FF" stroke="#5A93FF" stroke-linecap="round" stroke-linejoin="round"><path d="M4 4l16 16M20 4L4 20" stroke-width="2.1" fill="none"/></g>
<path d="M52.731 28.09Q52.731 26.271 53.309 24.707Q53.887 23.143 54.966499999999996 21.97Q56.046 20.796999999999997 57.559 20.1425Q59.072 19.488 60.942 19.488Q63.152 19.488 64.75 20.2955Q66.348 21.103 67.215 22.5565Q68.082 24.009999999999998 68.082 25.930999999999997Q68.082 27.444 67.538 28.566Q66.994 29.688 66.0675 30.2915Q65.141 30.895 63.968 30.895Q62.982 30.895 62.387 30.384999999999998Q61.792 29.875 61.792 28.923Q61.792 28.838 61.792 28.761499999999998Q61.792 28.685 61.809 28.617L62.149 28.668Q61.996 29.331 61.596500000000006 29.841Q61.197 30.351 60.6445 30.6315Q60.092 30.912 59.480000000000004 30.912Q58.63 30.912 58.035 30.5125Q57.44 30.113 57.1255 29.3905Q56.811 28.668 56.811 27.733Q56.811 26.594 57.2275 25.625Q57.644 24.656 58.375 24.078Q59.106 23.5 60.092 23.5Q60.976 23.5 61.605000000000004 24.1035Q62.234 24.707 62.319 25.778L62.081 25.472L62.353 23.805999999999997H63.968L63.288 27.801Q63.271 27.971 63.254000000000005 28.124000000000002Q63.237 28.277 63.237 28.396Q63.237 28.94 63.466499999999996 29.1695Q63.696 29.399 64.07 29.399Q64.444 29.399 64.7925 29.178Q65.141 28.957 65.43 28.506500000000003Q65.719 28.056 65.8805 27.4015Q66.042 26.747 66.042 25.88Q66.042 24.469 65.4385 23.4405Q64.83500000000001 22.412 63.679 21.8425Q62.523 21.273 60.857 21.273Q59.497 21.273 58.375 21.783Q57.253 22.293 56.445499999999996 23.211Q55.638 24.128999999999998 55.204499999999996 25.336Q54.771 26.543 54.771 27.92Q54.771 29.229 55.1365 30.215Q55.502 31.201 56.182 31.864Q56.862 32.527 57.7885 32.8585Q58.715 33.19 59.837 33.19Q60.891 33.19 61.8515 32.952Q62.812 32.714 63.747 32.17L64.529 33.785Q63.407 34.414 62.217 34.694500000000005Q61.027 34.975 59.701 34.975Q58.154 34.975 56.87050000000001 34.5245Q55.587 34.074 54.669 33.19Q53.751 32.306 53.241 31.0225Q52.731 29.739 52.731 28.09ZM60.313 25.047Q59.803 25.047 59.412 25.3955Q59.021 25.744 58.8085 26.339Q58.596000000000004 26.933999999999997 58.596000000000004 27.665Q58.596000000000004 28.43 58.902 28.8975Q59.208 29.365 59.854 29.365Q60.296 29.365 60.687 29.058999999999997Q61.078 28.753 61.333 28.183500000000002Q61.588 27.614 61.588 26.814999999999998Q61.588 25.948 61.2395 25.497500000000002Q60.891 25.047 60.313 25.047Z M70.44500000000001 29.144V21.222L72.519 20.508V28.804Q72.519 29.637 72.825 29.9515Q73.131 30.266 73.777 30.266Q74.032 30.266 74.304 30.2235Q74.57600000000001 30.181 74.831 30.13V31.949Q74.491 32.034 74.0745 32.0935Q73.658 32.153 73.301 32.153Q72.45100000000001 32.153 71.805 31.863999999999997Q71.159 31.575 70.802 30.920499999999997Q70.44500000000001 30.266 70.44500000000001 29.144ZM69.08500000000001 23.244999999999997H74.406V25.081H69.08500000000001Z M76.344 19.539H78.41799999999999V25.659H77.874Q78.17999999999999 24.451999999999998 79.03 23.729499999999998Q79.88 23.006999999999998 81.002 23.006999999999998Q84.113 23.006999999999998 84.113 26.866V32.0H82.039V26.985Q82.039 25.914 81.614 25.404Q81.189 24.894 80.322 24.894Q79.77799999999999 24.894 79.3445 25.183Q78.911 25.472 78.6645 25.999000000000002Q78.41799999999999 26.526 78.41799999999999 27.223V32.0H76.344Z M91.355 26.917Q91.355 25.829 90.8875 25.3105Q90.42 24.792 89.519 24.792Q88.907 24.792 88.38 25.064Q87.853 25.336 87.462 25.846L85.932 24.808999999999997Q86.612 23.924999999999997 87.57249999999999 23.465999999999998Q88.533 23.006999999999998 89.689 23.006999999999998Q91.44 23.006999999999998 92.4005 23.967499999999998Q93.361 24.927999999999997 93.361 26.883V32.0H91.355ZM85.694 29.603Q85.694 28.243 86.68 27.478Q87.666 26.713 89.383 26.713H91.763V28.175H89.485Q88.618 28.175 88.15899999999999 28.497999999999998Q87.7 28.820999999999998 87.7 29.433Q87.7 29.943 88.03999999999999 30.2235Q88.38 30.504 89.026 30.504Q89.638 30.504 90.1735 30.2065Q90.709 29.909 91.03200000000001 29.365Q91.355 28.820999999999998 91.355 28.09L92.001 28.685Q92.001 29.773 91.5335 30.563499999999998Q91.066 31.354 90.267 31.787499999999998Q89.468 32.221 88.482 32.221Q87.649 32.221 87.02 31.915Q86.39099999999999 31.609 86.04249999999999 31.0225Q85.694 30.436 85.694 29.603Z M95.96200000000002 29.144V21.222L98.03600000000002 20.508V28.804Q98.03600000000002 29.637 98.34200000000001 29.9515Q98.64800000000001 30.266 99.29400000000001 30.266Q99.549 30.266 99.82100000000001 30.2235Q100.09300000000002 30.181 100.34800000000001 30.13V31.949Q100.00800000000001 32.034 99.59150000000001 32.0935Q99.17500000000001 32.153 98.81800000000001 32.153Q97.96800000000002 32.153 97.32200000000002 31.863999999999997Q96.67600000000002 31.575 96.31900000000002 30.920499999999997Q95.96200000000002 30.266 95.96200000000002 29.144ZM94.60200000000002 23.244999999999997H99.92300000000002V25.081H94.60200000000002Z M103.935 32.935Q103.935 34.38 103.19550000000001 35.1365Q102.456 35.893 101.147 35.893Q100.89200000000001 35.893 100.637 35.876000000000005Q100.382 35.859 100.11000000000001 35.791V33.955Q100.29700000000001 33.989 100.45850000000002 33.9975Q100.62 34.006 100.739 34.006Q101.41900000000001 34.006 101.64000000000001 33.6745Q101.861 33.343 101.861 32.748V23.244999999999997H103.935ZM101.691 20.711999999999996Q101.691 20.150999999999996 102.031 19.827999999999996Q102.37100000000001 19.504999999999995 102.915 19.504999999999995Q103.47600000000001 19.504999999999995 103.8075 19.827999999999996Q104.13900000000001 20.150999999999996 104.13900000000001 20.711999999999996Q104.13900000000001 21.255999999999997 103.8075 21.595999999999997Q103.47600000000001 21.936 102.915 21.936Q102.37100000000001 21.936 102.031 21.595999999999997Q101.691 21.255999999999997 101.691 20.711999999999996Z M105.55000000000001 27.614Q105.55000000000001 26.253999999999998 106.08550000000001 25.217Q106.62100000000001 24.18 107.607 23.5935Q108.593 23.006999999999998 109.885 23.006999999999998Q111.21100000000001 23.006999999999998 112.18 23.5935Q113.14900000000002 24.18 113.69300000000001 25.217Q114.23700000000001 26.253999999999998 114.23700000000001 27.614Q114.23700000000001 28.974 113.69300000000001 30.011Q113.14900000000002 31.048 112.18 31.634499999999996Q111.21100000000001 32.221 109.885 32.221Q108.593 32.221 107.607 31.634499999999996Q106.62100000000001 31.048 106.08550000000001 30.011Q105.55000000000001 28.974 105.55000000000001 27.614ZM107.65800000000002 27.614Q107.65800000000002 28.413 107.93 29.0335Q108.20200000000001 29.654 108.70350000000002 29.985500000000002Q109.20500000000001 30.317 109.885 30.317Q110.599 30.317 111.09200000000001 29.985500000000002Q111.58500000000001 29.654 111.857 29.0335Q112.129 28.413 112.129 27.614Q112.129 26.798000000000002 111.857 26.1945Q111.58500000000001 25.591 111.09200000000001 25.251Q110.599 24.911 109.885 24.911Q109.20500000000001 24.911 108.70350000000002 25.251Q108.20200000000001 25.591 107.93 26.1945Q107.65800000000002 26.798000000000002 107.65800000000002 27.614Z M120.62899999999999 29.603Q120.62899999999999 29.229 120.3655 28.999499999999998Q120.102 28.77 119.422 28.617L118.283 28.345Q116.838 28.005 116.1665 27.350499999999997Q115.495 26.695999999999998 115.495 25.591Q115.495 24.775 115.937 24.197Q116.37899999999999 23.619 117.1525 23.313Q117.926 23.006999999999998 118.929 23.006999999999998Q120.255 23.006999999999998 121.23249999999999 23.5765Q122.21 24.146 122.63499999999999 25.233999999999998L120.986 25.863Q120.714 25.268 120.1445 25.0045Q119.575 24.741 118.963 24.741Q118.26599999999999 24.741 117.8835 24.9705Q117.501 25.2 117.501 25.608Q117.501 26.016 117.78999999999999 26.2115Q118.079 26.407 118.725 26.56L119.864 26.832Q121.292 27.172 121.97200000000001 27.835Q122.652 28.498 122.652 29.62Q122.652 30.81 121.7255 31.515499999999996Q120.79899999999999 32.221 119.184 32.221Q117.67099999999999 32.221 116.60849999999999 31.592Q115.54599999999999 30.963 115.155 29.807L116.855 29.195Q117.127 29.858 117.722 30.1725Q118.317 30.487 119.14999999999999 30.487Q119.864 30.487 120.2465 30.266Q120.62899999999999 30.045 120.62899999999999 29.603Z M124.21600000000001 19.539H126.29V25.659H125.74600000000001Q126.052 24.451999999999998 126.90200000000002 23.729499999999998Q127.75200000000001 23.006999999999998 128.87400000000002 23.006999999999998Q131.985 23.006999999999998 131.985 26.866V32.0H129.911V26.985Q129.911 25.914 129.486 25.404Q129.061 24.894 128.19400000000002 24.894Q127.65 24.894 127.21650000000001 25.183Q126.78300000000002 25.472 126.53650000000002 25.999000000000002Q126.29 26.526 126.29 27.223V32.0H124.21600000000001Z M140.077 31.643V29.433H140.536Q140.21300000000002 30.487 139.35450000000003 31.0905Q138.496 31.694 137.34 31.694Q136.18400000000003 31.694 135.32550000000003 31.15Q134.467 30.606 133.991 29.628500000000003Q133.51500000000001 28.651 133.51500000000001 27.325Q133.51500000000001 25.999 133.991 25.0385Q134.467 24.078 135.32550000000003 23.542499999999997Q136.18400000000003 23.006999999999998 137.34 23.006999999999998Q138.496 23.006999999999998 139.37150000000003 23.704Q140.247 24.401 140.58700000000002 25.659H140.09400000000002V23.244999999999997H142.13400000000001V31.49Q142.13400000000001 32.986 141.5985 33.971999999999994Q141.06300000000002 34.958 140.12800000000001 35.4255Q139.193 35.893 137.98600000000002 35.893Q136.711 35.893 135.63150000000002 35.3575Q134.55200000000002 34.822 133.821 33.768L135.436 32.748Q135.84400000000002 33.343 136.4815 33.6745Q137.119 34.006 137.918 34.006Q138.90400000000002 34.006 139.4905 33.436499999999995Q140.077 32.867 140.077 31.643ZM137.83300000000003 24.911Q137.13600000000002 24.911 136.64300000000003 25.2255Q136.15 25.54 135.8865 26.084Q135.62300000000002 26.628 135.62300000000002 27.325Q135.62300000000002 28.039 135.8865 28.5915Q136.15 29.144 136.64300000000003 29.467Q137.13600000000002 29.79 137.83300000000003 29.79Q138.53 29.79 139.0315 29.4755Q139.53300000000002 29.161 139.805 28.6085Q140.077 28.056 140.077 27.325Q140.077 26.611 139.805 26.067Q139.53300000000002 25.523 139.0315 25.217Q138.53 24.911 137.83300000000003 24.911Z M144.106 28.362V23.244999999999997H146.18V28.259999999999998Q146.18 29.331 146.60500000000002 29.8325Q147.03 30.334 147.88 30.334Q148.441 30.334 148.85750000000002 30.045Q149.274 29.756 149.5205 29.229Q149.767 28.701999999999998 149.767 28.022V23.244999999999997H151.841V32.0H149.784V29.569H150.311Q150.022 30.793 149.172 31.506999999999998Q148.322 32.221 147.2 32.221Q145.67 32.221 144.88799999999998 31.2605Q144.106 30.3 144.106 28.362Z M153.82999999999998 33.921Q154.136 33.972 154.391 33.989000000000004Q154.646 34.006 154.884 34.006Q155.37699999999998 34.006 155.683 33.7765Q155.98899999999998 33.547 156.244 32.867L156.92399999999998 31.082L157.14499999999998 31.048L160.10299999999998 23.244999999999997H162.245L158.21599999999998 33.309Q157.85899999999998 34.21 157.4595 34.7795Q157.06 35.349000000000004 156.516 35.621Q155.97199999999998 35.893 155.12199999999999 35.893Q154.85 35.893 154.51 35.8675Q154.17 35.842 153.82999999999998 35.757ZM158.403 31.065 157.077 32.85 153.11599999999999 23.244999999999997H155.39399999999998Z M170.048 28.158Q170.048 27.121 169.50400000000002 26.509Q168.96 25.897 167.957 25.897Q167.345 25.897 166.8605 26.168999999999997Q166.376 26.441 166.10399999999998 26.951Q165.832 27.461 165.832 28.158Q165.832 29.144 166.37599999999998 29.756Q166.92 30.368 167.923 30.368Q168.977 30.368 169.5125 29.756Q170.048 29.144 170.048 28.158ZM168.042 21.579Q166.75 21.579 166.002 22.6585Q165.254 23.738 165.237 25.965Q165.237 26.253999999999998 165.2455 26.543Q165.254 26.832 165.271 27.137999999999998L165.084 27.104Q165.22 26.067 165.713 25.387Q166.206 24.707 166.937 24.367Q167.668 24.027 168.433 24.027Q169.436 24.027 170.269 24.52Q171.102 25.012999999999998 171.595 25.913999999999998Q172.088 26.814999999999998 172.088 28.022Q172.088 29.178 171.612 30.130000000000003Q171.136 31.082 170.201 31.6515Q169.266 32.221 167.906 32.221Q165.696 32.221 164.489 30.605999999999998Q163.282 28.991 163.282 26.033Q163.282 22.921999999999997 164.55700000000002 21.307Q165.832 19.692 168.042 19.692Q169.419 19.692 170.405 20.287Q171.391 20.881999999999998 171.986 21.884999999999998L170.354 22.854Q169.946 22.191 169.3425 21.884999999999998Q168.739 21.579 168.042 21.579Z M179.959 23.755Q179.959 22.769 179.4065 22.157Q178.854 21.545 177.851 21.545Q176.848 21.545 176.287 22.157Q175.726 22.769 175.726 23.755Q175.726 24.792 176.2785 25.404Q176.831 26.016 177.817 26.016Q178.446 26.016 178.922 25.7355Q179.398 25.455 179.67849999999999 24.945Q179.959 24.435 179.959 23.755ZM177.732 32.221Q176.372 32.221 175.38600000000002 31.625999999999998Q174.4 31.031 173.771 30.028L175.42 29.059Q175.828 29.722 176.44 30.028Q177.052 30.334 177.732 30.334Q179.041 30.334 179.78050000000002 29.2545Q180.52 28.175 180.537 25.948Q180.537 25.659 180.537 25.369999999999997Q180.537 25.081 180.52 24.775L180.69 24.808999999999997Q180.571 25.846 180.0695 26.526Q179.568 27.206 178.85399999999998 27.546Q178.14 27.886 177.358 27.886Q176.355 27.886 175.522 27.393Q174.689 26.9 174.1875 25.999Q173.686 25.098 173.686 23.891Q173.686 22.718 174.1705 21.766Q174.655 20.814 175.59 20.253Q176.525 19.692 177.868 19.692Q180.078 19.692 181.285 21.307Q182.492 22.921999999999997 182.492 25.88Q182.492 28.991 181.21699999999998 30.605999999999998Q179.942 32.221 177.732 32.221Z" fill="#F3F5F8"/>
</svg>