<svg width="145" height="52" viewBox="0 0 145 52" xmlns="http://www.w3.org/2000/svg" font-family="One UI Sans">
<path d="M26.0,1 h93.0 a25.0,25.0 0 0 1 25.0,25.0 v0.0 a25.0,25.0 0 0 1 -25.0,25.0 h-93.0 a25.0,25.0 0 0 1 -25.0,-25.0 v-0.0 a25.0,25.0 0 0 1 25.0,-25.0 z" fill="#26282D" stroke="#2C3036"/>
<g transform="translate(15.0,15.0) scale(0.9166666666666666)" stroke="#5AA0FF" stroke-width="1.9" stroke-linecap="round" stroke-linejoin="round" fill="#5AA0FF"><path d="M10 13.5a3 3 0 0 0 4.3.3l2.2-2.2a3 3 0 0 0-4.2-4.2l-1 1" fill="none"/><path d="M14 10.5a3 3 0 0 0-4.3-.3L7.5 12.4a3 3 0 0 0 4.2 4.2l1-1" fill="none"/></g>
<path d="M55.309 19.912999999999997H59.44Q60.902 19.912999999999997 61.973 20.414499999999997Q63.044 20.915999999999997 63.6135 21.833999999999996Q64.183 22.752 64.183 24.027Q64.183 25.982 62.9165 27.087Q61.65 28.192 59.44 28.192H56.924V26.237H59.287Q60.664 26.237 61.361000000000004 25.667499999999997Q62.058 25.098 62.058 24.027Q62.058 22.990000000000002 61.361000000000004 22.4205Q60.664 21.851 59.287 21.851H57.417V32.0H55.309Z M65.458 27.614Q65.458 26.253999999999998 65.9935 25.217Q66.529 24.18 67.51499999999999 23.5935Q68.50099999999999 23.006999999999998 69.79299999999999 23.006999999999998Q71.119 23.006999999999998 72.088 23.5935Q73.057 24.18 73.601 25.217Q74.145 26.253999999999998 74.145 27.614Q74.145 28.974 73.601 30.011Q73.057 31.048 72.088 31.634499999999996Q71.119 32.221 69.79299999999999 32.221Q68.50099999999999 32.221 67.51499999999999 31.634499999999996Q66.529 31.048 65.9935 30.011Q65.458 28.974 65.458 27.614ZM67.566 27.614Q67.566 28.413 67.838 29.0335Q68.11 29.654 68.6115 29.985500000000002Q69.113 30.317 69.79299999999999 30.317Q70.50699999999999 30.317 71.0 29.985500000000002Q71.493 29.654 71.76499999999999 29.0335Q72.03699999999999 28.413 72.03699999999999 27.614Q72.03699999999999 26.798000000000002 71.76499999999999 26.1945Q71.493 25.591 71.0 25.251Q70.50699999999999 24.911 69.79299999999999 24.911Q69.113 24.911 68.6115 25.251Q68.11 25.591 67.838 26.1945Q67.566 26.798000000000002 67.566 27.614Z M75.743 23.244999999999997H77.8V25.659H77.273Q77.426 24.979 77.834 24.3925Q78.242 23.805999999999997 78.82 23.4405Q79.398 23.075 80.078 23.075Q80.248 23.075 80.418 23.092Q80.588 23.109 80.775 23.16V25.131999999999998Q80.435 25.064 80.027 25.064Q79.398 25.064 78.8965 25.3445Q78.395 25.625 78.106 26.169Q77.817 26.713 77.817 27.512V32.0H75.743Z M82.83200000000001 29.144V21.222L84.906 20.508V28.804Q84.906 29.637 85.212 29.9515Q85.518 30.266 86.164 30.266Q86.419 30.266 86.691 30.2235Q86.96300000000001 30.181 87.218 30.13V31.949Q86.878 32.034 86.4615 32.0935Q86.045 32.153 85.688 32.153Q84.83800000000001 32.153 84.19200000000001 31.863999999999997Q83.546 31.575 83.18900000000001 30.920499999999997Q82.83200000000001 30.266 82.83200000000001 29.144ZM81.47200000000001 23.244999999999997H86.793V25.081H81.47200000000001Z M88.01700000000001 23.244999999999997H93.47400000000002V25.081H88.01700000000001ZM89.37700000000001 22.395Q89.37700000000001 21.222 89.78500000000001 20.559Q90.19300000000001 19.896 90.88150000000002 19.624Q91.57000000000001 19.351999999999997 92.33500000000001 19.351999999999997Q92.60700000000001 19.351999999999997 92.90450000000001 19.377499999999998Q93.20200000000001 19.403 93.47400000000002 19.454V21.307Q93.25300000000001 21.273 93.07450000000001 21.256Q92.89600000000002 21.238999999999997 92.69200000000001 21.238999999999997Q92.046 21.238999999999997 91.7485 21.528Q91.45100000000001 21.817 91.45100000000001 22.65V32.0H89.37700000000001Z M94.477 27.614Q94.477 26.253999999999998 95.0125 25.217Q95.548 24.18 96.53399999999999 23.5935Q97.52 23.006999999999998 98.812 23.006999999999998Q100.138 23.006999999999998 101.107 23.5935Q102.07600000000001 24.18 102.62 25.217Q103.164 26.253999999999998 103.164 27.614Q103.164 28.974 102.62 30.011Q102.07600000000001 31.048 101.107 31.634499999999996Q100.138 32.221 98.812 32.221Q97.52 32.221 96.53399999999999 31.634499999999996Q95.548 31.048 95.0125 30.011Q94.477 28.974 94.477 27.614ZM96.58500000000001 27.614Q96.58500000000001 28.413 96.857 29.0335Q97.129 29.654 97.63050000000001 29.985500000000002Q98.132 30.317 98.812 30.317Q99.526 30.317 100.019 29.985500000000002Q100.512 29.654 100.78399999999999 29.0335Q101.056 28.413 101.056 27.614Q101.056 26.798000000000002 100.78399999999999 26.1945Q100.512 25.591 100.019 25.251Q99.526 24.911 98.812 24.911Q98.132 24.911 97.63050000000001 25.251Q97.129 25.591 96.857 26.1945Q96.58500000000001 26.798000000000002 96.58500000000001 27.614Z M104.762 19.539H106.836V32.0H104.762Z M110.967 32.0H108.893V23.244999999999997H110.967ZM108.723 20.711999999999996Q108.723 20.150999999999996 109.063 19.827999999999996Q109.403 19.504999999999995 109.947 19.504999999999995Q110.50800000000001 19.504999999999995 110.83950000000002 19.827999999999996Q111.171 20.150999999999996 111.171 20.711999999999996Q111.171 21.255999999999997 110.83950000000002 21.595999999999997Q110.50800000000001 21.936 109.947 21.936Q109.403 21.936 109.063 21.595999999999997Q108.723 21.255999999999997 108.723 20.711999999999996Z M112.58200000000001 27.614Q112.58200000000001 26.253999999999998 113.1175 25.217Q113.653 24.18 114.63900000000001 23.5935Q115.625 23.006999999999998 116.917 23.006999999999998Q118.24300000000001 23.006999999999998 119.21200000000002 23.5935Q120.18100000000001 24.18 120.72500000000001 25.217Q121.269 26.253999999999998 121.269 27.614Q121.269 28.974 120.72500000000001 30.011Q120.18100000000001 31.048 119.21200000000002 31.634499999999996Q118.24300000000001 32.221 116.917 32.221Q115.625 32.221 114.63900000000001 31.634499999999996Q113.653 31.048 113.1175 30.011Q112.58200000000001 28.974 112.58200000000001 27.614ZM114.69000000000001 27.614Q114.69000000000001 28.413 114.96200000000002 29.0335Q115.23400000000001 29.654 115.7355 29.985500000000002Q116.23700000000001 30.317 116.917 30.317Q117.631 30.317 118.124 29.985500000000002Q118.617 29.654 118.88900000000001 29.0335Q119.161 28.413 119.161 27.614Q119.161 26.798000000000002 118.88900000000001 26.1945Q118.617 25.591 118.124 25.251Q117.631 24.911 116.917 24.911Q116.23700000000001 24.911 115.7355 25.251Q115.23400000000001 25.591 114.96200000000002 26.1945Q114.69000000000001 26.798000000000002 114.69000000000001 27.614Z" fill="#F2F4F8"/>
</svg>