<svg width="139" height="52" viewBox="0 0 139 52" xmlns="http://www.w3.org/2000/svg" font-family="One UI Sans">
<path d="M26.0,1 h87.0 a25.0,25.0 0 0 1 25.0,25.0 v0.0 a25.0,25.0 0 0 1 -25.0,25.0 h-87.0 a25.0,25.0 0 0 1 -25.0,-25.0 v-0.0 a25.0,25.0 0 0 1 25.0,-25.0 z" fill="#FFFFFF" stroke="#E6E9EE"/>
<g transform="translate(13,15.0) scale(0.9167)" fill="#387AFF" stroke="#387AFF" stroke-linecap="round" stroke-linejoin="round"><circle cx="12" cy="12" r="8.4" fill="none" stroke-width="1.7"/><path d="M3.6 12h16.8M12 3.6c2.4 2.3 3.6 5.2 3.6 8.4S14.4 18.1 12 20.4C9.6 18.1 8.4 15.2 8.4 12S9.6 5.9 12 3.6z" fill="none" stroke-width="1.7"/></g>
<path d="M66.178 19.912999999999997H68.37100000000001L65.09 32.0H62.812L59.939 21.664H60.789L57.984 32.0H55.689L52.391 19.912999999999997H54.635L57.491 31.235H56.318L59.395 19.912999999999997H61.367000000000004L64.495 31.235H63.322Z M69.32300000000001 27.631Q69.32300000000001 26.237 69.87550000000002 25.2Q70.42800000000001 24.163 71.41400000000002 23.585Q72.4 23.006999999999998 73.69200000000001 23.006999999999998Q75.018 23.006999999999998 75.97 23.585Q76.92200000000001 24.163 77.42350000000002 25.174500000000002Q77.92500000000001 26.186 77.92500000000001 27.461V28.192H70.42800000000001V26.713H76.75200000000001L75.902 27.24Q75.902 26.458 75.63 25.897Q75.358 25.336 74.8735 25.03Q74.38900000000001 24.724 73.709 24.724Q73.02900000000001 24.724 72.50200000000001 25.046999999999997Q71.97500000000001 25.369999999999997 71.6945 25.973499999999998Q71.414 26.576999999999998 71.414 27.427V27.733Q71.414 29.008 72.0515 29.7135Q72.68900000000001 30.419 73.828 30.419Q74.525 30.419 75.052 30.130000000000003Q75.57900000000001 29.841 75.953 29.262999999999998L77.551 30.232Q76.92200000000001 31.218 75.9445 31.719499999999996Q74.967 32.221 73.76 32.221Q72.45100000000001 32.221 71.4565 31.668499999999998Q70.462 31.116 69.89250000000001 30.0875Q69.32300000000001 29.059 69.32300000000001 27.631Z M81.563 32.0H79.523V19.539H81.597V25.659H81.07Q81.41 24.401 82.277 23.704Q83.144 23.006999999999998 84.31700000000001 23.006999999999998Q85.49 23.006999999999998 86.3485 23.5765Q87.207 24.146 87.6745 25.174500000000002Q88.142 26.203 88.142 27.614Q88.142 29.025 87.6745 30.061999999999998Q87.207 31.099 86.3485 31.659999999999997Q85.49 32.221 84.31700000000001 32.221Q83.144 32.221 82.277 31.5325Q81.41 30.844 81.07 29.603H81.563ZM81.597 27.631Q81.597 28.43 81.869 29.042Q82.141 29.654 82.64250000000001 29.985500000000002Q83.144 30.317 83.841 30.317Q84.538 30.317 85.02250000000001 29.9685Q85.507 29.62 85.7705 29.008000000000003Q86.034 28.396 86.034 27.614Q86.034 26.832 85.7705 26.22Q85.507 25.608 85.02250000000001 25.259500000000003Q84.538 24.911 83.841 24.911Q83.144 24.911 82.64250000000001 25.259500000000003Q82.141 25.608 81.869 26.2115Q81.597 26.814999999999998 81.597 27.631Z M94.53399999999999 29.603Q94.53399999999999 29.229 94.2705 28.999499999999998Q94.007 28.77 93.327 28.617L92.188 28.345Q90.743 28.005 90.0715 27.350499999999997Q89.4 26.695999999999998 89.4 25.591Q89.4 24.775 89.842 24.197Q90.28399999999999 23.619 91.0575 23.313Q91.831 23.006999999999998 92.834 23.006999999999998Q94.16 23.006999999999998 95.13749999999999 23.5765Q96.115 24.146 96.53999999999999 25.233999999999998L94.891 25.863Q94.619 25.268 94.0495 25.0045Q93.48 24.741 92.868 24.741Q92.17099999999999 24.741 91.7885 24.9705Q91.406 25.2 91.406 25.608Q91.406 26.016 91.695 26.2115Q91.984 26.407 92.63 26.56L93.769 26.832Q95.197 27.172 95.87700000000001 27.835Q96.557 28.498 96.557 29.62Q96.557 30.81 95.6305 31.515499999999996Q94.704 32.221 93.089 32.221Q91.576 32.221 90.5135 31.592Q89.451 30.963 89.06 29.807L90.76 29.195Q91.032 29.858 91.627 30.1725Q92.222 30.487 93.05499999999999 30.487Q93.769 30.487 94.1515 30.266Q94.53399999999999 30.045 94.53399999999999 29.603Z M100.195 32.0H98.121V23.244999999999997H100.195ZM97.951 20.711999999999996Q97.951 20.150999999999996 98.291 19.827999999999996Q98.631 19.504999999999995 99.175 19.504999999999995Q99.736 19.504999999999995 100.0675 19.827999999999996Q100.399 20.150999999999996 100.399 20.711999999999996Q100.399 21.255999999999997 100.0675 21.595999999999997Q99.736 21.936 99.175 21.936Q98.631 21.936 98.291 21.595999999999997Q97.951 21.255999999999997 97.951 20.711999999999996Z M102.864 29.144V21.222L104.938 20.508V28.804Q104.938 29.637 105.244 29.9515Q105.55 30.266 106.196 30.266Q106.451 30.266 106.723 30.2235Q106.995 30.181 107.25 30.13V31.949Q106.91 32.034 106.4935 32.0935Q106.077 32.153 105.72 32.153Q104.87 32.153 104.224 31.863999999999997Q103.578 31.575 103.221 30.920499999999997Q102.864 30.266 102.864 29.144ZM101.504 23.244999999999997H106.825V25.081H101.504Z M108.321 27.631Q108.321 26.237 108.8735 25.2Q109.426 24.163 110.412 23.585Q111.398 23.006999999999998 112.69 23.006999999999998Q114.01599999999999 23.006999999999998 114.96799999999999 23.585Q115.92 24.163 116.42150000000001 25.174500000000002Q116.923 26.186 116.923 27.461V28.192H109.426V26.713H115.75L114.89999999999999 27.24Q114.89999999999999 26.458 114.62799999999999 25.897Q114.356 25.336 113.8715 25.03Q113.387 24.724 112.707 24.724Q112.027 24.724 111.5 25.046999999999997Q110.973 25.369999999999997 110.6925 25.973499999999998Q110.41199999999999 26.576999999999998 110.41199999999999 27.427V27.733Q110.41199999999999 29.008 111.0495 29.7135Q111.687 30.419 112.826 30.419Q113.523 30.419 114.05 30.130000000000003Q114.577 29.841 114.951 29.262999999999998L116.54899999999999 30.232Q115.92 31.218 114.9425 31.719499999999996Q113.96499999999999 32.221 112.758 32.221Q111.449 32.221 110.4545 31.668499999999998Q109.46 31.116 108.8905 30.0875Q108.321 29.059 108.321 27.631Z" fill="#15171C"/>
</svg>