<svg width="116" height="52" viewBox="0 0 116 52" xmlns="http://www.w3.org/2000/svg" font-family="One UI Sans">
<path d="M26.0,1 h64.0 a25.0,25.0 0 0 1 25.0,25.0 v0.0 a25.0,25.0 0 0 1 -25.0,25.0 h-64.0 a25.0,25.0 0 0 1 -25.0,-25.0 v-0.0 a25.0,25.0 0 0 1 25.0,-25.0 z" fill="#1A1C20" stroke="#2A2E34"/>
<g transform="translate(13.00,15.00) scale(0.9167)"><path d="M21.3235,2.5005L2.6765,2.5005C1.7505,2.5005 0.9995,3.2505 0.9995,4.1765L0.9995,19.8235C0.9995,20.7495 1.7505,21.4995 2.6765,21.4995L21.3235,21.4995C22.2495,21.4995 23.0005,20.7495 23.0005,19.8235L23.0005,4.1775C23.0005,3.2515 22.2495,2.5005 21.3235,2.5005ZM20.4455,7.9625L12.8255,13.9625C12.5825,14.1525 12.2915,14.2475 11.9995,14.2475C11.7085,14.2475 11.4165,14.1525 11.1745,13.9625L3.5535,7.9625C2.9755,7.5075 2.8755,6.6695 3.3305,6.0905C3.7855,5.5125 4.6245,5.4115 5.2035,5.8675L11.9985,11.2185L18.7945,5.8675C19.3735,5.4115 20.2115,5.5125 20.6665,6.0905C21.1245,6.6695 21.0245,7.5075 20.4455,7.9625Z" fill="#5A93FF" fill-opacity="1.000" stroke="#5A93FF" stroke-opacity="0.000" stroke-width="1.0" fill-rule="nonzero" /></g>
<path d="M53.309 19.912999999999997H61.537V21.851H54.193L55.434 20.95V30.963L54.193 30.062H61.537V32.0H53.309ZM53.938 24.927999999999997H61.044V26.849H53.938Z M63.305 23.244999999999997H65.362V25.659H64.835Q65.056 24.808999999999997 65.51499999999999 24.214Q65.97399999999999 23.619 66.58599999999998 23.313Q67.198 23.006999999999998 67.878 23.006999999999998Q69.0 23.006999999999998 69.7225 23.5935Q70.445 24.18 70.7 25.421H70.224Q70.598 24.214 71.44800000000001 23.6105Q72.298 23.006999999999998 73.28399999999999 23.006999999999998Q74.814 23.006999999999998 75.5705 23.993Q76.327 24.979 76.327 26.917V32.0H74.253V26.933999999999997Q74.253 25.88 73.8535 25.387Q73.454 24.894 72.655 24.894Q72.179 24.894 71.7625 25.1745Q71.346 25.455 71.0995 25.9565Q70.853 26.458 70.853 27.121V32.0H68.779V26.933999999999997Q68.779 25.88 68.388 25.387Q67.997 24.894 67.181 24.894Q66.705 24.894 66.2885 25.183Q65.872 25.472 65.62549999999999 25.9735Q65.37899999999999 26.475 65.37899999999999 27.137999999999998V32.0H63.305Z M83.569 26.917Q83.569 25.829 83.1015 25.3105Q82.634 24.792 81.733 24.792Q81.121 24.792 80.594 25.064Q80.067 25.336 79.676 25.846L78.146 24.808999999999997Q78.826 23.924999999999997 79.78649999999999 23.465999999999998Q80.747 23.006999999999998 81.90299999999999 23.006999999999998Q83.654 23.006999999999998 84.61449999999999 23.967499999999998Q85.575 24.927999999999997 85.575 26.883V32.0H83.569ZM77.908 29.603Q77.908 28.243 78.894 27.478Q79.88 26.713 81.597 26.713H83.977V28.175H81.699Q80.832 28.175 80.37299999999999 28.497999999999998Q79.914 28.820999999999998 79.914 29.433Q79.914 29.943 80.25399999999999 30.2235Q80.594 30.504 81.24 30.504Q81.852 30.504 82.3875 30.2065Q82.923 29.909 83.24600000000001 29.365Q83.569 28.820999999999998 83.569 28.09L84.215 28.685Q84.215 29.773 83.7475 30.563499999999998Q83.28 31.354 82.481 31.787499999999998Q81.682 32.221 80.696 32.221Q79.863 32.221 79.234 31.915Q78.60499999999999 31.609 78.25649999999999 31.0225Q77.908 30.436 77.908 29.603Z M89.638 32.0H87.56400000000001V23.244999999999997H89.638ZM87.394 20.711999999999996Q87.394 20.150999999999996 87.73400000000001 19.827999999999996Q88.07400000000001 19.504999999999995 88.61800000000001 19.504999999999995Q89.17900000000002 19.504999999999995 89.51050000000001 19.827999999999996Q89.84200000000001 20.150999999999996 89.84200000000001 20.711999999999996Q89.84200000000001 21.255999999999997 89.51050000000001 21.595999999999997Q89.17900000000002 21.936 88.61800000000001 21.936Q88.07400000000001 21.936 87.73400000000001 21.595999999999997Q87.394 21.255999999999997 87.394 20.711999999999996Z M91.69500000000001 19.539H93.769V32.0H91.69500000000001Z" fill="#F3F5F8"/>
</svg>