<svg width="120" height="52" viewBox="0 0 120 52" xmlns="http://www.w3.org/2000/svg" font-family="One UI Sans">
<path d="M26.0,1 h68.0 a25.0,25.0 0 0 1 25.0,25.0 v0.0 a25.0,25.0 0 0 1 -25.0,25.0 h-68.0 a25.0,25.0 0 0 1 -25.0,-25.0 v-0.0 a25.0,25.0 0 0 1 25.0,-25.0 z" fill="#F1F3F7" stroke="#E3E7ED"/>
<g transform="translate(15.0,15.0) scale(0.9166666666666666)" stroke="#1B72F2" stroke-width="1.9" stroke-linecap="round" stroke-linejoin="round" fill="#1B72F2"><rect x="4.5" y="6" width="15" height="12" rx="2.4" fill="none"/><path d="M5.5 7.5l6.5 5 6.5-5" fill="none"/></g>
<path d="M55.309 19.912999999999997H63.537V21.851H56.193L57.434 20.95V30.963L56.193 30.062H63.537V32.0H55.309ZM55.938 24.927999999999997H63.044V26.849H55.938Z M65.30499999999999 23.244999999999997H67.362V25.659H66.835Q67.056 24.808999999999997 67.51499999999999 24.214Q67.97399999999999 23.619 68.58599999999998 23.313Q69.198 23.006999999999998 69.878 23.006999999999998Q71.0 23.006999999999998 71.7225 23.5935Q72.445 24.18 72.7 25.421H72.224Q72.598 24.214 73.44800000000001 23.6105Q74.298 23.006999999999998 75.28399999999999 23.006999999999998Q76.814 23.006999999999998 77.5705 23.993Q78.327 24.979 78.327 26.917V32.0H76.253V26.933999999999997Q76.253 25.88 75.8535 25.387Q75.454 24.894 74.655 24.894Q74.179 24.894 73.7625 25.1745Q73.346 25.455 73.0995 25.9565Q72.853 26.458 72.853 27.121V32.0H70.779V26.933999999999997Q70.779 25.88 70.388 25.387Q69.997 24.894 69.181 24.894Q68.705 24.894 68.2885 25.183Q67.872 25.472 67.62549999999999 25.9735Q67.37899999999999 26.475 67.37899999999999 27.137999999999998V32.0H65.30499999999999Z M85.569 26.917Q85.569 25.829 85.1015 25.3105Q84.634 24.792 83.733 24.792Q83.121 24.792 82.594 25.064Q82.067 25.336 81.676 25.846L80.146 24.808999999999997Q80.826 23.924999999999997 81.78649999999999 23.465999999999998Q82.747 23.006999999999998 83.90299999999999 23.006999999999998Q85.654 23.006999999999998 86.61449999999999 23.967499999999998Q87.575 24.927999999999997 87.575 26.883V32.0H85.569ZM79.908 29.603Q79.908 28.243 80.894 27.478Q81.88 26.713 83.597 26.713H85.977V28.175H83.699Q82.832 28.175 82.37299999999999 28.497999999999998Q81.914 28.820999999999998 81.914 29.433Q81.914 29.943 82.25399999999999 30.2235Q82.594 30.504 83.24 30.504Q83.852 30.504 84.3875 30.2065Q84.923 29.909 85.24600000000001 29.365Q85.569 28.820999999999998 85.569 28.09L86.215 28.685Q86.215 29.773 85.7475 30.563499999999998Q85.28 31.354 84.481 31.787499999999998Q83.682 32.221 82.696 32.221Q81.863 32.221 81.234 31.915Q80.60499999999999 31.609 80.25649999999999 31.0225Q79.908 30.436 79.908 29.603Z M91.638 32.0H89.56400000000001V23.244999999999997H91.638ZM89.394 20.711999999999996Q89.394 20.150999999999996 89.73400000000001 19.827999999999996Q90.07400000000001 19.504999999999995 90.61800000000001 19.504999999999995Q91.17900000000002 19.504999999999995 91.51050000000001 19.827999999999996Q91.84200000000001 20.150999999999996 91.84200000000001 20.711999999999996Q91.84200000000001 21.255999999999997 91.51050000000001 21.595999999999997Q91.17900000000002 21.936 90.61800000000001 21.936Q90.07400000000001 21.936 89.73400000000001 21.595999999999997Q89.394 21.255999999999997 89.394 20.711999999999996Z M93.69500000000001 19.539H95.769V32.0H93.69500000000001Z" fill="#15171C"/>
</svg>