<svg width="133" height="52" viewBox="0 0 133 52" xmlns="http://www.w3.org/2000/svg" font-family="One UI Sans">
<path d="M26.0,1 h81.0 a25.0,25.0 0 0 1 25.0,25.0 v0.0 a25.0,25.0 0 0 1 -25.0,25.0 h-81.0 a25.0,25.0 0 0 1 -25.0,-25.0 v-0.0 a25.0,25.0 0 0 1 25.0,-25.0 z" fill="#5AA0FF"/>
<g transform="translate(15.0,15.0) scale(0.9166666666666666)" stroke="#FFFFFF" stroke-width="1.9" stroke-linecap="round" stroke-linejoin="round" fill="#FFFFFF"><path d="M12 4.2a7.8 7.8 0 0 0-2.5 15.2c.4.07.55-.17.55-.38v-1.5c-2.2.48-2.67-1-2.67-1-.36-.92-.88-1.16-.88-1.16-.72-.49.06-.48.06-.48.8.056 1.22.82 1.22.82.71 1.22 1.86.87 2.31.66.07-.51.28-.87.5-1.07-1.75-.2-3.6-.88-3.6-3.9 0-.86.31-1.57.82-2.12-.08-.2-.36-1 .08-2.1 0 0 .67-.21 2.2.81a7.6 7.6 0 0 1 4 0c1.53-1.02 2.2-.81 2.2-.81.44 1.1.16 1.9.08 2.1.51.55.82 1.26.82 2.12 0 3.03-1.85 3.7-3.61 3.9.29.24.54.72.54 1.45v2.15c0 .21.15.45.55.38A7.8 7.8 0 0 0 12 4.2z"/></g>
<path d="M54.731 25.965Q54.731 24.044 55.453500000000005 22.6415Q56.176 21.238999999999997 57.502 20.4655Q58.828 19.692 60.579 19.692Q62.245000000000005 19.692 63.5285 20.4485Q64.812 21.205 65.543 22.564999999999998L63.707 23.585Q63.214 22.633 62.415 22.1655Q61.616 21.698 60.579 21.698Q59.44 21.698 58.6155 22.2165Q57.791 22.735 57.3575 23.686999999999998Q56.924 24.639 56.924 25.965Q56.924 27.256999999999998 57.3575 28.209Q57.791 29.161 58.6155 29.688000000000002Q59.44 30.215 60.596000000000004 30.215Q61.616 30.215 62.415 29.7305Q63.214 29.246 63.673 28.378999999999998Q64.132 27.512 64.132 26.372999999999998V26.253999999999998L65.441 27.155H60.664V25.285H66.308V25.965Q66.308 27.886 65.56 29.296999999999997Q64.812 30.708 63.519999999999996 31.464499999999997Q62.228 32.221 60.579 32.221Q58.828 32.221 57.5105 31.447499999999998Q56.193 30.674 55.462 29.262999999999998Q54.731 27.852 54.731 25.965Z M70.133 32.0H68.059V23.244999999999997H70.133ZM67.889 20.711999999999996Q67.889 20.150999999999996 68.229 19.827999999999996Q68.569 19.504999999999995 69.113 19.504999999999995Q69.674 19.504999999999995 70.00550000000001 19.827999999999996Q70.337 20.150999999999996 70.337 20.711999999999996Q70.337 21.255999999999997 70.00550000000001 21.595999999999997Q69.674 21.936 69.113 21.936Q68.569 21.936 68.229 21.595999999999997Q67.889 21.255999999999997 67.889 20.711999999999996Z M72.802 29.144V21.222L74.876 20.508V28.804Q74.876 29.637 75.182 29.9515Q75.488 30.266 76.134 30.266Q76.389 30.266 76.661 30.2235Q76.933 30.181 77.188 30.13V31.949Q76.848 32.034 76.4315 32.0935Q76.015 32.153 75.658 32.153Q74.808 32.153 74.162 31.863999999999997Q73.516 31.575 73.159 30.920499999999997Q72.802 30.266 72.802 29.144ZM71.44200000000001 23.244999999999997H76.763V25.081H71.44200000000001Z M78.99 19.912999999999997H81.13199999999999V32.0H78.99ZM86.589 19.912999999999997H88.714V32.0H86.589ZM87.507 26.883H80.197V24.894H87.507Z M90.99199999999999 28.362V23.244999999999997H93.06599999999999V28.259999999999998Q93.06599999999999 29.331 93.49099999999999 29.8325Q93.916 30.334 94.76599999999999 30.334Q95.327 30.334 95.7435 30.045Q96.16 29.756 96.4065 29.229Q96.65299999999999 28.701999999999998 96.65299999999999 28.022V23.244999999999997H98.72699999999999V32.0H96.66999999999999V29.569H97.19699999999999Q96.90799999999999 30.793 96.05799999999999 31.506999999999998Q95.208 32.221 94.086 32.221Q92.556 32.221 91.774 31.2605Q90.99199999999999 30.3 90.99199999999999 28.362Z M102.807 32.0H100.767V19.539H102.841V25.659H102.314Q102.654 24.401 103.521 23.704Q104.388 23.006999999999998 105.561 23.006999999999998Q106.734 23.006999999999998 107.5925 23.5765Q108.451 24.146 108.9185 25.174500000000002Q109.386 26.203 109.386 27.614Q109.386 29.025 108.9185 30.061999999999998Q108.451 31.099 107.5925 31.659999999999997Q106.734 32.221 105.561 32.221Q104.388 32.221 103.521 31.5325Q102.654 30.844 102.314 29.603H102.807ZM102.841 27.631Q102.841 28.43 103.113 29.042Q103.385 29.654 103.88650000000001 29.985500000000002Q104.388 30.317 105.085 30.317Q105.782 30.317 106.26650000000001 29.9685Q106.751 29.62 107.0145 29.008000000000003Q107.278 28.396 107.278 27.614Q107.278 26.832 107.0145 26.22Q106.751 25.608 106.26650000000001 25.259500000000003Q105.782 24.911 105.085 24.911Q104.388 24.911 103.88650000000001 25.259500000000003Q103.385 25.608 103.113 26.2115Q102.841 26.814999999999998 102.841 27.631Z" fill="#FFFFFF"/>
</svg>