<svg width="880" height="150" viewBox="0 0 880 150" xmlns="http://www.w3.org/2000/svg" font-family="One UI Sans"><defs><filter id="sh_dark" x="-20%" y="-20%" width="140%" height="160%"><feDropShadow dx="0" dy="6" stdDeviation="10" flood-color="#0B1B3A" flood-opacity="0.45"/></filter></defs>
<path d="M28,6 h824 a28,28 0 0 1 28,28 v82 a28,28 0 0 1 -28,28 h-824 a28,28 0 0 1 -28,-28 v-82 a28,28 0 0 1 28,-28 z" fill="#1A1C20" stroke="#2A2E34" filter="url(#sh_dark)"/>
<path d="M41.095 41.335H48.205V43.3H42.04L43.225 42.25V52.0H41.095ZM41.71 45.985H47.769999999999996V47.92H41.71Z M49.825 41.335H57.220000000000006V43.3H50.77L51.955000000000005 42.4V50.935L50.77 50.035H57.220000000000006V52.0H49.825ZM50.440000000000005 45.64H56.785000000000004V47.575H50.440000000000005Z M62.395 42.385H63.445L60.19 52.0H58.0L61.84 41.335H64.105L67.945 52.0H65.665ZM65.875 49.915H60.325V48.055H65.875Z M71.755 41.815H73.91499999999999V52.0H71.755ZM68.53 41.335H77.14V43.36H68.53Z M78.53499999999998 47.74V41.335H80.695V47.74Q80.695 48.58 80.94999999999999 49.1125Q81.20499999999998 49.645 81.6925 49.900000000000006Q82.17999999999999 50.155 82.89999999999999 50.155Q83.60499999999999 50.155 84.09249999999999 49.900000000000006Q84.57999999999998 49.645 84.83499999999998 49.1125Q85.08999999999999 48.58 85.08999999999999 47.74V41.335H87.24999999999999V47.74Q87.24999999999999 49.21 86.73999999999998 50.207499999999996Q86.22999999999999 51.205 85.26249999999999 51.707499999999996Q84.29499999999999 52.21 82.88499999999999 52.21Q81.505 52.21 80.53 51.707499999999996Q79.55499999999999 51.205 79.04499999999999 50.207499999999996Q78.53499999999998 49.21 78.53499999999998 47.74Z M89.305 41.335H93.04Q94.97500000000001 41.335 96.07000000000001 42.2875Q97.165 43.24 97.165 44.86Q97.165 46.18 96.4375 47.0125Q95.71000000000001 47.845 94.405 48.13L93.92500000000001 48.235Q93.73 48.28 93.5875 48.3025Q93.44500000000001 48.325 93.25000000000001 48.355H90.92500000000001V46.45H92.92Q93.97000000000001 46.45 94.495 46.0375Q95.02000000000001 45.625 95.02000000000001 44.83Q95.02000000000001 44.065 94.495 43.6525Q93.97000000000001 43.24 92.92 43.24H91.42V52.0H89.305ZM92.905 47.47 94.94500000000001 47.29 97.375 52.0H95.06500000000001Z M99.07 41.335H106.46499999999999V43.3H100.015L101.19999999999999 42.4V50.935L100.015 50.035H106.46499999999999V52.0H99.07ZM99.68499999999999 45.64H106.03V47.575H99.68499999999999Z M115.24 46.66Q115.24 45.04 114.4 44.185Q113.56 43.33 112.015 43.33H110.335V50.005H112.015Q113.56 50.005 114.4 49.150000000000006Q115.24 48.295 115.24 46.66ZM112.13499999999999 52.0H108.175V41.335H112.13499999999999Q113.8 41.335 114.9925 41.965Q116.185 42.595 116.82249999999999 43.7875Q117.46 44.980000000000004 117.46 46.66Q117.46 48.34 116.82249999999999 49.5325Q116.185 50.725 114.9925 51.3625Q113.8 52.0 112.13499999999999 52.0Z M122.86 41.335H125.02V52.0H122.86Z M127.195 41.335H129.625L134.89 50.65H133.855V41.335H135.91V52.0H133.465L128.2 42.685H129.23499999999999V52.0H127.195Z" fill="#697079"/>
<path d="M60.0,78 h89.77600000000001 a20.0,20.0 0 0 1 20.0,20.0 v0.0 a20.0,20.0 0 0 1 -20.0,20.0 h-89.77600000000001 a20.0,20.0 0 0 1 -20.0,-20.0 v-0.0 a20.0,20.0 0 0 1 20.0,-20.0 z" fill="#23262C" stroke="#2A2E34"/>
<circle cx="60" cy="98.0" r="4" fill="#5A93FF"/>
<path d="M79.11449999999999 100.5085Q79.11449999999999 99.9195 78.70375 99.57849999999999Q78.293 99.2375 77.239 98.9585L75.9525 98.602Q74.418 98.168 73.6585 97.38525000000001Q72.899 96.6025 72.899 95.4245Q72.899 93.952 73.97625 93.11500000000001Q75.0535 92.278 76.929 92.278Q77.8435 92.278 78.62625 92.53375Q79.409 92.7895 80.0135 93.27775Q80.618 93.766 80.959 94.44800000000001L79.409 95.44Q79.0215 94.727 78.3395 94.386Q77.6575 94.045 76.8825 94.045Q75.937 94.045 75.3945 94.37049999999999Q74.852 94.696 74.852 95.3315Q74.852 95.8895 75.2705 96.2305Q75.689 96.5715 76.681 96.8505L77.9675 97.207Q79.6105 97.6565 80.34675 98.416Q81.083 99.1755 81.083 100.4155Q81.083 101.95 80.029 102.82575Q78.975 103.7015 77.022 103.7015Q75.5185 103.7015 74.34049999999999 103.12025Q73.1625 102.539 72.4495 101.454L74.015 100.462Q74.49549999999999 101.1595 75.2705 101.547Q76.0455 101.9345 77.022 101.9345Q78.045 101.9345 78.57974999999999 101.5625Q79.11449999999999 101.1905 79.11449999999999 100.5085Z M87.438 98.8655Q87.438 97.8735 87.01175 97.40075Q86.5855 96.928 85.76400000000001 96.928Q85.206 96.928 84.72550000000001 97.176Q84.245 97.424 83.88850000000001 97.889L82.4935 96.9435Q83.1135 96.1375 83.98925 95.719Q84.86500000000001 95.3005 85.919 95.3005Q87.5155 95.3005 88.39125 96.17625Q89.267 97.05199999999999 89.267 98.8345V103.5H87.438ZM82.2765 101.3145Q82.2765 100.0745 83.1755 99.37700000000001Q84.0745 98.6795 85.64 98.6795H87.81V100.0125H85.733Q84.94250000000001 100.0125 84.524 100.307Q84.1055 100.6015 84.1055 101.1595Q84.1055 101.6245 84.41550000000001 101.88024999999999Q84.7255 102.136 85.31450000000001 102.136Q85.8725 102.136 86.36075 101.86475Q86.849 101.5935 87.1435 101.0975Q87.438 100.6015 87.438 99.935L88.027 100.4775Q88.027 101.4695 87.60075 102.19024999999999Q87.17450000000001 102.911 86.446 103.30625Q85.7175 103.7015 84.8185 103.7015Q84.059 103.7015 83.4855 103.4225Q82.912 103.1435 82.59425 102.60875Q82.2765 102.074 82.2765 101.3145Z M91.0805 95.5175H92.95599999999999V97.7185H92.4755Q92.67699999999999 96.9435 93.09549999999999 96.40100000000001Q93.514 95.8585 94.072 95.5795Q94.63 95.3005 95.25 95.3005Q96.273 95.3005 96.93175 95.83525Q97.59049999999999 96.37 97.823 97.5015H97.389Q97.72999999999999 96.401 98.505 95.85075Q99.28 95.3005 100.17899999999999 95.3005Q101.574 95.3005 102.26374999999999 96.1995Q102.95349999999999 97.0985 102.95349999999999 98.8655V103.5H101.0625V98.881Q101.0625 97.92 100.69825 97.4705Q100.33399999999999 97.021 99.60549999999999 97.021Q99.1715 97.021 98.79175 97.27674999999999Q98.41199999999999 97.5325 98.18724999999999 97.98975Q97.96249999999999 98.447 97.96249999999999 99.0515V103.5H96.0715V98.881Q96.0715 97.92 95.715 97.4705Q95.35849999999999 97.021 94.61449999999999 97.021Q94.1805 97.021 93.80075 97.28450000000001Q93.42099999999999 97.548 93.19624999999999 98.00525Q92.97149999999999 98.4625 92.97149999999999 99.06700000000001V103.5H91.0805Z M104.75150000000001 95.5175H106.627V97.7185H106.1465Q106.348 96.9435 106.76650000000001 96.40100000000001Q107.185 95.8585 107.743 95.5795Q108.301 95.3005 108.921 95.3005Q109.944 95.3005 110.60275 95.83525Q111.2615 96.37 111.494 97.5015H111.06Q111.401 96.401 112.17599999999999 95.85075Q112.951 95.3005 113.85 95.3005Q115.245 95.3005 115.93475000000001 96.1995Q116.6245 97.0985 116.6245 98.8655V103.5H114.73349999999999V98.881Q114.73349999999999 97.92 114.36925 97.4705Q114.005 97.021 113.2765 97.021Q112.8425 97.021 112.46275 97.27674999999999Q112.083 97.5325 111.85825 97.98975Q111.6335 98.447 111.6335 99.0515V103.5H109.7425V98.881Q109.7425 97.92 109.386 97.4705Q109.0295 97.021 108.2855 97.021Q107.8515 97.021 107.47175 97.28450000000001Q107.092 97.548 106.86725 98.00525Q106.6425 98.4625 106.6425 99.06700000000001V103.5H104.75150000000001Z M118.376 105.2515Q118.655 105.298 118.8875 105.3135Q119.12 105.329 119.337 105.329Q119.7865 105.329 120.06550000000001 105.11975Q120.34450000000001 104.9105 120.57700000000001 104.2905L121.197 102.663L121.39850000000001 102.632L124.0955 95.5175H126.0485L122.375 104.6935Q122.04950000000001 105.515 121.68525000000001 106.03425Q121.32100000000001 106.5535 120.82500000000002 106.8015Q120.32900000000001 107.0495 119.554 107.0495Q119.30600000000001 107.0495 118.99600000000001 107.02625Q118.686 107.003 118.376 106.9255ZM122.5455 102.6475 121.3365 104.275 117.72500000000001 95.5175H119.802Z M126.9475 97.9975Q126.9475 96.246 127.60625000000002 94.96725Q128.26500000000001 93.6885 129.474 92.98325Q130.683 92.278 132.2795 92.278Q133.79850000000002 92.278 134.96875 92.96775Q136.139 93.6575 136.8055 94.89750000000001L135.13150000000002 95.8275Q134.68200000000002 94.9595 133.95350000000002 94.53325000000001Q133.225 94.107 132.2795 94.107Q131.241 94.107 130.48925000000003 94.57974999999999Q129.7375 95.0525 129.34225 95.9205Q128.947 96.7885 128.947 97.9975Q128.947 99.1755 129.34225 100.0435Q129.7375 100.9115 130.48925000000003 101.392Q131.241 101.8725 132.29500000000002 101.8725Q133.225 101.8725 133.95350000000002 101.43075Q134.68200000000002 100.989 135.1005 100.1985Q135.519 99.408 135.519 98.3695V98.261L136.7125 99.0825H132.357V97.3775H137.50300000000001V97.9975Q137.50300000000001 99.749 136.82100000000003 101.0355Q136.139 102.322 134.961 103.01175Q133.78300000000002 103.7015 132.2795 103.7015Q130.683 103.7015 129.48175 102.99625Q128.28050000000002 102.291 127.614 101.00450000000001Q126.9475 99.718 126.9475 97.9975Z M139.0375 100.18299999999999V95.5175H140.92849999999999V100.09Q140.92849999999999 101.0665 141.31599999999997 101.52375Q141.7035 101.981 142.4785 101.981Q142.99 101.981 143.36975 101.7175Q143.7495 101.454 143.97425 100.9735Q144.199 100.493 144.199 99.873V95.5175H146.09V103.5H144.2145V101.2835H144.695Q144.4315 102.3995 143.6565 103.0505Q142.8815 103.7015 141.8585 103.7015Q140.4635 103.7015 139.7505 102.82575Q139.0375 101.95 139.0375 100.18299999999999Z M147.95 95.5175H149.82549999999998V97.7185H149.34499999999997Q149.48449999999997 97.0985 149.85649999999998 96.56375Q150.22849999999997 96.029 150.75549999999998 95.69575Q151.28249999999997 95.3625 151.90249999999997 95.3625Q152.05749999999998 95.3625 152.21249999999998 95.378Q152.36749999999998 95.3935 152.53799999999998 95.44V97.238Q152.22799999999998 97.176 151.856 97.176Q151.28249999999997 97.176 150.82524999999998 97.43175Q150.368 97.6875 150.10449999999997 98.18350000000001Q149.84099999999998 98.6795 149.84099999999998 99.408V103.5H147.95Z M153.7935 100.18299999999999V95.5175H155.68449999999999V100.09Q155.68449999999999 101.0665 156.072 101.52375Q156.4595 101.981 157.2345 101.981Q157.746 101.981 158.12575 101.7175Q158.5055 101.454 158.73025 100.9735Q158.955 100.493 158.955 99.873V95.5175H160.846V103.5H158.9705V101.2835H159.451Q159.1875 102.3995 158.4125 103.0505Q157.6375 103.7015 156.6145 103.7015Q155.2195 103.7015 154.50650000000002 102.82575Q153.7935 101.95 153.7935 100.18299999999999Z" fill="#F3F5F8"/>
<path d="M201.776,78 h127.8905 a20.0,20.0 0 0 1 20.0,20.0 v0.0 a20.0,20.0 0 0 1 -20.0,20.0 h-127.8905 a20.0,20.0 0 0 1 -20.0,-20.0 v-0.0 a20.0,20.0 0 0 1 20.0,-20.0 z" fill="#23262C" stroke="#2A2E34"/>
<circle cx="201.776" cy="98.0" r="4" fill="#5A93FF"/>
<path d="M218.45700000000002 93.4095H219.418L215.946 103.5H213.96200000000002L217.961 92.4795H220.007L224.006 103.5H221.9445ZM221.9755 101.175H216.22500000000002V99.4545H221.9755Z M225.122 95.5175H226.9975V97.7185H226.517Q226.79600000000002 96.618 227.57100000000003 95.95925Q228.346 95.3005 229.369 95.3005Q232.2055 95.3005 232.2055 98.819V103.5H230.3145V98.9275Q230.3145 97.951 229.92700000000002 97.48599999999999Q229.5395 97.021 228.749 97.021Q228.25300000000001 97.021 227.85775 97.28450000000001Q227.4625 97.548 227.23775 98.02850000000001Q227.013 98.509 227.013 99.1445V103.5H225.122Z M233.6005 99.501Q233.6005 98.2145 234.03450000000004 97.27674999999999Q234.46850000000003 96.339 235.25125000000003 95.81975Q236.03400000000002 95.3005 237.10350000000003 95.3005Q238.15750000000003 95.3005 238.95575000000002 95.92824999999999Q239.75400000000002 96.556 240.04850000000002 97.6875H239.568V92.1385H241.45900000000003V103.5H239.58350000000002V101.299H240.04850000000002Q239.73850000000002 102.4305 238.94025000000002 103.066Q238.14200000000002 103.7015 237.10350000000003 103.7015Q236.03400000000002 103.7015 235.25125000000003 103.19Q234.46850000000003 102.6785 234.03450000000004 101.733Q233.6005 100.7875 233.6005 99.501ZM235.52250000000004 99.501Q235.52250000000004 100.214 235.76275000000004 100.77199999999999Q236.00300000000001 101.33 236.45250000000001 101.64775Q236.90200000000002 101.9655 237.53750000000002 101.9655Q238.17300000000003 101.9655 238.63025000000005 101.66325Q239.08750000000003 101.361 239.33550000000002 100.79525000000001Q239.58350000000002 100.2295 239.58350000000002 99.501Q239.58350000000002 98.757 239.33550000000002 98.2145Q239.08750000000003 97.672 238.63025000000005 97.35425000000001Q238.17300000000003 97.0365 237.53750000000002 97.0365Q236.90200000000002 97.0365 236.45250000000001 97.35425000000001Q236.00300000000001 97.672 235.76275000000004 98.22225Q235.52250000000004 98.7725 235.52250000000004 99.501Z M243.31900000000002 95.5175H245.1945V97.7185H244.714Q244.8535 97.0985 245.2255 96.56375Q245.5975 96.029 246.1245 95.69575Q246.6515 95.3625 247.2715 95.3625Q247.4265 95.3625 247.5815 95.378Q247.7365 95.3935 247.907 95.44V97.238Q247.597 97.176 247.22500000000002 97.176Q246.6515 97.176 246.19425 97.43175Q245.73700000000002 97.6875 245.4735 98.18350000000001Q245.21 98.6795 245.21 99.408V103.5H243.31900000000002Z M248.82150000000001 99.501Q248.82150000000001 98.261 249.30975 97.3155Q249.79800000000003 96.37 250.69700000000003 95.83525Q251.59600000000003 95.3005 252.77400000000003 95.3005Q253.98300000000003 95.3005 254.86650000000003 95.83525Q255.75000000000003 96.37 256.24600000000004 97.3155Q256.742 98.261 256.742 99.501Q256.742 100.741 256.24600000000004 101.6865Q255.75000000000003 102.632 254.86650000000003 103.16675000000001Q253.98300000000003 103.7015 252.77400000000003 103.7015Q251.59600000000003 103.7015 250.69700000000003 103.16675000000001Q249.79800000000003 102.632 249.30975 101.6865Q248.82150000000001 100.741 248.82150000000001 99.501ZM250.74350000000004 99.501Q250.74350000000004 100.2295 250.99150000000003 100.79525000000001Q251.23950000000002 101.361 251.69675 101.66325Q252.15400000000002 101.9655 252.77400000000003 101.9655Q253.42500000000004 101.9655 253.87450000000004 101.66325Q254.32400000000004 101.361 254.57200000000003 100.79525000000001Q254.82000000000002 100.2295 254.82000000000002 99.501Q254.82000000000002 98.757 254.57200000000003 98.20675Q254.32400000000004 97.6565 253.87450000000004 97.34649999999999Q253.42500000000004 97.0365 252.77400000000003 97.0365Q252.15400000000002 97.0365 251.69675 97.34649999999999Q251.23950000000002 97.6565 250.99150000000003 98.20675Q250.74350000000004 98.757 250.74350000000004 99.501Z M260.09000000000003 103.5H258.199V95.5175H260.09000000000003ZM258.04400000000004 93.208Q258.04400000000004 92.6965 258.35400000000004 92.402Q258.66400000000004 92.1075 259.16 92.1075Q259.67150000000004 92.1075 259.97375 92.402Q260.276 92.6965 260.276 93.208Q260.276 93.704 259.97375 94.014Q259.67150000000004 94.324 259.16 94.324Q258.66400000000004 94.324 258.35400000000004 94.014Q258.04400000000004 93.704 258.04400000000004 93.208Z M261.5625 99.501Q261.5625 98.2145 261.99649999999997 97.27674999999999Q262.4305 96.339 263.21325 95.81975Q263.99600000000004 95.3005 265.0655 95.3005Q266.1195 95.3005 266.91775 95.92824999999999Q267.716 96.556 268.01050000000004 97.6875H267.53000000000003V92.1385H269.421V103.5H267.5455V101.299H268.01050000000004Q267.70050000000003 102.4305 266.90225000000004 103.066Q266.10400000000004 103.7015 265.0655 103.7015Q263.99600000000004 103.7015 263.21325 103.19Q262.4305 102.6785 261.99649999999997 101.733Q261.5625 100.7875 261.5625 99.501ZM263.4845 99.501Q263.4845 100.214 263.72475000000003 100.77199999999999Q263.96500000000003 101.33 264.41450000000003 101.64775Q264.86400000000003 101.9655 265.4995 101.9655Q266.135 101.9655 266.59225000000004 101.66325Q267.0495 101.361 267.2975 100.79525000000001Q267.5455 100.2295 267.5455 99.501Q267.5455 98.757 267.2975 98.2145Q267.0495 97.672 266.59225000000004 97.35425000000001Q266.135 97.0365 265.4995 97.0365Q264.86400000000003 97.0365 264.41450000000003 97.35425000000001Q263.96500000000003 97.672 263.72475000000003 98.22225Q263.4845 98.7725 263.4845 99.501Z M278.8915 93.4095H279.8525L276.38050000000004 103.5H274.3965L278.3955 92.4795H280.4415L284.44050000000004 103.5H282.379ZM282.41 101.175H276.65950000000004V99.4545H282.41Z M285.4945 100.18299999999999V95.5175H287.38550000000004V100.09Q287.38550000000004 101.0665 287.773 101.52375Q288.1605 101.981 288.93550000000005 101.981Q289.447 101.981 289.82675 101.7175Q290.2065 101.454 290.43125 100.9735Q290.656 100.493 290.656 99.873V95.5175H292.547V103.5H290.67150000000004V101.2835H291.15200000000004Q290.8885 102.3995 290.11350000000004 103.0505Q289.3385 103.7015 288.31550000000004 103.7015Q286.9205 103.7015 286.2075 102.82575Q285.4945 101.95 285.4945 100.18299999999999Z M294.965 100.896V93.673L296.856 93.022V100.586Q296.856 101.3455 297.135 101.63225Q297.414 101.919 298.003 101.919Q298.2355 101.919 298.4835 101.88024999999999Q298.7315 101.8415 298.964 101.795V103.4535Q298.654 103.531 298.27425 103.58525Q297.8945 103.6395 297.56899999999996 103.6395Q296.794 103.6395 296.205 103.376Q295.616 103.1125 295.29049999999995 102.51575Q294.965 101.919 294.965 100.896ZM293.72499999999997 95.5175H298.57649999999995V97.1915H293.72499999999997Z M300.3435 92.1385H302.2345V97.7185H301.7385Q302.0175 96.618 302.7925 95.95925Q303.5675 95.3005 304.5905 95.3005Q307.427 95.3005 307.427 98.819V103.5H305.536V98.9275Q305.536 97.951 305.1485 97.48599999999999Q304.761 97.021 303.9705 97.021Q303.4745 97.021 303.07925 97.28450000000001Q302.684 97.548 302.45925 98.02850000000001Q302.2345 98.509 302.2345 99.1445V103.5H300.3435Z M308.822 99.501Q308.822 98.261 309.31025 97.3155Q309.7985 96.37 310.6975 95.83525Q311.5965 95.3005 312.7745 95.3005Q313.9835 95.3005 314.86699999999996 95.83525Q315.7505 96.37 316.24649999999997 97.3155Q316.7425 98.261 316.7425 99.501Q316.7425 100.741 316.24649999999997 101.6865Q315.7505 102.632 314.86699999999996 103.16675000000001Q313.9835 103.7015 312.7745 103.7015Q311.5965 103.7015 310.6975 103.16675000000001Q309.7985 102.632 309.31025 101.6865Q308.822 100.741 308.822 99.501ZM310.744 99.501Q310.744 100.2295 310.992 100.79525000000001Q311.24 101.361 311.69725000000005 101.66325Q312.15450000000004 101.9655 312.7745 101.9655Q313.4255 101.9655 313.875 101.66325Q314.3245 101.361 314.5725 100.79525000000001Q314.82050000000004 100.2295 314.82050000000004 99.501Q314.82050000000004 98.757 314.5725 98.20675Q314.3245 97.6565 313.875 97.34649999999999Q313.4255 97.0365 312.7745 97.0365Q312.15450000000004 97.0365 311.69725000000005 97.34649999999999Q311.24 97.6565 310.992 98.20675Q310.744 98.757 310.744 99.501Z M318.1995 95.5175H320.075V97.7185H319.5945Q319.734 97.0985 320.106 96.56375Q320.478 96.029 321.005 95.69575Q321.532 95.3625 322.152 95.3625Q322.307 95.3625 322.462 95.378Q322.617 95.3935 322.78749999999997 95.44V97.238Q322.4775 97.176 322.1055 97.176Q321.532 97.176 321.07475 97.43175Q320.6175 97.6875 320.35400000000004 98.18350000000001Q320.0905 98.6795 320.0905 99.408V103.5H318.1995Z M325.99600000000004 103.5H324.105V95.5175H325.99600000000004ZM323.95000000000005 93.208Q323.95000000000005 92.6965 324.26000000000005 92.402Q324.57000000000005 92.1075 325.06600000000003 92.1075Q325.57750000000004 92.1075 325.87975000000006 92.402Q326.182 92.6965 326.182 93.208Q326.182 93.704 325.87975000000006 94.014Q325.57750000000004 94.324 325.06600000000003 94.324Q324.57000000000005 94.324 324.26000000000005 94.014Q323.95000000000005 93.704 323.95000000000005 93.208Z M328.4295 100.896V93.673L330.32050000000004 93.022V100.586Q330.32050000000004 101.3455 330.59950000000003 101.63225Q330.87850000000003 101.919 331.46750000000003 101.919Q331.70000000000005 101.919 331.94800000000004 101.88024999999999Q332.196 101.8415 332.42850000000004 101.795V103.4535Q332.11850000000004 103.531 331.73875000000004 103.58525Q331.35900000000004 103.6395 331.0335 103.6395Q330.2585 103.6395 329.6695 103.376Q329.08050000000003 103.1125 328.755 102.51575Q328.4295 101.919 328.4295 100.896ZM327.1895 95.5175H332.041V97.1915H327.1895Z M333.76150000000007 105.2515Q334.04050000000007 105.298 334.273 105.3135Q334.50550000000004 105.329 334.7225 105.329Q335.172 105.329 335.451 105.11975Q335.73 104.9105 335.96250000000003 104.2905L336.58250000000004 102.663L336.78400000000005 102.632L339.48100000000005 95.5175H341.434L337.76050000000004 104.6935Q337.43500000000006 105.515 337.0707500000001 106.03425Q336.70650000000006 106.5535 336.2105 106.8015Q335.71450000000004 107.0495 334.93950000000007 107.0495Q334.6915 107.0495 334.3815 107.02625Q334.0715 107.003 333.76150000000007 106.9255ZM337.93100000000004 102.6475 336.72200000000004 104.275 333.11050000000006 95.5175H335.18750000000006Z" fill="#F3F5F8"/>
<path d="M381.66650000000004,78 h80.4915 a20.0,20.0 0 0 1 20.0,20.0 v0.0 a20.0,20.0 0 0 1 -20.0,20.0 h-80.4915 a20.0,20.0 0 0 1 -20.0,-20.0 v-0.0 a20.0,20.0 0 0 1 20.0,-20.0 z" fill="#23262C" stroke="#2A2E34"/>
<circle cx="381.66650000000004" cy="98.0" r="4" fill="#5A93FF"/>
<path d="M400.78100000000006 100.5085Q400.78100000000006 99.9195 400.37025000000006 99.57849999999999Q399.95950000000005 99.2375 398.9055 98.9585L397.619 98.602Q396.08450000000005 98.168 395.32500000000005 97.38525000000001Q394.56550000000004 96.6025 394.56550000000004 95.4245Q394.56550000000004 93.952 395.64275000000004 93.11500000000001Q396.72 92.278 398.5955 92.278Q399.51000000000005 92.278 400.29275000000007 92.53375Q401.07550000000003 92.7895 401.68000000000006 93.27775Q402.28450000000004 93.766 402.62550000000005 94.44800000000001L401.07550000000003 95.44Q400.68800000000005 94.727 400.0060000000001 94.386Q399.32400000000007 94.045 398.54900000000004 94.045Q397.60350000000005 94.045 397.06100000000004 94.37049999999999Q396.5185 94.696 396.5185 95.3315Q396.5185 95.8895 396.937 96.2305Q397.35550000000006 96.5715 398.3475 96.8505L399.634 97.207Q401.27700000000004 97.6565 402.0132500000001 98.416Q402.74950000000007 99.1755 402.74950000000007 100.4155Q402.74950000000007 101.95 401.69550000000004 102.82575Q400.64150000000006 103.7015 398.68850000000003 103.7015Q397.18500000000006 103.7015 396.00700000000006 103.12025Q394.82900000000006 102.539 394.11600000000004 101.454L395.6815 100.462Q396.16200000000003 101.1595 396.937 101.547Q397.71200000000005 101.9345 398.68850000000003 101.9345Q399.71150000000006 101.9345 400.24625000000003 101.5625Q400.78100000000006 101.1905 400.78100000000006 100.5085Z M409.10450000000003 98.8655Q409.10450000000003 97.8735 408.67825000000005 97.40075Q408.252 96.928 407.4305 96.928Q406.8725 96.928 406.392 97.176Q405.9115 97.424 405.555 97.889L404.16 96.9435Q404.78000000000003 96.1375 405.65575 95.719Q406.5315 95.3005 407.5855 95.3005Q409.182 95.3005 410.05775000000006 96.17625Q410.93350000000004 97.05199999999999 410.93350000000004 98.8345V103.5H409.10450000000003ZM403.94300000000004 101.3145Q403.94300000000004 100.0745 404.84200000000004 99.37700000000001Q405.74100000000004 98.6795 407.3065 98.6795H409.47650000000004V100.0125H407.3995Q406.60900000000004 100.0125 406.19050000000004 100.307Q405.772 100.6015 405.772 101.1595Q405.772 101.6245 406.082 101.88024999999999Q406.392 102.136 406.981 102.136Q407.53900000000004 102.136 408.02725000000004 101.86475Q408.51550000000003 101.5935 408.81000000000006 101.0975Q409.10450000000003 100.6015 409.10450000000003 99.935L409.69350000000003 100.4775Q409.69350000000003 101.4695 409.26725 102.19024999999999Q408.841 102.911 408.1125 103.30625Q407.384 103.7015 406.485 103.7015Q405.7255 103.7015 405.15200000000004 103.4225Q404.5785 103.1435 404.26075000000003 102.60875Q403.94300000000004 102.074 403.94300000000004 101.3145Z M412.74700000000007 95.5175H414.62250000000006V97.7185H414.14200000000005Q414.34350000000006 96.9435 414.76200000000006 96.40100000000001Q415.18050000000005 95.8585 415.73850000000004 95.5795Q416.29650000000004 95.3005 416.91650000000004 95.3005Q417.93950000000007 95.3005 418.59825000000006 95.83525Q419.25700000000006 96.37 419.4895000000001 97.5015H419.05550000000005Q419.39650000000006 96.401 420.17150000000004 95.85075Q420.94650000000007 95.3005 421.8455000000001 95.3005Q423.24050000000005 95.3005 423.93025000000006 96.1995Q424.62000000000006 97.0985 424.62000000000006 98.8655V103.5H422.72900000000004V98.881Q422.72900000000004 97.92 422.3647500000001 97.4705Q422.00050000000005 97.021 421.27200000000005 97.021Q420.8380000000001 97.021 420.4582500000001 97.27674999999999Q420.0785000000001 97.5325 419.8537500000001 97.98975Q419.6290000000001 98.447 419.6290000000001 99.0515V103.5H417.73800000000006V98.881Q417.73800000000006 97.92 417.3815000000001 97.4705Q417.0250000000001 97.021 416.28100000000006 97.021Q415.84700000000004 97.021 415.46725000000004 97.28450000000001Q415.0875000000001 97.548 414.8627500000001 98.00525Q414.6380000000001 98.4625 414.6380000000001 99.06700000000001V103.5H412.74700000000007Z M426.6815 92.4795H429.22350000000006L432.75750000000005 101.609H432.27700000000004L435.70250000000004 92.4795H438.2445000000001V103.5H436.40000000000003V93.301H437.11300000000006L433.31550000000004 103.5H431.61050000000006L427.70450000000005 93.301H428.51050000000004V103.5H426.6815Z M439.96500000000003 99.501Q439.96500000000003 98.261 440.45325 97.3155Q440.9415 96.37 441.8405 95.83525Q442.7395 95.3005 443.9175 95.3005Q445.1265 95.3005 446.01 95.83525Q446.8935 96.37 447.3895 97.3155Q447.88550000000004 98.261 447.88550000000004 99.501Q447.88550000000004 100.741 447.3895 101.6865Q446.8935 102.632 446.01 103.16675000000001Q445.1265 103.7015 443.9175 103.7015Q442.7395 103.7015 441.8405 103.16675000000001Q440.9415 102.632 440.45325 101.6865Q439.96500000000003 100.741 439.96500000000003 99.501ZM441.88700000000006 99.501Q441.88700000000006 100.2295 442.13500000000005 100.79525000000001Q442.38300000000004 101.361 442.8402500000001 101.66325Q443.29750000000007 101.9655 443.9175 101.9655Q444.56850000000003 101.9655 445.01800000000003 101.66325Q445.46750000000003 101.361 445.7155 100.79525000000001Q445.96350000000007 100.2295 445.96350000000007 99.501Q445.96350000000007 98.757 445.7155 98.20675Q445.46750000000003 97.6565 445.01800000000003 97.34649999999999Q444.56850000000003 97.0365 443.9175 97.0365Q443.29750000000007 97.0365 442.8402500000001 97.34649999999999Q442.38300000000004 97.6565 442.13500000000005 98.20675Q441.88700000000006 98.757 441.88700000000006 99.501Z M451.20250000000004 103.5H449.34250000000003V92.1385H451.23350000000005V97.7185H450.75300000000004Q451.06300000000005 96.5715 451.85350000000005 95.936Q452.644 95.3005 453.7135 95.3005Q454.783 95.3005 455.56575 95.81975Q456.3485 96.339 456.77475000000004 97.27674999999999Q457.201 98.2145 457.201 99.501Q457.201 100.7875 456.77475000000004 101.733Q456.3485 102.6785 455.56575 103.19Q454.783 103.7015 453.7135 103.7015Q452.644 103.7015 451.85350000000005 103.07374999999999Q451.06300000000005 102.446 450.75300000000004 101.3145H451.20250000000004ZM451.23350000000005 99.5165Q451.23350000000005 100.245 451.48150000000004 100.803Q451.72950000000003 101.361 452.18675 101.66325Q452.644 101.9655 453.27950000000004 101.9655Q453.915 101.9655 454.35675000000003 101.64775Q454.79850000000005 101.33 455.03875000000005 100.77199999999999Q455.279 100.214 455.279 99.501Q455.279 98.788 455.03875000000005 98.22999999999999Q454.79850000000005 97.672 454.35675000000003 97.35425000000001Q453.915 97.0365 453.27950000000004 97.0365Q452.644 97.0365 452.18675 97.35425000000001Q451.72950000000003 97.672 451.48150000000004 98.22225Q451.23350000000005 98.7725 451.23350000000005 99.5165Z M460.5490000000001 103.5H458.6580000000001V95.5175H460.5490000000001ZM458.5030000000001 93.208Q458.5030000000001 92.6965 458.8130000000001 92.402Q459.1230000000001 92.1075 459.6190000000001 92.1075Q460.1305000000001 92.1075 460.43275000000006 92.402Q460.73500000000007 92.6965 460.73500000000007 93.208Q460.73500000000007 93.704 460.43275000000006 94.014Q460.1305000000001 94.324 459.6190000000001 94.324Q459.1230000000001 94.324 458.8130000000001 94.014Q458.5030000000001 93.704 458.5030000000001 93.208Z M462.4245 92.1385H464.31550000000004V103.5H462.4245Z M465.788 99.5165Q465.788 98.24549999999999 466.29175 97.3Q466.7955 96.3545 467.6945 95.8275Q468.5935 95.3005 469.7715 95.3005Q470.9805 95.3005 471.8485 95.8275Q472.7165 96.3545 473.17375000000004 97.27674999999999Q473.63100000000003 98.199 473.63100000000003 99.3615V100.028H466.7955V98.6795H472.5615L471.78650000000005 99.16Q471.78650000000005 98.447 471.5385 97.9355Q471.2905 97.424 470.84875 97.14500000000001Q470.40700000000004 96.866 469.78700000000003 96.866Q469.16700000000003 96.866 468.6865 97.1605Q468.206 97.455 467.95025 98.00524999999999Q467.6945 98.5555 467.6945 99.3305V99.6095Q467.6945 100.772 468.27575 101.41525Q468.857 102.0585 469.8955 102.0585Q470.531 102.0585 471.0115 101.79499999999999Q471.492 101.5315 471.833 101.00450000000001L473.29 101.888Q472.7165 102.787 471.82525 103.24425Q470.934 103.7015 469.8335 103.7015Q468.64000000000004 103.7015 467.73325 103.19775Q466.8265 102.694 466.30725 101.75625Q465.788 100.8185 465.788 99.5165Z" fill="#F3F5F8"/>
<path d="M514.158,78 h88.102 a20.0,20.0 0 0 1 20.0,20.0 v0.0 a20.0,20.0 0 0 1 -20.0,20.0 h-88.102 a20.0,20.0 0 0 1 -20.0,-20.0 v-0.0 a20.0,20.0 0 0 1 20.0,-20.0 z" fill="#23262C" stroke="#2A2E34"/>
<circle cx="514.158" cy="98.0" r="4" fill="#5A93FF"/>
<path d="M527.3515 92.4795H531.118Q532.451 92.4795 533.4275 92.93675Q534.404 93.394 534.92325 94.231Q535.4425 95.068 535.4425 96.2305Q535.4425 98.013 534.28775 99.0205Q533.133 100.028 531.118 100.028H528.8240000000001V98.24549999999999H530.9785Q532.234 98.24549999999999 532.8695 97.72625Q533.505 97.207 533.505 96.2305Q533.505 95.285 532.8695 94.76575Q532.234 94.2465 530.9785 94.2465H529.2735V103.5H527.3515Z M537.0079999999999 92.1385H538.899V97.7185H538.403Q538.682 96.618 539.457 95.95925Q540.232 95.3005 541.255 95.3005Q544.0915 95.3005 544.0915 98.819V103.5H542.2004999999999V98.9275Q542.2004999999999 97.951 541.8129999999999 97.48599999999999Q541.4254999999999 97.021 540.635 97.021Q540.139 97.021 539.74375 97.28450000000001Q539.3485 97.548 539.12375 98.02850000000001Q538.899 98.509 538.899 99.1445V103.5H537.0079999999999Z M545.4865000000001 99.501Q545.4865000000001 98.261 545.9747500000001 97.3155Q546.4630000000001 96.37 547.3620000000001 95.83525Q548.2610000000001 95.3005 549.4390000000001 95.3005Q550.648 95.3005 551.5315 95.83525Q552.4150000000001 96.37 552.9110000000001 97.3155Q553.407 98.261 553.407 99.501Q553.407 100.741 552.9110000000001 101.6865Q552.4150000000001 102.632 551.5315 103.16675000000001Q550.648 103.7015 549.4390000000001 103.7015Q548.2610000000001 103.7015 547.3620000000001 103.16675000000001Q546.4630000000001 102.632 545.9747500000001 101.6865Q545.4865000000001 100.741 545.4865000000001 99.501ZM547.4085 99.501Q547.4085 100.2295 547.6565 100.79525000000001Q547.9045000000001 101.361 548.36175 101.66325Q548.8190000000001 101.9655 549.4390000000001 101.9655Q550.09 101.9655 550.5395000000001 101.66325Q550.989 101.361 551.2370000000001 100.79525000000001Q551.485 100.2295 551.485 99.501Q551.485 98.757 551.2370000000001 98.20675Q550.989 97.6565 550.5395000000001 97.34649999999999Q550.09 97.0365 549.4390000000001 97.0365Q548.8190000000001 97.0365 548.36175 97.34649999999999Q547.9045000000001 97.6565 547.6565 98.20675Q547.4085 98.757 547.4085 99.501Z M554.8639999999999 95.5175H556.7395V97.7185H556.259Q556.538 96.618 557.313 95.95925Q558.088 95.3005 559.111 95.3005Q561.9475 95.3005 561.9475 98.819V103.5H560.0564999999999V98.9275Q560.0564999999999 97.951 559.6689999999999 97.48599999999999Q559.2814999999999 97.021 558.491 97.021Q557.995 97.021 557.59975 97.28450000000001Q557.2044999999999 97.548 556.97975 98.02850000000001Q556.755 98.509 556.755 99.1445V103.5H554.8639999999999Z M563.3425000000001 99.5165Q563.3425000000001 98.24549999999999 563.84625 97.3Q564.35 96.3545 565.249 95.8275Q566.148 95.3005 567.326 95.3005Q568.5350000000001 95.3005 569.403 95.8275Q570.2710000000001 96.3545 570.7282500000001 97.27674999999999Q571.1855 98.199 571.1855 99.3615V100.028H564.35V98.6795H570.116L569.341 99.16Q569.341 98.447 569.0930000000001 97.9355Q568.845 97.424 568.4032500000001 97.14500000000001Q567.9615 96.866 567.3415 96.866Q566.7215 96.866 566.241 97.1605Q565.7605000000001 97.455 565.5047500000001 98.00524999999999Q565.249 98.5555 565.249 99.3305V99.6095Q565.249 100.772 565.83025 101.41525Q566.4115 102.0585 567.45 102.0585Q568.0855 102.0585 568.566 101.79499999999999Q569.0465 101.5315 569.3875 101.00450000000001L570.8445 101.888Q570.2710000000001 102.787 569.3797500000001 103.24425Q568.4885 103.7015 567.388 103.7015Q566.1945000000001 103.7015 565.2877500000001 103.19775Q564.3810000000001 102.694 563.86175 101.75625Q563.3425000000001 100.8185 563.3425000000001 99.5165Z M576.3935 93.4095H577.3545L573.8824999999999 103.5H571.8985L575.8974999999999 92.4795H577.9435L581.9425 103.5H579.881ZM579.912 101.175H574.1614999999999V99.4545H579.912Z M583.0585 95.5175H584.9340000000001V97.7185H584.4535000000001Q584.5930000000001 97.0985 584.965 96.56375Q585.337 96.029 585.864 95.69575Q586.3910000000001 95.3625 587.0110000000001 95.3625Q587.166 95.3625 587.321 95.378Q587.476 95.3935 587.6465000000001 95.44V97.238Q587.3365 97.176 586.9645 97.176Q586.3910000000001 97.176 585.93375 97.43175Q585.4765 97.6875 585.213 98.18350000000001Q584.9495000000001 98.6795 584.9495000000001 99.408V103.5H583.0585Z M588.561 99.5165Q588.561 98.24549999999999 589.06475 97.3Q589.5685 96.3545 590.4675 95.8275Q591.3665 95.3005 592.5445 95.3005Q593.7535 95.3005 594.6215 95.8275Q595.4895 96.3545 595.9467500000001 97.27674999999999Q596.404 98.199 596.404 99.3615V100.028H589.5685V98.6795H595.3344999999999L594.5595 99.16Q594.5595 98.447 594.3115 97.9355Q594.0635 97.424 593.62175 97.14500000000001Q593.18 96.866 592.56 96.866Q591.9399999999999 96.866 591.4594999999999 97.1605Q590.979 97.455 590.72325 98.00524999999999Q590.4675 98.5555 590.4675 99.3305V99.6095Q590.4675 100.772 591.0487499999999 101.41525Q591.63 102.0585 592.6685 102.0585Q593.304 102.0585 593.7845 101.79499999999999Q594.265 101.5315 594.606 101.00450000000001L596.063 101.888Q595.4895 102.787 594.59825 103.24425Q593.707 103.7015 592.6065 103.7015Q591.413 103.7015 590.50625 103.19775Q589.5995 102.694 589.08025 101.75625Q588.561 100.8185 588.561 99.5165Z M597.861 95.5175H599.7365000000001V97.7185H599.2560000000001Q599.5350000000001 96.618 600.3100000000001 95.95925Q601.085 95.3005 602.1080000000001 95.3005Q604.9445000000001 95.3005 604.9445000000001 98.819V103.5H603.0535V98.9275Q603.0535 97.951 602.6659999999999 97.48599999999999Q602.2785 97.021 601.488 97.021Q600.9920000000001 97.021 600.59675 97.28450000000001Q600.2015 97.548 599.97675 98.02850000000001Q599.7520000000001 98.509 599.7520000000001 99.1445V103.5H597.861Z M611.5475 98.8655Q611.5475 97.8735 611.12125 97.40075Q610.695 96.928 609.8735 96.928Q609.3155 96.928 608.835 97.176Q608.3545 97.424 607.998 97.889L606.603 96.9435Q607.223 96.1375 608.09875 95.719Q608.9745 95.3005 610.0285 95.3005Q611.625 95.3005 612.5007499999999 96.17625Q613.3765 97.05199999999999 613.3765 98.8345V103.5H611.5475ZM606.386 101.3145Q606.386 100.0745 607.285 99.37700000000001Q608.184 98.6795 609.7495 98.6795H611.9195V100.0125H609.8425Q609.052 100.0125 608.6335 100.307Q608.215 100.6015 608.215 101.1595Q608.215 101.6245 608.5250000000001 101.88024999999999Q608.835 102.136 609.424 102.136Q609.982 102.136 610.47025 101.86475Q610.9585 101.5935 611.2529999999999 101.0975Q611.5475 100.6015 611.5475 99.935L612.1365 100.4775Q612.1365 101.4695 611.71025 102.19024999999999Q611.284 102.911 610.5554999999999 103.30625Q609.827 103.7015 608.928 103.7015Q608.1685 103.7015 607.595 103.4225Q607.0215 103.1435 606.7037499999999 102.60875Q606.386 102.074 606.386 101.3145Z" fill="#F3F5F8"/>
<path d="M654.26,78 h131.316 a20.0,20.0 0 0 1 20.0,20.0 v0.0 a20.0,20.0 0 0 1 -20.0,20.0 h-131.316 a20.0,20.0 0 0 1 -20.0,-20.0 v-0.0 a20.0,20.0 0 0 1 20.0,-20.0 z" fill="#23262C" stroke="#2A2E34"/>
<circle cx="654.26" cy="98.0" r="4" fill="#5A93FF"/>
<path d="M670.941 93.4095H671.902L668.43 103.5H666.446L670.4449999999999 92.4795H672.491L676.49 103.5H674.4285ZM674.4594999999999 101.175H668.709V99.4545H674.4594999999999Z M677.606 95.5175H679.4815000000001V97.7185H679.0010000000001Q679.2800000000001 96.618 680.0550000000001 95.95925Q680.83 95.3005 681.8530000000001 95.3005Q684.6895000000001 95.3005 684.6895000000001 98.819V103.5H682.7985V98.9275Q682.7985 97.951 682.4110000000001 97.48599999999999Q682.0235 97.021 681.2330000000001 97.021Q680.7370000000001 97.021 680.34175 97.28450000000001Q679.9465 97.548 679.72175 98.02850000000001Q679.4970000000001 98.509 679.4970000000001 99.1445V103.5H677.606Z M686.0845 99.501Q686.0845 98.2145 686.5185 97.27674999999999Q686.9525 96.339 687.73525 95.81975Q688.518 95.3005 689.5875 95.3005Q690.6415 95.3005 691.43975 95.92824999999999Q692.238 96.556 692.5325 97.6875H692.052V92.1385H693.943V103.5H692.0675V101.299H692.5325Q692.2225 102.4305 691.42425 103.066Q690.626 103.7015 689.5875 103.7015Q688.518 103.7015 687.73525 103.19Q686.9525 102.6785 686.5185 101.733Q686.0845 100.7875 686.0845 99.501ZM688.0065 99.501Q688.0065 100.214 688.24675 100.77199999999999Q688.487 101.33 688.9365 101.64775Q689.386 101.9655 690.0215000000001 101.9655Q690.657 101.9655 691.1142500000001 101.66325Q691.5715 101.361 691.8195000000001 100.79525000000001Q692.0675 100.2295 692.0675 99.501Q692.0675 98.757 691.8195000000001 98.2145Q691.5715 97.672 691.1142500000001 97.35425000000001Q690.657 97.0365 690.0215000000001 97.0365Q689.386 97.0365 688.9365 97.35425000000001Q688.487 97.672 688.24675 98.22225Q688.0065 98.7725 688.0065 99.501Z M695.803 95.5175H697.6785000000001V97.7185H697.1980000000001Q697.3375000000001 97.0985 697.7095 96.56375Q698.0815 96.029 698.6085 95.69575Q699.1355000000001 95.3625 699.7555000000001 95.3625Q699.9105000000001 95.3625 700.0655 95.378Q700.2205 95.3935 700.3910000000001 95.44V97.238Q700.081 97.176 699.7090000000001 97.176Q699.1355000000001 97.176 698.67825 97.43175Q698.221 97.6875 697.9575 98.18350000000001Q697.6940000000001 98.6795 697.6940000000001 99.408V103.5H695.803Z M701.3055 99.501Q701.3055 98.261 701.79375 97.3155Q702.282 96.37 703.181 95.83525Q704.08 95.3005 705.258 95.3005Q706.467 95.3005 707.3505 95.83525Q708.234 96.37 708.73 97.3155Q709.226 98.261 709.226 99.501Q709.226 100.741 708.73 101.6865Q708.234 102.632 707.3505 103.16675000000001Q706.467 103.7015 705.258 103.7015Q704.08 103.7015 703.181 103.16675000000001Q702.282 102.632 701.79375 101.6865Q701.3055 100.741 701.3055 99.501ZM703.2275 99.501Q703.2275 100.2295 703.4755 100.79525000000001Q703.7235000000001 101.361 704.18075 101.66325Q704.638 101.9655 705.258 101.9655Q705.909 101.9655 706.3585 101.66325Q706.808 101.361 707.056 100.79525000000001Q707.304 100.2295 707.304 99.501Q707.304 98.757 707.056 98.20675Q706.808 97.6565 706.3585 97.34649999999999Q705.909 97.0365 705.258 97.0365Q704.638 97.0365 704.18075 97.34649999999999Q703.7235000000001 97.6565 703.4755 98.20675Q703.2275 98.757 703.2275 99.501Z M712.5740000000001 103.5H710.683V95.5175H712.5740000000001ZM710.528 93.208Q710.528 92.6965 710.838 92.402Q711.148 92.1075 711.644 92.1075Q712.1555 92.1075 712.45775 92.402Q712.76 92.6965 712.76 93.208Q712.76 93.704 712.45775 94.014Q712.1555 94.324 711.644 94.324Q711.148 94.324 710.838 94.014Q710.528 93.704 710.528 93.208Z M714.0465 99.501Q714.0465 98.2145 714.4805 97.27674999999999Q714.9145 96.339 715.6972499999999 95.81975Q716.48 95.3005 717.5495 95.3005Q718.6034999999999 95.3005 719.40175 95.92824999999999Q720.2 96.556 720.4945 97.6875H720.014V92.1385H721.905V103.5H720.0295V101.299H720.4945Q720.1845 102.4305 719.38625 103.066Q718.588 103.7015 717.5495 103.7015Q716.48 103.7015 715.6972499999999 103.19Q714.9145 102.6785 714.4805 101.733Q714.0465 100.7875 714.0465 99.501ZM715.9685 99.501Q715.9685 100.214 716.20875 100.77199999999999Q716.449 101.33 716.8985 101.64775Q717.348 101.9655 717.9835 101.9655Q718.619 101.9655 719.0762500000001 101.66325Q719.5335 101.361 719.7815 100.79525000000001Q720.0295 100.2295 720.0295 99.501Q720.0295 98.757 719.7815 98.2145Q719.5335 97.672 719.0762500000001 97.35425000000001Q718.619 97.0365 717.9835 97.0365Q717.348 97.0365 716.8985 97.35425000000001Q716.449 97.672 716.20875 98.22225Q715.9685 98.7725 715.9685 99.501Z M727.8879999999999 92.4795H729.8409999999999V103.5H727.8879999999999ZM734.8164999999999 92.4795H736.7539999999999V103.5H734.8164999999999ZM735.6534999999999 98.8345H728.9884999999999V97.021H735.6534999999999Z M738.49 99.5165Q738.49 98.24549999999999 738.99375 97.3Q739.4975 96.3545 740.3965 95.8275Q741.2955 95.3005 742.4735 95.3005Q743.6825 95.3005 744.5505 95.8275Q745.4185 96.3545 745.8757499999999 97.27674999999999Q746.333 98.199 746.333 99.3615V100.028H739.4975V98.6795H745.2635L744.4884999999999 99.16Q744.4884999999999 98.447 744.2404999999999 97.9355Q743.9925 97.424 743.5507499999999 97.14500000000001Q743.1089999999999 96.866 742.4889999999999 96.866Q741.8689999999999 96.866 741.3885 97.1605Q740.908 97.455 740.65225 98.00524999999999Q740.3965 98.5555 740.3965 99.3305V99.6095Q740.3965 100.772 740.97775 101.41525Q741.559 102.0585 742.5975 102.0585Q743.233 102.0585 743.7135 101.79499999999999Q744.194 101.5315 744.535 101.00450000000001L745.992 101.888Q745.4185 102.787 744.52725 103.24425Q743.636 103.7015 742.5355 103.7015Q741.342 103.7015 740.43525 103.19775Q739.5285 102.694 739.0092500000001 101.75625Q738.49 100.8185 738.49 99.5165Z M752.595 98.8655Q752.595 97.8735 752.16875 97.40075Q751.7425000000001 96.928 750.921 96.928Q750.363 96.928 749.8825 97.176Q749.402 97.424 749.0455000000001 97.889L747.6505 96.9435Q748.2705 96.1375 749.14625 95.719Q750.022 95.3005 751.076 95.3005Q752.6725 95.3005 753.54825 96.17625Q754.424 97.05199999999999 754.424 98.8345V103.5H752.595ZM747.4335 101.3145Q747.4335 100.0745 748.3325 99.37700000000001Q749.2315 98.6795 750.797 98.6795H752.967V100.0125H750.89Q750.0995 100.0125 749.681 100.307Q749.2625 100.6015 749.2625 101.1595Q749.2625 101.6245 749.5725 101.88024999999999Q749.8825 102.136 750.4715 102.136Q751.0295 102.136 751.51775 101.86475Q752.006 101.5935 752.3005 101.0975Q752.595 100.6015 752.595 99.935L753.184 100.4775Q753.184 101.4695 752.75775 102.19024999999999Q752.3315 102.911 751.6030000000001 103.30625Q750.8745 103.7015 749.9755 103.7015Q749.216 103.7015 748.6424999999999 103.4225Q748.069 103.1435 747.75125 102.60875Q747.4335 102.074 747.4335 101.3145Z M755.8345 99.501Q755.8345 98.2145 756.2685 97.27674999999999Q756.7025 96.339 757.48525 95.81975Q758.268 95.3005 759.3375 95.3005Q760.3915 95.3005 761.18975 95.92824999999999Q761.988 96.556 762.2825 97.6875H761.802V92.1385H763.693V103.5H761.8175V101.299H762.2825Q761.9725 102.4305 761.17425 103.066Q760.376 103.7015 759.3375 103.7015Q758.268 103.7015 757.48525 103.19Q756.7025 102.6785 756.2685 101.733Q755.8345 100.7875 755.8345 99.501ZM757.7565 99.501Q757.7565 100.214 757.99675 100.77199999999999Q758.237 101.33 758.6865 101.64775Q759.136 101.9655 759.7715000000001 101.9655Q760.407 101.9655 760.8642500000001 101.66325Q761.3215 101.361 761.5695000000001 100.79525000000001Q761.8175 100.2295 761.8175 99.501Q761.8175 98.757 761.5695000000001 98.2145Q761.3215 97.672 760.8642500000001 97.35425000000001Q760.407 97.0365 759.7715000000001 97.0365Q759.136 97.0365 758.6865 97.35425000000001Q758.237 97.672 757.99675 98.22225Q757.7565 98.7725 757.7565 99.501Z M765.553 92.1385H767.4440000000001V103.5H765.553Z M771.2105 103.5H769.3195V95.5175H771.2105ZM769.1645 93.208Q769.1645 92.6965 769.4745 92.402Q769.7845 92.1075 770.2805 92.1075Q770.7919999999999 92.1075 771.0942499999999 92.402Q771.3965 92.6965 771.3965 93.208Q771.3965 93.704 771.0942499999999 94.014Q770.7919999999999 94.324 770.2805 94.324Q769.7845 94.324 769.4745 94.014Q769.1645 93.704 769.1645 93.208Z M773.0859999999999 95.5175H774.9615V97.7185H774.481Q774.76 96.618 775.535 95.95925Q776.31 95.3005 777.333 95.3005Q780.1695 95.3005 780.1695 98.819V103.5H778.2784999999999V98.9275Q778.2784999999999 97.951 777.8909999999998 97.48599999999999Q777.5034999999999 97.021 776.713 97.021Q776.217 97.021 775.82175 97.28450000000001Q775.4264999999999 97.548 775.20175 98.02850000000001Q774.977 98.509 774.977 99.1445V103.5H773.0859999999999Z M781.5645000000001 99.5165Q781.5645000000001 98.24549999999999 782.06825 97.3Q782.572 96.3545 783.471 95.8275Q784.37 95.3005 785.548 95.3005Q786.7570000000001 95.3005 787.625 95.8275Q788.493 96.3545 788.9502500000001 97.27674999999999Q789.4075 98.199 789.4075 99.3615V100.028H782.572V98.6795H788.338L787.563 99.16Q787.563 98.447 787.315 97.9355Q787.067 97.424 786.62525 97.14500000000001Q786.1835 96.866 785.5635 96.866Q784.9435 96.866 784.463 97.1605Q783.9825000000001 97.455 783.72675 98.00524999999999Q783.471 98.5555 783.471 99.3305V99.6095Q783.471 100.772 784.05225 101.41525Q784.6335 102.0585 785.672 102.0585Q786.3075 102.0585 786.788 101.79499999999999Q787.2685 101.5315 787.6095 101.00450000000001L789.0665 101.888Q788.493 102.787 787.60175 103.24425Q786.7105 103.7015 785.61 103.7015Q784.4165 103.7015 783.50975 103.19775Q782.6030000000001 102.694 782.08375 101.75625Q781.5645000000001 100.8185 781.5645000000001 99.5165Z M795.2355 101.3145Q795.2355 100.9735 794.9952499999999 100.76425Q794.755 100.555 794.135 100.4155L793.0965 100.1675Q791.779 99.8575 791.16675 99.26075Q790.5545 98.664 790.5545 97.6565Q790.5545 96.9125 790.9575 96.38550000000001Q791.3605 95.8585 792.06575 95.5795Q792.771 95.3005 793.6854999999999 95.3005Q794.8945 95.3005 795.78575 95.81975Q796.6769999999999 96.339 797.0645 97.331L795.5609999999999 97.9045Q795.313 97.362 794.79375 97.12174999999999Q794.2745 96.8815 793.7165 96.8815Q793.0809999999999 96.8815 792.7322499999999 97.09075Q792.3834999999999 97.3 792.3834999999999 97.672Q792.3834999999999 98.044 792.6469999999999 98.22225Q792.9105 98.4005 793.4995 98.54L794.538 98.788Q795.8399999999999 99.098 796.4599999999999 99.7025Q797.0799999999999 100.307 797.0799999999999 101.33Q797.0799999999999 102.415 796.23525 103.05825Q795.3905 103.7015 793.918 103.7015Q792.5385 103.7015 791.56975 103.128Q790.601 102.5545 790.2444999999999 101.5005L791.7945 100.9425Q792.0424999999999 101.547 792.5849999999999 101.83375000000001Q793.1274999999999 102.1205 793.887 102.1205Q794.538 102.1205 794.88675 101.91900000000001Q795.2355 101.7175 795.2355 101.3145Z" fill="#F3F5F8"/>
</svg>