<svg width="880" height="300" viewBox="0 0 880 300" xmlns="http://www.w3.org/2000/svg" font-family="One UI Sans"><defs>
      <linearGradient id="hg_light" x1="0" y1="0" x2="1" y2="1">
        <stop offset="0" stop-color="#FFFFFF"/><stop offset="1" stop-color="#EAF1FF"/></linearGradient>
      <radialGradient id="glow_light" cx="0.5" cy="0.5" r="0.5">
        <stop offset="0" stop-color="#BBD2FF" stop-opacity="0.85"/>
        <stop offset="1" stop-color="#BBD2FF" stop-opacity="0"/></radialGradient>
      <linearGradient id="ring_light" x1="0" y1="0" x2="1" y2="1">
        <stop offset="0" stop-color="#387AFF"/><stop offset="1" stop-color="#1E5FE0"/></linearGradient>
      <clipPath id="hclip_light"><path d="M30,0 h820 a30,30 0 0 1 30,30 v240 a30,30 0 0 1 -30,30 h-820 a30,30 0 0 1 -30,-30 v-240 a30,30 0 0 1 30,-30 z"/></clipPath><filter id="sh_light" x="-20%" y="-20%" width="140%" height="160%"><feDropShadow dx="0" dy="6" stdDeviation="10" flood-color="#0B1B3A" flood-opacity="0.08"/></filter>
    </defs>
<path d="M30,0 h820 a30,30 0 0 1 30,30 v240 a30,30 0 0 1 -30,30 h-820 a30,30 0 0 1 -30,-30 v-240 a30,30 0 0 1 30,-30 z" fill="url(#hg_light)" stroke="#E6E9EE" filter="url(#sh_light)"/>
<g clip-path="url(#hclip_light)"><circle cx="780" cy="30" r="250" fill="url(#glow_light)"/></g>
<path d="M61,38 h139.17 a17,17 0 0 1 17,17 v0 a17,17 0 0 1 -17,17 h-139.17 a17,17 0 0 1 -17,-17 v-0 a17,17 0 0 1 17,-17 z" fill="#F1F4F8" stroke="#E6E9EE"/>
<path d="M64.765 49.769999999999996H66.655V60.0H64.765ZM61.48 49.335H69.94V51.105000000000004H61.48Z M71.32000000000001 49.005H73.15V54.405H72.67Q72.94 53.34 73.69 52.7025Q74.44 52.065 75.43 52.065Q78.175 52.065 78.175 55.47V60.0H76.345V55.575Q76.345 54.63 75.97 54.18000000000001Q75.595 53.730000000000004 74.83 53.730000000000004Q74.35 53.730000000000004 73.9675 53.985Q73.58500000000001 54.24 73.3675 54.705Q73.15 55.17 73.15 55.785V60.0H71.32000000000001Z M84.565 55.515Q84.565 54.555 84.1525 54.0975Q83.74 53.64 82.945 53.64Q82.405 53.64 81.94 53.879999999999995Q81.475 54.12 81.13 54.57L79.78 53.655Q80.38 52.875 81.22749999999999 52.47Q82.075 52.065 83.095 52.065Q84.64 52.065 85.4875 52.912499999999994Q86.335 53.76 86.335 55.485V60.0H84.565ZM79.57000000000001 57.885Q79.57000000000001 56.685 80.44 56.010000000000005Q81.31 55.335 82.825 55.335H84.925V56.625H82.915Q82.15 56.625 81.745 56.91Q81.34 57.195 81.34 57.735Q81.34 58.185 81.64 58.432500000000005Q81.94 58.68 82.51 58.68Q83.05 58.68 83.52250000000001 58.417500000000004Q83.995 58.155 84.28 57.675Q84.565 57.195 84.565 56.55L85.135 57.075Q85.135 58.035 84.7225 58.7325Q84.31 59.43 83.605 59.8125Q82.9 60.195 82.03 60.195Q81.295 60.195 80.74000000000001 59.925Q80.185 59.655 79.8775 59.1375Q79.57000000000001 58.62 79.57000000000001 57.885Z M88.63 57.48V50.49L90.46 49.86V57.18Q90.46 57.915 90.72999999999999 58.192499999999995Q91.0 58.47 91.57 58.47Q91.795 58.47 92.035 58.432500000000005Q92.27499999999999 58.395 92.5 58.35V59.955Q92.2 60.03 91.83250000000001 60.082499999999996Q91.465 60.135 91.14999999999999 60.135Q90.39999999999999 60.135 89.82999999999998 59.879999999999995Q89.25999999999999 59.625 88.945 59.0475Q88.63 58.47 88.63 57.48ZM87.42999999999999 52.275H92.125V53.895H87.42999999999999Z M97.19500000000001 58.245Q97.51 58.32 97.8475 58.364999999999995Q98.185 58.41 98.47 58.41Q99.34 58.41 99.73750000000001 57.989999999999995Q100.135 57.57 100.135 56.625V49.335H102.01V56.7Q102.01 58.335 101.1625 59.265Q100.315 60.195 98.74 60.195Q98.365 60.195 97.9825 60.15Q97.60000000000001 60.105 97.19500000000001 60.0Z M103.63000000000001 56.13Q103.63000000000001 54.93 104.1025 54.015Q104.575 53.1 105.445 52.582499999999996Q106.315 52.065 107.455 52.065Q108.625 52.065 109.48 52.582499999999996Q110.33500000000001 53.1 110.815 54.015Q111.295 54.93 111.295 56.13Q111.295 57.33 110.815 58.245Q110.33500000000001 59.16 109.48 59.677499999999995Q108.625 60.195 107.455 60.195Q106.315 60.195 105.445 59.677499999999995Q104.575 59.16 104.1025 58.245Q103.63000000000001 57.33 103.63000000000001 56.13ZM105.49000000000001 56.13Q105.49000000000001 56.835 105.73 57.3825Q105.97 57.93 106.4125 58.2225Q106.855 58.515 107.455 58.515Q108.08500000000001 58.515 108.52000000000001 58.2225Q108.955 57.93 109.195 57.3825Q109.435 56.835 109.435 56.13Q109.435 55.41 109.195 54.8775Q108.955 54.345 108.52000000000001 54.045Q108.08500000000001 53.745 107.455 53.745Q106.855 53.745 106.4125 54.045Q105.97 54.345 105.73 54.8775Q105.49000000000001 55.41 105.49000000000001 56.13Z M116.935 57.885Q116.935 57.555 116.70250000000001 57.3525Q116.47000000000001 57.15 115.87 57.015L114.86500000000001 56.775Q113.59 56.475 112.9975 55.8975Q112.405 55.32 112.405 54.345Q112.405 53.625 112.795 53.115Q113.185 52.605000000000004 113.8675 52.335Q114.55000000000001 52.065 115.435 52.065Q116.605 52.065 117.4675 52.567499999999995Q118.33000000000001 53.07 118.70500000000001 54.03L117.25 54.585Q117.01 54.06 116.50750000000001 53.8275Q116.00500000000001 53.595 115.465 53.595Q114.85000000000001 53.595 114.51250000000002 53.7975Q114.17500000000001 54.0 114.17500000000001 54.36Q114.17500000000001 54.72 114.43 54.8925Q114.685 55.065 115.25500000000001 55.2L116.26 55.44Q117.52000000000001 55.74 118.12 56.325Q118.72000000000001 56.91 118.72000000000001 57.9Q118.72000000000001 58.95 117.9025 59.572500000000005Q117.08500000000001 60.195 115.66000000000001 60.195Q114.325 60.195 113.3875 59.64Q112.45 59.085 112.105 58.065L113.605 57.525Q113.84500000000001 58.11 114.37 58.3875Q114.89500000000001 58.665 115.63000000000001 58.665Q116.26 58.665 116.5975 58.47Q116.935 58.275 116.935 57.885Z M120.1 49.005H121.92999999999999V54.405H121.44999999999999Q121.71999999999998 53.34 122.46999999999998 52.7025Q123.21999999999998 52.065 124.21 52.065Q126.95499999999998 52.065 126.95499999999998 55.47V60.0H125.12499999999999V55.575Q125.12499999999999 54.63 124.74999999999999 54.18000000000001Q124.37499999999999 53.730000000000004 123.60999999999999 53.730000000000004Q123.13 53.730000000000004 122.7475 53.985Q122.365 54.24 122.1475 54.705Q121.92999999999999 55.17 121.92999999999999 55.785V60.0H120.1Z M132.175 54.675Q132.175 52.980000000000004 132.8125 51.74250000000001Q133.45 50.505 134.62 49.822500000000005Q135.79 49.14 137.335 49.14Q138.805 49.14 139.9375 49.807500000000005Q141.07 50.475 141.715 51.675L140.095 52.575Q139.66 51.735 138.95499999999998 51.3225Q138.25 50.91 137.335 50.91Q136.33 50.91 135.60250000000002 51.3675Q134.875 51.825 134.4925 52.665000000000006Q134.11 53.505 134.11 54.675Q134.11 55.815 134.4925 56.655Q134.875 57.495 135.60250000000002 57.959999999999994Q136.33 58.425 137.35 58.425Q138.25 58.425 138.95499999999998 57.9975Q139.66 57.57 140.065 56.805Q140.47 56.04 140.47 55.035V54.93L141.625 55.725H137.41V54.075H142.39V54.675Q142.39 56.37 141.73 57.614999999999995Q141.07 58.86 139.93 59.5275Q138.79 60.195 137.335 60.195Q135.79 60.195 134.6275 59.5125Q133.465 58.83 132.82 57.585Q132.175 56.34 132.175 54.675Z M143.875 56.79V52.275H145.70499999999998V56.7Q145.70499999999998 57.645 146.07999999999998 58.087500000000006Q146.45499999999998 58.53 147.20499999999998 58.53Q147.7 58.53 148.0675 58.275000000000006Q148.435 58.02 148.6525 57.55500000000001Q148.87 57.09 148.87 56.49V52.275H150.7V60.0H148.885V57.855H149.35Q149.095 58.935 148.345 59.565Q147.595 60.195 146.605 60.195Q145.255 60.195 144.565 59.3475Q143.875 58.5 143.875 56.79Z M152.45499999999998 61.695Q152.725 61.74 152.95 61.755Q153.17499999999998 61.77 153.385 61.77Q153.82 61.77 154.08999999999997 61.5675Q154.35999999999999 61.365 154.585 60.765L155.185 59.19L155.38 59.16L157.98999999999998 52.275H159.88L156.325 61.155Q156.01 61.95 155.6575 62.4525Q155.305 62.955 154.825 63.195Q154.345 63.435 153.595 63.435Q153.355 63.435 153.055 63.4125Q152.755 63.39 152.45499999999998 63.315ZM156.48999999999998 59.175 155.32 60.75 151.825 52.275H153.835Z M168.505 54.555Q168.505 54.045 168.8125 53.7375Q169.11999999999998 53.43 169.63 53.43Q170.14 53.43 170.44 53.7375Q170.73999999999998 54.045 170.73999999999998 54.555Q170.73999999999998 55.05 170.44 55.3575Q170.14 55.665 169.63 55.665Q169.11999999999998 55.665 168.8125 55.3575Q168.505 55.05 168.505 54.555Z M180.16 55.8V49.335H182.04999999999998V55.8Q182.04999999999998 56.715 182.3275 57.292500000000004Q182.605 57.87 183.1375 58.14Q183.67 58.41 184.43499999999997 58.41Q185.18499999999997 58.41 185.70999999999998 58.14Q186.23499999999999 57.87 186.51999999999998 57.292500000000004Q186.80499999999998 56.715 186.80499999999998 55.8V49.335H188.695V55.8Q188.695 57.255 188.185 58.2375Q187.67499999999998 59.22 186.73 59.707499999999996Q185.785 60.195 184.42 60.195Q183.07 60.195 182.125 59.707499999999996Q181.17999999999998 59.22 180.67 58.2375Q180.16 57.255 180.16 55.8Z M192.16 55.32 197.185 49.335H199.45L192.16 57.705ZM190.87 49.335H192.73V60.0H190.87ZM194.29 54.33 195.7 53.22 199.915 60.0H197.74Z" fill="#5B616B"/>
<path d="M45.618 111.606H54.528V150.0H45.618ZM69.108 111.606H77.964V150.0H69.108ZM72.78 134.826H50.856V126.564H72.78Z M83.202 135.96Q83.202 131.532 85.038 128.184Q86.874 124.836 90.114 122.973Q93.354 121.11 97.67399999999999 121.11Q102.21 121.11 105.315 123.027Q108.41999999999999 124.944 109.98599999999999 128.211Q111.55199999999999 131.478 111.55199999999999 135.42V138.066H87.46799999999999V132.72H106.692L103.23599999999999 134.664Q103.23599999999999 132.45 102.588 130.911Q101.94 129.372 100.725 128.562Q99.50999999999999 127.752 97.782 127.752Q96.05399999999999 127.752 94.704 128.562Q93.354 129.372 92.598 130.99200000000002Q91.842 132.612 91.842 135.042V136.608Q91.842 139.956 93.57 141.738Q95.29799999999999 143.52 98.268 143.52Q99.996 143.52 101.346 142.791Q102.696 142.062 103.722 140.766L110.094 144.708Q108.09599999999999 147.624 104.964 149.19Q101.832 150.756 97.99799999999999 150.756Q93.786 150.756 90.43799999999999 149.055Q87.08999999999999 147.354 85.14599999999999 144.03300000000002Q83.202 140.712 83.202 135.96Z M116.73599999999999 154.212Q117.762 154.374 118.59899999999999 154.428Q119.43599999999999 154.482 120.03 154.482Q121.542 154.482 122.46000000000001 153.753Q123.378 153.024 124.134 151.026L126.13199999999999 145.734L127.104 145.788L135.744 121.866H144.654L132.504 152.646Q131.154 155.994 129.777 158.1Q128.4 160.206 126.429 161.20499999999998Q124.458 162.204 121.38 162.204Q120.408 162.204 119.193 162.06900000000002Q117.978 161.934 116.73599999999999 161.61ZM132.288 145.842 126.88799999999999 153.078 113.82 121.866H123.27Z M149.244 140.766H158.856L153.99599999999998 157.128H147.35399999999998Z M177.918 111.606H186.828V150.0H177.918Z M199.68 126.348H193.524L192.228 111.606H200.922Z M205.62 121.866H214.098V129.318H212.478Q213.072 126.672 214.476 124.863Q215.88 123.054 217.797 122.082Q219.714 121.11 221.76600000000002 121.11Q225.222 121.11 227.49 122.78399999999999Q229.758 124.458 230.622 128.184H229.21800000000002Q230.352 124.512 232.89 122.811Q235.428 121.11 238.29000000000002 121.11Q243.204 121.11 245.688 124.269Q248.172 127.428 248.172 133.692V150.0H239.532V133.746Q239.532 131.262 238.53300000000002 130.074Q237.534 128.886 235.536 128.886Q234.294 128.886 233.29500000000002 129.56099999999998Q232.296 130.236 231.756 131.451Q231.216 132.666 231.216 134.34V150.0H222.57600000000002V133.746Q222.57600000000002 131.262 221.577 130.074Q220.578 128.886 218.58 128.886Q217.28400000000002 128.886 216.312 129.56099999999998Q215.34 130.236 214.8 131.478Q214.26000000000002 132.72 214.26000000000002 134.394V150.0H205.62Z M265.452 141.792Q266.748 142.062 267.909 142.224Q269.07 142.386 270.042 142.386Q272.904 142.386 274.2 141.063Q275.496 139.74 275.496 136.824V111.606H284.352V137.148Q284.352 143.682 280.95 147.219Q277.548 150.756 271.338 150.756Q269.988 150.756 268.557 150.594Q267.126 150.432 265.452 150.054Z M289.48199999999997 135.906Q289.48199999999997 131.532 291.264 128.184Q293.046 124.836 296.28599999999994 122.973Q299.52599999999995 121.11 303.792 121.11Q308.11199999999997 121.11 311.32499999999993 122.973Q314.53799999999995 124.836 316.347 128.184Q318.15599999999995 131.532 318.15599999999995 135.906Q318.15599999999995 140.334 316.347 143.68200000000002Q314.53799999999995 147.03 311.32499999999993 148.893Q308.11199999999997 150.756 303.792 150.756Q299.52599999999995 150.756 296.28599999999994 148.893Q293.046 147.03 291.264 143.68200000000002Q289.48199999999997 140.334 289.48199999999997 135.906ZM298.22999999999996 135.906Q298.22999999999996 138.066 298.905 139.659Q299.58 141.252 300.822 142.11599999999999Q302.06399999999996 142.98 303.792 142.98Q305.57399999999996 142.98 306.789 142.11599999999999Q308.00399999999996 141.252 308.70599999999996 139.659Q309.40799999999996 138.066 309.40799999999996 135.906Q309.40799999999996 133.746 308.70599999999996 132.18Q308.00399999999996 130.614 306.789 129.75Q305.57399999999996 128.886 303.792 128.886Q302.06399999999996 128.886 300.822 129.75Q299.58 130.614 298.905 132.18Q298.22999999999996 133.746 298.22999999999996 135.906Z M337.38 141.954Q337.38 141.144 336.813 140.685Q336.246 140.226 334.734 139.902L330.846 138.984Q326.094 137.85 323.799 135.663Q321.50399999999996 133.476 321.50399999999996 129.696Q321.50399999999996 126.888 323.06999999999994 124.944Q324.63599999999997 123.0 327.255 122.055Q329.87399999999997 121.11 333.06 121.11Q337.32599999999996 121.11 340.70099999999996 122.946Q344.07599999999996 124.782 345.58799999999997 128.454L339.0 130.83Q338.24399999999997 129.318 336.51599999999996 128.616Q334.78799999999995 127.914 333.114 127.914Q331.602 127.914 330.68399999999997 128.4Q329.76599999999996 128.886 329.76599999999996 129.858Q329.76599999999996 130.614 330.33299999999997 131.10000000000002Q330.9 131.586 332.304 131.91L336.192 132.828Q340.94399999999996 133.90800000000002 343.26599999999996 136.122Q345.58799999999997 138.336 345.58799999999997 142.062Q345.58799999999997 146.058 342.537 148.40699999999998Q339.486 150.756 333.924 150.756Q328.95599999999996 150.756 325.39199999999994 148.731Q321.828 146.706 320.47799999999995 142.872L327.22799999999995 140.442Q328.03799999999995 142.278 329.847 143.115Q331.656 143.952 333.924 143.952Q335.59799999999996 143.952 336.489 143.466Q337.38 142.98 337.38 141.954Z M350.016 110.418H358.656V129.318H356.82000000000005Q357.738 125.592 360.411 123.351Q363.084 121.11 366.48600000000005 121.11Q376.15200000000004 121.11 376.15200000000004 133.368V150.0H367.512V134.124Q367.512 131.424 366.459 130.155Q365.406 128.886 363.24600000000004 128.886Q361.788 128.886 360.76200000000006 129.588Q359.73600000000005 130.29 359.196 131.613Q358.656 132.936 358.656 134.772V150.0H350.016Z" fill="#15171C"/>
<path d="M57.968 184.168Q57.968 181.792 56.736000000000004 180.538Q55.504 179.284 53.238 179.284H50.774V189.074H53.238Q55.504 189.074 56.736000000000004 187.82Q57.968 186.566 57.968 184.168ZM53.414 192.0H47.606V176.358H53.414Q55.856 176.358 57.605000000000004 177.28199999999998Q59.354 178.206 60.289 179.95499999999998Q61.224 181.704 61.224 184.168Q61.224 186.632 60.289 188.381Q59.354 190.13 57.605000000000004 191.065Q55.856 192.0 53.414 192.0Z M62.83 186.324Q62.83 184.498 63.556 183.14499999999998Q64.282 181.792 65.58 181.04399999999998Q66.878 180.296 68.594 180.296Q70.398 180.296 71.63 181.066Q72.862 181.836 73.511 183.145Q74.16 184.454 74.16 186.104V187.094H64.414V185.07H72.422L71.16799999999999 185.796Q71.16799999999999 184.85 70.85999999999999 184.15699999999998Q70.55199999999999 183.464 69.99099999999999 183.101Q69.42999999999999 182.738 68.63799999999999 182.738Q67.846 182.738 67.23 183.123Q66.614 183.508 66.273 184.234Q65.932 184.96 65.932 185.994V186.5Q65.932 188.018 66.691 188.84300000000002Q67.45 189.668 68.814 189.668Q69.628 189.668 70.244 189.33800000000002Q70.86 189.008 71.322 188.348L73.63199999999999 189.778Q72.818 191.01 71.542 191.659Q70.26599999999999 192.308 68.704 192.308Q67.00999999999999 192.308 65.679 191.593Q64.348 190.878 63.589 189.547Q62.83 188.216 62.83 186.324Z M82.23400000000001 188.81Q82.23400000000001 188.392 81.93700000000001 188.14999999999998Q81.64 187.908 80.89200000000001 187.732L79.37400000000001 187.38Q77.482 186.94 76.58 186.071Q75.678 185.202 75.678 183.728Q75.678 182.606 76.27199999999999 181.84699999999998Q76.866 181.088 77.9 180.692Q78.934 180.296 80.232 180.296Q81.97 180.296 83.28999999999999 181.03300000000002Q84.61 181.77 85.182 183.222L82.784 184.124Q82.45400000000001 183.442 81.72800000000001 183.11200000000002Q81.00200000000001 182.782 80.27600000000001 182.782Q79.506 182.782 79.066 183.03500000000003Q78.626 183.288 78.626 183.75Q78.626 184.19 78.934 184.41Q79.242 184.63 79.946 184.806L81.486 185.158Q83.378 185.598 84.291 186.489Q85.20400000000001 187.38 85.20400000000001 188.854Q85.20400000000001 190.438 83.983 191.373Q82.762 192.308 80.584 192.308Q78.58200000000001 192.308 77.174 191.483Q75.766 190.658 75.238 189.14L77.702 188.26Q78.054 189.052 78.802 189.426Q79.55000000000001 189.8 80.562 189.8Q81.376 189.8 81.805 189.558Q82.23400000000001 189.316 82.23400000000001 188.81Z M90.19800000000001 192.0H87.11800000000001V180.604H90.19800000000001ZM86.898 177.36999999999998Q86.898 176.57799999999997 87.393 176.10499999999996Q87.888 175.63199999999998 88.658 175.63199999999998Q89.45 175.63199999999998 89.934 176.10499999999996Q90.418 176.57799999999997 90.418 177.36999999999998Q90.418 178.14 89.934 178.62399999999997Q89.45 179.10799999999998 88.658 179.10799999999998Q87.888 179.10799999999998 87.393 178.62399999999997Q86.898 178.14 86.898 177.36999999999998Z M100.472 191.384V188.678H101.11Q100.692 189.976 99.603 190.724Q98.514 191.472 97.062 191.472Q95.566 191.472 94.46600000000001 190.779Q93.366 190.086 92.761 188.82100000000003Q92.15599999999999 187.556 92.15599999999999 185.84Q92.15599999999999 184.14600000000002 92.761 182.90300000000002Q93.366 181.66 94.46600000000001 180.978Q95.566 180.296 97.062 180.296Q98.514 180.296 99.625 181.19799999999998Q100.73599999999999 182.1 101.154 183.684H100.51599999999999V180.604H103.53V191.186Q103.53 193.166 102.815 194.453Q102.1 195.74 100.857 196.378Q99.614 197.016 98.03 197.016Q96.336 197.016 94.906 196.312Q93.476 195.608 92.508 194.266L94.84 192.704Q95.368 193.43 96.149 193.82600000000002Q96.92999999999999 194.222 97.876 194.222Q99.064 194.222 99.768 193.551Q100.472 192.88 100.472 191.384ZM97.854 183.112Q97.062 183.112 96.479 183.453Q95.896 183.794 95.588 184.41000000000003Q95.28 185.026 95.28 185.84Q95.28 186.654 95.588 187.292Q95.896 187.93 96.479 188.304Q97.062 188.678 97.854 188.678Q98.66799999999999 188.678 99.251 188.315Q99.834 187.952 100.142 187.314Q100.45 186.676 100.45 185.84Q100.45 185.004 100.142 184.399Q99.834 183.794 99.251 183.453Q98.66799999999999 183.112 97.854 183.112Z M106.038 180.604H109.074V183.706H108.392Q108.788 182.144 109.877 181.22Q110.966 180.296 112.39599999999999 180.296Q116.37799999999999 180.296 116.37799999999999 185.29V192.0H113.29799999999999V185.51Q113.29799999999999 184.278 112.803 183.684Q112.30799999999999 183.09 111.29599999999999 183.09Q110.65799999999999 183.09 110.16299999999998 183.42000000000002Q109.66799999999999 183.75 109.393 184.36599999999999Q109.118 184.982 109.118 185.796V192.0H106.038Z M118.24799999999999 186.324Q118.24799999999999 184.498 118.97399999999999 183.14499999999998Q119.7 181.792 120.99799999999999 181.04399999999998Q122.29599999999999 180.296 124.012 180.296Q125.816 180.296 127.048 181.066Q128.28 181.836 128.929 183.145Q129.578 184.454 129.578 186.104V187.094H119.832V185.07H127.84L126.586 185.796Q126.586 184.85 126.27799999999999 184.15699999999998Q125.97 183.464 125.40899999999999 183.101Q124.848 182.738 124.056 182.738Q123.264 182.738 122.648 183.123Q122.032 183.508 121.691 184.234Q121.35 184.96 121.35 185.994V186.5Q121.35 188.018 122.109 188.84300000000002Q122.868 189.668 124.232 189.668Q125.04599999999999 189.668 125.66199999999999 189.33800000000002Q126.27799999999999 189.008 126.74 188.348L129.04999999999998 189.778Q128.236 191.01 126.96 191.659Q125.684 192.308 124.122 192.308Q122.428 192.308 121.097 191.593Q119.76599999999999 190.878 119.00699999999999 189.547Q118.24799999999999 188.216 118.24799999999999 186.324Z M131.53599999999997 180.604H134.57199999999997V183.706H133.89Q134.088 182.848 134.58299999999997 182.10000000000002Q135.07799999999997 181.352 135.82599999999996 180.868Q136.57399999999998 180.38400000000001 137.45399999999998 180.38400000000001Q137.67399999999998 180.38400000000001 137.89399999999998 180.406Q138.11399999999998 180.428 138.33399999999997 180.494V183.398Q137.87199999999999 183.31 137.36599999999999 183.31Q136.59599999999998 183.31 135.969 183.64Q135.34199999999998 183.97 134.97899999999998 184.64100000000002Q134.61599999999999 185.312 134.61599999999999 186.324V192.0H131.53599999999997Z M150.962 184.036Q150.962 183.20000000000002 151.468 182.705Q151.974 182.21 152.80999999999997 182.21Q153.646 182.21 154.14099999999996 182.705Q154.63599999999997 183.20000000000002 154.63599999999997 184.036Q154.63599999999997 184.85000000000002 154.14099999999996 185.35600000000002Q153.646 185.86200000000002 152.80999999999997 185.86200000000002Q151.974 185.86200000000002 151.468 185.35600000000002Q150.962 184.85000000000002 150.962 184.036Z M172.10399999999998 177.062H175.272V192.0H172.10399999999998ZM167.374 176.358H180.00199999999998V179.328H167.374Z M181.344 186.324Q181.344 184.498 182.07 183.14499999999998Q182.796 181.792 184.094 181.04399999999998Q185.392 180.296 187.10799999999998 180.296Q188.91199999999998 180.296 190.14399999999998 181.066Q191.37599999999998 181.836 192.02499999999998 183.145Q192.67399999999998 184.454 192.67399999999998 186.104V187.094H182.928V185.07H190.93599999999998L189.682 185.796Q189.682 184.85 189.37399999999997 184.15699999999998Q189.06599999999997 183.464 188.505 183.101Q187.944 182.738 187.152 182.738Q186.35999999999999 182.738 185.74399999999997 183.123Q185.128 183.508 184.78699999999998 184.234Q184.446 184.96 184.446 185.994V186.5Q184.446 188.018 185.20499999999998 188.84300000000002Q185.964 189.668 187.32799999999997 189.668Q188.142 189.668 188.75799999999998 189.33800000000002Q189.374 189.008 189.83599999999998 188.348L192.146 189.778Q191.332 191.01 190.05599999999998 191.659Q188.77999999999997 192.308 187.218 192.308Q185.52399999999997 192.308 184.19299999999998 191.593Q182.862 190.878 182.103 189.547Q181.344 188.216 181.344 186.324Z M194.082 186.302Q194.082 184.52 194.79699999999997 183.167Q195.51199999999997 181.814 196.79899999999998 181.055Q198.08599999999998 180.296 199.802 180.296Q201.452 180.296 202.71699999999998 181.03300000000002Q203.98199999999997 181.77 204.708 183.288L202.134 184.608Q201.76 183.816 201.177 183.464Q200.594 183.112 199.802 183.112Q199.01 183.112 198.427 183.50799999999998Q197.844 183.904 197.52499999999998 184.619Q197.206 185.334 197.206 186.302Q197.206 187.776 197.90999999999997 188.63400000000001Q198.61399999999998 189.492 199.802 189.492Q200.61599999999999 189.492 201.265 189.118Q201.914 188.744 202.35399999999998 187.93L204.928 189.25Q204.17999999999998 190.724 202.849 191.516Q201.51799999999997 192.308 199.802 192.308Q198.08599999999998 192.308 196.79899999999998 191.538Q195.51199999999997 190.768 194.79699999999997 189.41500000000002Q194.082 188.062 194.082 186.302Z M206.66599999999997 175.874H209.74599999999998V183.706H209.01999999999998Q209.41599999999997 182.144 210.50499999999997 181.22Q211.59399999999997 180.296 213.02399999999997 180.296Q217.00599999999997 180.296 217.00599999999997 185.29V192.0H213.926V185.51Q213.926 184.278 213.43099999999998 183.684Q212.93599999999998 183.09 211.92399999999998 183.09Q211.28599999999997 183.09 210.79099999999997 183.42000000000002Q210.29599999999996 183.75 210.02099999999996 184.36599999999999Q209.74599999999998 184.982 209.74599999999998 185.796V192.0H206.66599999999997Z M224.288 189.052Q224.772 189.162 225.256 189.228Q225.74 189.294 226.15800000000002 189.294Q227.368 189.294 227.929 188.722Q228.49 188.15 228.49 186.852V176.358H231.65800000000002V186.984Q231.65800000000002 189.492 230.33800000000002 190.89999999999998Q229.018 192.308 226.598 192.308Q226.048 192.308 225.48700000000002 192.231Q224.92600000000002 192.154 224.288 192.022Z M233.88 186.302Q233.88 184.52 234.59499999999997 183.167Q235.30999999999997 181.814 236.59699999999998 181.055Q237.884 180.296 239.6 180.296Q241.338 180.296 242.625 181.055Q243.91199999999998 181.814 244.61599999999999 183.167Q245.32 184.52 245.32 186.302Q245.32 188.062 244.61599999999999 189.41500000000002Q243.91199999999998 190.768 242.625 191.538Q241.338 192.308 239.6 192.308Q237.884 192.308 236.59699999999998 191.538Q235.30999999999997 190.768 234.59499999999997 189.41500000000002Q233.88 188.062 233.88 186.302ZM237.004 186.302Q237.004 187.248 237.32299999999998 187.974Q237.642 188.7 238.225 189.096Q238.808 189.492 239.6 189.492Q240.414 189.492 240.986 189.096Q241.558 188.7 241.877 187.974Q242.196 187.248 242.196 186.302Q242.196 185.334 241.877 184.619Q241.558 183.904 240.986 183.50799999999998Q240.414 183.112 239.6 183.112Q238.808 183.112 238.225 183.50799999999998Q237.642 183.904 237.32299999999998 184.619Q237.004 185.334 237.004 186.302Z M247.19 187.314V180.604H250.27V187.094Q250.27 188.326 250.765 188.92000000000002Q251.26 189.514 252.228 189.514Q252.888 189.514 253.372 189.18400000000003Q253.856 188.854 254.131 188.227Q254.406 187.6 254.406 186.808V180.604H257.486V192.0H254.428V188.898H255.132Q254.758 190.438 253.65800000000002 191.373Q252.558 192.308 251.15 192.308Q249.192 192.308 248.191 191.054Q247.19 189.8 247.19 187.314Z M259.994 180.604H263.03000000000003V183.706H262.348Q262.546 182.848 263.041 182.10000000000002Q263.536 181.352 264.284 180.868Q265.032 180.38400000000001 265.91200000000003 180.38400000000001Q266.132 180.38400000000001 266.352 180.406Q266.572 180.428 266.79200000000003 180.494V183.398Q266.33 183.31 265.824 183.31Q265.05400000000003 183.31 264.427 183.64Q263.8 183.97 263.437 184.64100000000002Q263.074 185.312 263.074 186.324V192.0H259.994Z M268.574 180.604H271.61V183.706H270.928Q271.324 182.144 272.413 181.22Q273.502 180.296 274.932 180.296Q278.914 180.296 278.914 185.29V192.0H275.834V185.51Q275.834 184.278 275.339 183.684Q274.844 183.09 273.832 183.09Q273.194 183.09 272.699 183.42000000000002Q272.204 183.75 271.929 184.36599999999999Q271.654 184.982 271.654 185.796V192.0H268.574Z M288.10999999999996 185.422Q288.10999999999996 184.14600000000002 287.538 183.519Q286.966 182.892 285.866 182.892Q285.14 182.892 284.513 183.2Q283.88599999999997 183.508 283.402 184.124L281.15799999999996 182.628Q282.06 181.484 283.336 180.89Q284.61199999999997 180.296 286.19599999999997 180.296Q288.52799999999996 180.296 289.793 181.572Q291.058 182.848 291.058 185.378V192.0H288.10999999999996ZM280.87199999999996 188.898Q280.87199999999996 187.072 282.159 186.082Q283.44599999999997 185.092 285.756 185.092H288.68199999999996V187.116H285.90999999999997Q284.89799999999997 187.116 284.359 187.49Q283.82 187.864 283.82 188.568Q283.82 189.162 284.216 189.49200000000002Q284.61199999999997 189.822 285.35999999999996 189.822Q286.06399999999996 189.822 286.691 189.47Q287.318 189.118 287.71399999999994 188.458Q288.10999999999996 187.798 288.10999999999996 186.874L288.924 187.798Q288.924 189.228 288.31899999999996 190.22899999999998Q287.714 191.23 286.71299999999997 191.769Q285.712 192.308 284.502 192.308Q283.424 192.308 282.61 191.901Q281.796 191.494 281.33399999999995 190.735Q280.87199999999996 189.976 280.87199999999996 188.898Z M293.478 175.874H296.558V192.0H293.478Z M302.146 192.0H299.06600000000003V180.604H302.146ZM298.846 177.36999999999998Q298.846 176.57799999999997 299.341 176.10499999999996Q299.836 175.63199999999998 300.606 175.63199999999998Q301.39799999999997 175.63199999999998 301.88199999999995 176.10499999999996Q302.366 176.57799999999997 302.366 177.36999999999998Q302.366 178.14 301.88199999999995 178.62399999999997Q301.39799999999997 179.10799999999998 300.606 179.10799999999998Q299.836 179.10799999999998 299.341 178.62399999999997Q298.846 178.14 298.846 177.36999999999998Z M310.77 188.81Q310.77 188.392 310.47299999999996 188.14999999999998Q310.176 187.908 309.428 187.732L307.90999999999997 187.38Q306.018 186.94 305.116 186.071Q304.214 185.202 304.214 183.728Q304.214 182.606 304.808 181.84699999999998Q305.402 181.088 306.436 180.692Q307.46999999999997 180.296 308.768 180.296Q310.506 180.296 311.82599999999996 181.03300000000002Q313.14599999999996 181.77 313.71799999999996 183.222L311.32 184.124Q310.98999999999995 183.442 310.26399999999995 183.11200000000002Q309.53799999999995 182.782 308.81199999999995 182.782Q308.042 182.782 307.602 183.03500000000003Q307.162 183.288 307.162 183.75Q307.162 184.19 307.46999999999997 184.41Q307.77799999999996 184.63 308.48199999999997 184.806L310.022 185.158Q311.914 185.598 312.827 186.489Q313.73999999999995 187.38 313.73999999999995 188.854Q313.73999999999995 190.438 312.519 191.373Q311.298 192.308 309.12 192.308Q307.118 192.308 305.71 191.483Q304.30199999999996 190.658 303.774 189.14L306.238 188.26Q306.59 189.052 307.33799999999997 189.426Q308.08599999999996 189.8 309.09799999999996 189.8Q309.912 189.8 310.341 189.558Q310.77 189.316 310.77 188.81Z M316.402 188.194V178.074L319.48199999999997 177.04V187.688Q319.48199999999997 188.7 319.856 189.063Q320.22999999999996 189.426 321.0 189.426Q321.33 189.426 321.65999999999997 189.382Q321.98999999999995 189.338 322.32 189.272V191.934Q321.858 192.066 321.308 192.132Q320.758 192.198 320.274 192.198Q319.13 192.198 318.26099999999997 191.835Q317.392 191.472 316.897 190.59199999999998Q316.402 189.712 316.402 188.194ZM314.70799999999997 180.604H321.81399999999996V183.332H314.70799999999997Z M335.036 184.036Q335.036 183.20000000000002 335.54200000000003 182.705Q336.048 182.21 336.884 182.21Q337.71999999999997 182.21 338.215 182.705Q338.71 183.20000000000002 338.71 184.036Q338.71 184.85000000000002 338.215 185.35600000000002Q337.71999999999997 185.86200000000002 336.884 185.86200000000002Q336.048 185.86200000000002 335.54200000000003 185.35600000000002Q335.036 184.85000000000002 335.036 184.036Z M351.69 184.19Q351.69 181.726 352.63599999999997 179.9Q353.582 178.074 355.298 177.062Q357.014 176.05 359.28 176.05Q361.59 176.05 363.29499999999996 177.106Q365.0 178.162 366.012 180.12L363.24 181.55Q362.558 180.274 361.59000000000003 179.66899999999998Q360.622 179.064 359.28 179.064Q357.96 179.064 356.981 179.68Q356.002 180.296 355.47400000000005 181.451Q354.946 182.606 354.946 184.168Q354.946 185.752 355.47400000000005 186.907Q356.002 188.062 356.981 188.678Q357.96 189.294 359.28 189.294Q360.666 189.294 361.634 188.678Q362.602 188.062 363.262 186.808L366.034 188.26Q365.022 190.218 363.306 191.26299999999998Q361.59 192.308 359.28 192.308Q357.014 192.308 355.30899999999997 191.296Q353.604 190.284 352.647 188.458Q351.69 186.632 351.69 184.19Z M368.19 180.604H371.226V183.706H370.544Q370.74199999999996 182.848 371.23699999999997 182.10000000000002Q371.73199999999997 181.352 372.47999999999996 180.868Q373.22799999999995 180.38400000000001 374.108 180.38400000000001Q374.328 180.38400000000001 374.548 180.406Q374.768 180.428 374.988 180.494V183.398Q374.52599999999995 183.31 374.02 183.31Q373.25 183.31 372.623 183.64Q371.996 183.97 371.633 184.64100000000002Q371.27 185.312 371.27 186.324V192.0H368.19Z M376.21999999999997 186.324Q376.21999999999997 184.498 376.94599999999997 183.14499999999998Q377.67199999999997 181.792 378.96999999999997 181.04399999999998Q380.268 180.296 381.984 180.296Q383.78799999999995 180.296 385.02 181.066Q386.25199999999995 181.836 386.90099999999995 183.145Q387.54999999999995 184.454 387.54999999999995 186.104V187.094H377.804V185.07H385.81199999999995L384.55799999999994 185.796Q384.55799999999994 184.85 384.24999999999994 184.15699999999998Q383.94199999999995 183.464 383.381 183.101Q382.81999999999994 182.738 382.02799999999996 182.738Q381.236 182.738 380.62 183.123Q380.00399999999996 183.508 379.66299999999995 184.234Q379.32199999999995 184.96 379.32199999999995 185.994V186.5Q379.32199999999995 188.018 380.08099999999996 188.84300000000002Q380.84 189.668 382.20399999999995 189.668Q383.018 189.668 383.63399999999996 189.33800000000002Q384.24999999999994 189.008 384.712 188.348L387.02199999999993 189.778Q386.20799999999997 191.01 384.93199999999996 191.659Q383.65599999999995 192.308 382.09399999999994 192.308Q380.4 192.308 379.06899999999996 191.593Q377.73799999999994 190.878 376.9789999999999 189.547Q376.21999999999997 188.216 376.21999999999997 186.324Z M396.28399999999993 185.422Q396.28399999999993 184.14600000000002 395.712 183.519Q395.14 182.892 394.03999999999996 182.892Q393.31399999999996 182.892 392.68699999999995 183.2Q392.05999999999995 183.508 391.57599999999996 184.124L389.33199999999994 182.628Q390.234 181.484 391.51 180.89Q392.78599999999994 180.296 394.36999999999995 180.296Q396.70199999999994 180.296 397.967 181.572Q399.23199999999997 182.848 399.23199999999997 185.378V192.0H396.28399999999993ZM389.04599999999994 188.898Q389.04599999999994 187.072 390.33299999999997 186.082Q391.61999999999995 185.092 393.92999999999995 185.092H396.85599999999994V187.116H394.08399999999995Q393.07199999999995 187.116 392.53299999999996 187.49Q391.99399999999997 187.864 391.99399999999997 188.568Q391.99399999999997 189.162 392.39 189.49200000000002Q392.78599999999994 189.822 393.53399999999993 189.822Q394.23799999999994 189.822 394.86499999999995 189.47Q395.49199999999996 189.118 395.8879999999999 188.458Q396.28399999999993 187.798 396.28399999999993 186.874L397.09799999999996 187.798Q397.09799999999996 189.228 396.49299999999994 190.22899999999998Q395.888 191.23 394.88699999999994 191.769Q393.88599999999997 192.308 392.676 192.308Q391.59799999999996 192.308 390.784 191.901Q389.96999999999997 191.494 389.5079999999999 190.735Q389.04599999999994 189.976 389.04599999999994 188.898Z M402.4 188.194V178.074L405.47999999999996 177.04V187.688Q405.47999999999996 188.7 405.8539999999999 189.063Q406.22799999999995 189.426 406.998 189.426Q407.328 189.426 407.65799999999996 189.382Q407.98799999999994 189.338 408.318 189.272V191.934Q407.856 192.066 407.306 192.132Q406.756 192.198 406.272 192.198Q405.128 192.198 404.259 191.835Q403.39 191.472 402.895 190.59199999999998Q402.4 189.712 402.4 188.194ZM400.70599999999996 180.604H407.81199999999995V183.332H400.70599999999996Z M409.638 186.302Q409.638 184.52 410.35299999999995 183.167Q411.068 181.814 412.355 181.055Q413.642 180.296 415.35799999999995 180.296Q417.09599999999995 180.296 418.3829999999999 181.055Q419.66999999999996 181.814 420.37399999999997 183.167Q421.078 184.52 421.078 186.302Q421.078 188.062 420.37399999999997 189.41500000000002Q419.66999999999996 190.768 418.3829999999999 191.538Q417.09599999999995 192.308 415.35799999999995 192.308Q413.642 192.308 412.355 191.538Q411.068 190.768 410.35299999999995 189.41500000000002Q409.638 188.062 409.638 186.302ZM412.76199999999994 186.302Q412.76199999999994 187.248 413.08099999999996 187.974Q413.4 188.7 413.98299999999995 189.096Q414.566 189.492 415.35799999999995 189.492Q416.17199999999997 189.492 416.74399999999997 189.096Q417.316 188.7 417.635 187.974Q417.95399999999995 187.248 417.95399999999995 186.302Q417.95399999999995 185.334 417.635 184.619Q417.316 183.904 416.74399999999997 183.50799999999998Q416.17199999999997 183.112 415.35799999999995 183.112Q414.566 183.112 413.98299999999995 183.50799999999998Q413.4 183.904 413.08099999999996 184.619Q412.76199999999994 185.334 412.76199999999994 186.302Z M423.036 180.604H426.072V183.706H425.39Q425.58799999999997 182.848 426.08299999999997 182.10000000000002Q426.578 181.352 427.32599999999996 180.868Q428.07399999999996 180.38400000000001 428.954 180.38400000000001Q429.174 180.38400000000001 429.394 180.406Q429.614 180.428 429.834 180.494V183.398Q429.37199999999996 183.31 428.866 183.31Q428.096 183.31 427.469 183.64Q426.842 183.97 426.479 184.64100000000002Q426.116 185.312 426.116 186.324V192.0H423.036Z" fill="#387AFF"/>
<path d="M46.833 221.965Q46.833 220.061 47.53 218.6585Q48.227000000000004 217.256 49.502 216.48250000000002Q50.777 215.709 52.494 215.709Q54.126000000000005 215.709 55.384 216.46550000000002Q56.642 217.222 57.424 218.684L56.132000000000005 219.364Q55.537 218.225 54.6275 217.6725Q53.718 217.12 52.494 217.12Q51.219 217.12 50.292500000000004 217.7065Q49.366 218.293 48.8645 219.381Q48.363 220.469 48.363 221.965Q48.363 223.444 48.8645 224.53199999999998Q49.366 225.62 50.292500000000004 226.2065Q51.219 226.793 52.494 226.793Q53.752 226.793 54.6785 226.232Q55.605000000000004 225.671 56.2 224.566L57.492000000000004 225.263Q56.71 226.708 55.435 227.45600000000002Q54.16 228.204 52.494 228.204Q50.777 228.204 49.502 227.4305Q48.227000000000004 226.657 47.53 225.2545Q46.833 223.852 46.833 221.965Z M58.988 223.665Q58.988 222.339 59.498000000000005 221.3105Q60.008 220.282 60.943 219.704Q61.878 219.126 63.153000000000006 219.126Q64.428 219.126 65.363 219.704Q66.298 220.282 66.80799999999999 221.3105Q67.318 222.339 67.318 223.665Q67.318 224.99099999999999 66.80799999999999 226.011Q66.298 227.031 65.363 227.6175Q64.428 228.204 63.153000000000006 228.204Q61.878 228.204 60.943 227.6175Q60.008 227.031 59.498000000000005 226.011Q58.988 224.99099999999999 58.988 223.665ZM60.467000000000006 223.665Q60.467000000000006 224.6 60.790000000000006 225.3225Q61.113 226.045 61.716499999999996 226.4445Q62.32 226.844 63.153000000000006 226.844Q64.003 226.844 64.598 226.4445Q65.193 226.045 65.51599999999999 225.3225Q65.839 224.6 65.839 223.665Q65.839 222.713 65.51599999999999 221.999Q65.193 221.285 64.598 220.88549999999998Q64.003 220.486 63.153000000000006 220.486Q62.32 220.486 61.716499999999996 220.88549999999998Q61.113 221.285 60.790000000000006 221.999Q60.467000000000006 222.713 60.467000000000006 223.665Z M72.928 227.065H72.31599999999999L75.359 219.33H76.85499999999999L73.336 228.0H71.806L68.28699999999999 219.33H69.88499999999999Z M77.824 223.665Q77.824 222.288 78.3425 221.268Q78.861 220.248 79.8045 219.687Q80.748 219.126 82.006 219.126Q83.23 219.126 84.148 219.67000000000002Q85.066 220.214 85.576 221.2Q86.086 222.186 86.086 223.495V224.141H78.657V222.86599999999999H85.27L84.641 223.325Q84.641 222.458 84.30950000000001 221.812Q83.97800000000001 221.166 83.39150000000001 220.809Q82.805 220.452 82.006 220.452Q81.173 220.452 80.55250000000001 220.84300000000002Q79.932 221.234 79.60050000000001 221.93099999999998Q79.269 222.628 79.269 223.563V223.665Q79.269 225.161 80.0 226.0195Q80.731 226.878 82.057 226.878Q82.941 226.878 83.5615 226.521Q84.182 226.164 84.607 225.45L85.78 226.147Q85.151 227.184 84.1905 227.69400000000002Q83.23 228.204 82.023 228.204Q80.748 228.204 79.8045 227.643Q78.861 227.082 78.3425 226.062Q77.824 225.042 77.824 223.665Z M87.88799999999999 219.33H89.333V221.829H88.789Q88.976 221.064 89.4095 220.469Q89.84299999999999 219.874 90.43799999999999 219.5255Q91.033 219.177 91.713 219.177Q91.89999999999999 219.177 92.07849999999999 219.19400000000002Q92.25699999999999 219.211 92.44399999999999 219.262V220.69Q92.155 220.622 91.72999999999999 220.622Q91.01599999999999 220.622 90.472 220.95350000000002Q89.928 221.285 89.6305 221.88Q89.333 222.475 89.333 223.291V228.0H87.88799999999999Z M95.504 228.0H94.059V219.33H95.504ZM93.83800000000001 216.763Q93.83800000000001 216.321 94.10150000000002 216.066Q94.36500000000001 215.811 94.79 215.811Q95.232 215.811 95.487 216.066Q95.742 216.321 95.742 216.763Q95.742 217.188 95.487 217.4515Q95.232 217.715 94.79 217.715Q94.36500000000001 217.715 94.10150000000002 217.4515Q93.83800000000001 217.188 93.83800000000001 216.763Z M97.782 219.33H99.227V221.829H98.683Q99.006 220.571 99.8815 219.8485Q100.757 219.126 101.913 219.126Q105.075 219.126 105.075 222.968V228.0H103.63V222.968Q103.63 221.676 103.12 221.064Q102.61 220.452 101.57300000000001 220.452Q100.91 220.452 100.3745 220.809Q99.839 221.166 99.533 221.79500000000002Q99.227 222.424 99.227 223.24V228.0H97.782Z M113.626 227.864V225.399H114.051Q113.677 226.572 112.793 227.2265Q111.909 227.881 110.702 227.881Q109.529 227.881 108.65350000000001 227.337Q107.778 226.793 107.2935 225.8155Q106.809 224.838 106.809 223.512Q106.809 222.169 107.2935 221.19150000000002Q107.778 220.214 108.65350000000001 219.67000000000002Q109.529 219.126 110.702 219.126Q111.909 219.126 112.827 219.8145Q113.745 220.503 114.119 221.812H113.626V219.33H115.071V227.694Q115.071 229.19 114.561 230.1335Q114.051 231.077 113.167 231.519Q112.283 231.961 111.144 231.961Q109.903 231.961 108.88300000000001 231.417Q107.863 230.873 107.183 229.836L108.373 229.139Q108.815 229.836 109.529 230.2185Q110.243 230.601 111.127 230.601Q112.266 230.601 112.946 229.94650000000001Q113.626 229.292 113.626 227.864ZM110.923 220.486Q110.09 220.486 109.495 220.877Q108.9 221.268 108.594 221.9565Q108.288 222.645 108.288 223.512Q108.288 224.362 108.594 225.0505Q108.9 225.739 109.495 226.13Q110.09 226.521 110.923 226.521Q111.773 226.521 112.38499999999999 226.1385Q112.997 225.756 113.32 225.076Q113.643 224.396 113.643 223.512Q113.643 222.611 113.32 221.93099999999998Q112.997 221.251 112.38499999999999 220.86849999999998Q111.773 220.486 110.923 220.486Z M128.739 224.804Q128.739 224.005 128.229 223.546Q127.71900000000001 223.087 126.376 222.713L124.914 222.288Q123.214 221.795 122.4065 220.97899999999998Q121.599 220.163 121.599 218.956Q121.599 217.443 122.7465 216.57600000000002Q123.894 215.709 125.883 215.709Q126.852 215.709 127.65950000000001 215.9725Q128.467 216.236 129.0875 216.7375Q129.708 217.239 130.065 217.97L128.875 218.786Q128.399 217.885 127.583 217.4855Q126.767 217.086 125.866 217.086Q124.574 217.086 123.83449999999999 217.5365Q123.095 217.987 123.095 218.888Q123.095 219.653 123.6305 220.112Q124.166 220.571 125.458 220.945L126.937 221.37Q128.688 221.863 129.4615 222.6535Q130.235 223.444 130.235 224.736Q130.235 226.368 129.113 227.286Q127.991 228.204 125.985 228.204Q124.387 228.204 123.12049999999999 227.6005Q121.854 226.997 121.10600000000001 225.892L122.279 225.059Q122.874 225.909 123.826 226.368Q124.778 226.827 125.968 226.827Q127.311 226.827 128.025 226.3Q128.739 225.773 128.739 224.804Z M137.494 222.883Q137.494 221.625 136.95 221.0385Q136.406 220.452 135.386 220.452Q134.689 220.452 134.077 220.775Q133.465 221.098 133.023 221.71L131.935 220.894Q132.581 220.044 133.482 219.585Q134.383 219.126 135.42 219.126Q137.052 219.126 137.9955 220.027Q138.939 220.928 138.939 222.849V228.0H137.494ZM131.68 225.637Q131.68 224.328 132.632 223.57150000000001Q133.584 222.815 135.182 222.815H137.817V224.09H135.25Q134.23 224.09 133.6775 224.4725Q133.125 224.855 133.125 225.586Q133.125 226.215 133.53300000000002 226.5635Q133.941 226.912 134.706 226.912Q135.488 226.912 136.11700000000002 226.5465Q136.746 226.181 137.12 225.5605Q137.494 224.94 137.494 224.175L138.14 224.566Q138.14 225.62 137.664 226.4445Q137.188 227.269 136.355 227.7365Q135.522 228.204 134.451 228.204Q133.601 228.204 132.9805 227.8895Q132.36 227.575 132.02 226.997Q131.68 226.419 131.68 225.637Z M141.149 219.33H142.594V221.829H142.04999999999998Q142.28799999999998 220.945 142.76399999999998 220.3415Q143.23999999999998 219.738 143.86899999999997 219.43200000000002Q144.498 219.126 145.212 219.126Q146.368 219.126 147.099 219.76350000000002Q147.82999999999998 220.401 148.06799999999998 221.71H147.541Q147.932 220.452 148.8415 219.789Q149.751 219.126 150.80499999999998 219.126Q152.31799999999998 219.126 153.04899999999998 220.095Q153.78 221.064 153.78 222.968V228.0H152.33499999999998V222.968Q152.33499999999998 221.676 151.85049999999998 221.064Q151.36599999999999 220.452 150.414 220.452Q149.83599999999998 220.452 149.326 220.8005Q148.816 221.149 148.5015 221.761Q148.18699999999998 222.373 148.18699999999998 223.172V228.0H146.742V222.968Q146.742 221.676 146.266 221.064Q145.79 220.452 144.821 220.452Q144.243 220.452 143.733 220.809Q143.22299999999998 221.166 142.9085 221.7865Q142.594 222.407 142.594 223.206V228.0H141.149Z M160.92 225.739Q160.92 225.229 160.57150000000001 224.923Q160.223 224.617 159.356 224.413L158.285 224.158Q156.908 223.818 156.2705 223.20600000000002Q155.633 222.594 155.633 221.591Q155.633 220.826 156.0325 220.2735Q156.432 219.721 157.163 219.4235Q157.894 219.126 158.897 219.126Q160.172 219.126 161.07299999999998 219.67849999999999Q161.974 220.231 162.348 221.234L161.107 221.761Q160.835 221.064 160.223 220.75799999999998Q159.611 220.452 158.914 220.452Q158.03 220.452 157.5625 220.7495Q157.095 221.047 157.095 221.574Q157.095 222.118 157.47750000000002 222.3645Q157.86 222.611 158.693 222.815L159.764 223.07Q161.124 223.393 161.753 224.03050000000002Q162.382 224.668 162.382 225.722Q162.382 226.861 161.498 227.5325Q160.614 228.204 159.101 228.204Q157.673 228.204 156.6615 227.58350000000002Q155.65 226.963 155.31 225.875L156.585 225.399Q156.857 226.13 157.486 226.504Q158.115 226.878 159.05 226.878Q159.968 226.878 160.444 226.589Q160.92 226.3 160.92 225.739Z M164.06500000000003 224.362V219.33H165.51000000000002V224.362Q165.51000000000002 225.654 166.02000000000004 226.266Q166.53000000000003 226.878 167.55000000000004 226.878Q168.21300000000002 226.878 168.74 226.521Q169.26700000000002 226.164 169.57300000000004 225.5265Q169.87900000000002 224.889 169.87900000000002 224.09V219.33H171.32400000000004V228.0H169.87900000000002V225.501H170.42300000000003Q170.10000000000002 226.759 169.23300000000003 227.48149999999998Q168.36600000000004 228.204 167.21000000000004 228.204Q165.66300000000004 228.204 164.86400000000003 227.235Q164.06500000000003 226.266 164.06500000000003 224.362Z M173.60200000000003 219.33H175.04700000000003V221.829H174.50300000000001Q174.82600000000002 220.571 175.7015 219.8485Q176.57700000000003 219.126 177.73300000000003 219.126Q180.895 219.126 180.895 222.968V228.0H179.45000000000002V222.968Q179.45000000000002 221.676 178.94000000000003 221.064Q178.43000000000004 220.452 177.39300000000003 220.452Q176.73000000000002 220.452 176.1945 220.809Q175.65900000000002 221.166 175.353 221.79500000000002Q175.04700000000003 222.424 175.04700000000003 223.24V228.0H173.60200000000003Z M189.446 227.864V225.399H189.871Q189.497 226.572 188.613 227.2265Q187.729 227.881 186.52200000000002 227.881Q185.34900000000002 227.881 184.4735 227.337Q183.598 226.793 183.11350000000002 225.8155Q182.62900000000002 224.838 182.62900000000002 223.512Q182.62900000000002 222.169 183.11350000000002 221.19150000000002Q183.598 220.214 184.4735 219.67000000000002Q185.34900000000002 219.126 186.52200000000002 219.126Q187.729 219.126 188.647 219.8145Q189.565 220.503 189.93900000000002 221.812H189.446V219.33H190.89100000000002V227.694Q190.89100000000002 229.19 190.38100000000003 230.1335Q189.871 231.077 188.98700000000002 231.519Q188.103 231.961 186.964 231.961Q185.723 231.961 184.70300000000003 231.417Q183.68300000000002 230.873 183.00300000000001 229.836L184.193 229.139Q184.63500000000002 229.836 185.34900000000002 230.2185Q186.06300000000002 230.601 186.947 230.601Q188.086 230.601 188.76600000000002 229.94650000000001Q189.446 229.292 189.446 227.864ZM186.743 220.486Q185.91 220.486 185.315 220.877Q184.72 221.268 184.414 221.9565Q184.108 222.645 184.108 223.512Q184.108 224.362 184.414 225.0505Q184.72 225.739 185.315 226.13Q185.91 226.521 186.743 226.521Q187.59300000000002 226.521 188.205 226.1385Q188.817 225.756 189.14000000000001 225.076Q189.46300000000002 224.396 189.46300000000002 223.512Q189.46300000000002 222.611 189.14000000000001 221.93099999999998Q188.817 221.251 188.205 220.86849999999998Q187.59300000000002 220.486 186.743 220.486Z M193.611 226.385H195.294L194.172 230.244H192.965Z M201.482 221.965Q201.482 220.044 202.1875 218.6415Q202.893 217.239 204.185 216.474Q205.477 215.709 207.194 215.709Q208.775 215.709 210.0245 216.423Q211.274 217.137 212.005 218.48L210.747 219.228Q210.169 218.157 209.2595 217.63850000000002Q208.35 217.12 207.194 217.12Q205.902 217.12 204.95850000000002 217.7065Q204.01500000000001 218.293 203.51350000000002 219.3725Q203.012 220.452 203.012 221.965Q203.012 223.444 203.51350000000002 224.5235Q204.01500000000001 225.603 204.95850000000002 226.198Q205.902 226.793 207.211 226.793Q208.401 226.793 209.3105 226.232Q210.22 225.671 210.747 224.651Q211.274 223.631 211.274 222.288V222.135L212.107 222.781H207.381V221.472H212.787V221.982Q212.787 223.869 212.0645 225.2715Q211.342 226.674 210.084 227.43900000000002Q208.826 228.204 207.194 228.204Q205.477 228.204 204.185 227.43900000000002Q202.893 226.674 202.1875 225.2715Q201.482 223.869 201.482 221.965Z M220.114 222.883Q220.114 221.625 219.57 221.0385Q219.026 220.452 218.006 220.452Q217.309 220.452 216.697 220.775Q216.085 221.098 215.643 221.71L214.555 220.894Q215.201 220.044 216.102 219.585Q217.00300000000001 219.126 218.04 219.126Q219.672 219.126 220.6155 220.027Q221.559 220.928 221.559 222.849V228.0H220.114ZM214.3 225.637Q214.3 224.328 215.252 223.57150000000001Q216.204 222.815 217.802 222.815H220.437V224.09H217.87Q216.85 224.09 216.2975 224.4725Q215.745 224.855 215.745 225.586Q215.745 226.215 216.15300000000002 226.5635Q216.561 226.912 217.326 226.912Q218.108 226.912 218.73700000000002 226.5465Q219.366 226.181 219.74 225.5605Q220.114 224.94 220.114 224.175L220.76 224.566Q220.76 225.62 220.284 226.4445Q219.808 227.269 218.975 227.7365Q218.142 228.204 217.071 228.204Q216.221 228.204 215.6005 227.8895Q214.98000000000002 227.575 214.64000000000001 226.997Q214.3 226.419 214.3 225.637Z M223.76900000000003 215.539H225.21400000000003V228.0H223.76900000000003Z M232.847 222.883Q232.847 221.625 232.303 221.0385Q231.75900000000001 220.452 230.739 220.452Q230.042 220.452 229.43 220.775Q228.818 221.098 228.376 221.71L227.288 220.894Q227.934 220.044 228.835 219.585Q229.73600000000002 219.126 230.773 219.126Q232.405 219.126 233.3485 220.027Q234.292 220.928 234.292 222.849V228.0H232.847ZM227.03300000000002 225.637Q227.03300000000002 224.328 227.985 223.57150000000001Q228.937 222.815 230.535 222.815H233.17000000000002V224.09H230.603Q229.583 224.09 229.03050000000002 224.4725Q228.478 224.855 228.478 225.586Q228.478 226.215 228.88600000000002 226.5635Q229.294 226.912 230.059 226.912Q230.841 226.912 231.47000000000003 226.5465Q232.09900000000002 226.181 232.473 225.5605Q232.847 224.94 232.847 224.175L233.493 224.566Q233.493 225.62 233.017 226.4445Q232.541 227.269 231.708 227.7365Q230.875 228.204 229.804 228.204Q228.954 228.204 228.33350000000002 227.8895Q227.71300000000002 227.575 227.37300000000002 226.997Q227.03300000000002 226.419 227.03300000000002 225.637Z M237.42 228.0H235.754L239.154 223.138H239.358L242.027 219.33H243.693L240.344 223.988H240.14ZM240.174 223.138H240.395L243.744 228.0H242.027L239.324 223.988H239.103L235.805 219.33H237.522Z M244.96800000000002 230.499Q245.24 230.55 245.495 230.5755Q245.75000000000003 230.601 246.02200000000002 230.601Q246.532 230.601 246.85500000000002 230.3545Q247.17800000000003 230.108 247.45000000000002 229.394L248.181 227.507L248.33400000000003 227.422L251.51300000000003 219.33H253.00900000000001L248.793 229.751Q248.48700000000002 230.516 248.13000000000002 231.00900000000001Q247.77300000000002 231.502 247.28850000000003 231.7315Q246.80400000000003 231.961 246.09000000000003 231.961Q245.835 231.961 245.54600000000002 231.9355Q245.25700000000003 231.91 244.96800000000002 231.842ZM249.235 227.439 248.24900000000002 228.731 244.44100000000003 219.33H246.03900000000002Z M264.144 222.883Q264.144 221.625 263.6 221.0385Q263.056 220.452 262.036 220.452Q261.339 220.452 260.727 220.775Q260.11499999999995 221.098 259.673 221.71L258.585 220.894Q259.231 220.044 260.13199999999995 219.585Q261.03299999999996 219.126 262.07 219.126Q263.702 219.126 264.64549999999997 220.027Q265.589 220.928 265.589 222.849V228.0H264.144ZM258.33 225.637Q258.33 224.328 259.282 223.57150000000001Q260.234 222.815 261.832 222.815H264.467V224.09H261.9Q260.88 224.09 260.3275 224.4725Q259.775 224.855 259.775 225.586Q259.775 226.215 260.183 226.5635Q260.59099999999995 226.912 261.356 226.912Q262.138 226.912 262.76699999999994 226.5465Q263.39599999999996 226.181 263.77 225.5605Q264.144 224.94 264.144 224.175L264.78999999999996 224.566Q264.78999999999996 225.62 264.31399999999996 226.4445Q263.83799999999997 227.269 263.005 227.7365Q262.17199999999997 228.204 261.101 228.204Q260.251 228.204 259.6305 227.8895Q259.01 227.575 258.66999999999996 226.997Q258.33 226.419 258.33 225.637Z M267.79900000000004 219.33H269.244V221.829H268.70000000000005Q269.023 220.571 269.8985 219.8485Q270.774 219.126 271.93 219.126Q275.09200000000004 219.126 275.09200000000004 222.968V228.0H273.64700000000005V222.968Q273.64700000000005 221.676 273.13700000000006 221.064Q272.627 220.452 271.59000000000003 220.452Q270.927 220.452 270.39150000000006 220.809Q269.85600000000005 221.166 269.55000000000007 221.79500000000002Q269.244 222.424 269.244 223.24V228.0H267.79900000000004Z M276.826 223.648Q276.826 222.271 277.31050000000005 221.2595Q277.795 220.248 278.6705 219.687Q279.546 219.126 280.719 219.126Q281.926 219.126 282.844 219.8145Q283.762 220.503 284.136 221.812H283.64300000000003V215.539H285.088V228.0H283.64300000000003V225.518H284.136Q283.762 226.827 282.844 227.5155Q281.926 228.204 280.719 228.204Q279.546 228.204 278.6705 227.643Q277.795 227.082 277.31050000000005 226.05349999999999Q276.826 225.025 276.826 223.648ZM278.305 223.648Q278.305 224.566 278.611 225.2885Q278.91700000000003 226.011 279.51200000000006 226.4275Q280.107 226.844 280.94 226.844Q281.79 226.844 282.40200000000004 226.4445Q283.014 226.045 283.337 225.3225Q283.66 224.6 283.66 223.648Q283.66 222.713 283.337 222.0075Q283.014 221.302 282.40200000000004 220.894Q281.79 220.486 280.94 220.486Q280.107 220.486 279.51200000000006 220.90249999999997Q278.91700000000003 221.319 278.611 222.03300000000002Q278.305 222.747 278.305 223.648Z M292.36400000000003 225.314V217.154L293.809 216.661V225.076Q293.809 226.028 294.149 226.402Q294.48900000000003 226.776 295.271 226.776Q295.526 226.776 295.8065 226.7335Q296.087 226.691 296.35900000000004 226.623V227.949Q296.036 228.034 295.66200000000003 228.08499999999998Q295.288 228.136 294.94800000000004 228.136Q294.132 228.136 293.554 227.8555Q292.976 227.575 292.67 226.9545Q292.36400000000003 226.334 292.36400000000003 225.314ZM290.902 219.33H295.88300000000004V220.639H290.902Z M298.04200000000003 215.539H299.487V221.829H298.94300000000004Q299.266 220.571 300.1415 219.8485Q301.017 219.126 302.173 219.126Q305.33500000000004 219.126 305.33500000000004 222.968V228.0H303.89000000000004V222.968Q303.89000000000004 221.676 303.38 221.064Q302.87 220.452 301.833 220.452Q301.17 220.452 300.6345 220.809Q300.09900000000005 221.166 299.793 221.79500000000002Q299.487 222.424 299.487 223.24V228.0H298.04200000000003Z M307.069 223.665Q307.069 222.288 307.5875 221.268Q308.106 220.248 309.04949999999997 219.687Q309.993 219.126 311.25100000000003 219.126Q312.475 219.126 313.39300000000003 219.67000000000002Q314.311 220.214 314.821 221.2Q315.331 222.186 315.331 223.495V224.141H307.902V222.86599999999999H314.515L313.886 223.325Q313.886 222.458 313.5545 221.812Q313.223 221.166 312.6365 220.809Q312.05 220.452 311.25100000000003 220.452Q310.418 220.452 309.7975 220.84300000000002Q309.177 221.234 308.8455 221.93099999999998Q308.514 222.628 308.514 223.563V223.665Q308.514 225.161 309.245 226.0195Q309.976 226.878 311.302 226.878Q312.186 226.878 312.8065 226.521Q313.427 226.164 313.85200000000003 225.45L315.025 226.147Q314.396 227.184 313.43550000000005 227.69400000000002Q312.475 228.204 311.26800000000003 228.204Q309.993 228.204 309.04949999999997 227.643Q308.106 227.082 307.5875 226.062Q307.069 225.042 307.069 223.665Z M320.72 219.33H325.854V220.639H320.72ZM322.182 218.327Q322.182 217.205 322.55600000000004 216.55900000000003Q322.93 215.913 323.54200000000003 215.64100000000002Q324.154 215.369 324.851 215.369Q325.106 215.369 325.35249999999996 215.386Q325.599 215.403 325.854 215.454V216.797Q325.599 216.763 325.41200000000003 216.74599999999998Q325.225 216.72899999999998 325.004 216.72899999999998Q324.23900000000003 216.72899999999998 323.933 217.09449999999998Q323.627 217.46 323.627 218.463V228.0H322.182Z M327.46900000000005 224.362V219.33H328.91400000000004V224.362Q328.91400000000004 225.654 329.42400000000004 226.266Q329.934 226.878 330.954 226.878Q331.617 226.878 332.144 226.521Q332.67100000000005 226.164 332.97700000000003 225.5265Q333.283 224.889 333.283 224.09V219.33H334.728V228.0H333.283V225.501H333.827Q333.504 226.759 332.63700000000006 227.48149999999998Q331.77000000000004 228.204 330.61400000000003 228.204Q329.067 228.204 328.26800000000003 227.235Q327.46900000000005 226.266 327.46900000000005 224.362Z M337.66900000000004 225.314V217.154L339.11400000000003 216.661V225.076Q339.11400000000003 226.028 339.45400000000006 226.402Q339.79400000000004 226.776 340.576 226.776Q340.831 226.776 341.1115 226.7335Q341.392 226.691 341.66400000000004 226.623V227.949Q341.341 228.034 340.967 228.08499999999998Q340.593 228.136 340.25300000000004 228.136Q339.437 228.136 338.85900000000004 227.8555Q338.281 227.575 337.975 226.9545Q337.66900000000004 226.334 337.66900000000004 225.314ZM336.207 219.33H341.18800000000005V220.639H336.207Z M343.27900000000005 224.362V219.33H344.72400000000005V224.362Q344.72400000000005 225.654 345.23400000000004 226.266Q345.744 226.878 346.764 226.878Q347.427 226.878 347.95400000000006 226.521Q348.48100000000005 226.164 348.78700000000003 225.5265Q349.093 224.889 349.093 224.09V219.33H350.538V228.0H349.093V225.501H349.637Q349.314 226.759 348.447 227.48149999999998Q347.58000000000004 228.204 346.42400000000004 228.204Q344.877 228.204 344.07800000000003 227.235Q343.27900000000005 226.266 343.27900000000005 224.362Z M352.81600000000003 219.33H354.261V221.829H353.71700000000004Q353.904 221.064 354.3375 220.469Q354.771 219.874 355.366 219.5255Q355.961 219.177 356.641 219.177Q356.82800000000003 219.177 357.0065 219.19400000000002Q357.185 219.211 357.372 219.262V220.69Q357.083 220.622 356.658 220.622Q355.944 220.622 355.4 220.95350000000002Q354.856 221.285 354.5585 221.88Q354.261 222.475 354.261 223.291V228.0H352.81600000000003Z M358.511 223.665Q358.511 222.288 359.0295 221.268Q359.548 220.248 360.4915 219.687Q361.435 219.126 362.69300000000004 219.126Q363.91700000000003 219.126 364.83500000000004 219.67000000000002Q365.753 220.214 366.26300000000003 221.2Q366.773 222.186 366.773 223.495V224.141H359.344V222.86599999999999H365.957L365.32800000000003 223.325Q365.32800000000003 222.458 364.9965 221.812Q364.665 221.166 364.0785 220.809Q363.492 220.452 362.69300000000004 220.452Q361.86 220.452 361.2395 220.84300000000002Q360.619 221.234 360.2875 221.93099999999998Q359.956 222.628 359.956 223.563V223.665Q359.956 225.161 360.687 226.0195Q361.418 226.878 362.744 226.878Q363.628 226.878 364.24850000000004 226.521Q364.869 226.164 365.29400000000004 225.45L366.467 226.147Q365.838 227.184 364.87750000000005 227.69400000000002Q363.91700000000003 228.204 362.71000000000004 228.204Q361.435 228.204 360.4915 227.643Q359.548 227.082 359.0295 226.062Q358.511 225.042 358.511 223.665Z M372.434 223.665Q372.434 222.339 372.944 221.3105Q373.454 220.282 374.389 219.704Q375.324 219.126 376.599 219.126Q377.874 219.126 378.809 219.704Q379.744 220.282 380.254 221.3105Q380.764 222.339 380.764 223.665Q380.764 224.99099999999999 380.254 226.011Q379.744 227.031 378.809 227.6175Q377.874 228.204 376.599 228.204Q375.324 228.204 374.389 227.6175Q373.454 227.031 372.944 226.011Q372.434 224.99099999999999 372.434 223.665ZM373.913 223.665Q373.913 224.6 374.236 225.3225Q374.559 226.045 375.1625 226.4445Q375.766 226.844 376.599 226.844Q377.449 226.844 378.044 226.4445Q378.639 226.045 378.962 225.3225Q379.285 224.6 379.285 223.665Q379.285 222.713 378.962 221.999Q378.639 221.285 378.044 220.88549999999998Q377.449 220.486 376.599 220.486Q375.766 220.486 375.1625 220.88549999999998Q374.559 221.285 374.236 221.999Q373.913 222.713 373.913 223.665Z M381.81800000000004 219.33H386.952V220.639H381.81800000000004ZM383.28000000000003 218.327Q383.28000000000003 217.205 383.654 216.55900000000003Q384.028 215.913 384.64 215.64100000000002Q385.252 215.369 385.949 215.369Q386.204 215.369 386.45050000000003 215.386Q386.697 215.403 386.952 215.454V216.797Q386.697 216.763 386.51 216.74599999999998Q386.32300000000004 216.72899999999998 386.10200000000003 216.72899999999998Q385.33700000000005 216.72899999999998 385.03100000000006 217.09449999999998Q384.725 217.46 384.725 218.463V228.0H383.28000000000003Z M392.97 219.33H394.415V221.829H393.87100000000004Q394.10900000000004 220.945 394.58500000000004 220.3415Q395.06100000000004 219.738 395.69000000000005 219.43200000000002Q396.319 219.126 397.033 219.126Q398.189 219.126 398.92 219.76350000000002Q399.651 220.401 399.889 221.71H399.362Q399.75300000000004 220.452 400.6625 219.789Q401.572 219.126 402.62600000000003 219.126Q404.139 219.126 404.87 220.095Q405.601 221.064 405.601 222.968V228.0H404.156V222.968Q404.156 221.676 403.67150000000004 221.064Q403.187 220.452 402.235 220.452Q401.65700000000004 220.452 401.14700000000005 220.8005Q400.637 221.149 400.3225 221.761Q400.00800000000004 222.373 400.00800000000004 223.172V228.0H398.56300000000005V222.968Q398.56300000000005 221.676 398.087 221.064Q397.611 220.452 396.642 220.452Q396.064 220.452 395.55400000000003 220.809Q395.04400000000004 221.166 394.72950000000003 221.7865Q394.415 222.407 394.415 223.206V228.0H392.97Z M407.33500000000004 223.665Q407.33500000000004 222.339 407.845 221.3105Q408.355 220.282 409.29 219.704Q410.225 219.126 411.5 219.126Q412.77500000000003 219.126 413.71000000000004 219.704Q414.64500000000004 220.282 415.15500000000003 221.3105Q415.665 222.339 415.665 223.665Q415.665 224.99099999999999 415.15500000000003 226.011Q414.64500000000004 227.031 413.71000000000004 227.6175Q412.77500000000003 228.204 411.5 228.204Q410.225 228.204 409.29 227.6175Q408.355 227.031 407.845 226.011Q407.33500000000004 224.99099999999999 407.33500000000004 223.665ZM408.814 223.665Q408.814 224.6 409.13700000000006 225.3225Q409.46000000000004 226.045 410.06350000000003 226.4445Q410.66700000000003 226.844 411.5 226.844Q412.35 226.844 412.94500000000005 226.4445Q413.54 226.045 413.86300000000006 225.3225Q414.18600000000004 224.6 414.18600000000004 223.665Q414.18600000000004 222.713 413.86300000000006 221.999Q413.54 221.285 412.94500000000005 220.88549999999998Q412.35 220.486 411.5 220.486Q410.66700000000003 220.486 410.06350000000003 220.88549999999998Q409.46000000000004 221.285 409.13700000000006 221.999Q408.814 222.713 408.814 223.665Z M418.91200000000003 228.0H417.46700000000004V215.539H418.91200000000003V221.812H418.41900000000004Q418.793 220.503 419.711 219.8145Q420.629 219.126 421.836 219.126Q423.026 219.126 423.89300000000003 219.687Q424.76000000000005 220.248 425.2445 221.268Q425.72900000000004 222.288 425.72900000000004 223.665Q425.72900000000004 225.042 425.2445 226.062Q424.76000000000005 227.082 423.89300000000003 227.643Q423.026 228.204 421.836 228.204Q420.629 228.204 419.711 227.5155Q418.793 226.827 418.41900000000004 225.518H418.91200000000003ZM418.89500000000004 223.682Q418.89500000000004 224.617 419.2180000000001 225.331Q419.54100000000005 226.045 420.153 226.4445Q420.76500000000004 226.844 421.615 226.844Q422.46500000000003 226.844 423.05150000000003 226.4275Q423.63800000000003 226.011 423.9440000000001 225.2885Q424.25000000000006 224.566 424.25000000000006 223.665Q424.25000000000006 222.764 423.9440000000001 222.04149999999998Q423.63800000000003 221.319 423.05150000000003 220.90249999999997Q422.46500000000003 220.486 421.615 220.486Q420.76500000000004 220.486 420.153 220.894Q419.54100000000005 221.302 419.2180000000001 222.016Q418.89500000000004 222.73 418.89500000000004 223.682Z M428.97600000000006 228.0H427.53100000000006V219.33H428.97600000000006ZM427.31000000000006 216.763Q427.31000000000006 216.321 427.5735000000001 216.066Q427.83700000000005 215.811 428.26200000000006 215.811Q428.70400000000006 215.811 428.95900000000006 216.066Q429.21400000000006 216.321 429.21400000000006 216.763Q429.21400000000006 217.188 428.95900000000006 217.4515Q428.70400000000006 217.715 428.26200000000006 217.715Q427.83700000000005 217.715 427.5735000000001 217.4515Q427.31000000000006 217.188 427.31000000000006 216.763Z M431.254 215.539H432.699V228.0H431.254Z M434.50100000000003 223.665Q434.50100000000003 222.288 435.0195 221.268Q435.538 220.248 436.4815 219.687Q437.425 219.126 438.68300000000005 219.126Q439.90700000000004 219.126 440.82500000000005 219.67000000000002Q441.743 220.214 442.25300000000004 221.2Q442.76300000000003 222.186 442.76300000000003 223.495V224.141H435.334V222.86599999999999H441.947L441.31800000000004 223.325Q441.31800000000004 222.458 440.98650000000004 221.812Q440.65500000000003 221.166 440.06850000000003 220.809Q439.482 220.452 438.68300000000005 220.452Q437.85 220.452 437.22950000000003 220.84300000000002Q436.60900000000004 221.234 436.27750000000003 221.93099999999998Q435.946 222.628 435.946 223.563V223.665Q435.946 225.161 436.677 226.0195Q437.408 226.878 438.73400000000004 226.878Q439.618 226.878 440.23850000000004 226.521Q440.85900000000004 226.164 441.28400000000005 225.45L442.457 226.147Q441.82800000000003 227.184 440.86750000000006 227.69400000000002Q439.90700000000004 228.204 438.70000000000005 228.204Q437.425 228.204 436.4815 227.643Q435.538 227.082 435.0195 226.062Q434.50100000000003 225.042 434.50100000000003 223.665Z M447.761 222.424H464.761V223.75H447.761Z" fill="#5B616B"/>
<path d="M46.391 244.33H51.525V245.639H46.391ZM47.853 243.327Q47.853 242.205 48.227000000000004 241.55900000000003Q48.601 240.913 49.213 240.64100000000002Q49.825 240.369 50.522 240.369Q50.777 240.369 51.0235 240.386Q51.27 240.403 51.525 240.454V241.797Q51.27 241.763 51.083 241.74599999999998Q50.896 241.72899999999998 50.675 241.72899999999998Q49.91 241.72899999999998 49.604 242.09449999999998Q49.298 242.46 49.298 243.463V253.0H47.853Z M53.208000000000006 244.33H54.653000000000006V246.829H54.109Q54.29600000000001 246.064 54.7295 245.469Q55.163000000000004 244.874 55.758 244.5255Q56.353 244.177 57.033 244.177Q57.220000000000006 244.177 57.398500000000006 244.19400000000002Q57.577000000000005 244.211 57.764 244.262V245.69Q57.475 245.622 57.050000000000004 245.622Q56.336000000000006 245.622 55.792 245.95350000000002Q55.248000000000005 246.285 54.950500000000005 246.88Q54.653000000000006 247.475 54.653000000000006 248.291V253.0H53.208000000000006Z M58.903 248.665Q58.903 247.339 59.413 246.3105Q59.923 245.282 60.858000000000004 244.704Q61.793 244.126 63.068000000000005 244.126Q64.343 244.126 65.278 244.704Q66.21300000000001 245.282 66.72300000000001 246.3105Q67.233 247.339 67.233 248.665Q67.233 249.99099999999999 66.72300000000001 251.011Q66.21300000000001 252.031 65.278 252.6175Q64.343 253.204 63.068000000000005 253.204Q61.793 253.204 60.858000000000004 252.6175Q59.923 252.031 59.413 251.011Q58.903 249.99099999999999 58.903 248.665ZM60.382000000000005 248.665Q60.382000000000005 249.6 60.705000000000005 250.3225Q61.028000000000006 251.045 61.6315 251.4445Q62.235 251.844 63.068000000000005 251.844Q63.918000000000006 251.844 64.513 251.4445Q65.108 251.045 65.43100000000001 250.3225Q65.754 249.6 65.754 248.665Q65.754 247.713 65.43100000000001 246.999Q65.108 246.285 64.513 245.88549999999998Q63.918000000000006 245.486 63.068000000000005 245.486Q62.235 245.486 61.6315 245.88549999999998Q61.028000000000006 246.285 60.705000000000005 246.999Q60.382000000000005 247.713 60.382000000000005 248.665Z M69.035 244.33H70.48V246.829H69.936Q70.174 245.945 70.65 245.3415Q71.126 244.738 71.755 244.43200000000002Q72.384 244.126 73.098 244.126Q74.254 244.126 74.98500000000001 244.76350000000002Q75.71600000000001 245.401 75.95400000000001 246.71H75.427Q75.818 245.452 76.72749999999999 244.789Q77.637 244.126 78.691 244.126Q80.20400000000001 244.126 80.935 245.095Q81.666 246.064 81.666 247.968V253.0H80.221V247.968Q80.221 246.676 79.7365 246.064Q79.25200000000001 245.452 78.3 245.452Q77.72200000000001 245.452 77.212 245.8005Q76.702 246.149 76.3875 246.761Q76.07300000000001 247.373 76.07300000000001 248.172V253.0H74.628V247.968Q74.628 246.676 74.152 246.064Q73.676 245.452 72.707 245.452Q72.129 245.452 71.619 245.809Q71.109 246.166 70.7945 246.7865Q70.48 247.407 70.48 248.206V253.0H69.035Z M88.87400000000001 250.314V242.154L90.319 241.661V250.076Q90.319 251.028 90.659 251.402Q90.99900000000001 251.776 91.781 251.776Q92.036 251.776 92.3165 251.7335Q92.59700000000001 251.691 92.869 251.623V252.949Q92.546 253.034 92.172 253.08499999999998Q91.798 253.136 91.458 253.136Q90.642 253.136 90.064 252.8555Q89.486 252.575 89.18 251.9545Q88.87400000000001 251.334 88.87400000000001 250.314ZM87.412 244.33H92.393V245.639H87.412Z M94.552 240.539H95.99700000000001V246.829H95.45300000000002Q95.77600000000001 245.571 96.65150000000001 244.8485Q97.52700000000002 244.126 98.683 244.126Q101.84500000000001 244.126 101.84500000000001 247.968V253.0H100.4V247.968Q100.4 246.676 99.89000000000001 246.064Q99.38000000000001 245.452 98.34300000000002 245.452Q97.68 245.452 97.14450000000001 245.809Q96.60900000000001 246.166 96.30300000000001 246.79500000000002Q95.99700000000001 247.424 95.99700000000001 248.24V253.0H94.552Z M103.579 248.665Q103.579 247.288 104.0975 246.268Q104.616 245.248 105.5595 244.687Q106.503 244.126 107.761 244.126Q108.985 244.126 109.90299999999999 244.67000000000002Q110.821 245.214 111.33099999999999 246.2Q111.841 247.186 111.841 248.495V249.141H104.41199999999999V247.86599999999999H111.02499999999999L110.396 248.325Q110.396 247.458 110.06450000000001 246.812Q109.733 246.166 109.1465 245.809Q108.56 245.452 107.761 245.452Q106.928 245.452 106.3075 245.84300000000002Q105.687 246.234 105.3555 246.93099999999998Q105.024 247.628 105.024 248.563V248.665Q105.024 250.161 105.755 251.0195Q106.48599999999999 251.878 107.812 251.878Q108.696 251.878 109.31649999999999 251.521Q109.937 251.164 110.362 250.45L111.535 251.147Q110.90599999999999 252.184 109.9455 252.69400000000002Q108.985 253.204 107.77799999999999 253.204Q106.503 253.204 105.5595 252.643Q104.616 252.082 104.0975 251.062Q103.579 250.042 103.579 248.665Z M117.23 244.33H122.364V245.639H117.23ZM118.692 243.327Q118.692 242.205 119.066 241.55900000000003Q119.44 240.913 120.05199999999999 240.64100000000002Q120.664 240.369 121.361 240.369Q121.616 240.369 121.8625 240.386Q122.109 240.403 122.364 240.454V241.797Q122.109 241.763 121.922 241.74599999999998Q121.735 241.72899999999998 121.514 241.72899999999998Q120.749 241.72899999999998 120.443 242.09449999999998Q120.137 242.46 120.137 243.463V253.0H118.692Z M125.492 253.0H124.047V244.33H125.492ZM123.82600000000001 241.763Q123.82600000000001 241.321 124.08950000000002 241.066Q124.35300000000001 240.811 124.778 240.811Q125.22 240.811 125.475 241.066Q125.73 241.321 125.73 241.763Q125.73 242.188 125.475 242.4515Q125.22 242.715 124.778 242.715Q124.35300000000001 242.715 124.08950000000002 242.4515Q123.82600000000001 242.188 123.82600000000001 241.763Z M127.77 244.33H129.215V246.829H128.671Q128.858 246.064 129.29149999999998 245.469Q129.725 244.874 130.32 244.5255Q130.915 244.177 131.595 244.177Q131.782 244.177 131.96050000000002 244.19400000000002Q132.139 244.211 132.326 244.262V245.69Q132.037 245.622 131.612 245.622Q130.898 245.622 130.35399999999998 245.95350000000002Q129.81 246.285 129.5125 246.88Q129.215 247.475 129.215 248.291V253.0H127.77Z M138.871 250.739Q138.871 250.229 138.52250000000004 249.923Q138.17400000000004 249.617 137.30700000000002 249.413L136.23600000000002 249.158Q134.859 248.818 134.22150000000002 248.20600000000002Q133.58400000000003 247.594 133.58400000000003 246.591Q133.58400000000003 245.826 133.98350000000002 245.2735Q134.383 244.721 135.11400000000003 244.4235Q135.84500000000003 244.126 136.848 244.126Q138.12300000000002 244.126 139.024 244.67849999999999Q139.925 245.231 140.29900000000004 246.234L139.05800000000002 246.761Q138.78600000000003 246.064 138.17400000000004 245.75799999999998Q137.562 245.452 136.865 245.452Q135.98100000000002 245.452 135.51350000000002 245.7495Q135.04600000000002 246.047 135.04600000000002 246.574Q135.04600000000002 247.118 135.42850000000004 247.3645Q135.81100000000004 247.611 136.64400000000003 247.815L137.71500000000003 248.07Q139.07500000000002 248.393 139.704 249.03050000000002Q140.33300000000003 249.668 140.33300000000003 250.722Q140.33300000000003 251.861 139.449 252.5325Q138.56500000000003 253.204 137.05200000000002 253.204Q135.62400000000002 253.204 134.6125 252.58350000000002Q133.60100000000003 251.963 133.26100000000002 250.875L134.53600000000003 250.399Q134.80800000000002 251.13 135.437 251.504Q136.06600000000003 251.878 137.00100000000003 251.878Q137.919 251.878 138.395 251.589Q138.871 251.3 138.871 250.739Z M142.74699999999999 250.314V242.154L144.192 241.661V250.076Q144.192 251.028 144.53199999999998 251.402Q144.87199999999999 251.776 145.654 251.776Q145.909 251.776 146.1895 251.7335Q146.47 251.691 146.742 251.623V252.949Q146.41899999999998 253.034 146.045 253.08499999999998Q145.671 253.136 145.331 253.136Q144.515 253.136 143.93699999999998 252.8555Q143.35899999999998 252.575 143.053 251.9545Q142.74699999999999 251.334 142.74699999999999 250.314ZM141.285 244.33H146.266V245.639H141.285Z M152.76000000000002 240.539H154.205V253.0H152.76000000000002Z M156.007 248.665Q156.007 247.288 156.5255 246.268Q157.04399999999998 245.248 157.98749999999998 244.687Q158.93099999999998 244.126 160.189 244.126Q161.41299999999998 244.126 162.331 244.67000000000002Q163.249 245.214 163.75900000000001 246.2Q164.269 247.186 164.269 248.495V249.141H156.84V247.86599999999999H163.453L162.82399999999998 248.325Q162.82399999999998 247.458 162.4925 246.812Q162.161 246.166 161.5745 245.809Q160.988 245.452 160.189 245.452Q159.356 245.452 158.7355 245.84300000000002Q158.11499999999998 246.234 157.7835 246.93099999999998Q157.452 247.628 157.452 248.563V248.665Q157.452 250.161 158.183 251.0195Q158.914 251.878 160.24 251.878Q161.124 251.878 161.74450000000002 251.521Q162.365 251.164 162.79 250.45L163.963 251.147Q163.334 252.184 162.37349999999998 252.69400000000002Q161.41299999999998 253.204 160.206 253.204Q158.93099999999998 253.204 157.98749999999998 252.643Q157.04399999999998 252.082 156.5255 251.062Q156.007 250.042 156.007 248.665Z M171.42600000000002 247.883Q171.42600000000002 246.625 170.882 246.0385Q170.33800000000002 245.452 169.318 245.452Q168.621 245.452 168.00900000000001 245.775Q167.39700000000002 246.098 166.955 246.71L165.86700000000002 245.894Q166.513 245.044 167.41400000000002 244.585Q168.31500000000003 244.126 169.352 244.126Q170.984 244.126 171.9275 245.027Q172.871 245.928 172.871 247.849V253.0H171.42600000000002ZM165.61200000000002 250.637Q165.61200000000002 249.328 166.56400000000002 248.57150000000001Q167.51600000000002 247.815 169.114 247.815H171.74900000000002V249.09H169.18200000000002Q168.162 249.09 167.60950000000003 249.4725Q167.05700000000002 249.855 167.05700000000002 250.586Q167.05700000000002 251.215 167.46500000000003 251.5635Q167.87300000000002 251.912 168.638 251.912Q169.42000000000002 251.912 170.04900000000004 251.5465Q170.67800000000003 251.181 171.05200000000002 250.5605Q171.42600000000002 249.94 171.42600000000002 249.175L172.072 249.566Q172.072 250.62 171.596 251.4445Q171.12 252.269 170.287 252.7365Q169.454 253.204 168.383 253.204Q167.53300000000002 253.204 166.91250000000002 252.8895Q166.29200000000003 252.575 165.95200000000003 251.997Q165.61200000000002 251.419 165.61200000000002 250.637Z M175.965 249.175 180.691 244.33H182.595L175.965 251.079ZM177.648 248.036 178.906 247.356 182.697 253.0H180.946ZM175.08100000000002 240.539H176.526V253.0H175.08100000000002Z M188.97 250.739Q188.97 250.229 188.62150000000003 249.923Q188.27300000000002 249.617 187.406 249.413L186.335 249.158Q184.958 248.818 184.3205 248.20600000000002Q183.68300000000002 247.594 183.68300000000002 246.591Q183.68300000000002 245.826 184.0825 245.2735Q184.482 244.721 185.21300000000002 244.4235Q185.94400000000002 244.126 186.947 244.126Q188.222 244.126 189.123 244.67849999999999Q190.024 245.231 190.39800000000002 246.234L189.157 246.761Q188.88500000000002 246.064 188.27300000000002 245.75799999999998Q187.661 245.452 186.964 245.452Q186.08 245.452 185.6125 245.7495Q185.145 246.047 185.145 246.574Q185.145 247.118 185.52750000000003 247.3645Q185.91000000000003 247.611 186.74300000000002 247.815L187.81400000000002 248.07Q189.174 248.393 189.803 249.03050000000002Q190.43200000000002 249.668 190.43200000000002 250.722Q190.43200000000002 251.861 189.548 252.5325Q188.66400000000002 253.204 187.151 253.204Q185.723 253.204 184.7115 252.58350000000002Q183.70000000000002 251.963 183.36 250.875L184.63500000000002 250.399Q184.907 251.13 185.536 251.504Q186.16500000000002 251.878 187.10000000000002 251.878Q188.018 251.878 188.494 251.589Q188.97 251.3 188.97 250.739Z M197.181 250.314V242.154L198.62600000000003 241.661V250.076Q198.62600000000003 251.028 198.966 251.402Q199.306 251.776 200.08800000000002 251.776Q200.34300000000002 251.776 200.62350000000004 251.7335Q200.90400000000002 251.691 201.17600000000002 251.623V252.949Q200.853 253.034 200.479 253.08499999999998Q200.10500000000002 253.136 199.76500000000001 253.136Q198.949 253.136 198.371 252.8555Q197.793 252.575 197.48700000000002 251.9545Q197.181 251.334 197.181 250.314ZM195.71900000000002 244.33H200.70000000000002V245.639H195.71900000000002Z M202.383 248.665Q202.383 247.339 202.893 246.3105Q203.403 245.282 204.338 244.704Q205.273 244.126 206.548 244.126Q207.823 244.126 208.758 244.704Q209.693 245.282 210.203 246.3105Q210.713 247.339 210.713 248.665Q210.713 249.99099999999999 210.203 251.011Q209.693 252.031 208.758 252.6175Q207.823 253.204 206.548 253.204Q205.273 253.204 204.338 252.6175Q203.403 252.031 202.893 251.011Q202.383 249.99099999999999 202.383 248.665ZM203.862 248.665Q203.862 249.6 204.185 250.3225Q204.508 251.045 205.1115 251.4445Q205.715 251.844 206.548 251.844Q207.398 251.844 207.993 251.4445Q208.588 251.045 208.911 250.3225Q209.234 249.6 209.234 248.665Q209.234 247.713 208.911 246.999Q208.588 246.285 207.993 245.88549999999998Q207.398 245.486 206.548 245.486Q205.715 245.486 205.1115 245.88549999999998Q204.508 246.285 204.185 246.999Q203.862 247.713 203.862 248.665Z M217.513 250.314V242.154L218.95800000000003 241.661V250.076Q218.95800000000003 251.028 219.298 251.402Q219.638 251.776 220.42000000000002 251.776Q220.675 251.776 220.95550000000003 251.7335Q221.23600000000002 251.691 221.508 251.623V252.949Q221.185 253.034 220.811 253.08499999999998Q220.437 253.136 220.097 253.136Q219.281 253.136 218.703 252.8555Q218.125 252.575 217.81900000000002 251.9545Q217.513 251.334 217.513 250.314ZM216.05100000000002 244.33H221.032V245.639H216.05100000000002Z M223.19100000000003 240.539H224.63600000000002V246.829H224.092Q224.41500000000002 245.571 225.2905 244.8485Q226.16600000000003 244.126 227.32200000000003 244.126Q230.484 244.126 230.484 247.968V253.0H229.03900000000002V247.968Q229.03900000000002 246.676 228.52900000000002 246.064Q228.01900000000003 245.452 226.98200000000003 245.452Q226.31900000000002 245.452 225.7835 245.809Q225.24800000000002 246.166 224.942 246.79500000000002Q224.63600000000002 247.424 224.63600000000002 248.24V253.0H223.19100000000003Z M232.21800000000002 248.665Q232.21800000000002 247.288 232.7365 246.268Q233.255 245.248 234.1985 244.687Q235.142 244.126 236.4 244.126Q237.624 244.126 238.542 244.67000000000002Q239.46 245.214 239.97000000000003 246.2Q240.48000000000002 247.186 240.48000000000002 248.495V249.141H233.05100000000002V247.86599999999999H239.66400000000002L239.035 248.325Q239.035 247.458 238.70350000000002 246.812Q238.372 246.166 237.7855 245.809Q237.199 245.452 236.4 245.452Q235.567 245.452 234.94650000000001 245.84300000000002Q234.326 246.234 233.99450000000002 246.93099999999998Q233.663 247.628 233.663 248.563V248.665Q233.663 250.161 234.394 251.0195Q235.125 251.878 236.45100000000002 251.878Q237.335 251.878 237.95550000000003 251.521Q238.57600000000002 251.164 239.001 250.45L240.174 251.147Q239.54500000000002 252.184 238.5845 252.69400000000002Q237.624 253.204 236.417 253.204Q235.142 253.204 234.1985 252.643Q233.255 252.082 232.7365 251.062Q232.21800000000002 250.042 232.21800000000002 248.665Z M245.869 244.33H251.00300000000001V245.639H245.869ZM247.33100000000002 243.327Q247.33100000000002 242.205 247.705 241.55900000000003Q248.079 240.913 248.691 240.64100000000002Q249.303 240.369 250.0 240.369Q250.255 240.369 250.50150000000002 240.386Q250.74800000000002 240.403 251.00300000000001 240.454V241.797Q250.74800000000002 241.763 250.56100000000004 241.74599999999998Q250.37400000000002 241.72899999999998 250.15300000000002 241.72899999999998Q249.388 241.72899999999998 249.082 242.09449999999998Q248.776 242.46 248.776 243.463V253.0H247.33100000000002Z M254.13100000000003 253.0H252.68600000000004V244.33H254.13100000000003ZM252.46500000000003 241.763Q252.46500000000003 241.321 252.72850000000003 241.066Q252.99200000000002 240.811 253.41700000000003 240.811Q253.85900000000004 240.811 254.11400000000003 241.066Q254.36900000000003 241.321 254.36900000000003 241.763Q254.36900000000003 242.188 254.11400000000003 242.4515Q253.85900000000004 242.715 253.41700000000003 242.715Q252.99200000000002 242.715 252.72850000000003 242.4515Q252.46500000000003 242.188 252.46500000000003 241.763Z M256.409 244.33H257.854V246.829H257.31Q257.63300000000004 245.571 258.5085 244.8485Q259.384 244.126 260.54 244.126Q263.702 244.126 263.702 247.968V253.0H262.257V247.968Q262.257 246.676 261.747 246.064Q261.237 245.452 260.2 245.452Q259.53700000000003 245.452 259.0015 245.809Q258.466 246.166 258.15999999999997 246.79500000000002Q257.854 247.424 257.854 248.24V253.0H256.409Z M271.26700000000005 247.883Q271.26700000000005 246.625 270.72300000000007 246.0385Q270.17900000000003 245.452 269.15900000000005 245.452Q268.46200000000005 245.452 267.85 245.775Q267.238 246.098 266.79600000000005 246.71L265.708 245.894Q266.35400000000004 245.044 267.255 244.585Q268.156 244.126 269.19300000000004 244.126Q270.82500000000005 244.126 271.7685 245.027Q272.71200000000005 245.928 272.71200000000005 247.849V253.0H271.26700000000005ZM265.45300000000003 250.637Q265.45300000000003 249.328 266.40500000000003 248.57150000000001Q267.357 247.815 268.95500000000004 247.815H271.59000000000003V249.09H269.023Q268.00300000000004 249.09 267.45050000000003 249.4725Q266.898 249.855 266.898 250.586Q266.898 251.215 267.30600000000004 251.5635Q267.714 251.912 268.47900000000004 251.912Q269.261 251.912 269.89 251.5465Q270.519 251.181 270.89300000000003 250.5605Q271.26700000000005 249.94 271.26700000000005 249.175L271.913 249.566Q271.913 250.62 271.437 251.4445Q270.961 252.269 270.12800000000004 252.7365Q269.295 253.204 268.22400000000005 253.204Q267.374 253.204 266.75350000000003 252.8895Q266.13300000000004 252.575 265.793 251.997Q265.45300000000003 251.419 265.45300000000003 250.637Z M274.922 240.539H276.367V253.0H274.922Z M282.98 244.33H284.425V246.829H283.88100000000003Q284.068 246.064 284.50149999999996 245.469Q284.935 244.874 285.53 244.5255Q286.125 244.177 286.805 244.177Q286.992 244.177 287.1705 244.19400000000002Q287.349 244.211 287.536 244.262V245.69Q287.247 245.622 286.822 245.622Q286.108 245.622 285.56399999999996 245.95350000000002Q285.02 246.285 284.72249999999997 246.88Q284.425 247.475 284.425 248.291V253.0H282.98Z M288.67500000000007 248.665Q288.67500000000007 247.288 289.1935000000001 246.268Q289.71200000000005 245.248 290.6555000000001 244.687Q291.59900000000005 244.126 292.8570000000001 244.126Q294.0810000000001 244.126 294.999 244.67000000000002Q295.91700000000003 245.214 296.427 246.2Q296.93700000000007 247.186 296.93700000000007 248.495V249.141H289.50800000000004V247.86599999999999H296.12100000000004L295.4920000000001 248.325Q295.4920000000001 247.458 295.16050000000007 246.812Q294.82900000000006 246.166 294.24250000000006 245.809Q293.65600000000006 245.452 292.8570000000001 245.452Q292.02400000000006 245.452 291.40350000000007 245.84300000000002Q290.7830000000001 246.234 290.45150000000007 246.93099999999998Q290.12000000000006 247.628 290.12000000000006 248.563V248.665Q290.12000000000006 250.161 290.85100000000006 251.0195Q291.58200000000005 251.878 292.9080000000001 251.878Q293.79200000000003 251.878 294.4125 251.521Q295.0330000000001 251.164 295.4580000000001 250.45L296.6310000000001 251.147Q296.00200000000007 252.184 295.04150000000004 252.69400000000002Q294.0810000000001 253.204 292.8740000000001 253.204Q291.59900000000005 253.204 290.6555000000001 252.643Q289.71200000000005 252.082 289.1935000000001 251.062Q288.67500000000007 250.042 288.67500000000007 248.665Z M302.547 252.065H301.935L304.978 244.33H306.47400000000005L302.95500000000004 253.0H301.425L297.906 244.33H299.504Z M309.36400000000003 253.0H307.91900000000004V244.33H309.36400000000003ZM307.69800000000004 241.763Q307.69800000000004 241.321 307.9615 241.066Q308.225 240.811 308.65000000000003 240.811Q309.09200000000004 240.811 309.34700000000004 241.066Q309.60200000000003 241.321 309.60200000000003 241.763Q309.60200000000003 242.188 309.34700000000004 242.4515Q309.09200000000004 242.715 308.65000000000003 242.715Q308.225 242.715 307.9615 242.4515Q307.69800000000004 242.188 307.69800000000004 241.763Z M311.16600000000005 248.665Q311.16600000000005 247.288 311.68450000000007 246.268Q312.20300000000003 245.248 313.14650000000006 244.687Q314.09000000000003 244.126 315.34800000000007 244.126Q316.57200000000006 244.126 317.49 244.67000000000002Q318.408 245.214 318.918 246.2Q319.42800000000005 247.186 319.42800000000005 248.495V249.141H311.999V247.86599999999999H318.612L317.98300000000006 248.325Q317.98300000000006 247.458 317.65150000000006 246.812Q317.32000000000005 246.166 316.73350000000005 245.809Q316.14700000000005 245.452 315.34800000000007 245.452Q314.51500000000004 245.452 313.89450000000005 245.84300000000002Q313.27400000000006 246.234 312.94250000000005 246.93099999999998Q312.61100000000005 247.628 312.61100000000005 248.563V248.665Q312.61100000000005 250.161 313.34200000000004 251.0195Q314.07300000000004 251.878 315.39900000000006 251.878Q316.283 251.878 316.9035 251.521Q317.52400000000006 251.164 317.94900000000007 250.45L319.12200000000007 251.147Q318.49300000000005 252.184 317.5325 252.69400000000002Q316.57200000000006 253.204 315.36500000000007 253.204Q314.09000000000003 253.204 313.14650000000006 252.643Q312.20300000000003 252.082 311.68450000000007 251.062Q311.16600000000005 250.042 311.16600000000005 248.665Z M326.075 244.33H327.588L330.104 252.388H329.288L331.80400000000003 244.33H333.266L330.461 253.0H328.863L326.38100000000003 245.146H327.231L324.8 253.0H323.202L320.397 244.33H321.944L324.443 252.388H323.593Z M334.762 252.252Q334.762 251.81 335.02549999999997 251.555Q335.289 251.3 335.714 251.3Q336.156 251.3 336.411 251.555Q336.666 251.81 336.666 252.252Q336.666 252.677 336.411 252.9405Q336.156 253.204 335.714 253.204Q335.289 253.204 335.02549999999997 252.9405Q334.762 252.677 334.762 252.252Z" fill="#5B616B"/>
<circle cx="735" cy="150" r="76" fill="url(#ring_light)"/>
<circle cx="735" cy="150" r="69" fill="#FFFFFF"/>
<path d="M719.376 167.744Q721.2239999999999 168.164 723.0719999999999 168.416Q724.92 168.668 726.516 168.668Q731.136 168.668 733.278 166.484Q735.42 164.3 735.42 159.344V119.276H747.516V159.848Q747.516 169.424 742.476 174.8Q737.436 180.176 728.196 180.176Q726.096 180.176 723.954 179.882Q721.812 179.588 719.376 179.084Z" fill="#387AFF"/>
</svg>