<svg width="880" height="300" viewBox="0 0 880 300" xmlns="http://www.w3.org/2000/svg" font-family="One UI Sans"><defs>
      <linearGradient id="hg_light" x1="0" y1="0" x2="1" y2="1">
        <stop offset="0" stop-color="#FFFFFF"/><stop offset="1" stop-color="#E9F0FD"/></linearGradient>
      <radialGradient id="glow_light" cx="0.5" cy="0.5" r="0.5">
        <stop offset="0" stop-color="#9DBEFF" stop-opacity="0.9"/>
        <stop offset="1" stop-color="#9DBEFF" stop-opacity="0"/></radialGradient>
      <radialGradient id="glow2_light" cx="0.5" cy="0.5" r="0.5">
        <stop offset="0" stop-color="#CFE0FF" stop-opacity="0.8"/>
        <stop offset="1" stop-color="#CFE0FF" stop-opacity="0"/></radialGradient>
      <linearGradient id="ring_light" x1="0" y1="0" x2="1" y2="1">
        <stop offset="0" stop-color="#1B72F2"/><stop offset="1" stop-color="#0B57D0"/></linearGradient>
      <clipPath id="hclip_light"><path d="M34,0 h812 a34,34 0 0 1 34,34 v232 a34,34 0 0 1 -34,34 h-812 a34,34 0 0 1 -34,-34 v-232 a34,34 0 0 1 34,-34 z"/></clipPath>
    </defs>
<path d="M34,0 h812 a34,34 0 0 1 34,34 v232 a34,34 0 0 1 -34,34 h-812 a34,34 0 0 1 -34,-34 v-232 a34,34 0 0 1 34,-34 z" fill="url(#hg_light)" stroke="#E3E7ED"/>
<g clip-path="url(#hclip_light)">
<circle cx="770" cy="40" r="260" fill="url(#glow_light)"/>
<circle cx="60" cy="300" r="220" fill="url(#glow2_light)"/>
</g>
<path d="M61,40 h202.44 a17,17 0 0 1 17,17 v0 a17,17 0 0 1 -17,17 h-202.44 a17,17 0 0 1 -17,-17 v-0 a17,17 0 0 1 17,-17 z" fill="#F1F3F7" stroke="#E3E7ED"/>
<circle cx="65" cy="57" r="5" fill="#2ECC71"/>
<path d="M84.485 52.1H85.325L81.83 62.0H80.195L84.095 51.335H85.79L89.69 62.0H87.995ZM87.845 59.57H82.25V58.13H87.845Z M94.4 60.995H93.77000000000001L96.33500000000001 54.305H97.94L94.85000000000001 62.0H93.215L90.125 54.305H91.85000000000001Z M103.835 57.5Q103.835 56.465 103.38499999999999 55.977500000000006Q102.93499999999999 55.49 102.095 55.49Q101.50999999999999 55.49 101.01499999999999 55.7525Q100.52 56.015 100.145 56.51L98.99 55.685Q99.57499999999999 54.935 100.39249999999998 54.53Q101.21 54.125 102.18499999999999 54.125Q103.68499999999999 54.125 104.52499999999999 54.942499999999995Q105.365 55.76 105.365 57.47V62.0H103.835ZM98.77999999999999 59.9Q98.77999999999999 58.715 99.6275 58.0475Q100.475 57.38 101.945 57.38H104.16499999999999V58.595H102.02Q101.195 58.595 100.7525 58.9025Q100.30999999999999 59.21 100.30999999999999 59.795Q100.30999999999999 60.305 100.6325 60.582499999999996Q100.955 60.86 101.585 60.86Q102.19999999999999 60.86 102.71 60.567499999999995Q103.22 60.275 103.5275 59.7575Q103.835 59.24 103.835 58.58L104.40499999999999 59.03Q104.40499999999999 59.975 103.98499999999999 60.6875Q103.565 61.4 102.85249999999999 61.7975Q102.13999999999999 62.195 101.225 62.195Q100.49 62.195 99.935 61.917500000000004Q99.38 61.64 99.07999999999998 61.1225Q98.77999999999999 60.605 98.77999999999999 59.9Z M108.785 62.0H107.225V54.305H108.785ZM107.045 52.06999999999999Q107.045 51.62 107.3075 51.364999999999995Q107.57 51.11 108.005 51.11Q108.455 51.11 108.71 51.364999999999995Q108.96499999999999 51.62 108.96499999999999 52.06999999999999Q108.96499999999999 52.489999999999995 108.71 52.76Q108.455 53.03 108.005 53.03Q107.57 53.03 107.3075 52.76Q107.045 52.489999999999995 107.045 52.06999999999999Z M110.69 51.005H112.25V62.0H110.69Z M118.835 57.5Q118.835 56.465 118.38499999999999 55.977500000000006Q117.93499999999999 55.49 117.095 55.49Q116.50999999999999 55.49 116.01499999999999 55.7525Q115.52 56.015 115.145 56.51L113.99 55.685Q114.57499999999999 54.935 115.39249999999998 54.53Q116.21 54.125 117.18499999999999 54.125Q118.68499999999999 54.125 119.52499999999999 54.942499999999995Q120.365 55.76 120.365 57.47V62.0H118.835ZM113.77999999999999 59.9Q113.77999999999999 58.715 114.6275 58.0475Q115.475 57.38 116.945 57.38H119.16499999999999V58.595H117.02Q116.195 58.595 115.7525 58.9025Q115.30999999999999 59.21 115.30999999999999 59.795Q115.30999999999999 60.305 115.6325 60.582499999999996Q115.955 60.86 116.585 60.86Q117.19999999999999 60.86 117.71 60.567499999999995Q118.22 60.275 118.5275 59.7575Q118.835 59.24 118.835 58.58L119.40499999999999 59.03Q119.40499999999999 59.975 118.98499999999999 60.6875Q118.565 61.4 117.85249999999999 61.7975Q117.13999999999999 62.195 116.225 62.195Q115.49 62.195 114.935 61.917500000000004Q114.38 61.64 114.07999999999998 61.1225Q113.77999999999999 60.605 113.77999999999999 59.9Z M123.77 62.0H122.225V51.005H123.785V56.465H123.32Q123.635 55.34 124.4225 54.7325Q125.21 54.125 126.26 54.125Q127.31 54.125 128.0675 54.620000000000005Q128.825 55.115 129.245 56.0225Q129.665 56.93 129.665 58.16Q129.665 59.39 129.245 60.29Q128.825 61.19 128.0675 61.692499999999995Q127.31 62.195 126.26 62.195Q125.21 62.195 124.4225 61.5875Q123.635 60.98 123.32 59.855H123.77ZM123.77 58.16Q123.77 58.925 124.0325 59.51Q124.295 60.095 124.7825 60.417500000000004Q125.27 60.74 125.945 60.74Q126.635 60.74 127.1075 60.4025Q127.58 60.065 127.82749999999999 59.480000000000004Q128.075 58.895 128.075 58.16Q128.075 57.41 127.82749999999999 56.825Q127.58 56.24 127.1075 55.9025Q126.635 55.565 125.945 55.565Q125.27 55.565 124.7825 55.894999999999996Q124.295 56.225 124.0325 56.8025Q123.77 57.38 123.77 58.16Z M131.18 51.005H132.74V62.0H131.18Z M134.24 58.16Q134.24 56.93 134.705 56.0225Q135.17000000000002 55.115 136.025 54.620000000000005Q136.88 54.125 138.005 54.125Q139.13 54.125 139.95499999999998 54.620000000000005Q140.78 55.115 141.23000000000002 55.9925Q141.68 56.87 141.68 58.01V58.61H135.08V57.395H140.79500000000002L140.135 57.845Q140.135 57.11 139.8725 56.5775Q139.61 56.045 139.1375 55.7525Q138.665 55.46 138.02 55.46Q137.345 55.46 136.8425 55.775000000000006Q136.34 56.09 136.07 56.667500000000004Q135.8 57.245 135.8 58.025V58.205Q135.8 59.42 136.4 60.11Q137.0 60.8 138.08 60.8Q138.785 60.8 139.2875 60.515Q139.79 60.23 140.15 59.675L141.365 60.41Q140.81 61.295 139.9625 61.745000000000005Q139.115 62.195 138.05 62.195Q136.91 62.195 136.0475 61.7Q135.185 61.205 134.7125 60.305Q134.24 59.405 134.24 58.16Z M146.3 54.305H150.98V55.7H146.3ZM147.545 53.495000000000005Q147.545 52.475 147.89749999999998 51.905Q148.25 51.335 148.82 51.095Q149.39 50.855000000000004 150.035 50.855000000000004Q150.275 50.855000000000004 150.515 50.870000000000005Q150.755 50.885 150.98 50.93V52.34Q150.77 52.31 150.6125 52.295Q150.455 52.28 150.26 52.28Q149.645 52.28 149.375 52.572500000000005Q149.105 52.865 149.105 53.66V62.0H147.545Z M151.97 58.16Q151.97 56.975 152.4275 56.06Q152.885 55.145 153.7325 54.635000000000005Q154.57999999999998 54.125 155.72 54.125Q156.85999999999999 54.125 157.7 54.635000000000005Q158.54 55.145 159.005 56.06Q159.47 56.975 159.47 58.16Q159.47 59.33 159.005 60.2375Q158.54 61.145 157.7 61.67Q156.85999999999999 62.195 155.72 62.195Q154.57999999999998 62.195 153.7325 61.67Q152.885 61.145 152.4275 60.2375Q151.97 59.33 151.97 58.16ZM153.56 58.16Q153.56 58.925 153.815 59.51Q154.07 60.095 154.5575 60.417500000000004Q155.045 60.74 155.72 60.74Q156.39499999999998 60.74 156.875 60.417500000000004Q157.355 60.095 157.6175 59.51Q157.88 58.925 157.88 58.16Q157.88 57.38 157.6175 56.795Q157.355 56.21 156.875 55.8875Q156.39499999999998 55.565 155.72 55.565Q155.045 55.565 154.5575 55.8875Q154.07 56.21 153.815 56.795Q153.56 57.38 153.56 58.16Z M160.98499999999999 54.305H162.52999999999997V56.480000000000004H162.04999999999998Q162.2 55.835 162.575 55.317499999999995Q162.95 54.8 163.46749999999997 54.485Q163.98499999999999 54.17 164.58499999999998 54.17Q164.73499999999999 54.17 164.89249999999998 54.185Q165.04999999999998 54.2 165.21499999999997 54.245V55.745Q164.92999999999998 55.7 164.56999999999996 55.7Q163.96999999999997 55.7 163.5125 55.962500000000006Q163.05499999999998 56.225 162.79999999999998 56.727500000000006Q162.545 57.230000000000004 162.545 57.95V62.0H160.98499999999999Z M170.345 54.305H171.89V56.480000000000004H171.41Q171.695 55.385 172.45999999999998 54.754999999999995Q173.225 54.125 174.215 54.125Q176.98999999999998 54.125 176.98999999999998 57.515V62.0H175.42999999999998V57.56Q175.42999999999998 56.525 175.01749999999998 56.03Q174.605 55.535 173.765 55.535Q173.225 55.535 172.805 55.82Q172.385 56.105000000000004 172.14499999999998 56.615Q171.905 57.125 171.905 57.785V62.0H170.345Z M178.43 58.16Q178.43 56.93 178.895 56.0225Q179.36 55.115 180.215 54.620000000000005Q181.07 54.125 182.195 54.125Q183.32 54.125 184.14499999999998 54.620000000000005Q184.97 55.115 185.42000000000002 55.9925Q185.87 56.87 185.87 58.01V58.61H179.27V57.395H184.985L184.325 57.845Q184.325 57.11 184.0625 56.5775Q183.8 56.045 183.3275 55.7525Q182.855 55.46 182.21 55.46Q181.535 55.46 181.0325 55.775000000000006Q180.53 56.09 180.26 56.667500000000004Q179.99 57.245 179.99 58.025V58.205Q179.99 59.42 180.59 60.11Q181.19 60.8 182.27 60.8Q182.975 60.8 183.4775 60.515Q183.98 60.23 184.34 59.675L185.555 60.41Q185.0 61.295 184.1525 61.745000000000005Q183.305 62.195 182.24 62.195Q181.1 62.195 180.2375 61.7Q179.375 61.205 178.9025 60.305Q178.43 59.405 178.43 58.16Z M191.67499999999998 54.305H193.23499999999999L195.35 61.34H194.585L196.685 54.305H198.245L195.76999999999998 62.0H194.09L192.035 55.325H192.815L190.805 62.0H189.14L186.65 54.305H188.29999999999998L190.37 61.325H189.59Z M203.225 54.305H204.76999999999998V56.465H204.33499999999998Q204.64999999999998 55.34 205.4375 54.7325Q206.225 54.125 207.26 54.125Q208.30999999999997 54.125 209.0675 54.620000000000005Q209.825 55.115 210.245 56.0225Q210.665 56.93 210.665 58.16Q210.665 59.39 210.245 60.29Q209.825 61.19 209.0675 61.692499999999995Q208.30999999999997 62.195 207.26 62.195Q206.20999999999998 62.195 205.42249999999999 61.5875Q204.635 60.98 204.32 59.855H204.785V65.3H203.225ZM204.76999999999998 58.16Q204.76999999999998 58.925 205.03249999999997 59.51Q205.295 60.095 205.78249999999997 60.417500000000004Q206.26999999999998 60.74 206.945 60.74Q207.635 60.74 208.1075 60.4025Q208.57999999999998 60.065 208.8275 59.4875Q209.075 58.91 209.075 58.16Q209.075 57.41 208.8275 56.825Q208.57999999999998 56.24 208.1075 55.9025Q207.635 55.565 206.945 55.565Q206.26999999999998 55.565 205.78249999999997 55.8875Q205.295 56.21 205.03249999999997 56.795Q204.76999999999998 57.38 204.76999999999998 58.16Z M212.18 54.305H213.725V56.480000000000004H213.245Q213.395 55.835 213.77 55.317499999999995Q214.145 54.8 214.66250000000002 54.485Q215.18 54.17 215.78 54.17Q215.93 54.17 216.0875 54.185Q216.245 54.2 216.41 54.245V55.745Q216.125 55.7 215.765 55.7Q215.165 55.7 214.70749999999998 55.962500000000006Q214.25 56.225 213.995 56.727500000000006Q213.74 57.230000000000004 213.74 57.95V62.0H212.18Z M217.355 58.16Q217.355 56.975 217.8125 56.06Q218.26999999999998 55.145 219.11749999999998 54.635000000000005Q219.96499999999997 54.125 221.105 54.125Q222.24499999999998 54.125 223.08499999999998 54.635000000000005Q223.92499999999998 55.145 224.39 56.06Q224.855 56.975 224.855 58.16Q224.855 59.33 224.39 60.2375Q223.92499999999998 61.145 223.08499999999998 61.67Q222.24499999999998 62.195 221.105 62.195Q219.96499999999997 62.195 219.11749999999998 61.67Q218.26999999999998 61.145 217.8125 60.2375Q217.355 59.33 217.355 58.16ZM218.945 58.16Q218.945 58.925 219.2 59.51Q219.45499999999998 60.095 219.9425 60.417500000000004Q220.42999999999998 60.74 221.105 60.74Q221.77999999999997 60.74 222.26 60.417500000000004Q222.73999999999998 60.095 223.0025 59.51Q223.265 58.925 223.265 58.16Q223.265 57.38 223.0025 56.795Q222.73999999999998 56.21 222.26 55.8875Q221.77999999999997 55.565 221.105 55.565Q220.42999999999998 55.565 219.9425 55.8875Q219.45499999999998 56.21 219.2 56.795Q218.945 57.38 218.945 58.16Z M227.93 62.99Q227.93 64.16 227.315 64.8125Q226.7 65.465 225.59 65.465Q225.38 65.465 225.1775 65.45Q224.975 65.435 224.75 65.39V63.965Q224.915 63.995 225.05 64.01Q225.185 64.025 225.305 64.025Q225.95 64.025 226.16 63.7025Q226.37 63.38 226.37 62.825V54.305H227.93ZM226.19 52.06999999999999Q226.19 51.62 226.4525 51.364999999999995Q226.715 51.11 227.15 51.11Q227.6 51.11 227.85500000000002 51.364999999999995Q228.11 51.62 228.11 52.06999999999999Q228.11 52.489999999999995 227.85500000000002 52.76Q227.6 53.03 227.15 53.03Q226.715 53.03 226.4525 52.76Q226.19 52.489999999999995 226.19 52.06999999999999Z M229.43 58.16Q229.43 56.93 229.895 56.0225Q230.36 55.115 231.215 54.620000000000005Q232.07 54.125 233.195 54.125Q234.32 54.125 235.14499999999998 54.620000000000005Q235.97 55.115 236.42000000000002 55.9925Q236.87 56.87 236.87 58.01V58.61H230.27V57.395H235.985L235.325 57.845Q235.325 57.11 235.0625 56.5775Q234.8 56.045 234.3275 55.7525Q233.855 55.46 233.21 55.46Q232.535 55.46 232.0325 55.775000000000006Q231.53 56.09 231.26 56.667500000000004Q230.99 57.245 230.99 58.025V58.205Q230.99 59.42 231.59 60.11Q232.19 60.8 233.27 60.8Q233.975 60.8 234.4775 60.515Q234.98 60.23 235.34 59.675L236.555 60.41Q236.0 61.295 235.1525 61.745000000000005Q234.305 62.195 233.24 62.195Q232.1 62.195 231.2375 61.7Q230.375 61.205 229.9025 60.305Q229.43 59.405 229.43 58.16Z M237.965 58.16Q237.965 56.975 238.4225 56.06Q238.88 55.145 239.7275 54.635000000000005Q240.575 54.125 241.715 54.125Q242.795 54.125 243.6125 54.5975Q244.43 55.07 244.91 56.015L243.62 56.72Q243.32 56.12 242.83999999999997 55.8425Q242.35999999999999 55.565 241.715 55.565Q241.04 55.565 240.5525 55.8875Q240.065 56.21 239.81 56.795Q239.555 57.38 239.555 58.16Q239.555 59.315 240.1325 60.0275Q240.71 60.74 241.715 60.74Q242.35999999999999 60.74 242.89999999999998 60.455Q243.44 60.17 243.79999999999998 59.525L245.075 60.23Q244.57999999999998 61.16 243.70999999999998 61.677499999999995Q242.84 62.195 241.715 62.195Q240.575 62.195 239.7275 61.67Q238.88 61.145 238.4225 60.2375Q237.965 59.33 237.965 58.16Z M246.99499999999998 59.555V52.46L248.55499999999998 51.935V59.3Q248.55499999999998 60.08 248.83999999999997 60.379999999999995Q249.125 60.68 249.755 60.68Q249.98 60.68 250.21999999999997 60.65Q250.45999999999998 60.62 250.7 60.56V61.955Q250.39999999999998 62.03 250.05499999999998 62.075Q249.70999999999998 62.12 249.39499999999998 62.12Q248.66 62.12 248.12 61.8725Q247.57999999999998 61.625 247.28749999999997 61.0625Q246.99499999999998 60.5 246.99499999999998 59.555ZM245.75 54.305H250.295V55.7H245.75Z M256.385 59.945Q256.385 59.555 256.115 59.322500000000005Q255.845 59.09 255.17000000000002 58.925L254.195 58.7Q252.95000000000002 58.385 252.3725 57.83Q251.79500000000002 57.275 251.79500000000002 56.345Q251.79500000000002 55.64 252.16250000000002 55.144999999999996Q252.53 54.65 253.1975 54.3875Q253.865 54.125 254.75 54.125Q255.89000000000001 54.125 256.7225 54.6125Q257.555 55.1 257.915 56.03L256.625 56.54Q256.4 55.97 255.875 55.7225Q255.35 55.475 254.76500000000001 55.475Q254.07500000000002 55.475 253.7075 55.707499999999996Q253.34 55.94 253.34 56.345Q253.34 56.765 253.6325 56.96Q253.925 57.155 254.57 57.305L255.54500000000002 57.545Q256.775 57.83 257.35249999999996 58.4075Q257.93 58.985 257.93 59.945Q257.93 60.98 257.135 61.5875Q256.34000000000003 62.195 254.945 62.195Q253.655 62.195 252.74 61.64Q251.82500000000002 61.085 251.51000000000002 60.095L252.815 59.615Q253.055 60.23 253.59500000000003 60.53Q254.13500000000002 60.83 254.915 60.83Q255.635 60.83 256.01 60.605000000000004Q256.385 60.38 256.385 59.945Z" fill="#6A7280"/>
<path d="M45.886 116.762H55.456V158.0H45.886ZM71.116 116.762H80.628V158.0H71.116ZM75.06 141.702H51.512V132.828H75.06Z M96.92600000000002 158.0H87.64600000000002V127.782H96.92600000000002ZM87.18200000000002 119.31400000000001Q87.18200000000002 116.994 88.60300000000001 115.602Q90.02400000000002 114.21000000000001 92.28600000000002 114.21000000000001Q94.60600000000002 114.21000000000001 95.99800000000002 115.602Q97.39000000000001 116.994 97.39000000000001 119.31400000000001Q97.39000000000001 121.57600000000001 95.99800000000002 122.99700000000001Q94.60600000000002 124.418 92.28600000000002 124.418Q90.02400000000002 124.418 88.60300000000001 122.99700000000001Q87.18200000000002 121.57600000000001 87.18200000000002 119.31400000000001Z M104.292 148.082H114.616L109.396 165.656H102.262Z M135.09 116.762H144.66V158.0H135.09Z M158.464 132.596H151.852L150.45999999999998 116.762H159.798Z M164.844 127.782H173.95V135.786H172.20999999999998Q172.84799999999998 132.944 174.356 131.00099999999998Q175.86399999999998 129.058 177.923 128.014Q179.982 126.97 182.18599999999998 126.97Q185.898 126.97 188.334 128.768Q190.76999999999998 130.566 191.69799999999998 134.56799999999998H190.19Q191.408 130.624 194.134 128.797Q196.85999999999999 126.97 199.934 126.97Q205.212 126.97 207.88 130.363Q210.548 133.756 210.548 140.484V158.0H201.268V140.542Q201.268 137.874 200.195 136.598Q199.12199999999999 135.322 196.976 135.322Q195.642 135.322 194.569 136.047Q193.49599999999998 136.772 192.916 138.077Q192.33599999999998 139.382 192.33599999999998 141.18V158.0H183.05599999999998V140.542Q183.05599999999998 137.874 181.983 136.598Q180.91 135.322 178.76399999999998 135.322Q177.37199999999999 135.322 176.32799999999997 136.047Q175.284 136.772 174.704 138.106Q174.124 139.44 174.124 141.238V158.0H164.844Z M229.108 149.184Q230.5 149.474 231.747 149.648Q232.994 149.822 234.038 149.822Q237.11200000000002 149.822 238.50400000000002 148.401Q239.89600000000002 146.98 239.89600000000002 143.848V116.762H249.40800000000002V144.196Q249.40800000000002 151.214 245.75400000000002 155.013Q242.10000000000002 158.812 235.43 158.812Q233.98000000000002 158.812 232.443 158.638Q230.906 158.464 229.108 158.058Z M254.918 142.862Q254.918 138.164 256.832 134.56799999999998Q258.746 130.972 262.226 128.971Q265.706 126.97 270.288 126.97Q274.928 126.97 278.379 128.971Q281.83 130.972 283.773 134.56799999999998Q285.716 138.164 285.716 142.862Q285.716 147.618 283.773 151.214Q281.83 154.81 278.379 156.811Q274.928 158.812 270.288 158.812Q265.706 158.812 262.226 156.811Q258.746 154.81 256.832 151.214Q254.918 147.618 254.918 142.862ZM264.314 142.862Q264.314 145.182 265.039 146.89299999999997Q265.764 148.60399999999998 267.098 149.53199999999998Q268.432 150.46 270.288 150.46Q272.202 150.46 273.507 149.53199999999998Q274.812 148.60399999999998 275.56600000000003 146.89299999999997Q276.32 145.182 276.32 142.862Q276.32 140.542 275.56600000000003 138.86Q274.812 137.178 273.507 136.25Q272.202 135.322 270.288 135.322Q268.432 135.322 267.098 136.25Q265.764 137.178 265.039 138.86Q264.314 140.542 264.314 142.862Z M306.36400000000003 149.358Q306.36400000000003 148.488 305.755 147.995Q305.146 147.502 303.52200000000005 147.154L299.346 146.168Q294.242 144.95 291.77700000000004 142.601Q289.312 140.252 289.312 136.192Q289.312 133.176 290.994 131.088Q292.67600000000004 129.0 295.48900000000003 127.985Q298.302 126.97 301.72400000000005 126.97Q306.30600000000004 126.97 309.93100000000004 128.942Q313.55600000000004 130.914 315.18 134.858L308.10400000000004 137.41Q307.29200000000003 135.786 305.43600000000004 135.03199999999998Q303.58000000000004 134.278 301.78200000000004 134.278Q300.158 134.278 299.172 134.8Q298.18600000000004 135.322 298.18600000000004 136.36599999999999Q298.18600000000004 137.178 298.795 137.7Q299.404 138.222 300.91200000000003 138.57L305.088 139.55599999999998Q310.192 140.716 312.68600000000004 143.094Q315.18 145.472 315.18 149.474Q315.18 153.766 311.903 156.289Q308.62600000000003 158.812 302.65200000000004 158.812Q297.31600000000003 158.812 293.48800000000006 156.637Q289.66 154.462 288.21000000000004 150.344L295.46000000000004 147.734Q296.33000000000004 149.706 298.273 150.605Q300.216 151.504 302.65200000000004 151.504Q304.45000000000005 151.504 305.40700000000004 150.982Q306.36400000000003 150.46 306.36400000000003 149.358Z M319.93600000000004 115.48599999999999H329.216V135.786H327.244Q328.23 131.784 331.101 129.377Q333.97200000000004 126.97 337.62600000000003 126.97Q348.00800000000004 126.97 348.00800000000004 140.136V158.0H338.728V140.948Q338.728 138.048 337.597 136.685Q336.466 135.322 334.146 135.322Q332.58000000000004 135.322 331.47800000000007 136.076Q330.37600000000003 136.82999999999998 329.79600000000005 138.25099999999998Q329.216 139.672 329.216 141.644V158.0H319.93600000000004Z" fill="#15171C"/>
<path d="M59.056 191.456Q59.056 188.864 57.712 187.49599999999998Q56.368 186.128 53.896 186.128H51.208V196.808H53.896Q56.368 196.808 57.712 195.44Q59.056 194.072 59.056 191.456ZM54.088 200.0H47.752V182.936H54.088Q56.752 182.936 58.66 183.94400000000002Q60.568 184.952 61.588 186.86Q62.608000000000004 188.768 62.608000000000004 191.456Q62.608000000000004 194.144 61.588 196.05200000000002Q60.568 197.96 58.66 198.98000000000002Q56.752 200.0 54.088 200.0Z M64.36 193.808Q64.36 191.816 65.152 190.34Q65.944 188.864 67.36 188.048Q68.776 187.232 70.648 187.232Q72.616 187.232 73.96000000000001 188.072Q75.304 188.912 76.012 190.34Q76.72 191.768 76.72 193.568V194.648H66.088V192.44H74.824L73.456 193.232Q73.456 192.2 73.12 191.444Q72.78399999999999 190.688 72.172 190.29199999999997Q71.56 189.896 70.696 189.896Q69.832 189.896 69.16 190.31599999999997Q68.488 190.736 68.116 191.528Q67.744 192.32 67.744 193.448V194.0Q67.744 195.656 68.572 196.55599999999998Q69.4 197.456 70.888 197.456Q71.776 197.456 72.44800000000001 197.096Q73.12 196.736 73.624 196.016L76.144 197.576Q75.256 198.92 73.864 199.628Q72.472 200.336 70.768 200.336Q68.92 200.336 67.468 199.556Q66.016 198.776 65.188 197.324Q64.36 195.872 64.36 193.808Z M85.528 196.52Q85.528 196.064 85.20400000000001 195.8Q84.88 195.536 84.064 195.344L82.408 194.96Q80.344 194.48 79.36 193.53199999999998Q78.376 192.584 78.376 190.976Q78.376 189.752 79.024 188.924Q79.672 188.096 80.8 187.664Q81.928 187.232 83.344 187.232Q85.24 187.232 86.68 188.036Q88.12 188.84 88.744 190.424L86.128 191.408Q85.768 190.664 84.976 190.30399999999997Q84.184 189.944 83.392 189.944Q82.55199999999999 189.944 82.072 190.22Q81.592 190.496 81.592 191.0Q81.592 191.48 81.928 191.72Q82.264 191.96 83.032 192.152L84.712 192.536Q86.776 193.016 87.77199999999999 193.988Q88.768 194.96 88.768 196.568Q88.768 198.296 87.436 199.316Q86.104 200.336 83.728 200.336Q81.544 200.336 80.008 199.436Q78.472 198.536 77.896 196.88L80.584 195.92Q80.968 196.784 81.78399999999999 197.192Q82.6 197.6 83.704 197.6Q84.592 197.6 85.06 197.336Q85.528 197.072 85.528 196.52Z M94.216 200.0H90.856V187.568H94.216ZM90.616 184.04Q90.616 183.176 91.156 182.65999999999997Q91.696 182.14399999999998 92.536 182.14399999999998Q93.4 182.14399999999998 93.928 182.65999999999997Q94.456 183.176 94.456 184.04Q94.456 184.88 93.928 185.408Q93.4 185.93599999999998 92.536 185.93599999999998Q91.696 185.93599999999998 91.156 185.408Q90.616 184.88 90.616 184.04Z M105.424 199.328V196.376H106.12Q105.664 197.792 104.476 198.608Q103.288 199.424 101.70400000000001 199.424Q100.072 199.424 98.872 198.668Q97.672 197.912 97.012 196.53199999999998Q96.352 195.152 96.352 193.28Q96.352 191.432 97.012 190.076Q97.672 188.72 98.872 187.976Q100.072 187.232 101.70400000000001 187.232Q103.288 187.232 104.5 188.216Q105.712 189.2 106.168 190.928H105.47200000000001V187.568H108.76V199.112Q108.76 201.272 107.98 202.676Q107.2 204.08 105.844 204.776Q104.488 205.472 102.76 205.472Q100.912 205.472 99.352 204.704Q97.792 203.936 96.736 202.472L99.28 200.768Q99.85600000000001 201.56 100.708 201.99200000000002Q101.56 202.424 102.592 202.424Q103.888 202.424 104.656 201.692Q105.424 200.96 105.424 199.328ZM102.568 190.304Q101.70400000000001 190.304 101.06800000000001 190.676Q100.432 191.048 100.096 191.72Q99.76 192.392 99.76 193.28Q99.76 194.168 100.096 194.864Q100.432 195.56 101.06800000000001 195.96800000000002Q101.70400000000001 196.376 102.568 196.376Q103.456 196.376 104.09200000000001 195.98000000000002Q104.72800000000001 195.584 105.06400000000001 194.888Q105.4 194.192 105.4 193.28Q105.4 192.368 105.06400000000001 191.708Q104.72800000000001 191.048 104.09200000000001 190.676Q103.456 190.304 102.568 190.304Z M111.496 187.568H114.80799999999999V190.952H114.064Q114.496 189.248 115.684 188.24Q116.872 187.232 118.432 187.232Q122.776 187.232 122.776 192.68V200.0H119.416V192.92Q119.416 191.576 118.876 190.928Q118.336 190.28 117.232 190.28Q116.536 190.28 115.99600000000001 190.64Q115.456 191.0 115.156 191.672Q114.856 192.344 114.856 193.232V200.0H111.496Z M124.816 193.808Q124.816 191.816 125.608 190.34Q126.4 188.864 127.816 188.048Q129.232 187.232 131.104 187.232Q133.072 187.232 134.416 188.072Q135.76 188.912 136.468 190.34Q137.176 191.768 137.176 193.568V194.648H126.544V192.44H135.28L133.912 193.232Q133.912 192.2 133.57600000000002 191.444Q133.24 190.688 132.628 190.29199999999997Q132.016 189.896 131.15200000000002 189.896Q130.288 189.896 129.61599999999999 190.31599999999997Q128.944 190.736 128.572 191.528Q128.2 192.32 128.2 193.448V194.0Q128.2 195.656 129.028 196.55599999999998Q129.856 197.456 131.344 197.456Q132.232 197.456 132.904 197.096Q133.576 196.736 134.08 196.016L136.6 197.576Q135.712 198.92 134.32 199.628Q132.928 200.336 131.224 200.336Q129.376 200.336 127.924 199.556Q126.47200000000001 198.776 125.644 197.324Q124.816 195.872 124.816 193.808Z M139.312 187.568H142.62400000000002V190.952H141.88000000000002Q142.096 190.016 142.63600000000002 189.2Q143.17600000000002 188.38400000000001 143.99200000000002 187.856Q144.80800000000002 187.328 145.76800000000003 187.328Q146.008 187.328 146.24800000000002 187.352Q146.48800000000003 187.376 146.728 187.448V190.61599999999999Q146.22400000000002 190.52 145.67200000000003 190.52Q144.83200000000002 190.52 144.14800000000002 190.88Q143.46400000000003 191.24 143.06800000000004 191.972Q142.67200000000003 192.704 142.67200000000003 193.808V200.0H139.312Z M160.50400000000002 191.31199999999998Q160.50400000000002 190.39999999999998 161.05600000000004 189.85999999999999Q161.60800000000003 189.32 162.52 189.32Q163.43200000000002 189.32 163.97200000000004 189.85999999999999Q164.51200000000003 190.39999999999998 164.51200000000003 191.31199999999998Q164.51200000000003 192.2 163.97200000000004 192.752Q163.43200000000002 193.304 162.52 193.304Q161.60800000000003 193.304 161.05600000000004 192.752Q160.50400000000002 192.2 160.50400000000002 191.31199999999998Z M178.672 191.48Q178.672 188.792 179.704 186.8Q180.736 184.808 182.608 183.704Q184.48 182.6 186.952 182.6Q189.47199999999998 182.6 191.332 183.752Q193.19199999999998 184.904 194.296 187.04L191.272 188.6Q190.528 187.208 189.47199999999998 186.548Q188.416 185.888 186.952 185.888Q185.512 185.888 184.444 186.56Q183.37599999999998 187.232 182.79999999999998 188.49200000000002Q182.224 189.752 182.224 191.456Q182.224 193.184 182.79999999999998 194.44400000000002Q183.37599999999998 195.704 184.444 196.376Q185.512 197.048 186.952 197.048Q188.464 197.048 189.51999999999998 196.376Q190.576 195.704 191.296 194.336L194.32 195.92Q193.21599999999998 198.056 191.344 199.19600000000003Q189.47199999999998 200.336 186.952 200.336Q184.48 200.336 182.62 199.232Q180.76 198.128 179.716 196.136Q178.672 194.144 178.672 191.48Z M196.672 187.568H199.984V190.952H199.24Q199.456 190.016 199.99599999999998 189.2Q200.536 188.38400000000001 201.352 187.856Q202.168 187.328 203.12800000000001 187.328Q203.368 187.328 203.608 187.352Q203.848 187.376 204.088 187.448V190.61599999999999Q203.584 190.52 203.032 190.52Q202.192 190.52 201.508 190.88Q200.824 191.24 200.428 191.972Q200.032 192.704 200.032 193.808V200.0H196.672Z M205.43200000000002 193.808Q205.43200000000002 191.816 206.22400000000002 190.34Q207.01600000000002 188.864 208.43200000000002 188.048Q209.848 187.232 211.72000000000003 187.232Q213.68800000000002 187.232 215.032 188.072Q216.376 188.912 217.084 190.34Q217.79200000000003 191.768 217.79200000000003 193.568V194.648H207.16000000000003V192.44H215.89600000000002L214.52800000000002 193.232Q214.52800000000002 192.2 214.192 191.444Q213.85600000000002 190.688 213.24400000000003 190.29199999999997Q212.632 189.896 211.76800000000003 189.896Q210.90400000000002 189.896 210.23200000000003 190.31599999999997Q209.56 190.736 209.188 191.528Q208.816 192.32 208.816 193.448V194.0Q208.816 195.656 209.644 196.55599999999998Q210.472 197.456 211.96 197.456Q212.848 197.456 213.52 197.096Q214.192 196.736 214.69600000000003 196.016L217.216 197.576Q216.328 198.92 214.936 199.628Q213.544 200.336 211.84 200.336Q209.99200000000002 200.336 208.54000000000002 199.556Q207.08800000000002 198.776 206.26000000000002 197.324Q205.43200000000002 195.872 205.43200000000002 193.808Z M227.32 192.824Q227.32 191.432 226.696 190.748Q226.072 190.064 224.872 190.064Q224.08 190.064 223.39600000000002 190.39999999999998Q222.712 190.736 222.184 191.408L219.736 189.776Q220.72 188.528 222.112 187.88Q223.504 187.232 225.232 187.232Q227.776 187.232 229.156 188.624Q230.536 190.016 230.536 192.776V200.0H227.32ZM219.424 196.616Q219.424 194.624 220.828 193.54399999999998Q222.232 192.464 224.752 192.464H227.94400000000002V194.672H224.92000000000002Q223.816 194.672 223.228 195.07999999999998Q222.64000000000001 195.488 222.64000000000001 196.256Q222.64000000000001 196.904 223.072 197.264Q223.504 197.624 224.32 197.624Q225.088 197.624 225.772 197.24Q226.456 196.856 226.88799999999998 196.136Q227.32 195.416 227.32 194.408L228.208 195.416Q228.208 196.976 227.548 198.06799999999998Q226.888 199.16 225.796 199.748Q224.704 200.336 223.38400000000001 200.336Q222.208 200.336 221.32 199.892Q220.43200000000002 199.448 219.928 198.62Q219.424 197.792 219.424 196.616Z M233.992 195.848V184.808L237.352 183.68V195.296Q237.352 196.4 237.76 196.796Q238.168 197.192 239.00799999999998 197.192Q239.368 197.192 239.728 197.144Q240.088 197.096 240.44799999999998 197.024V199.928Q239.944 200.072 239.344 200.144Q238.744 200.216 238.21599999999998 200.216Q236.968 200.216 236.01999999999998 199.82Q235.072 199.424 234.53199999999998 198.464Q233.992 197.504 233.992 195.848ZM232.144 187.568H239.896V190.544H232.144Z M245.848 200.0H242.488V187.568H245.848ZM242.24800000000002 184.04Q242.24800000000002 183.176 242.788 182.65999999999997Q243.328 182.14399999999998 244.168 182.14399999999998Q245.032 182.14399999999998 245.56 182.65999999999997Q246.088 183.176 246.088 184.04Q246.088 184.88 245.56 185.408Q245.032 185.93599999999998 244.168 185.93599999999998Q243.328 185.93599999999998 242.788 185.408Q242.24800000000002 184.88 242.24800000000002 184.04Z M254.92000000000002 197.84H253.60000000000002L257.344 187.568H260.824L255.904 200.0H252.424L247.52800000000002 187.568H251.22400000000002Z M261.90399999999994 193.808Q261.90399999999994 191.816 262.6959999999999 190.34Q263.48799999999994 188.864 264.904 188.048Q266.32 187.232 268.19199999999995 187.232Q270.15999999999997 187.232 271.50399999999996 188.072Q272.84799999999996 188.912 273.5559999999999 190.34Q274.26399999999995 191.768 274.26399999999995 193.568V194.648H263.63199999999995V192.44H272.368L270.99999999999994 193.232Q270.99999999999994 192.2 270.664 191.444Q270.328 190.688 269.716 190.29199999999997Q269.104 189.896 268.23999999999995 189.896Q267.376 189.896 266.70399999999995 190.31599999999997Q266.032 190.736 265.65999999999997 191.528Q265.28799999999995 192.32 265.28799999999995 193.448V194.0Q265.28799999999995 195.656 266.116 196.55599999999998Q266.94399999999996 197.456 268.43199999999996 197.456Q269.32 197.456 269.99199999999996 197.096Q270.664 196.736 271.16799999999995 196.016L273.688 197.576Q272.79999999999995 198.92 271.40799999999996 199.628Q270.01599999999996 200.336 268.31199999999995 200.336Q266.46399999999994 200.336 265.01199999999994 199.556Q263.55999999999995 198.776 262.73199999999997 197.324Q261.90399999999994 195.872 261.90399999999994 193.808Z M288.232 191.31199999999998Q288.232 190.39999999999998 288.784 189.85999999999999Q289.336 189.32 290.24800000000005 189.32Q291.16 189.32 291.70000000000005 189.85999999999999Q292.24 190.39999999999998 292.24 191.31199999999998Q292.24 192.2 291.70000000000005 192.752Q291.16 193.304 290.24800000000005 193.304Q289.336 193.304 288.784 192.752Q288.232 192.2 288.232 191.31199999999998Z M316.168 195.32Q316.168 194.504 315.592 194.036Q315.016 193.568 313.48 193.184L311.56 192.656Q309.184 191.984 307.98400000000004 190.748Q306.784 189.512 306.784 187.61599999999999Q306.784 185.264 308.476 183.93200000000002Q310.168 182.6 313.12 182.6Q314.56 182.6 315.808 183.01999999999998Q317.056 183.44 318.01599999999996 184.208Q318.976 184.976 319.528 186.056L316.74399999999997 187.76Q316.216 186.752 315.20799999999997 186.248Q314.2 185.744 313.024 185.744Q311.728 185.744 310.98400000000004 186.176Q310.24 186.608 310.24 187.472Q310.24 188.24 310.84000000000003 188.696Q311.44 189.152 312.856 189.536L314.776 190.064Q317.344 190.76 318.52 191.97199999999998Q319.696 193.184 319.696 195.152Q319.696 197.552 318.028 198.94400000000002Q316.36 200.336 313.264 200.336Q310.912 200.336 309.06399999999996 199.412Q307.216 198.488 306.088 196.736L308.896 195.008Q309.568 196.064 310.70799999999997 196.628Q311.848 197.192 313.288 197.192Q314.704 197.192 315.43600000000004 196.712Q316.168 196.232 316.168 195.32Z M322.76800000000003 195.848V184.808L326.128 183.68V195.296Q326.128 196.4 326.536 196.796Q326.944 197.192 327.784 197.192Q328.144 197.192 328.504 197.144Q328.864 197.096 329.224 197.024V199.928Q328.72 200.072 328.12 200.144Q327.52 200.216 326.992 200.216Q325.744 200.216 324.79600000000005 199.82Q323.848 199.424 323.308 198.464Q322.76800000000003 197.504 322.76800000000003 195.848ZM320.92 187.568H328.672V190.544H320.92Z M331.168 194.888V187.568H334.528V194.648Q334.528 195.992 335.068 196.64Q335.608 197.288 336.664 197.288Q337.384 197.288 337.91200000000003 196.928Q338.44 196.568 338.74 195.88400000000001Q339.04 195.2 339.04 194.336V187.568H342.40000000000003V200.0H339.064V196.616H339.832Q339.42400000000004 198.296 338.22400000000005 199.316Q337.024 200.336 335.488 200.336Q333.35200000000003 200.336 332.26 198.96800000000002Q331.168 197.6 331.168 194.888Z M344.536 193.784Q344.536 191.768 345.196 190.304Q345.85600000000005 188.84 347.05600000000004 188.036Q348.25600000000003 187.232 349.91200000000003 187.232Q351.52000000000004 187.232 352.72 188.204Q353.92 189.176 354.35200000000003 190.88H353.584V182.40800000000002H356.944V200.0H353.608V196.64H354.35200000000003Q353.896 198.344 352.696 199.34Q351.49600000000004 200.336 349.91200000000003 200.336Q348.25600000000003 200.336 347.05600000000004 199.532Q345.85600000000005 198.728 345.196 197.252Q344.536 195.776 344.536 193.784ZM347.944 193.784Q347.944 194.816 348.28000000000003 195.596Q348.61600000000004 196.376 349.25200000000007 196.82Q349.88800000000003 197.264 350.752 197.264Q351.64000000000004 197.264 352.264 196.832Q352.88800000000003 196.4 353.236 195.608Q353.584 194.816 353.584 193.784Q353.584 192.728 353.236 191.948Q352.88800000000003 191.168 352.264 190.736Q351.64000000000004 190.304 350.752 190.304Q349.88800000000003 190.304 349.25200000000007 190.736Q348.61600000000004 191.168 348.28000000000003 191.948Q347.944 192.728 347.944 193.784Z M359.08 193.808Q359.08 191.816 359.87199999999996 190.34Q360.664 188.864 362.08000000000004 188.048Q363.49600000000004 187.232 365.368 187.232Q367.336 187.232 368.68 188.072Q370.024 188.912 370.73199999999997 190.34Q371.44 191.768 371.44 193.568V194.648H360.808V192.44H369.54400000000004L368.176 193.232Q368.176 192.2 367.84000000000003 191.444Q367.504 190.688 366.89200000000005 190.29199999999997Q366.28000000000003 189.896 365.416 189.896Q364.552 189.896 363.88 190.31599999999997Q363.208 190.736 362.836 191.528Q362.464 192.32 362.464 193.448V194.0Q362.464 195.656 363.29200000000003 196.55599999999998Q364.12 197.456 365.608 197.456Q366.49600000000004 197.456 367.168 197.096Q367.84000000000003 196.736 368.344 196.016L370.86400000000003 197.576Q369.976 198.92 368.584 199.628Q367.192 200.336 365.488 200.336Q363.64 200.336 362.188 199.556Q360.736 198.776 359.908 197.324Q359.08 195.872 359.08 193.808Z M373.576 187.568H376.88800000000003V190.952H376.144Q376.576 189.248 377.764 188.24Q378.952 187.232 380.512 187.232Q384.85600000000005 187.232 384.85600000000005 192.68V200.0H381.49600000000004V192.92Q381.49600000000004 191.576 380.956 190.928Q380.41600000000005 190.28 379.312 190.28Q378.61600000000004 190.28 378.076 190.64Q377.536 191.0 377.236 191.672Q376.93600000000004 192.344 376.93600000000004 193.232V200.0H373.576Z M388.312 195.848V184.808L391.67199999999997 183.68V195.296Q391.67199999999997 196.4 392.08 196.796Q392.488 197.192 393.328 197.192Q393.688 197.192 394.048 197.144Q394.40799999999996 197.096 394.768 197.024V199.928Q394.264 200.072 393.664 200.144Q393.06399999999996 200.216 392.536 200.216Q391.288 200.216 390.34000000000003 199.82Q389.392 199.424 388.852 198.464Q388.312 197.504 388.312 195.848ZM386.464 187.568H394.216V190.544H386.464Z" fill="#1B72F2"/>
<path d="M46.882 229.61Q46.882 227.594 47.62 226.10899999999998Q48.358 224.624 49.708 223.805Q51.058 222.986 52.876 222.986Q54.604 222.986 55.936 223.78699999999998Q57.268 224.588 58.096 226.136L56.728 226.856Q56.098 225.65 55.135 225.065Q54.172 224.48 52.876 224.48Q51.525999999999996 224.48 50.545 225.101Q49.564 225.722 49.033 226.87400000000002Q48.502 228.026 48.502 229.61Q48.502 231.176 49.033 232.32799999999997Q49.564 233.48 50.545 234.101Q51.525999999999996 234.722 52.876 234.722Q54.208 234.722 55.189 234.128Q56.17 233.534 56.8 232.364L58.168 233.102Q57.34 234.632 55.99 235.424Q54.64 236.216 52.876 236.216Q51.058 236.216 49.708 235.397Q48.358 234.578 47.62 233.09300000000002Q46.882 231.608 46.882 229.61Z M60.256 226.82H61.785999999999994V229.466H61.209999999999994Q61.407999999999994 228.656 61.86699999999999 228.026Q62.32599999999999 227.39600000000002 62.955999999999996 227.02700000000002Q63.586 226.65800000000002 64.306 226.65800000000002Q64.50399999999999 226.65800000000002 64.69299999999998 226.676Q64.88199999999999 226.694 65.08 226.748V228.26Q64.774 228.188 64.324 228.188Q63.568 228.188 62.992 228.539Q62.416 228.89 62.101 229.51999999999998Q61.785999999999994 230.15 61.785999999999994 231.014V236.0H60.256Z M72.46000000000001 230.582Q72.46000000000001 229.25 71.88400000000001 228.62900000000002Q71.308 228.008 70.22800000000001 228.008Q69.49000000000001 228.008 68.84200000000001 228.35000000000002Q68.194 228.692 67.726 229.34L66.574 228.476Q67.25800000000001 227.576 68.212 227.09Q69.166 226.604 70.26400000000001 226.604Q71.992 226.604 72.99100000000001 227.558Q73.99000000000001 228.512 73.99000000000001 230.546V236.0H72.46000000000001ZM66.304 233.498Q66.304 232.112 67.31200000000001 231.31099999999998Q68.32000000000001 230.51 70.012 230.51H72.802V231.86H70.084Q69.004 231.86 68.41900000000001 232.265Q67.834 232.67 67.834 233.444Q67.834 234.11 68.266 234.479Q68.69800000000001 234.848 69.50800000000001 234.848Q70.336 234.848 71.00200000000001 234.461Q71.668 234.074 72.06400000000001 233.417Q72.46000000000001 232.76 72.46000000000001 231.95L73.144 232.364Q73.144 233.48 72.64 234.353Q72.136 235.226 71.25399999999999 235.721Q70.372 236.216 69.238 236.216Q68.33800000000001 236.216 67.68100000000001 235.883Q67.024 235.55 66.664 234.938Q66.304 234.326 66.304 233.498Z M75.538 226.82H80.97399999999999V228.206H75.538ZM77.086 225.758Q77.086 224.57 77.482 223.886Q77.878 223.202 78.526 222.914Q79.17399999999999 222.626 79.91199999999999 222.626Q80.18199999999999 222.626 80.44299999999998 222.644Q80.704 222.662 80.97399999999999 222.716V224.138Q80.704 224.102 80.506 224.084Q80.30799999999999 224.066 80.074 224.066Q79.264 224.066 78.94 224.453Q78.616 224.84 78.616 225.902V236.0H77.086Z M83.458 233.156V224.516L84.988 223.994V232.904Q84.988 233.912 85.348 234.308Q85.708 234.704 86.536 234.704Q86.806 234.704 87.103 234.659Q87.39999999999999 234.614 87.688 234.542V235.946Q87.346 236.036 86.95 236.09Q86.554 236.144 86.194 236.144Q85.33 236.144 84.71799999999999 235.847Q84.106 235.55 83.782 234.893Q83.458 234.236 83.458 233.156ZM81.91 226.82H87.184V228.206H81.91Z M91.0 236.0H89.47V226.82H91.0ZM89.236 224.102Q89.236 223.63400000000001 89.515 223.364Q89.794 223.094 90.244 223.094Q90.712 223.094 90.982 223.364Q91.252 223.63400000000001 91.252 224.102Q91.252 224.552 90.982 224.83100000000002Q90.712 225.11 90.244 225.11Q89.794 225.11 89.515 224.83100000000002Q89.236 224.552 89.236 224.102Z M93.41199999999999 226.82H94.942V229.466H94.36599999999999Q94.70799999999998 228.13400000000001 95.63499999999999 227.36900000000003Q96.56199999999998 226.604 97.78599999999999 226.604Q101.13399999999999 226.604 101.13399999999999 230.672V236.0H99.60399999999998V230.672Q99.60399999999998 229.304 99.064 228.656Q98.52399999999999 228.008 97.42599999999999 228.008Q96.72399999999999 228.008 96.15699999999998 228.38600000000002Q95.58999999999999 228.764 95.26599999999999 229.43Q94.942 230.096 94.942 230.96V236.0H93.41199999999999Z M110.188 235.856V233.246H110.638Q110.242 234.488 109.30600000000001 235.18099999999998Q108.37 235.874 107.092 235.874Q105.85 235.874 104.923 235.298Q103.996 234.722 103.483 233.687Q102.97 232.652 102.97 231.248Q102.97 229.826 103.483 228.791Q103.996 227.756 104.923 227.18Q105.85 226.604 107.092 226.604Q108.37 226.604 109.342 227.33300000000003Q110.314 228.062 110.71000000000001 229.448H110.188V226.82H111.718V235.676Q111.718 237.26 111.178 238.25900000000001Q110.638 239.258 109.702 239.726Q108.766 240.194 107.56 240.194Q106.246 240.194 105.166 239.618Q104.086 239.042 103.366 237.944L104.626 237.206Q105.094 237.944 105.85 238.349Q106.606 238.754 107.542 238.754Q108.748 238.754 109.468 238.06099999999998Q110.188 237.368 110.188 235.856ZM107.326 228.044Q106.444 228.044 105.814 228.45800000000003Q105.184 228.872 104.86 229.601Q104.536 230.33 104.536 231.248Q104.536 232.148 104.86 232.877Q105.184 233.606 105.814 234.01999999999998Q106.444 234.434 107.326 234.434Q108.226 234.434 108.874 234.029Q109.522 233.624 109.864 232.904Q110.206 232.184 110.206 231.248Q110.206 230.294 109.864 229.574Q109.522 228.854 108.874 228.449Q108.226 228.044 107.326 228.044Z M118.216 231.41Q118.216 230.006 118.756 228.917Q119.29599999999999 227.828 120.286 227.216Q121.276 226.604 122.62599999999999 226.604Q123.904 226.604 124.858 227.162Q125.812 227.72 126.36999999999999 228.782L125.128 229.502Q124.732 228.746 124.102 228.395Q123.472 228.044 122.62599999999999 228.044Q121.744 228.044 121.10499999999999 228.46699999999998Q120.466 228.89 120.124 229.646Q119.782 230.402 119.782 231.41Q119.782 232.904 120.538 233.84Q121.294 234.776 122.62599999999999 234.776Q123.472 234.776 124.17399999999999 234.407Q124.87599999999999 234.038 125.344 233.21L126.586 233.948Q125.99199999999999 235.01 124.975 235.613Q123.958 236.216 122.62599999999999 236.216Q121.276 236.216 120.286 235.595Q119.29599999999999 234.974 118.756 233.894Q118.216 232.814 118.216 231.41Z M128.332 222.806H129.862V236.0H128.332Z M131.76999999999998 231.41Q131.76999999999998 229.952 132.319 228.872Q132.868 227.792 133.867 227.198Q134.86599999999999 226.604 136.19799999999998 226.604Q137.49399999999997 226.604 138.46599999999998 227.18Q139.438 227.756 139.97799999999998 228.8Q140.51799999999997 229.844 140.51799999999997 231.23V231.914H132.652V230.564H139.654L138.98799999999997 231.05Q138.98799999999997 230.132 138.63699999999997 229.448Q138.28599999999997 228.764 137.66499999999996 228.38600000000002Q137.04399999999998 228.008 136.19799999999998 228.008Q135.31599999999997 228.008 134.659 228.42200000000003Q134.00199999999998 228.836 133.65099999999998 229.574Q133.29999999999998 230.312 133.29999999999998 231.302V231.41Q133.29999999999998 232.994 134.07399999999998 233.90300000000002Q134.84799999999998 234.812 136.25199999999998 234.812Q137.188 234.812 137.84499999999997 234.43400000000003Q138.50199999999998 234.056 138.95199999999997 233.3L140.194 234.038Q139.528 235.136 138.51099999999997 235.676Q137.49399999999997 236.216 136.21599999999998 236.216Q134.86599999999999 236.216 133.867 235.622Q132.868 235.028 132.319 233.94799999999998Q131.76999999999998 232.868 131.76999999999998 231.41Z M148.096 230.582Q148.096 229.25 147.51999999999998 228.62900000000002Q146.944 228.008 145.864 228.008Q145.126 228.008 144.478 228.35000000000002Q143.83 228.692 143.362 229.34L142.21 228.476Q142.894 227.576 143.848 227.09Q144.802 226.604 145.9 226.604Q147.628 226.604 148.627 227.558Q149.626 228.512 149.626 230.546V236.0H148.096ZM141.94 233.498Q141.94 232.112 142.94799999999998 231.31099999999998Q143.956 230.51 145.648 230.51H148.438V231.86H145.72Q144.64 231.86 144.055 232.265Q143.47 232.67 143.47 233.444Q143.47 234.11 143.902 234.479Q144.334 234.848 145.144 234.848Q145.972 234.848 146.638 234.461Q147.304 234.074 147.7 233.417Q148.096 232.76 148.096 231.95L148.78 232.364Q148.78 233.48 148.276 234.353Q147.772 235.226 146.89 235.721Q146.008 236.216 144.874 236.216Q143.974 236.216 143.317 235.883Q142.66 235.55 142.3 234.938Q141.94 234.326 141.94 233.498Z M151.96599999999998 226.82H153.49599999999998V229.466H152.92Q153.262 228.13400000000001 154.189 227.36900000000003Q155.11599999999999 226.604 156.34 226.604Q159.688 226.604 159.688 230.672V236.0H158.158V230.672Q158.158 229.304 157.618 228.656Q157.078 228.008 155.98 228.008Q155.278 228.008 154.71099999999998 228.38600000000002Q154.14399999999998 228.764 153.82 229.43Q153.49599999999998 230.096 153.49599999999998 230.96V236.0H151.96599999999998Z M162.496 234.29H164.278L163.09 238.376H161.812Z M170.64999999999998 231.41Q170.64999999999998 230.006 171.19 228.917Q171.73 227.828 172.71999999999997 227.216Q173.70999999999998 226.604 175.05999999999997 226.604Q176.33799999999997 226.604 177.29199999999997 227.162Q178.24599999999998 227.72 178.80399999999997 228.782L177.56199999999998 229.502Q177.16599999999997 228.746 176.53599999999997 228.395Q175.90599999999998 228.044 175.05999999999997 228.044Q174.17799999999997 228.044 173.539 228.46699999999998Q172.89999999999998 228.89 172.558 229.646Q172.21599999999998 230.402 172.21599999999998 231.41Q172.21599999999998 232.904 172.97199999999998 233.84Q173.72799999999998 234.776 175.05999999999997 234.776Q175.90599999999998 234.776 176.60799999999998 234.407Q177.30999999999997 234.038 177.778 233.21L179.01999999999998 233.948Q178.426 235.01 177.409 235.613Q176.39199999999997 236.216 175.05999999999997 236.216Q173.70999999999998 236.216 172.71999999999997 235.595Q171.73 234.974 171.19 233.894Q170.64999999999998 232.814 170.64999999999998 231.41Z M186.436 230.582Q186.436 229.25 185.86 228.62900000000002Q185.284 228.008 184.204 228.008Q183.466 228.008 182.818 228.35000000000002Q182.17000000000002 228.692 181.702 229.34L180.55 228.476Q181.234 227.576 182.188 227.09Q183.142 226.604 184.24 226.604Q185.968 226.604 186.96699999999998 227.558Q187.966 228.512 187.966 230.546V236.0H186.436ZM180.28 233.498Q180.28 232.112 181.288 231.31099999999998Q182.296 230.51 183.988 230.51H186.778V231.86H184.06Q182.98 231.86 182.39499999999998 232.265Q181.81 232.67 181.81 233.444Q181.81 234.11 182.24200000000002 234.479Q182.674 234.848 183.484 234.848Q184.312 234.848 184.978 234.461Q185.644 234.074 186.04000000000002 233.417Q186.436 232.76 186.436 231.95L187.12 232.364Q187.12 233.48 186.61599999999999 234.353Q186.112 235.226 185.23000000000002 235.721Q184.348 236.216 183.214 236.216Q182.314 236.216 181.65699999999998 235.883Q181.0 235.55 180.64 234.938Q180.28 234.326 180.28 233.498Z M190.30599999999998 222.806H191.83599999999998V236.0H190.30599999999998Z M194.248 226.82H195.778V229.466H195.202Q195.454 228.53 195.958 227.89100000000002Q196.462 227.252 197.128 226.928Q197.794 226.604 198.55 226.604Q199.774 226.604 200.548 227.279Q201.322 227.954 201.574 229.34H201.016Q201.43 228.008 202.393 227.306Q203.356 226.604 204.472 226.604Q206.074 226.604 206.848 227.63Q207.622 228.656 207.622 230.672V236.0H206.092V230.672Q206.092 229.304 205.579 228.656Q205.066 228.008 204.058 228.008Q203.446 228.008 202.906 228.377Q202.366 228.746 202.03300000000002 229.394Q201.7 230.042 201.7 230.888V236.0H200.17V230.672Q200.17 229.304 199.666 228.656Q199.162 228.008 198.136 228.008Q197.524 228.008 196.98399999999998 228.38600000000002Q196.444 228.764 196.111 229.421Q195.778 230.078 195.778 230.924V236.0H194.248Z M216.08199999999997 236.0H214.55199999999996V226.82H216.08199999999997ZM214.31799999999996 224.102Q214.31799999999996 223.63400000000001 214.59699999999998 223.364Q214.87599999999998 223.094 215.32599999999996 223.094Q215.79399999999995 223.094 216.06399999999996 223.364Q216.33399999999997 223.63400000000001 216.33399999999997 224.102Q216.33399999999997 224.552 216.06399999999996 224.83100000000002Q215.79399999999995 225.11 215.32599999999996 225.11Q214.87599999999998 225.11 214.59699999999998 224.83100000000002Q214.31799999999996 224.552 214.31799999999996 224.102Z M218.49399999999997 226.82H220.02399999999997V229.466H219.44799999999998Q219.79 228.13400000000001 220.71699999999998 227.36900000000003Q221.64399999999998 226.604 222.868 226.604Q226.21599999999998 226.604 226.21599999999998 230.672V236.0H224.68599999999998V230.672Q224.68599999999998 229.304 224.146 228.656Q223.606 228.008 222.50799999999998 228.008Q221.80599999999998 228.008 221.23899999999998 228.38600000000002Q220.67199999999997 228.764 220.34799999999996 229.43Q220.02399999999997 230.096 220.02399999999997 230.96V236.0H218.49399999999997Z M229.25799999999998 233.156V224.516L230.78799999999998 223.994V232.904Q230.78799999999998 233.912 231.14799999999997 234.308Q231.50799999999998 234.704 232.33599999999998 234.704Q232.606 234.704 232.903 234.659Q233.2 234.614 233.488 234.542V235.946Q233.146 236.036 232.75 236.09Q232.35399999999998 236.144 231.994 236.144Q231.13 236.144 230.518 235.847Q229.906 235.55 229.582 234.893Q229.25799999999998 234.236 229.25799999999998 233.156ZM227.71 226.82H232.98399999999998V228.206H227.71Z M234.766 231.41Q234.766 229.952 235.315 228.872Q235.864 227.792 236.863 227.198Q237.862 226.604 239.194 226.604Q240.48999999999998 226.604 241.462 227.18Q242.434 227.756 242.974 228.8Q243.51399999999998 229.844 243.51399999999998 231.23V231.914H235.648V230.564H242.64999999999998L241.98399999999998 231.05Q241.98399999999998 230.132 241.63299999999998 229.448Q241.28199999999998 228.764 240.661 228.38600000000002Q240.04 228.008 239.194 228.008Q238.31199999999998 228.008 237.65499999999997 228.42200000000003Q236.998 228.836 236.647 229.574Q236.296 230.312 236.296 231.302V231.41Q236.296 232.994 237.07 233.90300000000002Q237.844 234.812 239.248 234.812Q240.184 234.812 240.841 234.43400000000003Q241.498 234.056 241.94799999999998 233.3L243.19 234.038Q242.524 235.136 241.507 235.676Q240.48999999999998 236.216 239.212 236.216Q237.862 236.216 236.863 235.622Q235.864 235.028 235.315 233.94799999999998Q234.766 232.868 234.766 231.41Z M245.42199999999997 226.82H246.95199999999997V229.466H246.37599999999998Q246.57399999999998 228.656 247.033 228.026Q247.492 227.39600000000002 248.12199999999999 227.02700000000002Q248.75199999999998 226.65800000000002 249.47199999999998 226.65800000000002Q249.67 226.65800000000002 249.85899999999998 226.676Q250.04799999999997 226.694 250.24599999999998 226.748V228.26Q249.93999999999997 228.188 249.48999999999998 228.188Q248.73399999999998 228.188 248.158 228.539Q247.582 228.89 247.267 229.51999999999998Q246.95199999999997 230.15 246.95199999999997 231.014V236.0H245.42199999999997Z M251.16399999999996 226.82H256.59999999999997V228.206H251.16399999999996ZM252.71199999999996 225.758Q252.71199999999996 224.57 253.10799999999995 223.886Q253.50399999999996 223.202 254.152 222.914Q254.79999999999998 222.626 255.53799999999998 222.626Q255.80799999999996 222.626 256.06899999999996 222.644Q256.33 222.662 256.59999999999997 222.716V224.138Q256.33 224.102 256.13199999999995 224.084Q255.93399999999997 224.066 255.69999999999996 224.066Q254.88999999999996 224.066 254.56599999999997 224.453Q254.24199999999996 224.84 254.24199999999996 225.902V236.0H252.71199999999996Z M264.05199999999996 230.582Q264.05199999999996 229.25 263.476 228.62900000000002Q262.9 228.008 261.82 228.008Q261.082 228.008 260.43399999999997 228.35000000000002Q259.786 228.692 259.318 229.34L258.166 228.476Q258.84999999999997 227.576 259.804 227.09Q260.758 226.604 261.856 226.604Q263.584 226.604 264.58299999999997 227.558Q265.582 228.512 265.582 230.546V236.0H264.05199999999996ZM257.896 233.498Q257.896 232.112 258.904 231.31099999999998Q259.912 230.51 261.604 230.51H264.394V231.86H261.676Q260.596 231.86 260.01099999999997 232.265Q259.426 232.67 259.426 233.444Q259.426 234.11 259.85799999999995 234.479Q260.28999999999996 234.848 261.09999999999997 234.848Q261.928 234.848 262.594 234.461Q263.26 234.074 263.65599999999995 233.417Q264.05199999999996 232.76 264.05199999999996 231.95L264.736 232.364Q264.736 233.48 264.23199999999997 234.353Q263.728 235.226 262.846 235.721Q261.964 236.216 260.83 236.216Q259.93 236.216 259.273 235.883Q258.616 235.55 258.256 234.938Q257.896 234.326 257.896 233.498Z M267.418 231.41Q267.418 230.006 267.95799999999997 228.917Q268.498 227.828 269.488 227.216Q270.478 226.604 271.82800000000003 226.604Q273.106 226.604 274.06 227.162Q275.014 227.72 275.572 228.782L274.33 229.502Q273.934 228.746 273.30400000000003 228.395Q272.67400000000004 228.044 271.82800000000003 228.044Q270.946 228.044 270.307 228.46699999999998Q269.668 228.89 269.326 229.646Q268.984 230.402 268.984 231.41Q268.984 232.904 269.74 233.84Q270.496 234.776 271.82800000000003 234.776Q272.67400000000004 234.776 273.37600000000003 234.407Q274.07800000000003 234.038 274.546 233.21L275.788 233.948Q275.194 235.01 274.177 235.613Q273.16 236.216 271.82800000000003 236.216Q270.478 236.216 269.488 235.595Q268.498 234.974 267.95799999999997 233.894Q267.418 232.814 267.418 231.41Z M277.03 231.41Q277.03 229.952 277.57899999999995 228.872Q278.128 227.792 279.12699999999995 227.198Q280.126 226.604 281.45799999999997 226.604Q282.75399999999996 226.604 283.726 227.18Q284.698 227.756 285.23799999999994 228.8Q285.77799999999996 229.844 285.77799999999996 231.23V231.914H277.912V230.564H284.914L284.248 231.05Q284.248 230.132 283.897 229.448Q283.546 228.764 282.92499999999995 228.38600000000002Q282.304 228.008 281.45799999999997 228.008Q280.57599999999996 228.008 279.919 228.42200000000003Q279.262 228.836 278.911 229.574Q278.56 230.312 278.56 231.302V231.41Q278.56 232.994 279.33399999999995 233.90300000000002Q280.10799999999995 234.812 281.512 234.812Q282.448 234.812 283.105 234.43400000000003Q283.762 234.056 284.212 233.3L285.45399999999995 234.038Q284.78799999999995 235.136 283.77099999999996 235.676Q282.75399999999996 236.216 281.476 236.216Q280.126 236.216 279.12699999999995 235.622Q278.128 235.028 277.57899999999995 233.94799999999998Q277.03 232.868 277.03 231.41Z M292.906 233.606Q292.906 233.066 292.53700000000003 232.74200000000002Q292.168 232.418 291.25 232.202L290.11600000000004 231.932Q288.658 231.572 287.983 230.924Q287.308 230.276 287.308 229.214Q287.308 228.404 287.731 227.81900000000002Q288.154 227.234 288.928 226.919Q289.702 226.604 290.764 226.604Q292.11400000000003 226.604 293.068 227.18900000000002Q294.022 227.774 294.418 228.836L293.10400000000004 229.394Q292.81600000000003 228.656 292.168 228.332Q291.52000000000004 228.008 290.78200000000004 228.008Q289.846 228.008 289.351 228.323Q288.856 228.638 288.856 229.196Q288.856 229.772 289.26099999999997 230.03300000000002Q289.666 230.294 290.548 230.51L291.682 230.78Q293.122 231.122 293.788 231.79700000000003Q294.454 232.472 294.454 233.588Q294.454 234.794 293.51800000000003 235.505Q292.582 236.216 290.98 236.216Q289.468 236.216 288.39700000000005 235.559Q287.326 234.902 286.966 233.75L288.31600000000003 233.246Q288.60400000000004 234.02 289.27000000000004 234.416Q289.93600000000004 234.812 290.92600000000004 234.812Q291.898 234.812 292.40200000000004 234.506Q292.906 234.2 292.906 233.606Z M306.568 230.582Q306.568 229.25 305.99199999999996 228.62900000000002Q305.416 228.008 304.336 228.008Q303.598 228.008 302.95000000000005 228.35000000000002Q302.302 228.692 301.834 229.34L300.682 228.476Q301.366 227.576 302.32 227.09Q303.274 226.604 304.372 226.604Q306.1 226.604 307.09900000000005 227.558Q308.098 228.512 308.098 230.546V236.0H306.568ZM300.41200000000003 233.498Q300.41200000000003 232.112 301.42 231.31099999999998Q302.428 230.51 304.12 230.51H306.91V231.86H304.192Q303.112 231.86 302.52700000000004 232.265Q301.942 232.67 301.942 233.444Q301.942 234.11 302.374 234.479Q302.806 234.848 303.616 234.848Q304.444 234.848 305.11 234.461Q305.776 234.074 306.172 233.417Q306.568 232.76 306.568 231.95L307.252 232.364Q307.252 233.48 306.74800000000005 234.353Q306.244 235.226 305.362 235.721Q304.48 236.216 303.346 236.216Q302.446 236.216 301.789 235.883Q301.132 235.55 300.77200000000005 234.938Q300.41200000000003 234.326 300.41200000000003 233.498Z M310.438 226.82H311.96799999999996V229.466H311.392Q311.734 228.13400000000001 312.66099999999994 227.36900000000003Q313.58799999999997 226.604 314.81199999999995 226.604Q318.15999999999997 226.604 318.15999999999997 230.672V236.0H316.63V230.672Q316.63 229.304 316.09 228.656Q315.54999999999995 228.008 314.452 228.008Q313.74999999999994 228.008 313.183 228.38600000000002Q312.616 228.764 312.292 229.43Q311.96799999999996 230.096 311.96799999999996 230.96V236.0H310.438Z M319.996 231.392Q319.996 229.934 320.509 228.863Q321.022 227.792 321.94899999999996 227.198Q322.876 226.604 324.118 226.604Q325.39599999999996 226.604 326.36799999999994 227.33300000000003Q327.34 228.062 327.736 229.448H327.214V222.806H328.74399999999997V236.0H327.214V233.372H327.736Q327.34 234.758 326.36799999999994 235.48700000000002Q325.39599999999996 236.216 324.118 236.216Q322.876 236.216 321.94899999999996 235.622Q321.022 235.028 320.509 233.939Q319.996 232.85 319.996 231.392ZM321.56199999999995 231.392Q321.56199999999995 232.364 321.88599999999997 233.12900000000002Q322.21 233.894 322.84 234.335Q323.46999999999997 234.776 324.352 234.776Q325.252 234.776 325.9 234.353Q326.548 233.93 326.89 233.16500000000002Q327.23199999999997 232.4 327.23199999999997 231.392Q327.23199999999997 230.402 326.89 229.65499999999997Q326.548 228.908 325.9 228.476Q325.252 228.044 324.352 228.044Q323.46999999999997 228.044 322.84 228.485Q322.21 228.926 321.88599999999997 229.682Q321.56199999999995 230.438 321.56199999999995 231.392Z M335.746 222.806H337.27599999999995V236.0H335.746Z M339.18399999999997 231.41Q339.18399999999997 229.952 339.73299999999995 228.872Q340.282 227.792 341.28099999999995 227.198Q342.28 226.604 343.61199999999997 226.604Q344.90799999999996 226.604 345.88 227.18Q346.852 227.756 347.39199999999994 228.8Q347.93199999999996 229.844 347.93199999999996 231.23V231.914H340.066V230.564H347.068L346.402 231.05Q346.402 230.132 346.051 229.448Q345.7 228.764 345.07899999999995 228.38600000000002Q344.45799999999997 228.008 343.61199999999997 228.008Q342.72999999999996 228.008 342.073 228.42200000000003Q341.416 228.836 341.065 229.574Q340.714 230.312 340.714 231.302V231.41Q340.714 232.994 341.48799999999994 233.90300000000002Q342.26199999999994 234.812 343.666 234.812Q344.602 234.812 345.259 234.43400000000003Q345.916 234.056 346.366 233.3L347.60799999999995 234.038Q346.94199999999995 235.136 345.92499999999995 235.676Q344.90799999999996 236.216 343.63 236.216Q342.28 236.216 341.28099999999995 235.622Q340.282 235.028 339.73299999999995 233.94799999999998Q339.18399999999997 232.868 339.18399999999997 231.41Z M355.50999999999993 230.582Q355.50999999999993 229.25 354.93399999999997 228.62900000000002Q354.35799999999995 228.008 353.27799999999996 228.008Q352.53999999999996 228.008 351.89199999999994 228.35000000000002Q351.24399999999997 228.692 350.77599999999995 229.34L349.62399999999997 228.476Q350.30799999999994 227.576 351.26199999999994 227.09Q352.21599999999995 226.604 353.31399999999996 226.604Q355.042 226.604 356.04099999999994 227.558Q357.03999999999996 228.512 357.03999999999996 230.546V236.0H355.50999999999993ZM349.354 233.498Q349.354 232.112 350.36199999999997 231.31099999999998Q351.36999999999995 230.51 353.06199999999995 230.51H355.852V231.86H353.13399999999996Q352.054 231.86 351.46899999999994 232.265Q350.88399999999996 232.67 350.88399999999996 233.444Q350.88399999999996 234.11 351.3159999999999 234.479Q351.74799999999993 234.848 352.55799999999994 234.848Q353.38599999999997 234.848 354.05199999999996 234.461Q354.71799999999996 234.074 355.1139999999999 233.417Q355.50999999999993 232.76 355.50999999999993 231.95L356.19399999999996 232.364Q356.19399999999996 233.48 355.68999999999994 234.353Q355.186 235.226 354.304 235.721Q353.42199999999997 236.216 352.28799999999995 236.216Q351.388 236.216 350.731 235.883Q350.07399999999996 235.55 349.71399999999994 234.938Q349.354 234.326 349.354 233.498Z M359.38 226.82H360.90999999999997V229.466H360.334Q360.532 228.656 360.991 228.026Q361.45 227.39600000000002 362.08 227.02700000000002Q362.71 226.65800000000002 363.42999999999995 226.65800000000002Q363.628 226.65800000000002 363.817 226.676Q364.006 226.694 364.20399999999995 226.748V228.26Q363.89799999999997 228.188 363.448 228.188Q362.69199999999995 228.188 362.116 228.539Q361.53999999999996 228.89 361.22499999999997 229.51999999999998Q360.90999999999997 230.15 360.90999999999997 231.014V236.0H359.38Z M365.914 226.82H367.44399999999996V229.466H366.868Q367.21 228.13400000000001 368.13699999999994 227.36900000000003Q369.06399999999996 226.604 370.28799999999995 226.604Q373.63599999999997 226.604 373.63599999999997 230.672V236.0H372.106V230.672Q372.106 229.304 371.566 228.656Q371.02599999999995 228.008 369.928 228.008Q369.22599999999994 228.008 368.659 228.38600000000002Q368.092 228.764 367.768 229.43Q367.44399999999996 230.096 367.44399999999996 230.96V236.0H365.914Z M377.506 236.0H375.976V226.82H377.506ZM375.742 224.102Q375.742 223.63400000000001 376.021 223.364Q376.3 223.094 376.75 223.094Q377.218 223.094 377.488 223.364Q377.758 223.63400000000001 377.758 224.102Q377.758 224.552 377.488 224.83100000000002Q377.218 225.11 376.75 225.11Q376.3 225.11 376.021 224.83100000000002Q375.742 224.552 375.742 224.102Z M379.918 226.82H381.448V229.466H380.872Q381.214 228.13400000000001 382.14099999999996 227.36900000000003Q383.068 226.604 384.292 226.604Q387.64 226.604 387.64 230.672V236.0H386.11V230.672Q386.11 229.304 385.57 228.656Q385.03 228.008 383.932 228.008Q383.22999999999996 228.008 382.663 228.38600000000002Q382.096 228.764 381.772 229.43Q381.448 230.096 381.448 230.96V236.0H379.918Z M396.694 235.856V233.246H397.144Q396.748 234.488 395.812 235.18099999999998Q394.876 235.874 393.598 235.874Q392.356 235.874 391.429 235.298Q390.502 234.722 389.98900000000003 233.687Q389.476 232.652 389.476 231.248Q389.476 229.826 389.98900000000003 228.791Q390.502 227.756 391.429 227.18Q392.356 226.604 393.598 226.604Q394.876 226.604 395.84799999999996 227.33300000000003Q396.82 228.062 397.216 229.448H396.694V226.82H398.224V235.676Q398.224 237.26 397.68399999999997 238.25900000000001Q397.144 239.258 396.20799999999997 239.726Q395.272 240.194 394.066 240.194Q392.752 240.194 391.672 239.618Q390.592 239.042 389.872 237.944L391.132 237.206Q391.6 237.944 392.356 238.349Q393.112 238.754 394.048 238.754Q395.254 238.754 395.97400000000005 238.06099999999998Q396.694 237.368 396.694 235.856ZM393.832 228.044Q392.95 228.044 392.32 228.45800000000003Q391.69 228.872 391.366 229.601Q391.042 230.33 391.042 231.248Q391.042 232.148 391.366 232.877Q391.69 233.606 392.32 234.01999999999998Q392.95 234.434 393.832 234.434Q394.732 234.434 395.38 234.029Q396.028 233.624 396.37 232.904Q396.712 232.184 396.712 231.248Q396.712 230.294 396.37 229.574Q396.028 228.854 395.38 228.449Q394.732 228.044 393.832 228.044Z" fill="#6A7280"/>
<path d="M52.426 259.606Q52.426 259.066 52.057 258.74199999999996Q51.688 258.418 50.769999999999996 258.202L49.636 257.932Q48.178 257.572 47.503 256.924Q46.828 256.276 46.828 255.214Q46.828 254.404 47.251000000000005 253.81900000000002Q47.674 253.234 48.448 252.919Q49.222 252.604 50.284 252.604Q51.634 252.604 52.588 253.18900000000002Q53.542 253.774 53.938 254.836L52.624 255.394Q52.336 254.656 51.688 254.332Q51.04 254.008 50.302 254.008Q49.366 254.008 48.870999999999995 254.323Q48.376 254.638 48.376 255.196Q48.376 255.772 48.781 256.033Q49.186 256.294 50.068 256.51L51.202 256.78Q52.641999999999996 257.122 53.30799999999999 257.797Q53.974 258.472 53.974 259.588Q53.974 260.794 53.038 261.505Q52.102 262.216 50.5 262.216Q48.988 262.216 47.917 261.55899999999997Q46.846 260.902 46.486 259.75L47.836 259.246Q48.124 260.02 48.790000000000006 260.416Q49.456 260.812 50.446 260.812Q51.418 260.812 51.922 260.506Q52.426 260.2 52.426 259.606Z M55.324 257.41Q55.324 256.006 55.864 254.91699999999997Q56.403999999999996 253.828 57.394 253.216Q58.384 252.604 59.734 252.604Q61.084 252.604 62.074 253.216Q63.064 253.828 63.604 254.91699999999997Q64.144 256.006 64.144 257.41Q64.144 258.814 63.604 259.894Q63.064 260.974 62.074 261.595Q61.084 262.216 59.734 262.216Q58.384 262.216 57.394 261.595Q56.403999999999996 260.974 55.864 259.894Q55.324 258.814 55.324 257.41ZM56.89 257.41Q56.89 258.4 57.232 259.16499999999996Q57.574 259.93 58.212999999999994 260.353Q58.852 260.776 59.734 260.776Q60.634 260.776 61.263999999999996 260.353Q61.894 259.93 62.236000000000004 259.16499999999996Q62.578 258.4 62.578 257.41Q62.578 256.402 62.236000000000004 255.646Q61.894 254.89 61.263999999999996 254.46699999999998Q60.634 254.044 59.734 254.044Q58.852 254.044 58.212999999999994 254.46699999999998Q57.574 254.89 57.232 255.646Q56.89 256.402 56.89 257.41Z M66.052 252.82H67.58200000000001V255.466H67.006Q67.25800000000001 254.53 67.762 253.89100000000002Q68.266 253.252 68.932 252.928Q69.598 252.604 70.354 252.604Q71.578 252.604 72.352 253.279Q73.126 253.954 73.378 255.34H72.82000000000001Q73.23400000000001 254.008 74.197 253.306Q75.16 252.604 76.27600000000001 252.604Q77.878 252.604 78.652 253.63Q79.426 254.656 79.426 256.672V262.0H77.896V256.672Q77.896 255.304 77.38300000000001 254.656Q76.87 254.008 75.86200000000001 254.008Q75.25 254.008 74.71000000000001 254.377Q74.17 254.746 73.837 255.394Q73.504 256.042 73.504 256.888V262.0H71.974V256.672Q71.974 255.304 71.47 254.656Q70.96600000000001 254.008 69.94 254.008Q69.328 254.008 68.78800000000001 254.38600000000002Q68.248 254.764 67.915 255.421Q67.58200000000001 256.078 67.58200000000001 256.924V262.0H66.052Z M81.262 257.41Q81.262 255.952 81.811 254.872Q82.36 253.792 83.35900000000001 253.198Q84.358 252.604 85.69 252.604Q86.986 252.604 87.958 253.18Q88.93 253.756 89.47 254.8Q90.01 255.844 90.01 257.23V257.914H82.144V256.564H89.146L88.48 257.05Q88.48 256.132 88.129 255.448Q87.778 254.764 87.15700000000001 254.38600000000002Q86.536 254.008 85.69 254.008Q84.808 254.008 84.15100000000001 254.42200000000003Q83.494 254.836 83.143 255.574Q82.792 256.312 82.792 257.302V257.41Q82.792 258.994 83.566 259.903Q84.34 260.812 85.744 260.812Q86.68 260.812 87.337 260.43399999999997Q87.994 260.056 88.444 259.3L89.686 260.038Q89.02 261.136 88.003 261.67600000000004Q86.986 262.216 85.708 262.216Q84.358 262.216 83.35900000000001 261.622Q82.36 261.028 81.811 259.948Q81.262 258.868 81.262 257.41Z M92.61999999999999 259.156V250.516L94.14999999999999 249.994V258.904Q94.14999999999999 259.912 94.50999999999999 260.308Q94.86999999999999 260.704 95.698 260.704Q95.96799999999999 260.704 96.26499999999999 260.659Q96.56199999999998 260.614 96.85 260.542V261.946Q96.50799999999998 262.036 96.112 262.09000000000003Q95.716 262.144 95.356 262.144Q94.49199999999999 262.144 93.88 261.847Q93.26799999999999 261.55 92.94399999999999 260.89300000000003Q92.61999999999999 260.236 92.61999999999999 259.156ZM91.07199999999999 252.82H96.34599999999999V254.206H91.07199999999999Z M98.63199999999999 248.806H100.16199999999999V255.466H99.58599999999998Q99.92799999999998 254.13400000000001 100.85499999999999 253.36900000000003Q101.78199999999998 252.604 103.00599999999999 252.604Q106.35399999999998 252.604 106.35399999999998 256.672V262.0H104.82399999999998V256.672Q104.82399999999998 255.304 104.28399999999999 254.656Q103.74399999999999 254.008 102.64599999999999 254.008Q101.94399999999999 254.008 101.37699999999998 254.38600000000002Q100.80999999999999 254.764 100.48599999999999 255.43Q100.16199999999999 256.096 100.16199999999999 256.96V262.0H98.63199999999999Z M110.224 262.0H108.694V252.82H110.224ZM108.46000000000001 250.102Q108.46000000000001 249.63400000000001 108.739 249.364Q109.018 249.094 109.468 249.094Q109.936 249.094 110.206 249.364Q110.476 249.63400000000001 110.476 250.102Q110.476 250.552 110.206 250.83100000000002Q109.936 251.11 109.468 251.11Q109.018 251.11 108.739 250.83100000000002Q108.46000000000001 250.552 108.46000000000001 250.102Z M112.636 252.82H114.166V255.466H113.58999999999999Q113.93199999999999 254.13400000000001 114.85899999999998 253.36900000000003Q115.78599999999999 252.604 117.00999999999999 252.604Q120.35799999999999 252.604 120.35799999999999 256.672V262.0H118.82799999999999V256.672Q118.82799999999999 255.304 118.28799999999998 254.656Q117.74799999999999 254.008 116.64999999999999 254.008Q115.948 254.008 115.381 254.38600000000002Q114.814 254.764 114.49 255.43Q114.166 256.096 114.166 256.96V262.0H112.636Z M129.41199999999998 261.856V259.246H129.862Q129.46599999999998 260.488 128.52999999999997 261.18100000000004Q127.594 261.874 126.31599999999999 261.874Q125.07399999999998 261.874 124.14699999999999 261.298Q123.21999999999998 260.722 122.707 259.687Q122.19399999999999 258.652 122.19399999999999 257.248Q122.19399999999999 255.826 122.707 254.791Q123.21999999999998 253.756 124.14699999999999 253.18Q125.07399999999998 252.604 126.31599999999999 252.604Q127.594 252.604 128.56599999999997 253.33300000000003Q129.53799999999998 254.062 129.934 255.448H129.41199999999998V252.82H130.94199999999998V261.676Q130.94199999999998 263.26 130.402 264.259Q129.862 265.258 128.926 265.726Q127.99 266.194 126.78399999999999 266.194Q125.46999999999998 266.194 124.38999999999999 265.618Q123.30999999999999 265.042 122.58999999999999 263.944L123.85 263.206Q124.31799999999998 263.944 125.07399999999998 264.34900000000005Q125.82999999999998 264.754 126.76599999999999 264.754Q127.972 264.754 128.69199999999998 264.06100000000004Q129.41199999999998 263.368 129.41199999999998 261.856ZM126.54999999999998 254.044Q125.66799999999999 254.044 125.03799999999998 254.45800000000003Q124.40799999999999 254.872 124.08399999999999 255.601Q123.75999999999999 256.33 123.75999999999999 257.248Q123.75999999999999 258.148 124.08399999999999 258.877Q124.40799999999999 259.606 125.03799999999998 260.02Q125.66799999999999 260.434 126.54999999999998 260.434Q127.44999999999999 260.434 128.09799999999998 260.029Q128.74599999999998 259.624 129.08799999999997 258.904Q129.42999999999998 258.184 129.42999999999998 257.248Q129.42999999999998 256.294 129.08799999999997 255.574Q128.74599999999998 254.854 128.09799999999998 254.449Q127.44999999999999 254.044 126.54999999999998 254.044Z M137.944 252.82H139.474V255.466H138.898Q139.24 254.13400000000001 140.167 253.36900000000003Q141.094 252.604 142.318 252.604Q145.666 252.604 145.666 256.672V262.0H144.136V256.672Q144.136 255.304 143.596 254.656Q143.056 254.008 141.958 254.008Q141.256 254.008 140.689 254.38600000000002Q140.12199999999999 254.764 139.798 255.43Q139.474 256.096 139.474 256.96V262.0H137.944Z M147.502 257.41Q147.502 255.952 148.05100000000002 254.872Q148.60000000000002 253.792 149.59900000000002 253.198Q150.598 252.604 151.93 252.604Q153.226 252.604 154.198 253.18Q155.17000000000002 253.756 155.71 254.8Q156.25 255.844 156.25 257.23V257.914H148.38400000000001V256.564H155.38600000000002L154.72 257.05Q154.72 256.132 154.369 255.448Q154.018 254.764 153.397 254.38600000000002Q152.776 254.008 151.93 254.008Q151.048 254.008 150.39100000000002 254.42200000000003Q149.734 254.836 149.383 255.574Q149.032 256.312 149.032 257.302V257.41Q149.032 258.994 149.806 259.903Q150.58 260.812 151.984 260.812Q152.92000000000002 260.812 153.577 260.43399999999997Q154.234 260.056 154.684 259.3L155.92600000000002 260.038Q155.26000000000002 261.136 154.243 261.67600000000004Q153.226 262.216 151.948 262.216Q150.598 262.216 149.59900000000002 261.622Q148.60000000000002 261.028 148.05100000000002 259.948Q147.502 258.868 147.502 257.41Z M163.288 252.82H164.89L167.554 261.352H166.69L169.35399999999998 252.82H170.902L167.932 262.0H166.24L163.612 253.684H164.512L161.938 262.0H160.246L157.276 252.82H158.914L161.56 261.352H160.66Z M176.518 257.41Q176.518 255.952 177.067 254.872Q177.616 253.792 178.615 253.198Q179.614 252.604 180.946 252.604Q182.242 252.604 183.214 253.18Q184.186 253.756 184.726 254.8Q185.266 255.844 185.266 257.23V257.914H177.4V256.564H184.402L183.736 257.05Q183.736 256.132 183.385 255.448Q183.034 254.764 182.413 254.38600000000002Q181.792 254.008 180.946 254.008Q180.064 254.008 179.40699999999998 254.42200000000003Q178.75 254.836 178.399 255.574Q178.048 256.312 178.048 257.302V257.41Q178.048 258.994 178.822 259.903Q179.596 260.812 181.0 260.812Q181.936 260.812 182.59300000000002 260.43399999999997Q183.25 260.056 183.7 259.3L184.942 260.038Q184.276 261.136 183.25900000000001 261.67600000000004Q182.242 262.216 180.964 262.216Q179.614 262.216 178.615 261.622Q177.616 261.028 177.067 259.948Q176.518 258.868 176.518 257.41Z M191.206 261.01H190.558L193.78 252.82H195.36399999999998L191.63799999999998 262.0H190.018L186.292 252.82H187.98399999999998Z M196.39 257.41Q196.39 255.952 196.939 254.872Q197.488 253.792 198.487 253.198Q199.486 252.604 200.81799999999998 252.604Q202.11399999999998 252.604 203.08599999999998 253.18Q204.058 253.756 204.59799999999998 254.8Q205.13799999999998 255.844 205.13799999999998 257.23V257.914H197.272V256.564H204.274L203.60799999999998 257.05Q203.60799999999998 256.132 203.25699999999998 255.448Q202.90599999999998 254.764 202.28499999999997 254.38600000000002Q201.664 254.008 200.81799999999998 254.008Q199.93599999999998 254.008 199.279 254.42200000000003Q198.62199999999999 254.836 198.271 255.574Q197.92 256.312 197.92 257.302V257.41Q197.92 258.994 198.694 259.903Q199.468 260.812 200.87199999999999 260.812Q201.808 260.812 202.46499999999997 260.43399999999997Q203.12199999999999 260.056 203.57199999999997 259.3L204.814 260.038Q204.148 261.136 203.13099999999997 261.67600000000004Q202.11399999999998 262.216 200.83599999999998 262.216Q199.486 262.216 198.487 261.622Q197.488 261.028 196.939 259.948Q196.39 258.868 196.39 257.41Z M207.04599999999996 252.82H208.57599999999996V255.466H207.99999999999997Q208.19799999999998 254.656 208.65699999999998 254.026Q209.11599999999999 253.39600000000002 209.74599999999998 253.02700000000002Q210.37599999999998 252.65800000000002 211.09599999999998 252.65800000000002Q211.29399999999998 252.65800000000002 211.48299999999998 252.676Q211.67199999999997 252.694 211.86999999999998 252.748V254.26Q211.56399999999996 254.188 211.11399999999998 254.188Q210.35799999999998 254.188 209.78199999999998 254.539Q209.20599999999996 254.89 208.89099999999996 255.51999999999998Q208.57599999999996 256.15 208.57599999999996 257.014V262.0H207.04599999999996Z M213.256 264.646Q213.54399999999998 264.7 213.814 264.727Q214.084 264.754 214.37199999999999 264.754Q214.912 264.754 215.25400000000002 264.49300000000005Q215.596 264.232 215.884 263.476L216.658 261.478L216.82 261.388L220.186 252.82H221.76999999999998L217.30599999999998 263.854Q216.982 264.664 216.60399999999998 265.18600000000004Q216.226 265.708 215.713 265.951Q215.2 266.194 214.444 266.194Q214.174 266.194 213.868 266.16700000000003Q213.56199999999998 266.14 213.256 266.068ZM217.774 261.406 216.73 262.774 212.698 252.82H214.39Z M227.386 257.392Q227.386 255.934 227.899 254.863Q228.412 253.792 229.339 253.198Q230.266 252.604 231.508 252.604Q232.786 252.604 233.75799999999998 253.33300000000003Q234.73 254.062 235.126 255.448H234.60399999999998V248.806H236.134V262.0H234.60399999999998V259.372H235.126Q234.73 260.758 233.75799999999998 261.48699999999997Q232.786 262.216 231.508 262.216Q230.266 262.216 229.339 261.622Q228.412 261.028 227.899 259.939Q227.386 258.85 227.386 257.392ZM228.952 257.392Q228.952 258.364 229.276 259.129Q229.6 259.894 230.23 260.33500000000004Q230.85999999999999 260.776 231.742 260.776Q232.642 260.776 233.29 260.353Q233.938 259.93 234.27999999999997 259.16499999999996Q234.62199999999999 258.4 234.62199999999999 257.392Q234.62199999999999 256.402 234.27999999999997 255.65499999999997Q233.938 254.908 233.29 254.476Q232.642 254.044 231.742 254.044Q230.85999999999999 254.044 230.23 254.485Q229.6 254.926 229.276 255.682Q228.952 256.438 228.952 257.392Z M244.21599999999998 256.582Q244.21599999999998 255.25 243.64 254.62900000000002Q243.06399999999996 254.008 241.98399999999998 254.008Q241.24599999999998 254.008 240.59799999999998 254.35000000000002Q239.95 254.692 239.48199999999997 255.34L238.32999999999998 254.476Q239.01399999999998 253.576 239.96799999999996 253.09Q240.92199999999997 252.604 242.01999999999998 252.604Q243.74799999999996 252.604 244.74699999999996 253.558Q245.74599999999998 254.512 245.74599999999998 256.546V262.0H244.21599999999998ZM238.05999999999997 259.498Q238.05999999999997 258.112 239.06799999999998 257.31100000000004Q240.07599999999996 256.51 241.76799999999997 256.51H244.55799999999996V257.86H241.83999999999997Q240.75999999999996 257.86 240.17499999999995 258.265Q239.58999999999997 258.67 239.58999999999997 259.444Q239.58999999999997 260.11 240.022 260.47900000000004Q240.45399999999998 260.848 241.26399999999998 260.848Q242.09199999999998 260.848 242.75799999999998 260.461Q243.42399999999998 260.074 243.82 259.41700000000003Q244.21599999999998 258.76 244.21599999999998 257.95L244.89999999999998 258.364Q244.89999999999998 259.48 244.39599999999996 260.353Q243.89199999999997 261.226 243.01 261.721Q242.128 262.216 240.99399999999997 262.216Q240.09399999999997 262.216 239.43699999999995 261.88300000000004Q238.77999999999997 261.55 238.41999999999996 260.938Q238.05999999999997 260.326 238.05999999999997 259.498Z M247.762 264.646Q248.04999999999998 264.7 248.32 264.727Q248.59 264.754 248.878 264.754Q249.418 264.754 249.76 264.49300000000005Q250.102 264.232 250.39 263.476L251.164 261.478L251.326 261.388L254.692 252.82H256.276L251.81199999999998 263.854Q251.488 264.664 251.11 265.18600000000004Q250.732 265.708 250.219 265.951Q249.706 266.194 248.95 266.194Q248.68 266.194 248.374 266.16700000000003Q248.06799999999998 266.14 247.762 266.068ZM252.28 261.406 251.236 262.774 247.204 252.82H248.896Z M257.86 261.208Q257.86 260.74 258.139 260.47Q258.418 260.2 258.868 260.2Q259.336 260.2 259.606 260.47Q259.87600000000003 260.74 259.87600000000003 261.208Q259.87600000000003 261.658 259.606 261.937Q259.336 262.216 258.868 262.216Q258.418 262.216 258.139 261.937Q257.86 261.658 257.86 261.208Z" fill="#6A7280"/>
<circle cx="730" cy="150" r="88" fill="#F1F3F7" opacity="0.55"/>
<circle cx="730" cy="150" r="78" fill="url(#ring_light)"/>
<circle cx="730" cy="150" r="71" fill="#FFFFFF"/>
<path d="M714.0039999999999 168.476Q715.896 168.906 717.788 169.164Q719.68 169.422 721.314 169.422Q726.044 169.422 728.237 167.18599999999998Q730.43 164.95 730.43 159.876V118.85400000000001H742.814V160.392Q742.814 170.196 737.654 175.7Q732.4939999999999 181.204 723.034 181.204Q720.8839999999999 181.204 718.6909999999999 180.90300000000002Q716.4979999999999 180.602 714.0039999999999 180.086Z" fill="#1B72F2"/>
</svg>