<svg width="880" height="176" viewBox="0 0 880 176" xmlns="http://www.w3.org/2000/svg" font-family="One UI Sans"><defs><filter id="sh_light" x="-20%" y="-20%" width="140%" height="160%"><feDropShadow dx="0" dy="6" stdDeviation="10" flood-color="#0B1B3A" flood-opacity="0.08"/></filter></defs>
<path d="M24.0,6 h230.66666666666669 a24,24 0 0 1 24,24 v116 a24,24 0 0 1 -24,24 h-230.66666666666669 a24,24 0 0 1 -24,-24 v-116 a24,24 0 0 1 24,-24 z" fill="#FFFFFF" stroke="#E6E9EE" filter="url(#sh_light)"/>
<circle cx="139.33333333333334" cy="58" r="28" fill="#EAF1FF"/>
<g transform="translate(125.33,44.00) scale(0.0292)"><path d="M280,680L680,680Q697,680 708.5,668.5Q720,657 720,640Q720,623 708.5,611.5Q697,600 680,600L280,600Q263,600 251.5,611.5Q240,623 240,640Q240,657 251.5,668.5Q263,680 280,680ZM280,520L360,520Q377,520 388.5,508.5Q400,497 400,480L400,320Q400,303 388.5,291.5Q377,280 360,280L280,280Q263,280 251.5,291.5Q240,303 240,320L240,480Q240,497 251.5,508.5Q263,520 280,520ZM800,840L160,840Q127,840 103.5,816.5Q80,793 80,760L80,200Q80,167 103.5,143.5Q127,120 160,120L428,120Q446,120 455.5,135.5Q465,151 457,168Q449,190 444.5,213Q440,236 440,260Q440,313 459,359Q478,405 512,440L510,440Q493,440 481.5,451.5Q470,463 470,480Q470,497 481.5,508.5Q493,520 510,520L700,520Q700,520 700,520Q700,520 700,520Q735,520 769,511Q803,502 833,484Q849,474 864.5,482Q880,490 880,507L880,760Q880,793 856.5,816.5Q833,840 800,840ZM700,480Q700,388 636,324Q572,260 480,260Q572,260 636,196Q700,132 700,40Q700,132 764,196Q828,260 920,260Q828,260 764,324Q700,388 700,480Z" fill="#387AFF" /></g>
<path d="M73.21333333333334 98.42H76.09333333333335V112.0H73.21333333333334ZM68.91333333333334 97.78H80.39333333333335V100.48H68.91333333333334Z M81.61333333333334 106.84Q81.61333333333334 105.18 82.27333333333334 103.95Q82.93333333333334 102.72 84.11333333333334 102.03999999999999Q85.29333333333335 101.36 86.85333333333334 101.36Q88.49333333333334 101.36 89.61333333333334 102.06Q90.73333333333335 102.76 91.32333333333335 103.95Q91.91333333333334 105.14 91.91333333333334 106.64V107.54H83.05333333333334V105.7H90.33333333333334L89.19333333333334 106.36Q89.19333333333334 105.5 88.91333333333334 104.87Q88.63333333333334 104.24 88.12333333333333 103.91Q87.61333333333334 103.58 86.89333333333335 103.58Q86.17333333333335 103.58 85.61333333333334 103.93Q85.05333333333334 104.28 84.74333333333334 104.94Q84.43333333333334 105.6 84.43333333333334 106.54V107.0Q84.43333333333334 108.38 85.12333333333333 109.13Q85.81333333333335 109.88 87.05333333333334 109.88Q87.79333333333335 109.88 88.35333333333335 109.58Q88.91333333333334 109.28 89.33333333333334 108.68L91.43333333333334 109.98Q90.69333333333334 111.1 89.53333333333335 111.69Q88.37333333333335 112.28 86.95333333333335 112.28Q85.41333333333334 112.28 84.20333333333335 111.63Q82.99333333333334 110.98 82.30333333333334 109.77000000000001Q81.61333333333334 108.56 81.61333333333334 106.84Z M93.19333333333334 106.82Q93.19333333333334 105.2 93.84333333333333 103.97Q94.49333333333334 102.74 95.66333333333334 102.05Q96.83333333333334 101.36 98.39333333333335 101.36Q99.89333333333335 101.36 101.04333333333335 102.03Q102.19333333333334 102.7 102.85333333333334 104.08L100.51333333333334 105.28Q100.17333333333335 104.56 99.64333333333335 104.24000000000001Q99.11333333333334 103.92 98.39333333333335 103.92Q97.67333333333335 103.92 97.14333333333335 104.28Q96.61333333333334 104.64 96.32333333333335 105.28999999999999Q96.03333333333335 105.94 96.03333333333335 106.82Q96.03333333333335 108.16 96.67333333333335 108.94Q97.31333333333335 109.72 98.39333333333335 109.72Q99.13333333333334 109.72 99.72333333333334 109.38Q100.31333333333335 109.04 100.71333333333334 108.3L103.05333333333334 109.5Q102.37333333333333 110.84 101.16333333333334 111.56Q99.95333333333335 112.28 98.39333333333335 112.28Q96.83333333333334 112.28 95.66333333333334 111.58Q94.49333333333334 110.88 93.84333333333333 109.65Q93.19333333333334 108.42 93.19333333333334 106.82Z M104.63333333333334 97.34H107.43333333333334V104.46H106.77333333333334Q107.13333333333334 103.03999999999999 108.12333333333333 102.19999999999999Q109.11333333333334 101.36 110.41333333333334 101.36Q114.03333333333335 101.36 114.03333333333335 105.9V112.0H111.23333333333333V106.1Q111.23333333333333 104.98 110.78333333333333 104.44Q110.33333333333334 103.9 109.41333333333334 103.9Q108.83333333333334 103.9 108.38333333333334 104.2Q107.93333333333334 104.5 107.68333333333334 105.06Q107.43333333333334 105.62 107.43333333333334 106.36V112.0H104.63333333333334Z M120.65333333333335 109.32Q121.09333333333335 109.42 121.53333333333335 109.48Q121.97333333333334 109.54 122.35333333333335 109.54Q123.45333333333335 109.54 123.96333333333334 109.02000000000001Q124.47333333333334 108.5 124.47333333333334 107.32V97.78H127.35333333333335V107.44Q127.35333333333335 109.72 126.15333333333335 111.0Q124.95333333333335 112.28 122.75333333333334 112.28Q122.25333333333334 112.28 121.74333333333334 112.21000000000001Q121.23333333333335 112.14 120.65333333333335 112.02Z M129.37333333333333 106.82Q129.37333333333333 105.2 130.02333333333334 103.97Q130.67333333333335 102.74 131.84333333333336 102.05Q133.01333333333335 101.36 134.57333333333335 101.36Q136.15333333333334 101.36 137.32333333333332 102.05Q138.49333333333334 102.74 139.13333333333333 103.97Q139.77333333333334 105.2 139.77333333333334 106.82Q139.77333333333334 108.42 139.13333333333333 109.65Q138.49333333333334 110.88 137.32333333333332 111.58Q136.15333333333334 112.28 134.57333333333335 112.28Q133.01333333333335 112.28 131.84333333333336 111.58Q130.67333333333335 110.88 130.02333333333334 109.65Q129.37333333333333 108.42 129.37333333333333 106.82ZM132.21333333333334 106.82Q132.21333333333334 107.68 132.50333333333333 108.34Q132.79333333333335 109.0 133.32333333333335 109.36Q133.85333333333335 109.72 134.57333333333335 109.72Q135.31333333333336 109.72 135.83333333333337 109.36Q136.35333333333335 109.0 136.64333333333335 108.34Q136.93333333333334 107.68 136.93333333333334 106.82Q136.93333333333334 105.94 136.64333333333335 105.28999999999999Q136.35333333333335 104.64 135.83333333333337 104.28Q135.31333333333336 103.92 134.57333333333335 103.92Q133.85333333333335 103.92 133.32333333333335 104.28Q132.79333333333335 104.64 132.50333333333333 105.28999999999999Q132.21333333333334 105.94 132.21333333333334 106.82Z M141.47333333333336 107.74V101.64H144.27333333333337V107.54Q144.27333333333337 108.66 144.72333333333336 109.19999999999999Q145.17333333333335 109.74 146.05333333333334 109.74Q146.65333333333336 109.74 147.09333333333336 109.44Q147.53333333333336 109.14 147.78333333333336 108.57Q148.03333333333336 108.0 148.03333333333336 107.28V101.64H150.83333333333334V112.0H148.05333333333334V109.18H148.69333333333336Q148.35333333333335 110.58 147.35333333333335 111.43Q146.35333333333335 112.28 145.07333333333335 112.28Q143.29333333333335 112.28 142.38333333333335 111.14Q141.47333333333336 110.0 141.47333333333336 107.74Z M153.11333333333334 101.64H155.87333333333336V104.46H155.25333333333336Q155.43333333333337 103.68 155.88333333333338 103.0Q156.33333333333337 102.32 157.01333333333338 101.88Q157.69333333333336 101.44 158.49333333333337 101.44Q158.69333333333336 101.44 158.89333333333337 101.46000000000001Q159.09333333333336 101.48 159.29333333333335 101.53999999999999V104.18Q158.87333333333336 104.1 158.41333333333336 104.1Q157.71333333333337 104.1 157.14333333333337 104.4Q156.57333333333335 104.7 156.24333333333334 105.31Q155.91333333333336 105.92 155.91333333333336 106.84V112.0H153.11333333333334Z M160.91333333333333 101.64H163.67333333333335V104.46H163.05333333333334Q163.41333333333333 103.03999999999999 164.40333333333334 102.19999999999999Q165.39333333333335 101.36 166.69333333333333 101.36Q170.31333333333333 101.36 170.31333333333333 105.9V112.0H167.51333333333335V106.1Q167.51333333333335 104.98 167.06333333333333 104.44Q166.61333333333334 103.9 165.69333333333333 103.9Q165.11333333333334 103.9 164.66333333333336 104.2Q164.21333333333334 104.5 163.96333333333334 105.06Q163.71333333333334 105.62 163.71333333333334 106.36V112.0H160.91333333333333Z M178.67333333333335 106.02Q178.67333333333335 104.86 178.15333333333334 104.28999999999999Q177.63333333333333 103.72 176.63333333333333 103.72Q175.97333333333333 103.72 175.40333333333334 104.0Q174.83333333333334 104.28 174.39333333333335 104.84L172.35333333333332 103.48Q173.17333333333335 102.44 174.33333333333334 101.9Q175.49333333333334 101.36 176.93333333333334 101.36Q179.05333333333334 101.36 180.20333333333332 102.52000000000001Q181.35333333333332 103.68 181.35333333333332 105.98V112.0H178.67333333333335ZM172.09333333333333 109.18Q172.09333333333333 107.52 173.26333333333332 106.62Q174.43333333333334 105.72 176.53333333333333 105.72H179.19333333333333V107.56H176.67333333333335Q175.75333333333333 107.56 175.26333333333332 107.9Q174.77333333333334 108.24 174.77333333333334 108.88Q174.77333333333334 109.42 175.13333333333333 109.72Q175.49333333333334 110.02 176.17333333333335 110.02Q176.81333333333333 110.02 177.38333333333333 109.69999999999999Q177.95333333333335 109.38 178.31333333333333 108.78Q178.67333333333335 108.18 178.67333333333335 107.34L179.41333333333333 108.18Q179.41333333333333 109.48 178.86333333333334 110.39Q178.31333333333333 111.3 177.40333333333334 111.78999999999999Q176.49333333333334 112.28 175.39333333333335 112.28Q174.41333333333333 112.28 173.67333333333335 111.91Q172.93333333333334 111.54 172.51333333333332 110.85Q172.09333333333333 110.16 172.09333333333333 109.18Z M183.55333333333334 97.34H186.35333333333335V112.0H183.55333333333334Z M191.43333333333334 112.0H188.63333333333333V101.64H191.43333333333334ZM188.43333333333334 98.7Q188.43333333333334 97.98 188.88333333333333 97.55000000000001Q189.33333333333334 97.12 190.03333333333333 97.12Q190.75333333333333 97.12 191.19333333333333 97.55000000000001Q191.63333333333333 97.98 191.63333333333333 98.7Q191.63333333333333 99.4 191.19333333333333 99.84Q190.75333333333333 100.28 190.03333333333333 100.28Q189.33333333333334 100.28 188.88333333333333 99.84Q188.43333333333334 99.4 188.43333333333334 98.7Z M199.27333333333334 109.1Q199.27333333333334 108.72 199.00333333333333 108.5Q198.73333333333335 108.28 198.05333333333334 108.12L196.67333333333335 107.8Q194.95333333333335 107.4 194.13333333333335 106.61Q193.31333333333336 105.82 193.31333333333336 104.48Q193.31333333333336 103.46 193.85333333333335 102.77Q194.39333333333335 102.08 195.33333333333334 101.72Q196.27333333333334 101.36 197.45333333333335 101.36Q199.03333333333336 101.36 200.23333333333335 102.03Q201.43333333333334 102.7 201.95333333333335 104.02L199.77333333333334 104.84Q199.47333333333336 104.22 198.81333333333336 103.92Q198.15333333333336 103.62 197.49333333333334 103.62Q196.79333333333335 103.62 196.39333333333335 103.85Q195.99333333333334 104.08 195.99333333333334 104.5Q195.99333333333334 104.9 196.27333333333334 105.1Q196.55333333333334 105.3 197.19333333333336 105.46L198.59333333333336 105.78Q200.31333333333336 106.18 201.14333333333337 106.99000000000001Q201.97333333333336 107.8 201.97333333333336 109.14Q201.97333333333336 110.58 200.86333333333334 111.43Q199.75333333333336 112.28 197.77333333333334 112.28Q195.95333333333335 112.28 194.67333333333335 111.53Q193.39333333333335 110.78 192.91333333333336 109.4L195.15333333333336 108.6Q195.47333333333336 109.32 196.15333333333336 109.66Q196.83333333333334 110.0 197.75333333333336 110.0Q198.49333333333334 110.0 198.88333333333333 109.78Q199.27333333333334 109.56 199.27333333333334 109.1Z M204.39333333333335 108.54V99.34L207.19333333333336 98.4V108.08Q207.19333333333336 109.0 207.53333333333336 109.33Q207.87333333333336 109.66 208.57333333333335 109.66Q208.87333333333336 109.66 209.17333333333335 109.62Q209.47333333333336 109.58 209.77333333333334 109.52V111.94Q209.35333333333335 112.06 208.85333333333335 112.12Q208.35333333333335 112.18 207.91333333333336 112.18Q206.87333333333336 112.18 206.08333333333337 111.85Q205.29333333333335 111.52 204.84333333333336 110.72Q204.39333333333335 109.92 204.39333333333335 108.54ZM202.85333333333335 101.64H209.31333333333336V104.12H202.85333333333335Z" fill="#15171C"/>
<path d="M69.87933333333335 128.046H71.29333333333335L76.83733333333335 137.216H76.26333333333335V128.046H77.43933333333335V138.0H76.02533333333335L70.48133333333334 128.83H71.05533333333335V138.0H69.87933333333335Z M79.20333333333335 134.43Q79.20333333333335 133.296 79.63033333333334 132.456Q80.05733333333335 131.61599999999999 80.83433333333335 131.154Q81.61133333333333 130.692 82.64733333333334 130.692Q83.65533333333335 130.692 84.41133333333335 131.14Q85.16733333333335 131.588 85.58733333333333 132.39999999999998Q86.00733333333334 133.212 86.00733333333334 134.29V134.822H79.88933333333334V133.772H85.33533333333334L84.81733333333334 134.15Q84.81733333333334 133.436 84.54433333333334 132.904Q84.27133333333335 132.372 83.78833333333334 132.078Q83.30533333333334 131.784 82.64733333333334 131.784Q81.96133333333334 131.784 81.45033333333333 132.106Q80.93933333333334 132.428 80.66633333333334 133.002Q80.39333333333335 133.576 80.39333333333335 134.346V134.43Q80.39333333333335 135.662 80.99533333333335 136.369Q81.59733333333334 137.076 82.68933333333334 137.076Q83.41733333333335 137.076 83.92833333333334 136.78199999999998Q84.43933333333334 136.488 84.78933333333335 135.9L85.75533333333334 136.474Q85.23733333333334 137.328 84.44633333333334 137.748Q83.65533333333335 138.168 82.66133333333335 138.168Q81.61133333333333 138.168 80.83433333333335 137.70600000000002Q80.05733333333335 137.244 79.63033333333334 136.404Q79.20333333333335 135.564 79.20333333333335 134.43Z M91.48133333333334 130.86H92.72733333333335L94.79933333333334 137.496H94.12733333333334L96.19933333333334 130.86H97.40333333333334L95.09333333333335 138.0H93.77733333333335L91.73333333333335 131.532H92.43333333333334L90.43133333333334 138.0H89.11533333333334L86.80533333333334 130.86H88.07933333333334L90.13733333333334 137.496H89.43733333333334Z M102.65333333333335 136.138Q102.65333333333335 135.718 102.36633333333336 135.466Q102.07933333333335 135.214 101.36533333333334 135.046L100.48333333333335 134.836Q99.34933333333335 134.556 98.82433333333336 134.05200000000002Q98.29933333333335 133.548 98.29933333333335 132.722Q98.29933333333335 132.092 98.62833333333336 131.637Q98.95733333333335 131.182 99.55933333333334 130.937Q100.16133333333335 130.692 100.98733333333334 130.692Q102.03733333333335 130.692 102.77933333333334 131.147Q103.52133333333335 131.602 103.82933333333335 132.428L102.80733333333335 132.862Q102.58333333333334 132.288 102.07933333333335 132.036Q101.57533333333335 131.784 101.00133333333335 131.784Q100.27333333333334 131.784 99.88833333333335 132.029Q99.50333333333334 132.274 99.50333333333334 132.708Q99.50333333333334 133.156 99.81833333333334 133.359Q100.13333333333334 133.562 100.81933333333335 133.73L101.70133333333335 133.94Q102.82133333333334 134.206 103.33933333333334 134.731Q103.85733333333334 135.256 103.85733333333334 136.124Q103.85733333333334 137.062 103.12933333333334 137.615Q102.40133333333334 138.168 101.15533333333335 138.168Q99.97933333333334 138.168 99.14633333333335 137.65699999999998Q98.31333333333335 137.146 98.03333333333335 136.25L99.08333333333334 135.858Q99.30733333333335 136.46 99.82533333333335 136.768Q100.34333333333335 137.076 101.11333333333334 137.076Q101.86933333333334 137.076 102.26133333333334 136.838Q102.65333333333335 136.6 102.65333333333335 136.138Z M105.66333333333336 136.67H107.04933333333335L106.12533333333334 139.848H105.13133333333334Z M112.39733333333335 127.738H113.58733333333335V138.0H112.39733333333335Z M115.07133333333336 134.43Q115.07133333333336 133.296 115.49833333333336 132.456Q115.92533333333336 131.61599999999999 116.70233333333334 131.154Q117.47933333333334 130.692 118.51533333333334 130.692Q119.52333333333335 130.692 120.27933333333335 131.14Q121.03533333333336 131.588 121.45533333333336 132.39999999999998Q121.87533333333334 133.212 121.87533333333334 134.29V134.822H115.75733333333335V133.772H121.20333333333335L120.68533333333335 134.15Q120.68533333333335 133.436 120.41233333333335 132.904Q120.13933333333335 132.372 119.65633333333335 132.078Q119.17333333333335 131.784 118.51533333333334 131.784Q117.82933333333335 131.784 117.31833333333336 132.106Q116.80733333333335 132.428 116.53433333333335 133.002Q116.26133333333335 133.576 116.26133333333335 134.346V134.43Q116.26133333333335 135.662 116.86333333333334 136.369Q117.46533333333335 137.076 118.55733333333335 137.076Q119.28533333333336 137.076 119.79633333333335 136.78199999999998Q120.30733333333335 136.488 120.65733333333336 135.9L121.62333333333335 136.474Q121.10533333333335 137.328 120.31433333333335 137.748Q119.52333333333335 138.168 118.52933333333335 138.168Q117.47933333333334 138.168 116.70233333333334 137.70600000000002Q115.92533333333336 137.244 115.49833333333336 136.404Q115.07133333333336 135.564 115.07133333333336 134.43Z M127.76933333333334 133.786Q127.76933333333334 132.75 127.32133333333334 132.267Q126.87333333333333 131.784 126.03333333333333 131.784Q125.45933333333333 131.784 124.95533333333333 132.05Q124.45133333333334 132.316 124.08733333333333 132.82L123.19133333333333 132.148Q123.72333333333334 131.448 124.46533333333335 131.07Q125.20733333333334 130.692 126.06133333333334 130.692Q127.40533333333333 130.692 128.18233333333333 131.434Q128.95933333333335 132.176 128.95933333333335 133.758V138.0H127.76933333333334ZM122.98133333333334 136.054Q122.98133333333334 134.976 123.76533333333333 134.353Q124.54933333333334 133.73 125.86533333333334 133.73H128.03533333333334V134.78H125.92133333333334Q125.08133333333333 134.78 124.62633333333333 135.095Q124.17133333333334 135.41 124.17133333333334 136.012Q124.17133333333334 136.53 124.50733333333334 136.817Q124.84333333333333 137.104 125.47333333333334 137.104Q126.11733333333333 137.104 126.63533333333334 136.803Q127.15333333333334 136.502 127.46133333333333 135.99099999999999Q127.76933333333334 135.48 127.76933333333334 134.85L128.30133333333333 135.172Q128.30133333333333 136.04 127.90933333333334 136.719Q127.51733333333334 137.398 126.83133333333333 137.78300000000002Q126.14533333333334 138.168 125.26333333333334 138.168Q124.56333333333333 138.168 124.05233333333334 137.909Q123.54133333333334 137.65 123.26133333333334 137.174Q122.98133333333334 136.698 122.98133333333334 136.054Z M131.50733333333335 134.85 135.39933333333335 130.86H136.96733333333336L131.50733333333335 136.418ZM132.89333333333335 133.912 133.92933333333335 133.352 137.05133333333336 138.0H135.60933333333335ZM130.77933333333334 127.738H131.96933333333334V138.0H130.77933333333334Z M142.21733333333333 136.138Q142.21733333333333 135.718 141.93033333333335 135.466Q141.64333333333335 135.214 140.92933333333335 135.046L140.04733333333334 134.836Q138.91333333333333 134.556 138.38833333333332 134.05200000000002Q137.86333333333334 133.548 137.86333333333334 132.722Q137.86333333333334 132.092 138.19233333333335 131.637Q138.52133333333333 131.182 139.12333333333333 130.937Q139.72533333333334 130.692 140.55133333333333 130.692Q141.60133333333334 130.692 142.34333333333336 131.147Q143.08533333333335 131.602 143.39333333333335 132.428L142.37133333333333 132.862Q142.14733333333334 132.288 141.64333333333332 132.036Q141.13933333333333 131.784 140.56533333333334 131.784Q139.83733333333333 131.784 139.45233333333334 132.029Q139.06733333333335 132.274 139.06733333333335 132.708Q139.06733333333335 133.156 139.38233333333335 133.359Q139.69733333333335 133.562 140.38333333333333 133.73L141.26533333333333 133.94Q142.38533333333334 134.206 142.90333333333334 134.731Q143.42133333333334 135.256 143.42133333333334 136.124Q143.42133333333334 137.062 142.69333333333333 137.615Q141.96533333333335 138.168 140.71933333333334 138.168Q139.54333333333335 138.168 138.71033333333332 137.65699999999998Q137.87733333333333 137.146 137.59733333333332 136.25L138.64733333333334 135.858Q138.87133333333333 136.46 139.38933333333333 136.768Q139.90733333333333 137.076 140.67733333333334 137.076Q141.43333333333334 137.076 141.82533333333333 136.838Q142.21733333333333 136.6 142.21733333333333 136.138Z M148.12533333333334 135.704Q148.12533333333334 135.06 148.32833333333335 134.52800000000002Q148.53133333333335 133.996 149.03533333333337 133.52Q149.53933333333336 133.044 150.40733333333336 132.568L151.27533333333335 132.092Q152.22733333333335 131.56 152.64733333333334 131.18900000000002Q153.06733333333335 130.818 153.06733333333335 130.258Q153.06733333333335 129.642 152.68933333333337 129.278Q152.31133333333335 128.914 151.63933333333335 128.914Q150.95333333333335 128.914 150.54733333333334 129.271Q150.14133333333334 129.628 150.14133333333334 130.202Q150.14133333333334 130.524 150.23933333333335 130.762Q150.33733333333336 131.0 150.61733333333336 131.329Q150.89733333333334 131.658 151.44333333333336 132.26L156.69333333333336 138.0H155.19533333333334L150.40733333333336 132.778Q150.07133333333334 132.414 149.74233333333336 132.015Q149.41333333333336 131.61599999999999 149.20333333333335 131.161Q148.99333333333334 130.706 148.99333333333334 130.188Q148.99333333333334 129.502 149.34333333333336 128.984Q149.69333333333336 128.466 150.29533333333336 128.172Q150.89733333333334 127.878 151.65333333333334 127.878Q152.38133333333334 127.878 152.96233333333333 128.172Q153.54333333333335 128.466 153.87933333333336 128.977Q154.21533333333335 129.488 154.21533333333335 130.146Q154.21533333333335 130.944 153.62733333333335 131.56Q153.03933333333336 132.176 151.79333333333335 132.876L150.93933333333334 133.352Q150.28133333333335 133.716 149.91733333333335 134.059Q149.55333333333334 134.402 149.41333333333336 134.773Q149.27333333333334 135.144 149.27333333333334 135.606Q149.27333333333334 136.362 149.87533333333334 136.77499999999998Q150.47733333333335 137.188 151.34533333333334 137.188Q152.24133333333336 137.188 152.94833333333335 136.824Q153.65533333333335 136.46 154.15233333333333 135.732Q154.64933333333335 135.004 154.90133333333335 133.94L155.11133333333336 133.044L156.14733333333334 133.296L155.95133333333334 134.122Q155.64333333333335 135.41 155.00633333333334 136.32Q154.36933333333334 137.23 153.43133333333333 137.699Q152.49333333333334 138.168 151.24733333333336 138.168Q150.33733333333336 138.168 149.63033333333334 137.87400000000002Q148.92333333333335 137.58 148.52433333333335 137.027Q148.12533333333334 136.474 148.12533333333334 135.704Z M161.63533333333334 130.86H162.82533333333333V132.918H162.37733333333335Q162.53133333333335 132.288 162.88833333333335 131.798Q163.24533333333335 131.308 163.73533333333336 131.02100000000002Q164.22533333333334 130.734 164.78533333333334 130.734Q164.93933333333334 130.734 165.08633333333336 130.748Q165.23333333333335 130.762 165.38733333333334 130.804V131.98Q165.14933333333335 131.924 164.79933333333335 131.924Q164.21133333333336 131.924 163.76333333333335 132.197Q163.31533333333334 132.47 163.07033333333334 132.95999999999998Q162.82533333333333 133.45 162.82533333333333 134.122V138.0H161.63533333333334Z M166.32533333333333 134.43Q166.32533333333333 133.296 166.75233333333335 132.456Q167.17933333333335 131.61599999999999 167.95633333333336 131.154Q168.73333333333335 130.692 169.76933333333335 130.692Q170.77733333333333 130.692 171.53333333333333 131.14Q172.28933333333333 131.588 172.70933333333335 132.39999999999998Q173.12933333333334 133.212 173.12933333333334 134.29V134.822H167.01133333333334V133.772H172.45733333333334L171.93933333333334 134.15Q171.93933333333334 133.436 171.66633333333334 132.904Q171.39333333333335 132.372 170.91033333333334 132.078Q170.42733333333334 131.784 169.76933333333335 131.784Q169.08333333333334 131.784 168.57233333333335 132.106Q168.06133333333335 132.428 167.78833333333336 133.002Q167.51533333333333 133.576 167.51533333333333 134.346V134.43Q167.51533333333333 135.662 168.11733333333333 136.369Q168.71933333333334 137.076 169.81133333333335 137.076Q170.53933333333333 137.076 171.05033333333336 136.78199999999998Q171.56133333333335 136.488 171.91133333333335 135.9L172.87733333333335 136.474Q172.35933333333335 137.328 171.56833333333333 137.748Q170.77733333333333 138.168 169.78333333333333 138.168Q168.73333333333335 138.168 167.95633333333336 137.70600000000002Q167.17933333333335 137.244 166.75233333333335 136.404Q166.32533333333333 135.564 166.32533333333333 134.43Z M177.74933333333337 137.23H177.24533333333335L179.75133333333335 130.86H180.98333333333335L178.08533333333335 138.0H176.82533333333336L173.92733333333337 130.86H175.24333333333337Z M183.36333333333334 138.0H182.17333333333335V130.86H183.36333333333334ZM181.99133333333336 128.746Q181.99133333333336 128.382 182.20833333333337 128.172Q182.42533333333336 127.962 182.77533333333335 127.962Q183.13933333333335 127.962 183.34933333333333 128.172Q183.55933333333334 128.382 183.55933333333334 128.746Q183.55933333333334 129.096 183.34933333333333 129.313Q183.13933333333335 129.53 182.77533333333335 129.53Q182.42533333333336 129.53 182.20833333333337 129.313Q181.99133333333336 129.096 181.99133333333336 128.746Z M184.84733333333332 134.43Q184.84733333333332 133.296 185.27433333333335 132.456Q185.70133333333334 131.61599999999999 186.47833333333335 131.154Q187.25533333333334 130.692 188.29133333333334 130.692Q189.29933333333332 130.692 190.05533333333332 131.14Q190.81133333333332 131.588 191.23133333333334 132.39999999999998Q191.65133333333333 133.212 191.65133333333333 134.29V134.822H185.53333333333333V133.772H190.97933333333333L190.46133333333333 134.15Q190.46133333333333 133.436 190.18833333333333 132.904Q189.91533333333334 132.372 189.43233333333333 132.078Q188.94933333333333 131.784 188.29133333333334 131.784Q187.60533333333333 131.784 187.09433333333334 132.106Q186.58333333333334 132.428 186.31033333333335 133.002Q186.03733333333332 133.576 186.03733333333332 134.346V134.43Q186.03733333333332 135.662 186.63933333333333 136.369Q187.24133333333333 137.076 188.33333333333334 137.076Q189.06133333333332 137.076 189.57233333333335 136.78199999999998Q190.08333333333334 136.488 190.43333333333334 135.9L191.39933333333335 136.474Q190.88133333333334 137.328 190.09033333333332 137.748Q189.29933333333332 138.168 188.30533333333332 138.168Q187.25533333333334 138.168 186.47833333333335 137.70600000000002Q185.70133333333334 137.244 185.27433333333335 136.404Q184.84733333333332 135.564 184.84733333333332 134.43Z M197.12533333333334 130.86H198.37133333333335L200.44333333333336 137.496H199.77133333333336L201.84333333333336 130.86H203.04733333333334L200.73733333333334 138.0H199.42133333333334L197.37733333333335 131.532H198.07733333333334L196.07533333333333 138.0H194.75933333333336L192.44933333333336 130.86H193.72333333333336L195.78133333333335 137.496H195.08133333333333Z M208.29733333333334 136.138Q208.29733333333334 135.718 208.01033333333334 135.466Q207.72333333333336 135.214 207.00933333333336 135.046L206.12733333333335 134.836Q204.99333333333334 134.556 204.46833333333336 134.05200000000002Q203.94333333333336 133.548 203.94333333333336 132.722Q203.94333333333336 132.092 204.27233333333334 131.637Q204.60133333333334 131.182 205.20333333333335 130.937Q205.80533333333335 130.692 206.63133333333334 130.692Q207.68133333333336 130.692 208.42333333333335 131.147Q209.16533333333336 131.602 209.47333333333336 132.428L208.45133333333334 132.862Q208.22733333333335 132.288 207.72333333333336 132.036Q207.21933333333334 131.784 206.64533333333335 131.784Q205.91733333333335 131.784 205.53233333333336 132.029Q205.14733333333336 132.274 205.14733333333336 132.708Q205.14733333333336 133.156 205.46233333333336 133.359Q205.77733333333336 133.562 206.46333333333334 133.73L207.34533333333334 133.94Q208.46533333333335 134.206 208.98333333333335 134.731Q209.50133333333335 135.256 209.50133333333335 136.124Q209.50133333333335 137.062 208.77333333333337 137.615Q208.04533333333336 138.168 206.79933333333335 138.168Q205.62333333333336 138.168 204.79033333333336 137.65699999999998Q203.95733333333334 137.146 203.67733333333334 136.25L204.72733333333335 135.858Q204.95133333333334 136.46 205.46933333333334 136.768Q205.98733333333334 137.076 206.75733333333335 137.076Q207.51333333333335 137.076 207.90533333333335 136.838Q208.29733333333334 136.6 208.29733333333334 136.138Z" fill="#5B616B"/>
<path d="M324.6666666666667,6 h230.66666666666669 a24,24 0 0 1 24,24 v116 a24,24 0 0 1 -24,24 h-230.66666666666669 a24,24 0 0 1 -24,-24 v-116 a24,24 0 0 1 24,-24 z" fill="#FFFFFF" stroke="#E6E9EE" filter="url(#sh_light)"/>
<circle cx="440.0" cy="58" r="28" fill="#EAF1FF"/>
<g transform="translate(426.00,44.00) scale(1.1667)"><path d="M17.06,3.382L17.06,3.382L3.706,16.737C3.598,16.844 1.813,21.735 1.813,21.735C1.728,22.006 1.994,22.273 2.265,22.187C2.265,22.187 7.156,20.402 7.263,20.294L20.617,6.94L20.829,6.729L21.98,5.577C22.542,5.015 22.542,4.105 21.98,3.544L20.456,2.019C19.894,1.458 18.984,1.458 18.423,2.019L17.06,3.382Z" fill="#387AFF" fill-opacity="0.000" stroke="#387AFF" stroke-opacity="1.000" stroke-width="1.5" fill-rule="evenodd" />
  <path d="M11.5,12.5L7.752,16.248" fill="#387AFF" fill-opacity="0.000" stroke="#387AFF" stroke-opacity="1.000" stroke-width="1.5" stroke-linecap="round" stroke-linejoin="round" fill-rule="evenodd" /></g>
<path d="M382.78999999999996 106.32V97.78H385.67V106.32Q385.67 107.44 386.01 108.15Q386.34999999999997 108.86 387.0 109.2Q387.65 109.54 388.61 109.54Q389.55 109.54 390.2 109.2Q390.84999999999997 108.86 391.18999999999994 108.15Q391.53 107.44 391.53 106.32V97.78H394.40999999999997V106.32Q394.40999999999997 108.28 393.73 109.61Q393.05 110.94 391.76 111.61Q390.46999999999997 112.28 388.59 112.28Q386.75 112.28 385.45 111.61Q384.15 110.94 383.46999999999997 109.61Q382.78999999999996 108.28 382.78999999999996 106.32Z M399.31 112.0H396.13L400.99 104.22L401.77 103.78L405.43 97.78H408.61L403.69 105.58L402.91 106.0ZM402.89 103.56 403.63 103.92 408.69 112.0H405.37L401.81 106.08L401.03 105.74L396.23 97.78H399.57Z M424.95 104.88Q424.95 102.72 423.83 101.58Q422.71 100.44 420.65 100.44H418.40999999999997V109.34H420.65Q422.71 109.34 423.83 108.2Q424.95 107.06 424.95 104.88ZM420.81 112.0H415.53V97.78H420.81Q423.03 97.78 424.62 98.62Q426.21 99.46 427.05999999999995 101.05Q427.90999999999997 102.64 427.90999999999997 104.88Q427.90999999999997 107.12 427.05999999999995 108.71000000000001Q426.21 110.3 424.62 111.15Q423.03 112.0 420.81 112.0Z M429.37 106.84Q429.37 105.18 430.03 103.95Q430.69 102.72 431.87 102.03999999999999Q433.05 101.36 434.61 101.36Q436.25 101.36 437.37 102.06Q438.49 102.76 439.08000000000004 103.95Q439.67 105.14 439.67 106.64V107.54H430.81V105.7H438.09000000000003L436.95000000000005 106.36Q436.95000000000005 105.5 436.6700000000001 104.87Q436.39000000000004 104.24 435.88 103.91Q435.37 103.58 434.65000000000003 103.58Q433.93 103.58 433.37 103.93Q432.81 104.28 432.5 104.94Q432.19 105.6 432.19 106.54V107.0Q432.19 108.38 432.88 109.13Q433.57 109.88 434.81 109.88Q435.55 109.88 436.11 109.58Q436.67 109.28 437.09000000000003 108.68L439.19 109.98Q438.45000000000005 111.1 437.29 111.69Q436.13 112.28 434.71000000000004 112.28Q433.17 112.28 431.96000000000004 111.63Q430.75 110.98 430.06 109.77000000000001Q429.37 108.56 429.37 106.84Z M447.01 109.1Q447.01 108.72 446.74 108.5Q446.47 108.28 445.79 108.12L444.41 107.8Q442.69 107.4 441.87 106.61Q441.05 105.82 441.05 104.48Q441.05 103.46 441.59000000000003 102.77Q442.13 102.08 443.07 101.72Q444.01 101.36 445.19 101.36Q446.77 101.36 447.97 102.03Q449.17 102.7 449.69 104.02L447.51 104.84Q447.21 104.22 446.54999999999995 103.92Q445.89 103.62 445.23 103.62Q444.53000000000003 103.62 444.13 103.85Q443.73 104.08 443.73 104.5Q443.73 104.9 444.01 105.1Q444.29 105.3 444.93 105.46L446.33 105.78Q448.05 106.18 448.88 106.99000000000001Q449.71 107.8 449.71 109.14Q449.71 110.58 448.6 111.43Q447.49 112.28 445.51 112.28Q443.69 112.28 442.40999999999997 111.53Q441.13 110.78 440.65 109.4L442.89 108.6Q443.21 109.32 443.89 109.66Q444.57 110.0 445.49 110.0Q446.23 110.0 446.62 109.78Q447.01 109.56 447.01 109.1Z M454.25 112.0H451.45V101.64H454.25ZM451.25 98.7Q451.25 97.98 451.70000000000005 97.55000000000001Q452.15000000000003 97.12 452.85 97.12Q453.57000000000005 97.12 454.01000000000005 97.55000000000001Q454.45000000000005 97.98 454.45000000000005 98.7Q454.45000000000005 99.4 454.01000000000005 99.84Q453.57000000000005 100.28 452.85 100.28Q452.15000000000003 100.28 451.70000000000005 99.84Q451.25 99.4 451.25 98.7Z M463.59 111.44V108.98H464.16999999999996Q463.78999999999996 110.16 462.79999999999995 110.84Q461.81 111.52 460.49 111.52Q459.13 111.52 458.13 110.89Q457.13 110.26 456.58 109.11Q456.03 107.96 456.03 106.4Q456.03 104.86 456.58 103.72999999999999Q457.13 102.6 458.13 101.97999999999999Q459.13 101.36 460.49 101.36Q461.81 101.36 462.82 102.18Q463.83 103.0 464.21 104.44H463.63V101.64H466.37V111.26Q466.37 113.06 465.72 114.23Q465.07 115.4 463.94 115.98Q462.81 116.56 461.37 116.56Q459.83 116.56 458.53 115.92Q457.22999999999996 115.28 456.34999999999997 114.06L458.46999999999997 112.64Q458.95 113.3 459.65999999999997 113.66Q460.37 114.02 461.22999999999996 114.02Q462.31 114.02 462.95 113.41Q463.59 112.8 463.59 111.44ZM461.21 103.92Q460.49 103.92 459.96000000000004 104.23Q459.43 104.54 459.15 105.1Q458.87 105.66 458.87 106.4Q458.87 107.14 459.15 107.72Q459.43 108.3 459.96000000000004 108.64Q460.49 108.98 461.21 108.98Q461.95 108.98 462.48 108.65Q463.01 108.32 463.28999999999996 107.74Q463.57 107.16 463.57 106.4Q463.57 105.64 463.28999999999996 105.09Q463.01 104.54 462.48 104.23Q461.95 103.92 461.21 103.92Z M468.65 101.64H471.40999999999997V104.46H470.78999999999996Q471.15 103.03999999999999 472.14 102.19999999999999Q473.13 101.36 474.43 101.36Q478.05 101.36 478.05 105.9V112.0H475.25V106.1Q475.25 104.98 474.79999999999995 104.44Q474.34999999999997 103.9 473.43 103.9Q472.84999999999997 103.9 472.4 104.2Q471.95 104.5 471.7 105.06Q471.45 105.62 471.45 106.36V112.0H468.65Z M479.75 106.84Q479.75 105.18 480.40999999999997 103.95Q481.07 102.72 482.25 102.03999999999999Q483.43 101.36 484.99 101.36Q486.63 101.36 487.75 102.06Q488.87 102.76 489.46000000000004 103.95Q490.05 105.14 490.05 106.64V107.54H481.19V105.7H488.47L487.33000000000004 106.36Q487.33000000000004 105.5 487.05000000000007 104.87Q486.77000000000004 104.24 486.26 103.91Q485.75 103.58 485.03000000000003 103.58Q484.31 103.58 483.75 103.93Q483.19 104.28 482.88 104.94Q482.57 105.6 482.57 106.54V107.0Q482.57 108.38 483.26 109.13Q483.95 109.88 485.19 109.88Q485.93 109.88 486.49 109.58Q487.05 109.28 487.47 108.68L489.57 109.98Q488.83000000000004 111.1 487.67 111.69Q486.51 112.28 485.09000000000003 112.28Q483.55 112.28 482.34000000000003 111.63Q481.13 110.98 480.44 109.77000000000001Q479.75 108.56 479.75 106.84Z M491.83 101.64H494.59V104.46H493.96999999999997Q494.15 103.68 494.6 103.0Q495.05 102.32 495.73 101.88Q496.41 101.44 497.21 101.44Q497.41 101.44 497.61 101.46000000000001Q497.81 101.48 498.01 101.53999999999999V104.18Q497.59 104.1 497.13 104.1Q496.43 104.1 495.86 104.4Q495.29 104.7 494.96000000000004 105.31Q494.63 105.92 494.63 106.84V112.0H491.83Z" fill="#15171C"/>
<path d="M371.31600000000003 128.046H372.548V138.0H371.31600000000003Z M374.704 130.86H375.894V132.918H375.446Q375.71200000000005 131.882 376.433 131.287Q377.154 130.692 378.106 130.692Q380.71000000000004 130.692 380.71000000000004 133.856V138.0H379.52000000000004V133.856Q379.52000000000004 132.792 379.1 132.288Q378.68 131.784 377.826 131.784Q377.28000000000003 131.784 376.83900000000006 132.078Q376.398 132.372 376.146 132.89Q375.894 133.408 375.894 134.08V138.0H374.704Z M383.07599999999996 135.788V129.068L384.26599999999996 128.662V135.592Q384.26599999999996 136.376 384.54599999999994 136.684Q384.82599999999996 136.992 385.46999999999997 136.992Q385.68 136.992 385.911 136.957Q386.142 136.922 386.366 136.866V137.958Q386.09999999999997 138.028 385.792 138.07Q385.484 138.112 385.204 138.112Q384.532 138.112 384.056 137.881Q383.58 137.65 383.328 137.139Q383.07599999999996 136.628 383.07599999999996 135.788ZM381.87199999999996 130.86H385.974V131.938H381.87199999999996Z M387.36 134.43Q387.36 133.296 387.78700000000003 132.456Q388.214 131.61599999999999 388.991 131.154Q389.76800000000003 130.692 390.80400000000003 130.692Q391.812 130.692 392.568 131.14Q393.324 131.588 393.744 132.39999999999998Q394.16400000000004 133.212 394.16400000000004 134.29V134.822H388.04600000000005V133.772H393.492L392.97400000000005 134.15Q392.97400000000005 133.436 392.701 132.904Q392.428 132.372 391.94500000000005 132.078Q391.46200000000005 131.784 390.80400000000003 131.784Q390.118 131.784 389.60699999999997 132.106Q389.096 132.428 388.823 133.002Q388.55 133.576 388.55 134.346V134.43Q388.55 135.662 389.15200000000004 136.369Q389.754 137.076 390.846 137.076Q391.574 137.076 392.08500000000004 136.78199999999998Q392.596 136.488 392.946 135.9L393.91200000000003 136.474Q393.394 137.328 392.603 137.748Q391.812 138.168 390.81800000000004 138.168Q389.76800000000003 138.168 388.991 137.70600000000002Q388.214 137.244 387.78700000000003 136.404Q387.36 135.564 387.36 134.43Z M395.648 130.86H396.838V132.918H396.39000000000004Q396.54400000000004 132.288 396.90100000000007 131.798Q397.25800000000004 131.308 397.74800000000005 131.02100000000002Q398.23800000000006 130.734 398.79800000000006 130.734Q398.95200000000006 130.734 399.09900000000005 130.748Q399.24600000000004 130.762 399.40000000000003 130.804V131.98Q399.16200000000003 131.924 398.812 131.924Q398.22400000000005 131.924 397.77600000000007 132.197Q397.32800000000003 132.47 397.083 132.95999999999998Q396.838 133.45 396.838 134.122V138.0H395.648Z M400.11400000000003 130.86H404.34200000000004V131.938H400.11400000000003ZM401.31800000000004 130.034Q401.31800000000004 129.11 401.62600000000003 128.578Q401.934 128.046 402.438 127.822Q402.942 127.598 403.516 127.598Q403.72600000000006 127.598 403.92900000000003 127.612Q404.132 127.626 404.34200000000004 127.668V128.774Q404.132 128.746 403.978 128.732Q403.824 128.718 403.64200000000005 128.718Q403.01200000000006 128.718 402.76000000000005 129.019Q402.50800000000004 129.32 402.50800000000004 130.146V138.0H401.31800000000004Z M410.13800000000003 133.786Q410.13800000000003 132.75 409.69000000000005 132.267Q409.242 131.784 408.40200000000004 131.784Q407.82800000000003 131.784 407.324 132.05Q406.82 132.316 406.456 132.82L405.56 132.148Q406.09200000000004 131.448 406.83400000000006 131.07Q407.576 130.692 408.43 130.692Q409.774 130.692 410.55100000000004 131.434Q411.32800000000003 132.176 411.32800000000003 133.758V138.0H410.13800000000003ZM405.35 136.054Q405.35 134.976 406.134 134.353Q406.918 133.73 408.23400000000004 133.73H410.404V134.78H408.29Q407.45000000000005 134.78 406.995 135.095Q406.54 135.41 406.54 136.012Q406.54 136.53 406.87600000000003 136.817Q407.21200000000005 137.104 407.84200000000004 137.104Q408.48600000000005 137.104 409.004 136.803Q409.52200000000005 136.502 409.83000000000004 135.99099999999999Q410.13800000000003 135.48 410.13800000000003 134.85L410.67 135.172Q410.67 136.04 410.278 136.719Q409.886 137.398 409.20000000000005 137.78300000000002Q408.514 138.168 407.632 138.168Q406.932 138.168 406.42100000000005 137.909Q405.91 137.65 405.63 137.174Q405.35 136.698 405.35 136.054Z M412.75600000000003 134.43Q412.75600000000003 133.338 413.17600000000004 132.49099999999999Q413.59600000000006 131.644 414.36600000000004 131.168Q415.136 130.692 416.18600000000004 130.692Q417.18000000000006 130.692 417.922 131.126Q418.66400000000004 131.56 419.098 132.386L418.13200000000006 132.946Q417.824 132.358 417.33400000000006 132.085Q416.84400000000005 131.812 416.18600000000004 131.812Q415.50000000000006 131.812 415.00300000000004 132.14100000000002Q414.50600000000003 132.47 414.24 133.058Q413.97400000000005 133.646 413.97400000000005 134.43Q413.97400000000005 135.592 414.562 136.32Q415.15000000000003 137.048 416.18600000000004 137.048Q416.84400000000005 137.048 417.39000000000004 136.761Q417.93600000000004 136.474 418.3 135.83L419.266 136.404Q418.80400000000003 137.23 418.01300000000003 137.699Q417.22200000000004 138.168 416.18600000000004 138.168Q415.136 138.168 414.36600000000004 137.685Q413.59600000000006 137.202 413.17600000000004 136.362Q412.75600000000003 135.522 412.75600000000003 134.43Z M420.232 134.43Q420.232 133.296 420.659 132.456Q421.086 131.61599999999999 421.86300000000006 131.154Q422.64000000000004 130.692 423.67600000000004 130.692Q424.684 130.692 425.44000000000005 131.14Q426.196 131.588 426.61600000000004 132.39999999999998Q427.03600000000006 133.212 427.03600000000006 134.29V134.822H420.91800000000006V133.772H426.36400000000003L425.84600000000006 134.15Q425.84600000000006 133.436 425.57300000000004 132.904Q425.3 132.372 424.817 132.078Q424.33400000000006 131.784 423.67600000000004 131.784Q422.99 131.784 422.47900000000004 132.106Q421.968 132.428 421.69500000000005 133.002Q421.422 133.576 421.422 134.346V134.43Q421.422 135.662 422.024 136.369Q422.62600000000003 137.076 423.718 137.076Q424.446 137.076 424.957 136.78199999999998Q425.468 136.488 425.81800000000004 135.9L426.78400000000005 136.474Q426.266 137.328 425.475 137.748Q424.684 138.168 423.69000000000005 138.168Q422.64000000000004 138.168 421.86300000000006 137.70600000000002Q421.086 137.244 420.659 136.404Q420.232 135.564 420.232 134.43Z M432.58 136.138Q432.58 135.718 432.293 135.466Q432.006 135.214 431.292 135.046L430.40999999999997 134.836Q429.276 134.556 428.751 134.05200000000002Q428.226 133.548 428.226 132.722Q428.226 132.092 428.555 131.637Q428.884 131.182 429.486 130.937Q430.08799999999997 130.692 430.914 130.692Q431.964 130.692 432.706 131.147Q433.448 131.602 433.756 132.428L432.734 132.862Q432.51 132.288 432.006 132.036Q431.502 131.784 430.928 131.784Q430.2 131.784 429.815 132.029Q429.43 132.274 429.43 132.708Q429.43 133.156 429.745 133.359Q430.06 133.562 430.746 133.73L431.628 133.94Q432.748 134.206 433.26599999999996 134.731Q433.784 135.256 433.784 136.124Q433.784 137.062 433.056 137.615Q432.328 138.168 431.082 138.168Q429.906 138.168 429.073 137.65699999999998Q428.24 137.146 427.96 136.25L429.01 135.858Q429.234 136.46 429.75199999999995 136.768Q430.27 137.076 431.04 137.076Q431.796 137.076 432.188 136.838Q432.58 136.6 432.58 136.138Z M438.488 135.704Q438.488 135.06 438.69100000000003 134.52800000000002Q438.894 133.996 439.398 133.52Q439.902 133.044 440.77 132.568L441.638 132.092Q442.59000000000003 131.56 443.01 131.18900000000002Q443.43 130.818 443.43 130.258Q443.43 129.642 443.052 129.278Q442.674 128.914 442.002 128.914Q441.31600000000003 128.914 440.91 129.271Q440.504 129.628 440.504 130.202Q440.504 130.524 440.602 130.762Q440.7 131.0 440.98 131.329Q441.26 131.658 441.806 132.26L447.056 138.0H445.558L440.77 132.778Q440.434 132.414 440.105 132.015Q439.776 131.61599999999999 439.56600000000003 131.161Q439.356 130.706 439.356 130.188Q439.356 129.502 439.706 128.984Q440.056 128.466 440.658 128.172Q441.26 127.878 442.016 127.878Q442.744 127.878 443.32500000000005 128.172Q443.906 128.466 444.242 128.977Q444.57800000000003 129.488 444.57800000000003 130.146Q444.57800000000003 130.944 443.99 131.56Q443.402 132.176 442.156 132.876L441.302 133.352Q440.644 133.716 440.28 134.059Q439.916 134.402 439.776 134.773Q439.636 135.144 439.636 135.606Q439.636 136.362 440.23800000000006 136.77499999999998Q440.84000000000003 137.188 441.708 137.188Q442.604 137.188 443.31100000000004 136.824Q444.01800000000003 136.46 444.515 135.732Q445.012 135.004 445.264 133.94L445.474 133.044L446.51 133.296L446.314 134.122Q446.00600000000003 135.41 445.369 136.32Q444.732 137.23 443.794 137.699Q442.856 138.168 441.61 138.168Q440.7 138.168 439.993 137.87400000000002Q439.286 137.58 438.887 137.027Q438.488 136.474 438.488 135.704Z M451.606 134.43Q451.606 133.338 452.026 132.49099999999999Q452.446 131.644 453.216 131.168Q453.986 130.692 455.036 130.692Q456.03000000000003 130.692 456.77200000000005 131.126Q457.514 131.56 457.948 132.386L456.982 132.946Q456.674 132.358 456.18399999999997 132.085Q455.694 131.812 455.036 131.812Q454.35 131.812 453.853 132.14100000000002Q453.356 132.47 453.09000000000003 133.058Q452.824 133.646 452.824 134.43Q452.824 135.592 453.41200000000003 136.32Q454.0 137.048 455.036 137.048Q455.694 137.048 456.24 136.761Q456.786 136.474 457.15 135.83L458.116 136.404Q457.654 137.23 456.863 137.699Q456.072 138.168 455.036 138.168Q453.986 138.168 453.216 137.685Q452.446 137.202 452.026 136.362Q451.606 135.522 451.606 134.43Z M459.082 134.43Q459.082 133.338 459.502 132.49099999999999Q459.922 131.644 460.692 131.168Q461.462 130.692 462.512 130.692Q463.562 130.692 464.332 131.168Q465.102 131.644 465.522 132.49099999999999Q465.942 133.338 465.942 134.43Q465.942 135.522 465.522 136.362Q465.102 137.202 464.332 137.685Q463.562 138.168 462.512 138.168Q461.462 138.168 460.692 137.685Q459.922 137.202 459.502 136.362Q459.082 135.522 459.082 134.43ZM460.3 134.43Q460.3 135.2 460.56600000000003 135.795Q460.832 136.39 461.329 136.719Q461.826 137.048 462.512 137.048Q463.212 137.048 463.702 136.719Q464.192 136.39 464.45799999999997 135.795Q464.724 135.2 464.724 134.43Q464.724 133.646 464.45799999999997 133.058Q464.192 132.47 463.702 132.14100000000002Q463.212 131.812 462.512 131.812Q461.826 131.812 461.329 132.14100000000002Q460.832 132.47 460.56600000000003 133.058Q460.3 133.646 460.3 134.43Z M467.426 130.86H468.616V132.918H468.168Q468.434 131.882 469.155 131.287Q469.876 130.692 470.828 130.692Q473.432 130.692 473.432 133.856V138.0H472.242V133.856Q472.242 132.792 471.822 132.288Q471.402 131.784 470.548 131.784Q470.002 131.784 469.56100000000004 132.078Q469.12 132.372 468.868 132.89Q468.616 133.408 468.616 134.08V138.0H467.426Z M474.86 134.43Q474.86 133.338 475.28000000000003 132.49099999999999Q475.70000000000005 131.644 476.47 131.168Q477.24 130.692 478.29 130.692Q479.28400000000005 130.692 480.02600000000007 131.126Q480.76800000000003 131.56 481.202 132.386L480.23600000000005 132.946Q479.928 132.358 479.438 132.085Q478.94800000000004 131.812 478.29 131.812Q477.60400000000004 131.812 477.107 132.14100000000002Q476.61 132.47 476.34400000000005 133.058Q476.07800000000003 133.646 476.07800000000003 134.43Q476.07800000000003 135.592 476.66600000000005 136.32Q477.254 137.048 478.29 137.048Q478.94800000000004 137.048 479.494 136.761Q480.04 136.474 480.404 135.83L481.37 136.404Q480.908 137.23 480.117 137.699Q479.326 138.168 478.29 138.168Q477.24 138.168 476.47 137.685Q475.70000000000005 137.202 475.28000000000003 136.362Q474.86 135.522 474.86 134.43Z M482.336 134.43Q482.336 133.296 482.76300000000003 132.456Q483.19 131.61599999999999 483.967 131.154Q484.744 130.692 485.78000000000003 130.692Q486.788 130.692 487.544 131.14Q488.3 131.588 488.72 132.39999999999998Q489.14000000000004 133.212 489.14000000000004 134.29V134.822H483.02200000000005V133.772H488.468L487.95000000000005 134.15Q487.95000000000005 133.436 487.677 132.904Q487.404 132.372 486.92100000000005 132.078Q486.43800000000005 131.784 485.78000000000003 131.784Q485.094 131.784 484.58299999999997 132.106Q484.072 132.428 483.799 133.002Q483.526 133.576 483.526 134.346V134.43Q483.526 135.662 484.12800000000004 136.369Q484.73 137.076 485.822 137.076Q486.55 137.076 487.06100000000004 136.78199999999998Q487.572 136.488 487.922 135.9L488.88800000000003 136.474Q488.37 137.328 487.579 137.748Q486.788 138.168 485.79400000000004 138.168Q484.744 138.168 483.967 137.70600000000002Q483.19 137.244 482.76300000000003 136.404Q482.336 135.564 482.336 134.43Z M490.624 130.86H491.814V132.904H491.408Q491.716 131.826 492.472 131.25900000000001Q493.228 130.692 494.22200000000004 130.692Q495.20200000000006 130.692 495.91600000000005 131.154Q496.63000000000005 131.61599999999999 497.02900000000005 132.456Q497.42800000000005 133.296 497.42800000000005 134.444Q497.42800000000005 135.564 497.02900000000005 136.404Q496.63000000000005 137.244 495.91600000000005 137.70600000000002Q495.20200000000006 138.168 494.22200000000004 138.168Q493.228 138.168 492.472 137.601Q491.716 137.034 491.408 135.956H491.814V141.122H490.624ZM491.8 134.444Q491.8 135.214 492.06600000000003 135.802Q492.33200000000005 136.39 492.836 136.719Q493.34000000000003 137.048 494.04 137.048Q494.74 137.048 495.223 136.70499999999998Q495.706 136.362 495.958 135.774Q496.21000000000004 135.186 496.21000000000004 134.444Q496.21000000000004 133.688 495.958 133.093Q495.706 132.498 495.223 132.155Q494.74 131.812 494.04 131.812Q493.34000000000003 131.812 492.836 132.14100000000002Q492.33200000000005 132.47 492.06600000000003 133.065Q491.8 133.66 491.8 134.444Z M499.458 135.788V129.068L500.648 128.662V135.592Q500.648 136.376 500.928 136.684Q501.208 136.992 501.85200000000003 136.992Q502.06200000000007 136.992 502.29300000000006 136.957Q502.52400000000006 136.922 502.74800000000005 136.866V137.958Q502.482 138.028 502.17400000000004 138.07Q501.86600000000004 138.112 501.58600000000007 138.112Q500.91400000000004 138.112 500.43800000000005 137.881Q499.96200000000005 137.65 499.71000000000004 137.139Q499.458 136.628 499.458 135.788ZM498.254 130.86H502.35600000000005V131.938H498.254Z M508.194 136.138Q508.194 135.718 507.90700000000004 135.466Q507.62 135.214 506.906 135.046L506.024 134.836Q504.89000000000004 134.556 504.365 134.05200000000002Q503.84000000000003 133.548 503.84000000000003 132.722Q503.84000000000003 132.092 504.16900000000004 131.637Q504.49800000000005 131.182 505.1 130.937Q505.702 130.692 506.528 130.692Q507.57800000000003 130.692 508.32000000000005 131.147Q509.062 131.602 509.37 132.428L508.348 132.862Q508.124 132.288 507.62 132.036Q507.11600000000004 131.784 506.54200000000003 131.784Q505.814 131.784 505.42900000000003 132.029Q505.04400000000004 132.274 505.04400000000004 132.708Q505.04400000000004 133.156 505.35900000000004 133.359Q505.67400000000004 133.562 506.36 133.73L507.242 133.94Q508.362 134.206 508.88 134.731Q509.398 135.256 509.398 136.124Q509.398 137.062 508.67 137.615Q507.942 138.168 506.696 138.168Q505.52000000000004 138.168 504.687 137.65699999999998Q503.85400000000004 137.146 503.574 136.25L504.624 135.858Q504.848 136.46 505.366 136.768Q505.884 137.076 506.65400000000005 137.076Q507.41 137.076 507.802 136.838Q508.194 136.6 508.194 136.138Z" fill="#5B616B"/>
<path d="M625.3333333333334,6 h230.66666666666669 a24,24 0 0 1 24,24 v116 a24,24 0 0 1 -24,24 h-230.66666666666669 a24,24 0 0 1 -24,-24 v-116 a24,24 0 0 1 24,-24 z" fill="#FFFFFF" stroke="#E6E9EE" filter="url(#sh_light)"/>
<circle cx="740.6666666666667" cy="58" r="28" fill="#EAF1FF"/>
<g transform="translate(726.67,44.00) scale(1.1667)"><path d="M12,3C17.109,3 21.25,6.582 21.25,11C21.25,15.418 17.109,19 12,19C11.423,19 10.859,18.952 10.311,18.865C8.762,20.103 7.236,20.705 6.273,20.985C5.94,21.081 5.671,20.708 5.859,20.416C6.303,19.729 6.808,18.673 6.702,17.556C4.313,16.11 2.75,13.714 2.75,11C2.75,6.582 6.891,3 12,3ZM12,6.25C11.586,6.25 11.25,6.586 11.25,7L11.25,15C11.25,15.414 11.586,15.75 12,15.75C12.414,15.75 12.75,15.414 12.75,15L12.75,7C12.75,6.586 12.414,6.25 12,6.25ZM9,8.25C8.586,8.25 8.25,8.586 8.25,9L8.25,13C8.25,13.414 8.586,13.75 9,13.75C9.414,13.75 9.75,13.414 9.75,13L9.75,9C9.75,8.586 9.414,8.25 9,8.25ZM15,8.25C14.586,8.25 14.25,8.586 14.25,9L14.25,13C14.25,13.414 14.586,13.75 15,13.75C15.414,13.75 15.75,13.414 15.75,13L15.75,9C15.75,8.586 15.414,8.25 15,8.25ZM6,9.25C5.586,9.25 5.25,9.586 5.25,10L5.25,12C5.25,12.414 5.586,12.75 6,12.75C6.414,12.75 6.75,12.414 6.75,12L6.75,10C6.75,9.586 6.414,9.25 6,9.25ZM18,9.25C17.586,9.25 17.25,9.586 17.25,10L17.25,12C17.25,12.414 17.586,12.75 18,12.75C18.414,12.75 18.75,12.414 18.75,12L18.75,10C18.75,9.586 18.414,9.25 18,9.25Z" fill="#387AFF" fill-opacity="1.000" stroke="#387AFF" stroke-opacity="0.000" stroke-width="1.0" fill-rule="nonzero" /></g>
<path d="M705.3066666666667 104.9Q705.3066666666667 102.66 706.1666666666667 101.0Q707.0266666666668 99.34 708.5866666666668 98.42Q710.1466666666668 97.5 712.2066666666668 97.5Q714.3066666666667 97.5 715.8566666666668 98.46000000000001Q717.4066666666668 99.42 718.3266666666668 101.2L715.8066666666667 102.5Q715.1866666666667 101.34 714.3066666666667 100.78999999999999Q713.4266666666667 100.24 712.2066666666668 100.24Q711.0066666666668 100.24 710.1166666666668 100.8Q709.2266666666668 101.36 708.7466666666668 102.41Q708.2666666666668 103.46 708.2666666666668 104.88Q708.2666666666668 106.32 708.7466666666668 107.37Q709.2266666666668 108.42 710.1166666666668 108.98Q711.0066666666668 109.54 712.2066666666668 109.54Q713.4666666666668 109.54 714.3466666666668 108.98Q715.2266666666668 108.42 715.8266666666668 107.28L718.3466666666668 108.6Q717.4266666666667 110.38 715.8666666666668 111.33Q714.3066666666667 112.28 712.2066666666668 112.28Q710.1466666666668 112.28 708.5966666666668 111.36Q707.0466666666667 110.44 706.1766666666667 108.78Q705.3066666666667 107.12 705.3066666666667 104.9Z M720.3066666666667 101.64H723.0666666666667V104.46H722.4466666666667Q722.6266666666668 103.68 723.0766666666668 103.0Q723.5266666666668 102.32 724.2066666666667 101.88Q724.8866666666668 101.44 725.6866666666667 101.44Q725.8866666666668 101.44 726.0866666666668 101.46000000000001Q726.2866666666667 101.48 726.4866666666668 101.53999999999999V104.18Q726.0666666666667 104.1 725.6066666666668 104.1Q724.9066666666668 104.1 724.3366666666668 104.4Q723.7666666666668 104.7 723.4366666666667 105.31Q723.1066666666668 105.92 723.1066666666668 106.84V112.0H720.3066666666667Z M727.6066666666668 106.84Q727.6066666666668 105.18 728.2666666666669 103.95Q728.9266666666668 102.72 730.1066666666668 102.03999999999999Q731.2866666666669 101.36 732.8466666666668 101.36Q734.4866666666668 101.36 735.6066666666668 102.06Q736.7266666666668 102.76 737.3166666666668 103.95Q737.9066666666669 105.14 737.9066666666669 106.64V107.54H729.0466666666669V105.7H736.3266666666668L735.1866666666668 106.36Q735.1866666666668 105.5 734.9066666666668 104.87Q734.6266666666668 104.24 734.1166666666668 103.91Q733.6066666666668 103.58 732.8866666666668 103.58Q732.1666666666669 103.58 731.6066666666668 103.93Q731.0466666666669 104.28 730.7366666666669 104.94Q730.4266666666668 105.6 730.4266666666668 106.54V107.0Q730.4266666666668 108.38 731.1166666666668 109.13Q731.8066666666668 109.88 733.0466666666669 109.88Q733.7866666666669 109.88 734.3466666666668 109.58Q734.9066666666669 109.28 735.3266666666668 108.68L737.4266666666668 109.98Q736.6866666666668 111.1 735.5266666666669 111.69Q734.3666666666668 112.28 732.9466666666668 112.28Q731.4066666666669 112.28 730.1966666666668 111.63Q728.9866666666668 110.98 728.2966666666669 109.77000000000001Q727.6066666666668 108.56 727.6066666666668 106.84Z M745.8466666666667 106.02Q745.8466666666667 104.86 745.3266666666667 104.28999999999999Q744.8066666666667 103.72 743.8066666666667 103.72Q743.1466666666668 103.72 742.5766666666668 104.0Q742.0066666666668 104.28 741.5666666666667 104.84L739.5266666666668 103.48Q740.3466666666667 102.44 741.5066666666667 101.9Q742.6666666666667 101.36 744.1066666666667 101.36Q746.2266666666667 101.36 747.3766666666668 102.52000000000001Q748.5266666666668 103.68 748.5266666666668 105.98V112.0H745.8466666666667ZM739.2666666666668 109.18Q739.2666666666668 107.52 740.4366666666667 106.62Q741.6066666666667 105.72 743.7066666666667 105.72H746.3666666666668V107.56H743.8466666666667Q742.9266666666667 107.56 742.4366666666667 107.9Q741.9466666666667 108.24 741.9466666666667 108.88Q741.9466666666667 109.42 742.3066666666667 109.72Q742.6666666666667 110.02 743.3466666666667 110.02Q743.9866666666668 110.02 744.5566666666668 109.69999999999999Q745.1266666666668 109.38 745.4866666666667 108.78Q745.8466666666667 108.18 745.8466666666667 107.34L746.5866666666667 108.18Q746.5866666666667 109.48 746.0366666666667 110.39Q745.4866666666668 111.3 744.5766666666668 111.78999999999999Q743.6666666666667 112.28 742.5666666666667 112.28Q741.5866666666667 112.28 740.8466666666667 111.91Q740.1066666666667 111.54 739.6866666666667 110.85Q739.2666666666668 110.16 739.2666666666668 109.18Z M751.4066666666669 108.54V99.34L754.2066666666668 98.4V108.08Q754.2066666666668 109.0 754.5466666666669 109.33Q754.8866666666668 109.66 755.5866666666668 109.66Q755.8866666666668 109.66 756.1866666666667 109.62Q756.4866666666668 109.58 756.7866666666669 109.52V111.94Q756.3666666666668 112.06 755.8666666666668 112.12Q755.3666666666668 112.18 754.9266666666668 112.18Q753.8866666666668 112.18 753.0966666666668 111.85Q752.3066666666668 111.52 751.8566666666668 110.72Q751.4066666666669 109.92 751.4066666666669 108.54ZM749.8666666666668 101.64H756.3266666666668V104.12H749.8666666666668Z M757.9866666666668 106.82Q757.9866666666668 105.2 758.6366666666668 103.97Q759.2866666666669 102.74 760.4566666666668 102.05Q761.6266666666668 101.36 763.1866666666668 101.36Q764.7666666666668 101.36 765.9366666666667 102.05Q767.1066666666668 102.74 767.7466666666668 103.97Q768.3866666666668 105.2 768.3866666666668 106.82Q768.3866666666668 108.42 767.7466666666668 109.65Q767.1066666666668 110.88 765.9366666666667 111.58Q764.7666666666668 112.28 763.1866666666668 112.28Q761.6266666666668 112.28 760.4566666666668 111.58Q759.2866666666669 110.88 758.6366666666668 109.65Q757.9866666666668 108.42 757.9866666666668 106.82ZM760.8266666666668 106.82Q760.8266666666668 107.68 761.1166666666668 108.34Q761.4066666666668 109.0 761.9366666666667 109.36Q762.4666666666668 109.72 763.1866666666668 109.72Q763.9266666666668 109.72 764.4466666666668 109.36Q764.9666666666668 109.0 765.2566666666669 108.34Q765.5466666666669 107.68 765.5466666666669 106.82Q765.5466666666669 105.94 765.2566666666669 105.28999999999999Q764.9666666666668 104.64 764.4466666666668 104.28Q763.9266666666668 103.92 763.1866666666668 103.92Q762.4666666666668 103.92 761.9366666666667 104.28Q761.4066666666668 104.64 761.1166666666668 105.28999999999999Q760.8266666666668 105.94 760.8266666666668 106.82Z M770.1666666666667 101.64H772.9266666666667V104.46H772.3066666666667Q772.4866666666668 103.68 772.9366666666667 103.0Q773.3866666666668 102.32 774.0666666666668 101.88Q774.7466666666668 101.44 775.5466666666667 101.44Q775.7466666666668 101.44 775.9466666666667 101.46000000000001Q776.1466666666668 101.48 776.3466666666668 101.53999999999999V104.18Q775.9266666666667 104.1 775.4666666666668 104.1Q774.7666666666668 104.1 774.1966666666667 104.4Q773.6266666666668 104.7 773.2966666666669 105.31Q772.9666666666668 105.92 772.9666666666668 106.84V112.0H770.1666666666667Z" fill="#15171C"/>
<path d="M675.6016666666667 128.046H678.8916666666668Q680.5856666666667 128.046 681.5166666666667 128.893Q682.4476666666667 129.74 682.4476666666667 131.14Q682.4476666666667 132.302 681.8036666666667 133.051Q681.1596666666667 133.8 679.9976666666668 134.066L679.6896666666668 134.136Q679.5076666666668 134.178 679.3466666666668 134.199Q679.1856666666667 134.22 678.9896666666667 134.22H676.4276666666667V133.1H678.7376666666668Q679.9836666666667 133.1 680.5996666666667 132.582Q681.2156666666667 132.064 681.2156666666667 131.14Q681.2156666666667 130.216 680.5996666666667 129.691Q679.9836666666667 129.166 678.7376666666668 129.166H676.8056666666668V138.0H675.6016666666667ZM678.9476666666667 133.702 680.1796666666668 133.576 682.4896666666667 138.0H681.1316666666668Z M683.7916666666667 134.43Q683.7916666666667 133.296 684.2186666666666 132.456Q684.6456666666667 131.61599999999999 685.4226666666666 131.154Q686.1996666666666 130.692 687.2356666666667 130.692Q688.2436666666667 130.692 688.9996666666667 131.14Q689.7556666666667 131.588 690.1756666666668 132.39999999999998Q690.5956666666667 133.212 690.5956666666667 134.29V134.822H684.4776666666667V133.772H689.9236666666667L689.4056666666667 134.15Q689.4056666666667 133.436 689.1326666666666 132.904Q688.8596666666667 132.372 688.3766666666668 132.078Q687.8936666666667 131.784 687.2356666666667 131.784Q686.5496666666667 131.784 686.0386666666667 132.106Q685.5276666666667 132.428 685.2546666666667 133.002Q684.9816666666667 133.576 684.9816666666667 134.346V134.43Q684.9816666666667 135.662 685.5836666666667 136.369Q686.1856666666667 137.076 687.2776666666667 137.076Q688.0056666666667 137.076 688.5166666666667 136.78199999999998Q689.0276666666667 136.488 689.3776666666666 135.9L690.3436666666666 136.474Q689.8256666666667 137.328 689.0346666666667 137.748Q688.2436666666667 138.168 687.2496666666667 138.168Q686.1996666666666 138.168 685.4226666666666 137.70600000000002Q684.6456666666667 137.244 684.2186666666666 136.404Q683.7916666666667 135.564 683.7916666666667 134.43Z M696.1396666666668 136.138Q696.1396666666668 135.718 695.8526666666668 135.466Q695.5656666666667 135.214 694.8516666666668 135.046L693.9696666666667 134.836Q692.8356666666667 134.556 692.3106666666667 134.05200000000002Q691.7856666666668 133.548 691.7856666666668 132.722Q691.7856666666668 132.092 692.1146666666668 131.637Q692.4436666666668 131.182 693.0456666666668 130.937Q693.6476666666667 130.692 694.4736666666668 130.692Q695.5236666666667 130.692 696.2656666666667 131.147Q697.0076666666668 131.602 697.3156666666667 132.428L696.2936666666668 132.862Q696.0696666666668 132.288 695.5656666666667 132.036Q695.0616666666667 131.784 694.4876666666668 131.784Q693.7596666666668 131.784 693.3746666666668 132.029Q692.9896666666667 132.274 692.9896666666667 132.708Q692.9896666666667 133.156 693.3046666666667 133.359Q693.6196666666667 133.562 694.3056666666668 133.73L695.1876666666668 133.94Q696.3076666666668 134.206 696.8256666666668 134.731Q697.3436666666668 135.256 697.3436666666668 136.124Q697.3436666666668 137.062 696.6156666666668 137.615Q695.8876666666667 138.168 694.6416666666668 138.168Q693.4656666666667 138.168 692.6326666666668 137.65699999999998Q691.7996666666668 137.146 691.5196666666668 136.25L692.5696666666668 135.858Q692.7936666666668 136.46 693.3116666666667 136.768Q693.8296666666668 137.076 694.5996666666667 137.076Q695.3556666666668 137.076 695.7476666666669 136.838Q696.1396666666668 136.6 696.1396666666668 136.138Z M698.3936666666668 134.43Q698.3936666666668 133.338 698.8136666666668 132.49099999999999Q699.2336666666667 131.644 700.0036666666667 131.168Q700.7736666666668 130.692 701.8236666666668 130.692Q702.8736666666667 130.692 703.6436666666668 131.168Q704.4136666666668 131.644 704.8336666666668 132.49099999999999Q705.2536666666667 133.338 705.2536666666667 134.43Q705.2536666666667 135.522 704.8336666666668 136.362Q704.4136666666668 137.202 703.6436666666668 137.685Q702.8736666666667 138.168 701.8236666666668 138.168Q700.7736666666668 138.168 700.0036666666667 137.685Q699.2336666666667 137.202 698.8136666666668 136.362Q698.3936666666668 135.522 698.3936666666668 134.43ZM699.6116666666668 134.43Q699.6116666666668 135.2 699.8776666666668 135.795Q700.1436666666668 136.39 700.6406666666668 136.719Q701.1376666666667 137.048 701.8236666666668 137.048Q702.5236666666668 137.048 703.0136666666667 136.719Q703.5036666666667 136.39 703.7696666666668 135.795Q704.0356666666668 135.2 704.0356666666668 134.43Q704.0356666666668 133.646 703.7696666666668 133.058Q703.5036666666667 132.47 703.0136666666667 132.14100000000002Q702.5236666666668 131.812 701.8236666666668 131.812Q701.1376666666667 131.812 700.6406666666668 132.14100000000002Q700.1436666666668 132.47 699.8776666666668 133.058Q699.6116666666668 133.646 699.6116666666668 134.43Z M706.6816666666667 135.004V130.86H707.8716666666668V135.004Q707.8716666666668 136.068 708.2916666666667 136.572Q708.7116666666668 137.076 709.5516666666667 137.076Q710.0976666666668 137.076 710.5316666666668 136.78199999999998Q710.9656666666668 136.488 711.2176666666668 135.963Q711.4696666666667 135.438 711.4696666666667 134.78V130.86H712.6596666666668V138.0H711.4696666666667V135.942H711.9176666666668Q711.6516666666668 136.978 710.9376666666667 137.573Q710.2236666666668 138.168 709.2716666666668 138.168Q707.9976666666668 138.168 707.3396666666667 137.37Q706.6816666666667 136.572 706.6816666666667 135.004Z M714.5356666666668 130.86H715.7256666666668V132.918H715.2776666666667Q715.4316666666667 132.288 715.7886666666668 131.798Q716.1456666666668 131.308 716.6356666666668 131.02100000000002Q717.1256666666668 130.734 717.6856666666667 130.734Q717.8396666666667 130.734 717.9866666666667 130.748Q718.1336666666667 130.762 718.2876666666668 130.804V131.98Q718.0496666666668 131.924 717.6996666666668 131.924Q717.1116666666668 131.924 716.6636666666668 132.197Q716.2156666666668 132.47 715.9706666666668 132.95999999999998Q715.7256666666668 133.45 715.7256666666668 134.122V138.0H714.5356666666668Z M719.2256666666668 134.43Q719.2256666666668 133.338 719.6456666666668 132.49099999999999Q720.0656666666667 131.644 720.8356666666668 131.168Q721.6056666666668 130.692 722.6556666666668 130.692Q723.6496666666668 130.692 724.3916666666668 131.126Q725.1336666666667 131.56 725.5676666666668 132.386L724.6016666666668 132.946Q724.2936666666668 132.358 723.8036666666668 132.085Q723.3136666666668 131.812 722.6556666666668 131.812Q721.9696666666667 131.812 721.4726666666668 132.14100000000002Q720.9756666666668 132.47 720.7096666666669 133.058Q720.4436666666668 133.646 720.4436666666668 134.43Q720.4436666666668 135.592 721.0316666666668 136.32Q721.6196666666668 137.048 722.6556666666668 137.048Q723.3136666666668 137.048 723.8596666666667 136.761Q724.4056666666668 136.474 724.7696666666668 135.83L725.7356666666668 136.404Q725.2736666666668 137.23 724.4826666666668 137.699Q723.6916666666668 138.168 722.6556666666668 138.168Q721.6056666666668 138.168 720.8356666666668 137.685Q720.0656666666667 137.202 719.6456666666668 136.362Q719.2256666666668 135.522 719.2256666666668 134.43Z M726.7016666666668 134.43Q726.7016666666668 133.296 727.1286666666667 132.456Q727.5556666666668 131.61599999999999 728.3326666666667 131.154Q729.1096666666667 130.692 730.1456666666668 130.692Q731.1536666666668 130.692 731.9096666666668 131.14Q732.6656666666668 131.588 733.0856666666668 132.39999999999998Q733.5056666666668 133.212 733.5056666666668 134.29V134.822H727.3876666666667V133.772H732.8336666666668L732.3156666666667 134.15Q732.3156666666667 133.436 732.0426666666667 132.904Q731.7696666666668 132.372 731.2866666666669 132.078Q730.8036666666668 131.784 730.1456666666668 131.784Q729.4596666666667 131.784 728.9486666666668 132.106Q728.4376666666668 132.428 728.1646666666668 133.002Q727.8916666666668 133.576 727.8916666666668 134.346V134.43Q727.8916666666668 135.662 728.4936666666667 136.369Q729.0956666666668 137.076 730.1876666666668 137.076Q730.9156666666668 137.076 731.4266666666667 136.78199999999998Q731.9376666666668 136.488 732.2876666666667 135.9L733.2536666666667 136.474Q732.7356666666668 137.328 731.9446666666668 137.748Q731.1536666666668 138.168 730.1596666666668 138.168Q729.1096666666667 138.168 728.3326666666667 137.70600000000002Q727.5556666666668 137.244 727.1286666666667 136.404Q726.7016666666668 135.564 726.7016666666668 134.43Z M739.0496666666668 136.138Q739.0496666666668 135.718 738.7626666666667 135.466Q738.4756666666667 135.214 737.7616666666668 135.046L736.8796666666667 134.836Q735.7456666666667 134.556 735.2206666666667 134.05200000000002Q734.6956666666667 133.548 734.6956666666667 132.722Q734.6956666666667 132.092 735.0246666666667 131.637Q735.3536666666668 131.182 735.9556666666667 130.937Q736.5576666666667 130.692 737.3836666666667 130.692Q738.4336666666667 130.692 739.1756666666668 131.147Q739.9176666666667 131.602 740.2256666666667 132.428L739.2036666666668 132.862Q738.9796666666667 132.288 738.4756666666667 132.036Q737.9716666666667 131.784 737.3976666666667 131.784Q736.6696666666668 131.784 736.2846666666667 132.029Q735.8996666666667 132.274 735.8996666666667 132.708Q735.8996666666667 133.156 736.2146666666667 133.359Q736.5296666666667 133.562 737.2156666666667 133.73L738.0976666666668 133.94Q739.2176666666668 134.206 739.7356666666667 134.731Q740.2536666666667 135.256 740.2536666666667 136.124Q740.2536666666667 137.062 739.5256666666667 137.615Q738.7976666666667 138.168 737.5516666666667 138.168Q736.3756666666667 138.168 735.5426666666667 137.65699999999998Q734.7096666666667 137.146 734.4296666666668 136.25L735.4796666666667 135.858Q735.7036666666668 136.46 736.2216666666668 136.768Q736.7396666666667 137.076 737.5096666666667 137.076Q738.2656666666668 137.076 738.6576666666667 136.838Q739.0496666666668 136.6 739.0496666666668 136.138Z M744.9576666666667 135.704Q744.9576666666667 135.06 745.1606666666667 134.52800000000002Q745.3636666666666 133.996 745.8676666666667 133.52Q746.3716666666667 133.044 747.2396666666667 132.568L748.1076666666667 132.092Q749.0596666666667 131.56 749.4796666666666 131.18900000000002Q749.8996666666667 130.818 749.8996666666667 130.258Q749.8996666666667 129.642 749.5216666666668 129.278Q749.1436666666667 128.914 748.4716666666667 128.914Q747.7856666666667 128.914 747.3796666666667 129.271Q746.9736666666666 129.628 746.9736666666666 130.202Q746.9736666666666 130.524 747.0716666666667 130.762Q747.1696666666667 131.0 747.4496666666666 131.329Q747.7296666666667 131.658 748.2756666666667 132.26L753.5256666666667 138.0H752.0276666666667L747.2396666666667 132.778Q746.9036666666667 132.414 746.5746666666666 132.015Q746.2456666666667 131.61599999999999 746.0356666666667 131.161Q745.8256666666667 130.706 745.8256666666667 130.188Q745.8256666666667 129.502 746.1756666666668 128.984Q746.5256666666667 128.466 747.1276666666668 128.172Q747.7296666666667 127.878 748.4856666666667 127.878Q749.2136666666667 127.878 749.7946666666667 128.172Q750.3756666666667 128.466 750.7116666666667 128.977Q751.0476666666667 129.488 751.0476666666667 130.146Q751.0476666666667 130.944 750.4596666666666 131.56Q749.8716666666667 132.176 748.6256666666667 132.876L747.7716666666666 133.352Q747.1136666666666 133.716 746.7496666666666 134.059Q746.3856666666667 134.402 746.2456666666667 134.773Q746.1056666666667 135.144 746.1056666666667 135.606Q746.1056666666667 136.362 746.7076666666667 136.77499999999998Q747.3096666666667 137.188 748.1776666666667 137.188Q749.0736666666667 137.188 749.7806666666667 136.824Q750.4876666666667 136.46 750.9846666666667 135.732Q751.4816666666667 135.004 751.7336666666666 133.94L751.9436666666667 133.044L752.9796666666667 133.296L752.7836666666667 134.122Q752.4756666666667 135.41 751.8386666666668 136.32Q751.2016666666667 137.23 750.2636666666667 137.699Q749.3256666666667 138.168 748.0796666666666 138.168Q747.1696666666667 138.168 746.4626666666667 137.87400000000002Q745.7556666666667 137.58 745.3566666666667 137.027Q744.9576666666667 136.474 744.9576666666667 135.704Z M758.0756666666667 134.43Q758.0756666666667 133.338 758.4956666666667 132.49099999999999Q758.9156666666667 131.644 759.6856666666667 131.168Q760.4556666666667 130.692 761.5056666666667 130.692Q762.4996666666667 130.692 763.2416666666667 131.126Q763.9836666666666 131.56 764.4176666666667 132.386L763.4516666666667 132.946Q763.1436666666667 132.358 762.6536666666667 132.085Q762.1636666666667 131.812 761.5056666666667 131.812Q760.8196666666666 131.812 760.3226666666667 132.14100000000002Q759.8256666666667 132.47 759.5596666666668 133.058Q759.2936666666667 133.646 759.2936666666667 134.43Q759.2936666666667 135.592 759.8816666666667 136.32Q760.4696666666667 137.048 761.5056666666667 137.048Q762.1636666666667 137.048 762.7096666666666 136.761Q763.2556666666667 136.474 763.6196666666667 135.83L764.5856666666667 136.404Q764.1236666666667 137.23 763.3326666666667 137.699Q762.5416666666667 138.168 761.5056666666667 138.168Q760.4556666666667 138.168 759.6856666666667 137.685Q758.9156666666667 137.202 758.4956666666667 136.362Q758.0756666666667 135.522 758.0756666666667 134.43Z M765.5516666666667 134.43Q765.5516666666667 133.338 765.9716666666667 132.49099999999999Q766.3916666666667 131.644 767.1616666666666 131.168Q767.9316666666667 130.692 768.9816666666667 130.692Q770.0316666666666 130.692 770.8016666666667 131.168Q771.5716666666667 131.644 771.9916666666667 132.49099999999999Q772.4116666666666 133.338 772.4116666666666 134.43Q772.4116666666666 135.522 771.9916666666667 136.362Q771.5716666666667 137.202 770.8016666666667 137.685Q770.0316666666666 138.168 768.9816666666667 138.168Q767.9316666666667 138.168 767.1616666666666 137.685Q766.3916666666667 137.202 765.9716666666667 136.362Q765.5516666666667 135.522 765.5516666666667 134.43ZM766.7696666666667 134.43Q766.7696666666667 135.2 767.0356666666667 135.795Q767.3016666666667 136.39 767.7986666666667 136.719Q768.2956666666666 137.048 768.9816666666667 137.048Q769.6816666666667 137.048 770.1716666666666 136.719Q770.6616666666666 136.39 770.9276666666667 135.795Q771.1936666666667 135.2 771.1936666666667 134.43Q771.1936666666667 133.646 770.9276666666667 133.058Q770.6616666666666 132.47 770.1716666666666 132.14100000000002Q769.6816666666667 131.812 768.9816666666667 131.812Q768.2956666666666 131.812 767.7986666666667 132.14100000000002Q767.3016666666667 132.47 767.0356666666667 133.058Q766.7696666666667 133.646 766.7696666666667 134.43Z M773.8956666666667 130.86H775.0856666666667V132.918H774.6376666666666Q774.9036666666667 131.882 775.6246666666667 131.287Q776.3456666666667 130.692 777.2976666666667 130.692Q779.9016666666666 130.692 779.9016666666666 133.856V138.0H778.7116666666667V133.856Q778.7116666666667 132.792 778.2916666666667 132.288Q777.8716666666667 131.784 777.0176666666666 131.784Q776.4716666666667 131.784 776.0306666666667 132.078Q775.5896666666666 132.372 775.3376666666667 132.89Q775.0856666666667 133.408 775.0856666666667 134.08V138.0H773.8956666666667Z M782.2676666666667 135.788V129.068L783.4576666666667 128.662V135.592Q783.4576666666667 136.376 783.7376666666667 136.684Q784.0176666666667 136.992 784.6616666666667 136.992Q784.8716666666667 136.992 785.1026666666667 136.957Q785.3336666666667 136.922 785.5576666666667 136.866V137.958Q785.2916666666667 138.028 784.9836666666667 138.07Q784.6756666666668 138.112 784.3956666666667 138.112Q783.7236666666668 138.112 783.2476666666668 137.881Q782.7716666666668 137.65 782.5196666666668 137.139Q782.2676666666667 136.628 782.2676666666667 135.788ZM781.0636666666667 130.86H785.1656666666667V131.938H781.0636666666667Z M786.5516666666667 134.43Q786.5516666666667 133.296 786.9786666666666 132.456Q787.4056666666667 131.61599999999999 788.1826666666666 131.154Q788.9596666666666 130.692 789.9956666666667 130.692Q791.0036666666667 130.692 791.7596666666667 131.14Q792.5156666666667 131.588 792.9356666666667 132.39999999999998Q793.3556666666667 133.212 793.3556666666667 134.29V134.822H787.2376666666667V133.772H792.6836666666667L792.1656666666667 134.15Q792.1656666666667 133.436 791.8926666666666 132.904Q791.6196666666667 132.372 791.1366666666668 132.078Q790.6536666666667 131.784 789.9956666666667 131.784Q789.3096666666667 131.784 788.7986666666667 132.106Q788.2876666666667 132.428 788.0146666666667 133.002Q787.7416666666667 133.576 787.7416666666667 134.346V134.43Q787.7416666666667 135.662 788.3436666666666 136.369Q788.9456666666667 137.076 790.0376666666667 137.076Q790.7656666666667 137.076 791.2766666666666 136.78199999999998Q791.7876666666667 136.488 792.1376666666666 135.9L793.1036666666666 136.474Q792.5856666666667 137.328 791.7946666666667 137.748Q791.0036666666667 138.168 790.0096666666667 138.168Q788.9596666666666 138.168 788.1826666666666 137.70600000000002Q787.4056666666667 137.244 786.9786666666666 136.404Q786.5516666666667 135.564 786.5516666666667 134.43Z M794.8396666666667 130.86H796.0296666666668V132.918H795.5816666666667Q795.8476666666668 131.882 796.5686666666668 131.287Q797.2896666666668 130.692 798.2416666666668 130.692Q800.8456666666667 130.692 800.8456666666667 133.856V138.0H799.6556666666668V133.856Q799.6556666666668 132.792 799.2356666666667 132.288Q798.8156666666667 131.784 797.9616666666667 131.784Q797.4156666666668 131.784 796.9746666666667 132.078Q796.5336666666667 132.372 796.2816666666668 132.89Q796.0296666666668 133.408 796.0296666666668 134.08V138.0H794.8396666666667Z M803.2116666666668 135.788V129.068L804.4016666666668 128.662V135.592Q804.4016666666668 136.376 804.6816666666668 136.684Q804.9616666666668 136.992 805.6056666666668 136.992Q805.8156666666667 136.992 806.0466666666667 136.957Q806.2776666666667 136.922 806.5016666666668 136.866V137.958Q806.2356666666668 138.028 805.9276666666668 138.07Q805.6196666666668 138.112 805.3396666666667 138.112Q804.6676666666668 138.112 804.1916666666668 137.881Q803.7156666666668 137.65 803.4636666666668 137.139Q803.2116666666668 136.628 803.2116666666668 135.788ZM802.0076666666668 130.86H806.1096666666667V131.938H802.0076666666668Z" fill="#5B616B"/>
</svg>