<svg width="880" height="316" viewBox="0 0 880 316" xmlns="http://www.w3.org/2000/svg" font-family="One UI Sans">
<path d="M34,0 h812 a34,34 0 0 1 34,34 v248 a34,34 0 0 1 -34,34 h-812 a34,34 0 0 1 -34,-34 v-248 a34,34 0 0 1 34,-34 z" fill="#FFFFFF" stroke="#E3E7ED"/>
<path d="M52.405 43.335H54.61L51.76 54.0H49.465L47.019999999999996 45.135H47.89L45.505 54.0H43.21L40.3 43.335H42.58L44.995 53.205H43.855L46.525 43.335H48.43L51.144999999999996 53.205H49.99Z M56.019999999999996 43.335H58.18V54.0H56.019999999999996ZM62.62 43.335H64.78V54.0H62.62ZM63.535 49.635H57.265V47.61H63.535Z M70.435 44.385H71.485L68.23 54.0H66.04L69.88 43.335H72.145L75.985 54.0H73.705ZM73.91499999999999 51.915H68.365V50.055H73.91499999999999Z M79.79499999999999 43.815H81.95499999999998V54.0H79.79499999999999ZM76.57 43.335H85.17999999999999V45.36H76.57Z M90.4 43.335H92.56V54.0H90.4Z M105.49 48.66Q105.49 47.04 104.65 46.185Q103.81 45.33 102.265 45.33H100.585V52.005H102.265Q103.81 52.005 104.65 51.150000000000006Q105.49 50.295 105.49 48.66ZM102.38499999999999 54.0H98.425V43.335H102.38499999999999Q104.05 43.335 105.2425 43.965Q106.435 44.595 107.07249999999999 45.7875Q107.71 46.980000000000004 107.71 48.66Q107.71 50.34 107.07249999999999 51.5325Q106.435 52.725 105.2425 53.3625Q104.05 54.0 102.38499999999999 54.0Z M117.07000000000001 48.66Q117.07000000000001 47.595 116.71000000000001 46.807500000000005Q116.35000000000001 46.02 115.6825 45.6Q115.015 45.18 114.10000000000001 45.18Q113.2 45.18 112.5325 45.6Q111.86500000000001 46.02 111.505 46.807500000000005Q111.145 47.595 111.145 48.66Q111.145 49.74 111.505 50.5275Q111.86500000000001 51.315 112.5325 51.735Q113.2 52.155 114.10000000000001 52.155Q115.015 52.155 115.6825 51.735Q116.35000000000001 51.315 116.71000000000001 50.5275Q117.07000000000001 49.74 117.07000000000001 48.66ZM114.10000000000001 54.21Q112.57000000000001 54.21 111.4 53.519999999999996Q110.23 52.83 109.5775 51.585Q108.925 50.34 108.925 48.66Q108.925 46.995 109.5775 45.75Q110.23 44.505 111.4 43.815Q112.57000000000001 43.125 114.10000000000001 43.125Q115.66 43.125 116.82249999999999 43.815Q117.985 44.505 118.6375 45.75Q119.29 46.995 119.29 48.66Q119.29 50.34 118.6375 51.585Q117.985 52.83 116.815 53.519999999999996Q115.645 54.21 114.10000000000001 54.21Z" fill="#9AA1AC"/>
<path d="M69.0,80 h330.0 a29.0,29.0 0 0 1 29.0,29.0 v0.0 a29.0,29.0 0 0 1 -29.0,29.0 h-330.0 a29.0,29.0 0 0 1 -29.0,-29.0 v-0.0 a29.0,29.0 0 0 1 29.0,-29.0 z" fill="#1B72F2"/>
<circle cx="69.0" cy="109.0" r="17" fill="#FFFFFF" fill-opacity="0.18"/>
<g transform="translate(58.0,98.0) scale(0.9166666666666666)" stroke="#FFFFFF" stroke-width="1.9" stroke-linecap="round" stroke-linejoin="round" fill="#FFFFFF"><rect x="4.5" y="5" width="15" height="14" rx="2.4" fill="none"/><path d="M4.5 9.5h15M10 9.5V19" fill="none"/></g>
<path d="M103.224 109.96V102.202H105.492V109.96Q105.492 111.058 105.825 111.751Q106.158 112.444 106.797 112.768Q107.436 113.092 108.354 113.092Q109.254 113.092 109.884 112.768Q110.514 112.444 110.856 111.751Q111.198 111.058 111.198 109.96V102.202H113.466V109.96Q113.466 111.706 112.854 112.88499999999999Q112.242 114.064 111.108 114.649Q109.974 115.234 108.336 115.234Q106.716 115.234 105.582 114.649Q104.448 114.064 103.836 112.88499999999999Q103.224 111.706 103.224 109.96Z M116.076 102.202H118.344V115.0H116.076Z M130.116 100.924H132.38400000000001L126.714 117.34H124.446Z M138.32399999999998 109.96V102.202H140.59199999999998V109.96Q140.59199999999998 111.058 140.92499999999998 111.751Q141.25799999999998 112.444 141.897 112.768Q142.536 113.092 143.454 113.092Q144.35399999999998 113.092 144.98399999999998 112.768Q145.614 112.444 145.95600000000002 111.751Q146.298 111.058 146.298 109.96V102.202H148.566V109.96Q148.566 111.706 147.954 112.88499999999999Q147.34199999999998 114.064 146.20799999999997 114.649Q145.07399999999998 115.234 143.436 115.234Q141.816 115.234 140.68200000000002 114.649Q139.548 114.064 138.93599999999998 112.88499999999999Q138.32399999999998 111.706 138.32399999999998 109.96Z M152.76 115.0H150.27599999999998L154.68599999999998 108.052L155.28 107.728L158.736 102.202H161.22L156.792 109.114L156.19799999999998 109.438ZM156.17999999999998 107.548 156.738 107.818 161.31 115.0H158.682L155.298 109.51L154.72199999999998 109.24L150.36599999999999 102.202H152.994Z M176.304 108.61Q176.304 106.504 175.224 105.397Q174.14399999999998 104.29 172.164 104.29H169.914V112.912H172.164Q174.14399999999998 112.912 175.224 111.805Q176.304 110.69800000000001 176.304 108.61ZM172.29 115.0H167.646V102.202H172.29Q174.26999999999998 102.202 175.69199999999998 102.967Q177.11399999999998 103.732 177.86999999999998 105.163Q178.62599999999998 106.594 178.62599999999998 108.61Q178.62599999999998 110.608 177.86999999999998 112.039Q177.11399999999998 113.47 175.69199999999998 114.235Q174.26999999999998 115.0 172.29 115.0Z M180.01199999999997 110.374Q180.01199999999997 108.898 180.59699999999998 107.8Q181.182 106.702 182.226 106.09Q183.26999999999998 105.47800000000001 184.63799999999998 105.47800000000001Q186.04199999999997 105.47800000000001 187.04999999999995 106.09Q188.05799999999996 106.702 188.58899999999997 107.773Q189.11999999999998 108.844 189.11999999999998 110.194V110.968H181.182V109.402H187.878L186.97799999999998 109.96Q186.97799999999998 109.132 186.69 108.53800000000001Q186.402 107.944 185.88899999999998 107.62Q185.37599999999998 107.296 184.65599999999998 107.296Q183.93599999999998 107.296 183.378 107.638Q182.81999999999996 107.98 182.52299999999997 108.619Q182.22599999999997 109.258 182.22599999999997 110.158V110.482Q182.22599999999997 111.832 182.90099999999995 112.579Q183.57599999999996 113.326 184.78199999999998 113.326Q185.51999999999998 113.326 186.07799999999997 113.02Q186.63599999999997 112.714 187.03199999999998 112.102L188.724 113.128Q188.05799999999996 114.172 187.02299999999997 114.703Q185.98799999999997 115.234 184.70999999999998 115.234Q183.32399999999998 115.234 182.271 114.649Q181.218 114.064 180.61499999999998 112.975Q180.01199999999997 111.886 180.01199999999997 110.374Z M195.888 112.462Q195.888 112.066 195.609 111.82300000000001Q195.33 111.58 194.60999999999999 111.418L193.404 111.13Q191.874 110.77 191.163 110.077Q190.452 109.384 190.452 108.214Q190.452 107.35 190.92000000000002 106.738Q191.388 106.126 192.207 105.802Q193.026 105.47800000000001 194.088 105.47800000000001Q195.492 105.47800000000001 196.527 106.081Q197.562 106.684 198.012 107.836L196.266 108.502Q195.978 107.872 195.375 107.593Q194.772 107.31400000000001 194.124 107.31400000000001Q193.386 107.31400000000001 192.981 107.557Q192.576 107.8 192.576 108.232Q192.576 108.664 192.882 108.87100000000001Q193.188 109.078 193.87199999999999 109.24L195.078 109.528Q196.59 109.888 197.31 110.59Q198.03 111.292 198.03 112.48Q198.03 113.74 197.049 114.487Q196.068 115.234 194.358 115.234Q192.756 115.234 191.631 114.568Q190.506 113.902 190.092 112.678L191.892 112.03Q192.18 112.732 192.81 113.065Q193.44 113.398 194.322 113.398Q195.078 113.398 195.483 113.164Q195.888 112.93 195.888 112.462Z M201.882 115.0H199.686V105.73H201.882ZM199.506 103.048Q199.506 102.454 199.86599999999999 102.112Q200.226 101.77 200.802 101.77Q201.396 101.77 201.74699999999999 102.112Q202.09799999999998 102.454 202.09799999999998 103.048Q202.09799999999998 103.624 201.74699999999999 103.984Q201.396 104.344 200.802 104.344Q200.226 104.344 199.86599999999999 103.984Q199.506 103.624 199.506 103.048Z M210.54 114.622V112.282H211.02599999999998Q210.684 113.398 209.77499999999998 114.037Q208.86599999999999 114.676 207.642 114.676Q206.41799999999998 114.676 205.509 114.1Q204.6 113.524 204.096 112.489Q203.59199999999998 111.454 203.59199999999998 110.05Q203.59199999999998 108.646 204.096 107.62899999999999Q204.6 106.612 205.509 106.045Q206.41799999999998 105.47800000000001 207.642 105.47800000000001Q208.86599999999999 105.47800000000001 209.793 106.21600000000001Q210.72 106.95400000000001 211.07999999999998 108.286H210.558V105.73H212.718V114.46Q212.718 116.044 212.151 117.088Q211.584 118.132 210.594 118.62700000000001Q209.60399999999998 119.122 208.326 119.122Q206.976 119.122 205.833 118.555Q204.69 117.988 203.916 116.872L205.62599999999998 115.792Q206.058 116.422 206.733 116.773Q207.408 117.124 208.254 117.124Q209.298 117.124 209.91899999999998 116.521Q210.54 115.918 210.54 114.622ZM208.164 107.494Q207.426 107.494 206.904 107.827Q206.38199999999998 108.16 206.10299999999998 108.73599999999999Q205.82399999999998 109.312 205.82399999999998 110.05Q205.82399999999998 110.806 206.10299999999998 111.39099999999999Q206.38199999999998 111.976 206.904 112.318Q207.426 112.66 208.164 112.66Q208.902 112.66 209.433 112.327Q209.964 111.994 210.252 111.40899999999999Q210.54 110.824 210.54 110.05Q210.54 109.294 210.252 108.71799999999999Q209.964 108.142 209.433 107.818Q208.902 107.494 208.164 107.494Z M214.87800000000001 105.73H217.056V108.286H216.498Q216.822 107.008 217.722 106.243Q218.622 105.47800000000001 219.81 105.47800000000001Q223.104 105.47800000000001 223.104 109.564V115.0H220.90800000000002V109.69Q220.90800000000002 108.556 220.45800000000003 108.01599999999999Q220.008 107.476 219.09 107.476Q218.514 107.476 218.055 107.782Q217.596 108.088 217.335 108.646Q217.074 109.20400000000001 217.074 109.94200000000001V115.0H214.87800000000001Z" fill="#FFFFFF"/>
<path d="M481.0,80 h330.0 a29.0,29.0 0 0 1 29.0,29.0 v0.0 a29.0,29.0 0 0 1 -29.0,29.0 h-330.0 a29.0,29.0 0 0 1 -29.0,-29.0 v-0.0 a29.0,29.0 0 0 1 29.0,-29.0 z" fill="#1B72F2"/>
<circle cx="481.0" cy="109.0" r="17" fill="#FFFFFF" fill-opacity="0.18"/>
<g transform="translate(470.0,98.0) scale(0.9166666666666666)" stroke="#FFFFFF" stroke-width="1.9" stroke-linecap="round" stroke-linejoin="round" fill="#FFFFFF"><rect x="4.5" y="5" width="15" height="14" rx="2.4" fill="none"/><circle cx="9" cy="10" r="1.6"/><path d="M6 17l4-4 3 3 2.5-2.5L19 16.5" fill="none"/></g>
<path d="M520.678 114.154H519.328L523.414 102.202H525.718L521.146 115.0H518.77L514.216 102.202H516.61Z M529.192 115.0H526.9960000000001V105.73H529.192ZM526.816 103.048Q526.816 102.454 527.176 102.112Q527.5360000000001 101.77 528.1120000000001 101.77Q528.7060000000001 101.77 529.0570000000001 102.112Q529.4080000000001 102.454 529.4080000000001 103.048Q529.4080000000001 103.624 529.0570000000001 103.984Q528.7060000000001 104.344 528.1120000000001 104.344Q527.5360000000001 104.344 527.176 103.984Q526.816 103.624 526.816 103.048Z M536.4459999999999 112.462Q536.4459999999999 112.066 536.1669999999999 111.82300000000001Q535.8879999999999 111.58 535.168 111.418L533.962 111.13Q532.432 110.77 531.721 110.077Q531.01 109.384 531.01 108.214Q531.01 107.35 531.478 106.738Q531.9459999999999 106.126 532.7649999999999 105.802Q533.584 105.47800000000001 534.646 105.47800000000001Q536.05 105.47800000000001 537.085 106.081Q538.12 106.684 538.5699999999999 107.836L536.824 108.502Q536.536 107.872 535.933 107.593Q535.3299999999999 107.31400000000001 534.682 107.31400000000001Q533.944 107.31400000000001 533.539 107.557Q533.134 107.8 533.134 108.232Q533.134 108.664 533.44 108.87100000000001Q533.746 109.078 534.43 109.24L535.636 109.528Q537.1479999999999 109.888 537.8679999999999 110.59Q538.588 111.292 538.588 112.48Q538.588 113.74 537.607 114.487Q536.626 115.234 534.9159999999999 115.234Q533.314 115.234 532.189 114.568Q531.064 113.902 530.65 112.678L532.4499999999999 112.03Q532.7379999999999 112.732 533.3679999999999 113.065Q533.9979999999999 113.398 534.88 113.398Q535.636 113.398 536.0409999999999 113.164Q536.4459999999999 112.93 536.4459999999999 112.462Z M540.172 111.148V105.73H542.3679999999999V111.04Q542.3679999999999 112.174 542.818 112.70500000000001Q543.268 113.236 544.168 113.236Q544.762 113.236 545.203 112.93Q545.644 112.624 545.905 112.066Q546.1659999999999 111.508 546.1659999999999 110.788V105.73H548.362V115.0H546.184V112.426H546.742Q546.436 113.722 545.5360000000001 114.478Q544.636 115.234 543.448 115.234Q541.828 115.234 541.0 114.217Q540.172 113.2 540.172 111.148Z M556.102 109.618Q556.102 108.466 555.607 107.917Q555.112 107.368 554.158 107.368Q553.51 107.368 552.952 107.656Q552.394 107.944 551.98 108.484L550.36 107.386Q551.08 106.45 552.097 105.964Q553.114 105.47800000000001 554.338 105.47800000000001Q556.192 105.47800000000001 557.2090000000001 106.495Q558.226 107.512 558.226 109.582V115.0H556.102ZM550.1080000000001 112.462Q550.1080000000001 111.022 551.152 110.212Q552.196 109.402 554.014 109.402H556.534V110.95H554.122Q553.204 110.95 552.718 111.292Q552.232 111.634 552.232 112.282Q552.232 112.822 552.592 113.119Q552.952 113.416 553.636 113.416Q554.284 113.416 554.851 113.101Q555.418 112.786 555.76 112.21000000000001Q556.102 111.634 556.102 110.86L556.7860000000001 111.49Q556.7860000000001 112.642 556.291 113.479Q555.796 114.316 554.95 114.775Q554.104 115.234 553.0600000000001 115.234Q552.178 115.234 551.512 114.91Q550.846 114.586 550.4770000000001 113.965Q550.1080000000001 113.344 550.1080000000001 112.462Z M560.332 101.806H562.5279999999999V115.0H560.332Z M578.1519999999999 108.61Q578.1519999999999 106.504 577.0719999999999 105.397Q575.992 104.29 574.012 104.29H571.762V112.912H574.012Q575.992 112.912 577.0719999999999 111.805Q578.1519999999999 110.69800000000001 578.1519999999999 108.61ZM574.1379999999999 115.0H569.4939999999999V102.202H574.1379999999999Q576.1179999999999 102.202 577.54 102.967Q578.962 103.732 579.718 105.163Q580.4739999999999 106.594 580.4739999999999 108.61Q580.4739999999999 110.608 579.718 112.039Q578.962 113.47 577.54 114.235Q576.1179999999999 115.0 574.1379999999999 115.0Z M581.86 110.374Q581.86 108.898 582.445 107.8Q583.0300000000001 106.702 584.0740000000001 106.09Q585.118 105.47800000000001 586.4860000000001 105.47800000000001Q587.8900000000001 105.47800000000001 588.8980000000001 106.09Q589.9060000000001 106.702 590.4370000000001 107.773Q590.9680000000001 108.844 590.9680000000001 110.194V110.968H583.0300000000001V109.402H589.726L588.826 109.96Q588.826 109.132 588.538 108.53800000000001Q588.25 107.944 587.7370000000001 107.62Q587.224 107.296 586.504 107.296Q585.784 107.296 585.226 107.638Q584.668 107.98 584.3710000000001 108.619Q584.0740000000001 109.258 584.0740000000001 110.158V110.482Q584.0740000000001 111.832 584.749 112.579Q585.4240000000001 113.326 586.63 113.326Q587.368 113.326 587.926 113.02Q588.484 112.714 588.88 112.102L590.572 113.128Q589.9060000000001 114.172 588.8710000000001 114.703Q587.836 115.234 586.558 115.234Q585.172 115.234 584.119 114.649Q583.066 114.064 582.463 112.975Q581.86 111.886 581.86 110.374Z M597.736 112.462Q597.736 112.066 597.457 111.82300000000001Q597.178 111.58 596.4580000000001 111.418L595.2520000000001 111.13Q593.7220000000001 110.77 593.0110000000001 110.077Q592.3000000000001 109.384 592.3000000000001 108.214Q592.3000000000001 107.35 592.768 106.738Q593.236 106.126 594.0550000000001 105.802Q594.874 105.47800000000001 595.936 105.47800000000001Q597.34 105.47800000000001 598.375 106.081Q599.4100000000001 106.684 599.86 107.836L598.114 108.502Q597.826 107.872 597.223 107.593Q596.62 107.31400000000001 595.9720000000001 107.31400000000001Q595.234 107.31400000000001 594.8290000000001 107.557Q594.4240000000001 107.8 594.4240000000001 108.232Q594.4240000000001 108.664 594.73 108.87100000000001Q595.0360000000001 109.078 595.72 109.24L596.926 109.528Q598.438 109.888 599.158 110.59Q599.878 111.292 599.878 112.48Q599.878 113.74 598.897 114.487Q597.916 115.234 596.206 115.234Q594.604 115.234 593.479 114.568Q592.354 113.902 591.94 112.678L593.74 112.03Q594.028 112.732 594.658 113.065Q595.288 113.398 596.1700000000001 113.398Q596.926 113.398 597.331 113.164Q597.736 112.93 597.736 112.462Z M603.7299999999999 115.0H601.534V105.73H603.7299999999999ZM601.3539999999999 103.048Q601.3539999999999 102.454 601.7139999999999 102.112Q602.074 101.77 602.65 101.77Q603.244 101.77 603.595 102.112Q603.946 102.454 603.946 103.048Q603.946 103.624 603.595 103.984Q603.244 104.344 602.65 104.344Q602.074 104.344 601.7139999999999 103.984Q601.3539999999999 103.624 601.3539999999999 103.048Z M612.3879999999999 114.622V112.282H612.874Q612.5319999999999 113.398 611.6229999999999 114.037Q610.7139999999999 114.676 609.49 114.676Q608.266 114.676 607.357 114.1Q606.448 113.524 605.944 112.489Q605.4399999999999 111.454 605.4399999999999 110.05Q605.4399999999999 108.646 605.944 107.62899999999999Q606.448 106.612 607.357 106.045Q608.266 105.47800000000001 609.49 105.47800000000001Q610.7139999999999 105.47800000000001 611.641 106.21600000000001Q612.568 106.95400000000001 612.928 108.286H612.406V105.73H614.566V114.46Q614.566 116.044 613.999 117.088Q613.432 118.132 612.442 118.62700000000001Q611.452 119.122 610.174 119.122Q608.824 119.122 607.681 118.555Q606.538 117.988 605.764 116.872L607.4739999999999 115.792Q607.906 116.422 608.5809999999999 116.773Q609.256 117.124 610.102 117.124Q611.146 117.124 611.7669999999999 116.521Q612.3879999999999 115.918 612.3879999999999 114.622ZM610.012 107.494Q609.274 107.494 608.752 107.827Q608.23 108.16 607.951 108.73599999999999Q607.672 109.312 607.672 110.05Q607.672 110.806 607.951 111.39099999999999Q608.23 111.976 608.752 112.318Q609.274 112.66 610.012 112.66Q610.75 112.66 611.281 112.327Q611.812 111.994 612.0999999999999 111.40899999999999Q612.3879999999999 110.824 612.3879999999999 110.05Q612.3879999999999 109.294 612.0999999999999 108.71799999999999Q611.812 108.142 611.281 107.818Q610.75 107.494 610.012 107.494Z M616.726 105.73H618.904V108.286H618.346Q618.67 107.008 619.5699999999999 106.243Q620.4699999999999 105.47800000000001 621.6579999999999 105.47800000000001Q624.952 105.47800000000001 624.952 109.564V115.0H622.756V109.69Q622.756 108.556 622.306 108.01599999999999Q621.856 107.476 620.938 107.476Q620.362 107.476 619.903 107.782Q619.444 108.088 619.183 108.646Q618.9219999999999 109.20400000000001 618.9219999999999 109.94200000000001V115.0H616.726Z" fill="#FFFFFF"/>
<path d="M69.0,156 h330.0 a29.0,29.0 0 0 1 29.0,29.0 v0.0 a29.0,29.0 0 0 1 -29.0,29.0 h-330.0 a29.0,29.0 0 0 1 -29.0,-29.0 v-0.0 a29.0,29.0 0 0 1 29.0,-29.0 z" fill="#1B72F2"/>
<circle cx="69.0" cy="185.0" r="17" fill="#FFFFFF" fill-opacity="0.18"/>
<g transform="translate(58.0,174.0) scale(0.9166666666666666)" stroke="#FFFFFF" stroke-width="1.9" stroke-linecap="round" stroke-linejoin="round" fill="#FFFFFF"><rect x="4.5" y="4.5" width="6" height="5" rx="1.6" fill="none"/><rect x="13.5" y="14.5" width="6" height="5" rx="1.6" fill="none"/><path d="M7.5 9.5v4.5a2 2 0 0 0 2 2h4" fill="none"/></g>
<path d="M103.386 178.202H107.76Q109.30799999999999 178.202 110.442 178.733Q111.576 179.264 112.179 180.236Q112.782 181.208 112.782 182.558Q112.782 184.628 111.441 185.798Q110.1 186.968 107.76 186.968H105.096V184.898H107.598Q109.056 184.898 109.794 184.29500000000002Q110.532 183.692 110.532 182.558Q110.532 181.46 109.794 180.857Q109.056 180.254 107.598 180.254H105.618V191.0H103.386Z M114.6 181.73H116.77799999999999V184.286H116.22Q116.38199999999999 183.566 116.814 182.945Q117.246 182.324 117.858 181.937Q118.47 181.55 119.19 181.55Q119.36999999999999 181.55 119.54999999999998 181.568Q119.72999999999999 181.586 119.928 181.64V183.728Q119.568 183.656 119.136 183.656Q118.47 183.656 117.939 183.953Q117.408 184.25 117.102 184.826Q116.79599999999999 185.402 116.79599999999999 186.248V191.0H114.6Z M120.99 186.356Q120.99 184.916 121.55699999999999 183.81799999999998Q122.124 182.72 123.168 182.099Q124.212 181.478 125.58 181.478Q126.984 181.478 128.01 182.099Q129.036 182.72 129.612 183.81799999999998Q130.188 184.916 130.188 186.356Q130.188 187.796 129.612 188.894Q129.036 189.992 128.01 190.613Q126.984 191.234 125.58 191.234Q124.212 191.234 123.168 190.613Q122.124 189.992 121.55699999999999 188.894Q120.99 187.796 120.99 186.356ZM123.222 186.356Q123.222 187.202 123.50999999999999 187.85899999999998Q123.798 188.516 124.32900000000001 188.867Q124.86 189.218 125.58 189.218Q126.336 189.218 126.858 188.867Q127.38 188.516 127.668 187.85899999999998Q127.956 187.202 127.956 186.356Q127.956 185.492 127.668 184.853Q127.38 184.214 126.858 183.85399999999998Q126.336 183.494 125.58 183.494Q124.86 183.494 124.32900000000001 183.85399999999998Q123.798 184.214 123.50999999999999 184.853Q123.222 185.492 123.222 186.356Z M132.52800000000002 187.976V179.588L134.72400000000002 178.832V187.616Q134.72400000000002 188.498 135.048 188.831Q135.372 189.164 136.056 189.164Q136.32600000000002 189.164 136.61400000000003 189.119Q136.90200000000002 189.074 137.17200000000003 189.02V190.946Q136.812 191.036 136.371 191.099Q135.93 191.162 135.55200000000002 191.162Q134.65200000000002 191.162 133.96800000000002 190.856Q133.28400000000002 190.55 132.906 189.857Q132.52800000000002 189.164 132.52800000000002 187.976ZM131.08800000000002 181.73H136.722V183.674H131.08800000000002Z M138.30599999999998 186.356Q138.30599999999998 184.916 138.873 183.81799999999998Q139.44 182.72 140.48399999999998 182.099Q141.528 181.478 142.896 181.478Q144.29999999999998 181.478 145.32599999999996 182.099Q146.35199999999998 182.72 146.928 183.81799999999998Q147.504 184.916 147.504 186.356Q147.504 187.796 146.928 188.894Q146.35199999999998 189.992 145.32599999999996 190.613Q144.29999999999998 191.234 142.896 191.234Q141.528 191.234 140.48399999999998 190.613Q139.44 189.992 138.873 188.894Q138.30599999999998 187.796 138.30599999999998 186.356ZM140.53799999999998 186.356Q140.53799999999998 187.202 140.82599999999996 187.85899999999998Q141.11399999999998 188.516 141.64499999999998 188.867Q142.176 189.218 142.896 189.218Q143.652 189.218 144.17399999999998 188.867Q144.696 188.516 144.98399999999998 187.85899999999998Q145.272 187.202 145.272 186.356Q145.272 185.492 144.98399999999998 184.853Q144.696 184.214 144.17399999999998 183.85399999999998Q143.652 183.494 142.896 183.494Q142.176 183.494 141.64499999999998 183.85399999999998Q141.11399999999998 184.214 140.82599999999996 184.853Q140.53799999999998 185.492 140.53799999999998 186.356Z M149.844 187.976V179.588L152.04 178.832V187.616Q152.04 188.498 152.36399999999998 188.831Q152.688 189.164 153.37199999999999 189.164Q153.642 189.164 153.93 189.119Q154.218 189.074 154.488 189.02V190.946Q154.128 191.036 153.68699999999998 191.099Q153.24599999999998 191.162 152.868 191.162Q151.968 191.162 151.284 190.856Q150.6 190.55 150.22199999999998 189.857Q149.844 189.164 149.844 187.976ZM148.404 181.73H154.03799999999998V183.674H148.404Z M156.036 193.034Q156.35999999999999 193.088 156.63 193.106Q156.89999999999998 193.124 157.152 193.124Q157.67399999999998 193.124 157.998 192.881Q158.322 192.638 158.59199999999998 191.918L159.31199999999998 190.028L159.546 189.992L162.678 181.73H164.946L160.67999999999998 192.386Q160.302 193.34 159.879 193.94299999999998Q159.456 194.546 158.88 194.834Q158.304 195.122 157.404 195.122Q157.11599999999999 195.122 156.75599999999997 195.09500000000003Q156.396 195.068 156.036 194.978ZM160.878 190.01 159.474 191.9 155.28 181.73H157.69199999999998Z M166.29600000000002 181.73H168.47400000000002V184.286H167.934Q168.294 182.954 169.221 182.216Q170.148 181.478 171.372 181.478Q172.614 181.478 173.52300000000002 182.08100000000002Q174.43200000000002 182.684 174.92700000000002 183.773Q175.422 184.862 175.422 186.374Q175.422 187.85 174.92700000000002 188.94799999999998Q174.43200000000002 190.046 173.52300000000002 190.64Q172.614 191.234 171.372 191.234Q170.13 191.234 169.212 190.505Q168.294 189.776 167.934 188.462H168.49200000000002V194.924H166.29600000000002ZM168.49200000000002 186.374Q168.49200000000002 187.22 168.78000000000003 187.868Q169.068 188.516 169.599 188.867Q170.13 189.218 170.868 189.218Q171.606 189.218 172.119 188.849Q172.632 188.48 172.911 187.841Q173.19 187.202 173.19 186.374Q173.19 185.528 172.911 184.88Q172.632 184.232 172.119 183.863Q171.606 183.494 170.868 183.494Q170.13 183.494 169.599 183.85399999999998Q169.068 184.214 168.78000000000003 184.862Q168.49200000000002 185.51 168.49200000000002 186.374Z M179.31 191.0H177.114V181.73H179.31ZM176.934 179.048Q176.934 178.454 177.29399999999998 178.112Q177.654 177.76999999999998 178.23 177.76999999999998Q178.82399999999998 177.76999999999998 179.17499999999998 178.112Q179.52599999999998 178.454 179.52599999999998 179.048Q179.52599999999998 179.624 179.17499999999998 179.98399999999998Q178.82399999999998 180.344 178.23 180.344Q177.654 180.344 177.29399999999998 179.98399999999998Q176.934 179.624 176.934 179.048Z M181.488 181.73H183.666V184.286H183.10799999999998Q183.432 183.008 184.332 182.243Q185.232 181.478 186.42 181.478Q189.714 181.478 189.714 185.564V191.0H187.51799999999997V185.69Q187.51799999999997 184.556 187.06799999999998 184.01600000000002Q186.618 183.476 185.7 183.476Q185.124 183.476 184.665 183.78199999999998Q184.206 184.088 183.945 184.64600000000002Q183.684 185.204 183.684 185.942V191.0H181.488Z M198.28199999999998 190.622V188.282H198.76799999999997Q198.426 189.398 197.517 190.03699999999998Q196.60799999999998 190.676 195.384 190.676Q194.15999999999997 190.676 193.25099999999998 190.1Q192.34199999999998 189.524 191.83799999999997 188.489Q191.33399999999997 187.454 191.33399999999997 186.05Q191.33399999999997 184.64600000000002 191.83799999999997 183.62900000000002Q192.34199999999998 182.612 193.25099999999998 182.04500000000002Q194.15999999999997 181.478 195.384 181.478Q196.60799999999998 181.478 197.53499999999997 182.216Q198.462 182.954 198.82199999999997 184.286H198.29999999999998V181.73H200.45999999999998V190.46Q200.45999999999998 192.044 199.89299999999997 193.08800000000002Q199.32599999999996 194.132 198.33599999999996 194.627Q197.34599999999998 195.122 196.06799999999998 195.122Q194.718 195.122 193.575 194.555Q192.432 193.988 191.658 192.872L193.36799999999997 191.792Q193.79999999999998 192.422 194.47499999999997 192.773Q195.14999999999998 193.124 195.99599999999998 193.124Q197.04 193.124 197.661 192.52100000000002Q198.28199999999998 191.918 198.28199999999998 190.622ZM195.90599999999998 183.494Q195.16799999999998 183.494 194.64599999999996 183.827Q194.12399999999997 184.16 193.84499999999997 184.736Q193.56599999999997 185.312 193.56599999999997 186.05Q193.56599999999997 186.806 193.84499999999997 187.39100000000002Q194.12399999999997 187.976 194.64599999999996 188.31799999999998Q195.16799999999998 188.66 195.90599999999998 188.66Q196.64399999999998 188.66 197.17499999999998 188.327Q197.706 187.994 197.99399999999997 187.409Q198.28199999999998 186.824 198.28199999999998 186.05Q198.28199999999998 185.294 197.99399999999997 184.71800000000002Q197.706 184.142 197.17499999999998 183.81799999999998Q196.64399999999998 183.494 195.90599999999998 183.494Z" fill="#FFFFFF"/>
<path d="M481.0,156 h330.0 a29.0,29.0 0 0 1 29.0,29.0 v0.0 a29.0,29.0 0 0 1 -29.0,29.0 h-330.0 a29.0,29.0 0 0 1 -29.0,-29.0 v-0.0 a29.0,29.0 0 0 1 29.0,-29.0 z" fill="#1B72F2"/>
<circle cx="481.0" cy="185.0" r="17" fill="#FFFFFF" fill-opacity="0.18"/>
<g transform="translate(470.0,174.0) scale(0.9166666666666666)" stroke="#FFFFFF" stroke-width="1.9" stroke-linecap="round" stroke-linejoin="round" fill="#FFFFFF"><path d="M5 19l1-3.5L14.5 7l3 3L9 18.5z" fill="none"/><path d="M13 8.5l3 3" fill="none"/></g>
<path d="M515.386 178.202H517.654V191.0H515.386Z M520.12 177.806H522.3159999999999V191.0H520.12Z M524.494 177.806H526.6899999999999V191.0H524.494Z M528.796 187.148V181.73H530.992V187.04Q530.992 188.174 531.442 188.70499999999998Q531.892 189.236 532.792 189.236Q533.386 189.236 533.827 188.93Q534.268 188.624 534.529 188.066Q534.79 187.508 534.79 186.788V181.73H536.986V191.0H534.808V188.426H535.366Q535.0600000000001 189.722 534.1600000000001 190.478Q533.26 191.234 532.072 191.234Q530.452 191.234 529.624 190.21699999999998Q528.796 189.2 528.796 187.148Z M544.222 188.462Q544.222 188.066 543.943 187.823Q543.664 187.58 542.9440000000001 187.418L541.738 187.13Q540.2080000000001 186.77 539.4970000000001 186.077Q538.7860000000001 185.38400000000001 538.7860000000001 184.214Q538.7860000000001 183.35 539.254 182.738Q539.722 182.126 540.5409999999999 181.80200000000002Q541.36 181.478 542.422 181.478Q543.826 181.478 544.8610000000001 182.08100000000002Q545.8960000000001 182.684 546.346 183.836L544.6 184.502Q544.312 183.872 543.7090000000001 183.59300000000002Q543.106 183.314 542.4580000000001 183.314Q541.72 183.314 541.315 183.55700000000002Q540.9100000000001 183.8 540.9100000000001 184.232Q540.9100000000001 184.664 541.2160000000001 184.87099999999998Q541.522 185.078 542.206 185.24L543.412 185.528Q544.924 185.888 545.644 186.59Q546.364 187.292 546.364 188.48Q546.364 189.74 545.383 190.48700000000002Q544.402 191.234 542.692 191.234Q541.09 191.234 539.965 190.56799999999998Q538.84 189.902 538.426 188.678L540.226 188.03Q540.514 188.732 541.144 189.065Q541.774 189.398 542.6560000000001 189.398Q543.412 189.398 543.817 189.164Q544.222 188.93 544.222 188.462Z M548.668 187.976V179.588L550.864 178.832V187.616Q550.864 188.498 551.1880000000001 188.831Q551.5120000000001 189.164 552.196 189.164Q552.466 189.164 552.754 189.119Q553.042 189.074 553.312 189.02V190.946Q552.952 191.036 552.511 191.099Q552.07 191.162 551.692 191.162Q550.792 191.162 550.1080000000001 190.856Q549.4240000000001 190.55 549.046 189.857Q548.668 189.164 548.668 187.976ZM547.2280000000001 181.73H552.8620000000001V183.674H547.2280000000001Z M554.914 181.73H557.092V184.286H556.534Q556.6959999999999 183.566 557.1279999999999 182.945Q557.56 182.324 558.172 181.937Q558.784 181.55 559.5039999999999 181.55Q559.684 181.55 559.864 181.568Q560.044 181.586 560.242 181.64V183.728Q559.882 183.656 559.4499999999999 183.656Q558.784 183.656 558.2529999999999 183.953Q557.722 184.25 557.4159999999999 184.826Q557.1099999999999 185.402 557.1099999999999 186.248V191.0H554.914Z M567.352 185.618Q567.352 184.466 566.857 183.917Q566.362 183.368 565.408 183.368Q564.76 183.368 564.202 183.656Q563.644 183.944 563.23 184.484L561.61 183.386Q562.33 182.45 563.347 181.964Q564.364 181.478 565.588 181.478Q567.442 181.478 568.4590000000001 182.495Q569.476 183.512 569.476 185.582V191.0H567.352ZM561.3580000000001 188.462Q561.3580000000001 187.022 562.402 186.212Q563.446 185.402 565.264 185.402H567.784V186.95H565.372Q564.454 186.95 563.968 187.292Q563.482 187.63400000000001 563.482 188.282Q563.482 188.822 563.842 189.119Q564.202 189.416 564.886 189.416Q565.534 189.416 566.101 189.101Q566.668 188.786 567.01 188.21Q567.352 187.63400000000001 567.352 186.86L568.0360000000001 187.49Q568.0360000000001 188.642 567.541 189.47899999999998Q567.046 190.316 566.2 190.775Q565.354 191.234 564.3100000000001 191.234Q563.428 191.234 562.762 190.91000000000003Q562.096 190.586 561.7270000000001 189.965Q561.3580000000001 189.344 561.3580000000001 188.462Z M572.2299999999999 187.976V179.588L574.4259999999999 178.832V187.616Q574.4259999999999 188.498 574.75 188.831Q575.074 189.164 575.7579999999999 189.164Q576.0279999999999 189.164 576.3159999999999 189.119Q576.6039999999999 189.074 576.8739999999999 189.02V190.946Q576.5139999999999 191.036 576.0729999999999 191.099Q575.632 191.162 575.2539999999999 191.162Q574.3539999999999 191.162 573.67 190.856Q572.986 190.55 572.608 189.857Q572.2299999999999 189.164 572.2299999999999 187.976ZM570.79 181.73H576.424V183.674H570.79Z M580.6719999999999 191.0H578.476V181.73H580.6719999999999ZM578.2959999999999 179.048Q578.2959999999999 178.454 578.656 178.112Q579.016 177.76999999999998 579.592 177.76999999999998Q580.186 177.76999999999998 580.537 178.112Q580.888 178.454 580.888 179.048Q580.888 179.624 580.537 179.98399999999998Q580.186 180.344 579.592 180.344Q579.016 180.344 578.656 179.98399999999998Q578.2959999999999 179.624 578.2959999999999 179.048Z M582.382 186.356Q582.382 184.916 582.949 183.81799999999998Q583.516 182.72 584.56 182.099Q585.6039999999999 181.478 586.972 181.478Q588.376 181.478 589.402 182.099Q590.428 182.72 591.0039999999999 183.81799999999998Q591.5799999999999 184.916 591.5799999999999 186.356Q591.5799999999999 187.796 591.0039999999999 188.894Q590.428 189.992 589.402 190.613Q588.376 191.234 586.972 191.234Q585.6039999999999 191.234 584.56 190.613Q583.516 189.992 582.949 188.894Q582.382 187.796 582.382 186.356ZM584.614 186.356Q584.614 187.202 584.902 187.85899999999998Q585.1899999999999 188.516 585.721 188.867Q586.252 189.218 586.972 189.218Q587.728 189.218 588.25 188.867Q588.7719999999999 188.516 589.06 187.85899999999998Q589.348 187.202 589.348 186.356Q589.348 185.492 589.06 184.853Q588.7719999999999 184.214 588.25 183.85399999999998Q587.728 183.494 586.972 183.494Q586.252 183.494 585.721 183.85399999999998Q585.1899999999999 184.214 584.902 184.853Q584.614 185.492 584.614 186.356Z M593.272 181.73H595.45V184.286H594.892Q595.216 183.008 596.116 182.243Q597.016 181.478 598.204 181.478Q601.498 181.478 601.498 185.564V191.0H599.302V185.69Q599.302 184.556 598.8520000000001 184.01600000000002Q598.402 183.476 597.484 183.476Q596.908 183.476 596.4490000000001 183.78199999999998Q595.99 184.088 595.729 184.64600000000002Q595.468 185.204 595.468 185.942V191.0H593.272Z" fill="#FFFFFF"/>
<path d="M69.0,232 h330.0 a29.0,29.0 0 0 1 29.0,29.0 v0.0 a29.0,29.0 0 0 1 -29.0,29.0 h-330.0 a29.0,29.0 0 0 1 -29.0,-29.0 v-0.0 a29.0,29.0 0 0 1 29.0,-29.0 z" fill="#1B72F2"/>
<circle cx="69.0" cy="261.0" r="17" fill="#FFFFFF" fill-opacity="0.18"/>
<g transform="translate(58.0,250.0) scale(0.9166666666666666)" stroke="#FFFFFF" stroke-width="1.9" stroke-linecap="round" stroke-linejoin="round" fill="#FFFFFF"><path d="M12 3.5l1.7 4.6 4.8 1.7-4.8 1.7L12 16.3l-1.7-4.8L5.5 9.8l4.8-1.7z"/></g>
<path d="M103.386 254.202H107.994Q109.65 254.202 110.64 254.661Q111.63 255.12 112.089 255.885Q112.548 256.65 112.548 257.568Q112.548 258.522 112.107 259.251Q111.666 259.98 110.80199999999999 260.385Q109.938 260.79 108.678 260.79L108.804 260.178Q110.19 260.178 111.11699999999999 260.601Q112.044 261.024 112.512 261.762Q112.98 262.5 112.98 263.472Q112.98 264.426 112.512 265.227Q112.044 266.028 111.018 266.514Q109.992 267.0 108.282 267.0H103.386ZM110.73 263.238Q110.73 262.428 110.1 261.96000000000004Q109.47 261.492 108.174 261.492H104.80799999999999V259.602H107.94Q109.164 259.602 109.731 259.134Q110.298 258.666 110.298 257.874Q110.298 257.082 109.72200000000001 256.632Q109.146 256.182 107.94 256.182H105.6V265.02H108.174Q109.47 265.02 110.1 264.543Q110.73 264.066 110.73 263.238Z M114.90599999999999 257.73H117.08399999999999V260.286H116.526Q116.68799999999999 259.566 117.11999999999999 258.945Q117.55199999999999 258.324 118.16399999999999 257.937Q118.776 257.55 119.496 257.55Q119.67599999999999 257.55 119.856 257.568Q120.03599999999999 257.586 120.234 257.64V259.728Q119.874 259.656 119.442 259.656Q118.776 259.656 118.245 259.953Q117.714 260.25 117.40799999999999 260.826Q117.10199999999999 261.402 117.10199999999999 262.248V267.0H114.90599999999999Z M127.344 261.618Q127.344 260.466 126.84899999999999 259.91700000000003Q126.354 259.368 125.39999999999999 259.368Q124.752 259.368 124.19399999999999 259.656Q123.636 259.944 123.222 260.484L121.602 259.386Q122.322 258.45 123.339 257.964Q124.356 257.478 125.58 257.478Q127.434 257.478 128.451 258.495Q129.468 259.512 129.468 261.582V267.0H127.344ZM121.35 264.462Q121.35 263.022 122.394 262.212Q123.438 261.402 125.256 261.402H127.776V262.95H125.364Q124.446 262.95 123.96000000000001 263.29200000000003Q123.474 263.634 123.474 264.282Q123.474 264.822 123.834 265.119Q124.194 265.416 124.878 265.416Q125.526 265.416 126.09299999999999 265.101Q126.66 264.786 127.002 264.21000000000004Q127.344 263.634 127.344 262.86L128.028 263.49Q128.028 264.642 127.53299999999999 265.479Q127.038 266.316 126.19200000000001 266.775Q125.346 267.234 124.30199999999999 267.234Q123.42 267.234 122.75399999999999 266.90999999999997Q122.088 266.586 121.719 265.96500000000003Q121.35 265.344 121.35 264.462Z M131.574 257.73H133.752V260.286H133.194Q133.518 259.008 134.418 258.243Q135.318 257.478 136.506 257.478Q139.8 257.478 139.8 261.564V267.0H137.60399999999998V261.69Q137.60399999999998 260.556 137.154 260.01599999999996Q136.704 259.476 135.786 259.476Q135.21 259.476 134.751 259.78200000000004Q134.292 260.088 134.031 260.646Q133.77 261.204 133.77 261.942V267.0H131.574Z M141.42 262.356Q141.42 260.862 141.92399999999998 259.773Q142.428 258.684 143.337 258.081Q144.24599999999998 257.478 145.488 257.478Q146.712 257.478 147.639 258.207Q148.566 258.936 148.908 260.25H148.35V253.806H150.546V267.0H148.368V264.444H148.908Q148.548 265.758 147.62099999999998 266.496Q146.694 267.234 145.488 267.234Q144.24599999999998 267.234 143.337 266.64Q142.428 266.046 141.92399999999998 264.948Q141.42 263.85 141.42 262.356ZM143.652 262.356Q143.652 263.184 143.93099999999998 263.832Q144.20999999999998 264.48 144.73199999999997 264.84900000000005Q145.254 265.218 145.992 265.218Q146.73 265.218 147.261 264.867Q147.792 264.516 148.07999999999998 263.85900000000004Q148.368 263.202 148.368 262.356Q148.368 261.492 148.07999999999998 260.862Q147.792 260.232 147.261 259.86300000000006Q146.73 259.494 145.992 259.494Q145.254 259.494 144.73199999999997 259.86300000000006Q144.20999999999998 260.232 143.93099999999998 260.871Q143.652 261.51 143.652 262.356Z M154.90200000000002 267.0H152.70600000000002V257.73H154.90200000000002ZM152.526 255.048Q152.526 254.454 152.88600000000002 254.112Q153.246 253.76999999999998 153.822 253.76999999999998Q154.416 253.76999999999998 154.767 254.112Q155.118 254.454 155.118 255.048Q155.118 255.624 154.767 255.98399999999998Q154.416 256.344 153.822 256.344Q153.246 256.344 152.88600000000002 255.98399999999998Q152.526 255.624 152.526 255.048Z M157.08 257.73H159.258V260.286H158.7Q159.024 259.008 159.924 258.243Q160.824 257.478 162.012 257.478Q165.306 257.478 165.306 261.564V267.0H163.11V261.69Q163.11 260.556 162.66000000000003 260.01599999999996Q162.21 259.476 161.292 259.476Q160.716 259.476 160.257 259.78200000000004Q159.798 260.088 159.537 260.646Q159.276 261.204 159.276 261.942V267.0H157.08Z M173.874 266.622V264.282H174.35999999999999Q174.018 265.398 173.10899999999998 266.03700000000003Q172.2 266.676 170.976 266.676Q169.75199999999998 266.676 168.843 266.1Q167.934 265.524 167.43 264.48900000000003Q166.926 263.454 166.926 262.05Q166.926 260.646 167.43 259.629Q167.934 258.612 168.843 258.045Q169.75199999999998 257.478 170.976 257.478Q172.2 257.478 173.127 258.216Q174.054 258.954 174.414 260.286H173.892V257.73H176.052V266.46Q176.052 268.044 175.485 269.08799999999997Q174.918 270.132 173.928 270.627Q172.938 271.122 171.66 271.122Q170.31 271.122 169.167 270.555Q168.024 269.988 167.25 268.872L168.95999999999998 267.792Q169.392 268.422 170.067 268.773Q170.742 269.124 171.588 269.124Q172.632 269.124 173.253 268.521Q173.874 267.918 173.874 266.622ZM171.498 259.494Q170.76 259.494 170.238 259.827Q169.71599999999998 260.16 169.43699999999998 260.736Q169.158 261.312 169.158 262.05Q169.158 262.806 169.43699999999998 263.39099999999996Q169.71599999999998 263.976 170.238 264.318Q170.76 264.66 171.498 264.66Q172.236 264.66 172.767 264.327Q173.298 263.994 173.586 263.409Q173.874 262.824 173.874 262.05Q173.874 261.294 173.586 260.71799999999996Q173.298 260.142 172.767 259.818Q172.236 259.494 171.498 259.494Z" fill="#FFFFFF"/>
<path d="M481.0,232 h330.0 a29.0,29.0 0 0 1 29.0,29.0 v0.0 a29.0,29.0 0 0 1 -29.0,29.0 h-330.0 a29.0,29.0 0 0 1 -29.0,-29.0 v-0.0 a29.0,29.0 0 0 1 29.0,-29.0 z" fill="#1B72F2"/>
<circle cx="481.0" cy="261.0" r="17" fill="#FFFFFF" fill-opacity="0.18"/>
<g transform="translate(470.0,250.0) scale(0.9166666666666666)" stroke="#FFFFFF" stroke-width="1.9" stroke-linecap="round" stroke-linejoin="round" fill="#FFFFFF"><path d="M9.5 8.5L5.5 12l4 3.5M14.5 8.5l4 3.5-4 3.5" fill="none"/></g>
<path d="M529.012 254.202H531.334L527.86 267.0H525.448L522.406 256.056H523.306L520.336 267.0H517.906L514.414 254.202H516.79L519.814 266.19H518.572L521.83 254.202H523.918L527.23 266.19H525.988Z M532.342 262.374Q532.342 260.898 532.927 259.8Q533.5120000000001 258.702 534.556 258.09000000000003Q535.6 257.478 536.9680000000001 257.478Q538.3720000000001 257.478 539.3800000000001 258.09000000000003Q540.388 258.702 540.9190000000001 259.773Q541.45 260.844 541.45 262.194V262.968H533.5120000000001V261.402H540.208L539.308 261.96Q539.308 261.132 539.02 260.538Q538.732 259.944 538.219 259.62Q537.706 259.296 536.986 259.296Q536.266 259.296 535.708 259.63800000000003Q535.15 259.98 534.8530000000001 260.619Q534.556 261.258 534.556 262.158V262.482Q534.556 263.832 535.231 264.579Q535.9060000000001 265.326 537.112 265.326Q537.85 265.326 538.408 265.02Q538.966 264.714 539.362 264.102L541.054 265.128Q540.388 266.172 539.3530000000001 266.703Q538.318 267.234 537.04 267.234Q535.654 267.234 534.601 266.649Q533.548 266.064 532.9449999999999 264.975Q532.342 263.886 532.342 262.374Z M545.302 267.0H543.142V253.806H545.338V260.286H544.78Q545.14 258.954 546.058 258.216Q546.976 257.478 548.218 257.478Q549.46 257.478 550.369 258.081Q551.278 258.684 551.773 259.773Q552.268 260.862 552.268 262.356Q552.268 263.85 551.773 264.948Q551.278 266.046 550.369 266.64Q549.46 267.234 548.218 267.234Q546.976 267.234 546.058 266.505Q545.14 265.776 544.78 264.462H545.302ZM545.338 262.374Q545.338 263.22 545.626 263.86800000000005Q545.914 264.516 546.4449999999999 264.867Q546.976 265.218 547.714 265.218Q548.452 265.218 548.965 264.84900000000005Q549.4780000000001 264.48 549.7570000000001 263.832Q550.0360000000001 263.184 550.0360000000001 262.356Q550.0360000000001 261.528 549.7570000000001 260.88Q549.4780000000001 260.232 548.965 259.86300000000006Q548.452 259.494 547.714 259.494Q546.976 259.494 546.4449999999999 259.86300000000006Q545.914 260.232 545.626 260.871Q545.338 261.51 545.338 262.374Z M558.064 263.94Q558.064 263.094 558.361 262.40999999999997Q558.658 261.726 559.351 261.105Q560.044 260.484 561.2139999999999 259.854L562.3299999999999 259.242Q563.356 258.648 563.833 258.225Q564.31 257.802 564.31 257.172Q564.31 256.524 563.932 256.137Q563.554 255.75 562.852 255.75Q562.15 255.75 561.736 256.119Q561.322 256.488 561.322 257.1Q561.322 257.496 561.4929999999999 257.83799999999997Q561.664 258.18 562.024 258.594Q562.384 259.008 562.942 259.62L569.746 267.0H567.0999999999999L561.106 260.484Q560.5659999999999 259.89 560.134 259.359Q559.702 258.828 559.4590000000001 258.279Q559.216 257.73 559.216 257.082Q559.216 256.146 559.702 255.44400000000002Q560.188 254.742 561.016 254.355Q561.8439999999999 253.968 562.87 253.968Q563.914 253.968 564.7059999999999 254.36399999999998Q565.4979999999999 254.76 565.9479999999999 255.444Q566.3979999999999 256.128 566.3979999999999 256.992Q566.3979999999999 258.072 565.6329999999999 258.909Q564.8679999999999 259.746 563.1759999999999 260.7L562.096 261.312Q561.394 261.708 560.989 262.077Q560.584 262.446 560.422 262.842Q560.26 263.238 560.26 263.742Q560.26 264.552 560.9079999999999 265.02Q561.5559999999999 265.488 562.564 265.488Q563.5899999999999 265.488 564.4359999999999 265.047Q565.2819999999999 264.606 565.885 263.751Q566.4879999999999 262.896 566.7579999999999 261.69L567.01 260.538L568.972 260.952L568.7379999999999 261.996Q568.36 263.67 567.46 264.84000000000003Q566.56 266.01 565.2729999999999 266.62199999999996Q563.986 267.234 562.384 267.234Q561.1419999999999 267.234 560.161 266.847Q559.18 266.46 558.622 265.71299999999997Q558.064 264.966 558.064 263.94Z M575.3439999999999 260.61Q575.3439999999999 258.594 576.1089999999999 257.109Q576.8739999999999 255.624 578.251 254.796Q579.6279999999999 253.968 581.482 253.968Q583.318 253.968 584.6859999999999 254.814Q586.054 255.66 586.882 257.226L584.92 258.252Q584.3439999999999 257.154 583.4979999999999 256.632Q582.6519999999999 256.11 581.482 256.11Q580.3119999999999 256.11 579.4569999999999 256.65Q578.602 257.19 578.134 258.207Q577.6659999999999 259.224 577.6659999999999 260.61Q577.6659999999999 261.978 578.134 262.995Q578.602 264.012 579.4569999999999 264.552Q580.3119999999999 265.092 581.482 265.092Q582.688 265.092 583.5429999999999 264.561Q584.3979999999999 264.03 584.9559999999999 262.95L586.9359999999999 263.994Q586.108 265.56 584.722 266.397Q583.3359999999999 267.234 581.482 267.234Q579.646 267.234 578.26 266.40599999999995Q576.8739999999999 265.578 576.1089999999999 264.09299999999996Q575.3439999999999 262.608 575.3439999999999 260.61Z M588.322 262.356Q588.322 260.916 588.889 259.818Q589.456 258.72 590.5 258.09900000000005Q591.544 257.478 592.912 257.478Q594.316 257.478 595.3420000000001 258.09900000000005Q596.368 258.72 596.944 259.818Q597.52 260.916 597.52 262.356Q597.52 263.796 596.944 264.894Q596.368 265.992 595.3420000000001 266.613Q594.316 267.234 592.912 267.234Q591.544 267.234 590.5 266.613Q589.456 265.992 588.889 264.894Q588.322 263.796 588.322 262.356ZM590.5540000000001 262.356Q590.5540000000001 263.202 590.8420000000001 263.85900000000004Q591.13 264.516 591.6610000000001 264.867Q592.192 265.218 592.912 265.218Q593.668 265.218 594.19 264.867Q594.712 264.516 595.0 263.85900000000004Q595.288 263.202 595.288 262.356Q595.288 261.492 595.0 260.853Q594.712 260.214 594.19 259.85400000000004Q593.668 259.494 592.912 259.494Q592.192 259.494 591.6610000000001 259.85400000000004Q591.13 260.214 590.8420000000001 260.853Q590.5540000000001 261.492 590.5540000000001 262.356Z M598.7439999999999 262.356Q598.7439999999999 260.862 599.2479999999999 259.773Q599.752 258.684 600.661 258.081Q601.5699999999999 257.478 602.8119999999999 257.478Q604.036 257.478 604.963 258.207Q605.89 258.936 606.232 260.25H605.674V253.806H607.8699999999999V267.0H605.6919999999999V264.444H606.232Q605.872 265.758 604.9449999999999 266.496Q604.0179999999999 267.234 602.8119999999999 267.234Q601.5699999999999 267.234 600.661 266.64Q599.752 266.046 599.2479999999999 264.948Q598.7439999999999 263.85 598.7439999999999 262.356ZM600.976 262.356Q600.976 263.184 601.255 263.832Q601.534 264.48 602.056 264.84900000000005Q602.578 265.218 603.3159999999999 265.218Q604.054 265.218 604.585 264.867Q605.116 264.516 605.404 263.85900000000004Q605.6919999999999 263.202 605.6919999999999 262.356Q605.6919999999999 261.492 605.404 260.862Q605.116 260.232 604.585 259.86300000000006Q604.054 259.494 603.3159999999999 259.494Q602.578 259.494 602.056 259.86300000000006Q601.534 260.232 601.255 260.871Q600.976 261.51 600.976 262.356Z M609.562 262.374Q609.562 260.898 610.147 259.8Q610.7320000000001 258.702 611.7760000000001 258.09000000000003Q612.82 257.478 614.1880000000001 257.478Q615.5920000000001 257.478 616.6000000000001 258.09000000000003Q617.6080000000001 258.702 618.1390000000001 259.773Q618.6700000000001 260.844 618.6700000000001 262.194V262.968H610.7320000000001V261.402H617.428L616.528 261.96Q616.528 261.132 616.24 260.538Q615.952 259.944 615.4390000000001 259.62Q614.926 259.296 614.206 259.296Q613.486 259.296 612.928 259.63800000000003Q612.37 259.98 612.0730000000001 260.619Q611.7760000000001 261.258 611.7760000000001 262.158V262.482Q611.7760000000001 263.832 612.451 264.579Q613.1260000000001 265.326 614.332 265.326Q615.07 265.326 615.628 265.02Q616.186 264.714 616.582 264.102L618.274 265.128Q617.6080000000001 266.172 616.5730000000001 266.703Q615.538 267.234 614.26 267.234Q612.874 267.234 611.821 266.649Q610.768 266.064 610.165 264.975Q609.562 263.886 609.562 262.374Z" fill="#FFFFFF"/>
</svg>