<svg width="880" height="310" viewBox="0 0 880 310" xmlns="http://www.w3.org/2000/svg" font-family="One UI Sans"><defs><filter id="sh_light" x="-20%" y="-20%" width="140%" height="160%"><feDropShadow dx="0" dy="6" stdDeviation="10" flood-color="#0B1B3A" flood-opacity="0.08"/></filter></defs>
<path d="M28,6 h824 a28,28 0 0 1 28,28 v242 a28,28 0 0 1 -28,28 h-824 a28,28 0 0 1 -28,-28 v-242 a28,28 0 0 1 28,-28 z" fill="#FFFFFF" stroke="#E6E9EE" filter="url(#sh_light)"/>
<path d="M52.405 41.335H54.61L51.76 52.0H49.465L47.019999999999996 43.135H47.89L45.505 52.0H43.21L40.3 41.335H42.58L44.995 51.205H43.855L46.525 41.335H48.43L51.144999999999996 51.205H49.99Z M56.019999999999996 41.335H58.18V52.0H56.019999999999996ZM62.62 41.335H64.78V52.0H62.62ZM63.535 47.635H57.265V45.61H63.535Z M70.435 42.385H71.485L68.23 52.0H66.04L69.88 41.335H72.145L75.985 52.0H73.705ZM73.91499999999999 49.915H68.365V48.055H73.91499999999999Z M79.79499999999999 41.815H81.95499999999998V52.0H79.79499999999999ZM76.57 41.335H85.17999999999999V43.36H76.57Z M90.4 41.335H92.56V52.0H90.4Z M105.49 46.66Q105.49 45.04 104.65 44.185Q103.81 43.33 102.265 43.33H100.585V50.005H102.265Q103.81 50.005 104.65 49.150000000000006Q105.49 48.295 105.49 46.66ZM102.38499999999999 52.0H98.425V41.335H102.38499999999999Q104.05 41.335 105.2425 41.965Q106.435 42.595 107.07249999999999 43.7875Q107.71 44.980000000000004 107.71 46.66Q107.71 48.34 107.07249999999999 49.5325Q106.435 50.725 105.2425 51.3625Q104.05 52.0 102.38499999999999 52.0Z M117.07000000000001 46.66Q117.07000000000001 45.595 116.71000000000001 44.807500000000005Q116.35000000000001 44.02 115.6825 43.6Q115.015 43.18 114.10000000000001 43.18Q113.2 43.18 112.5325 43.6Q111.86500000000001 44.02 111.505 44.807500000000005Q111.145 45.595 111.145 46.66Q111.145 47.74 111.505 48.5275Q111.86500000000001 49.315 112.5325 49.735Q113.2 50.155 114.10000000000001 50.155Q115.015 50.155 115.6825 49.735Q116.35000000000001 49.315 116.71000000000001 48.5275Q117.07000000000001 47.74 117.07000000000001 46.66ZM114.10000000000001 52.21Q112.57000000000001 52.21 111.4 51.519999999999996Q110.23 50.83 109.5775 49.585Q108.925 48.34 108.925 46.66Q108.925 44.995 109.5775 43.75Q110.23 42.505 111.4 41.815Q112.57000000000001 41.125 114.10000000000001 41.125Q115.66 41.125 116.82249999999999 41.815Q117.985 42.505 118.6375 43.75Q119.29 44.995 119.29 46.66Q119.29 48.34 118.6375 49.585Q117.985 50.83 116.815 51.519999999999996Q115.645 52.21 114.10000000000001 52.21Z" fill="#9AA1AC"/>
<path d="M69.0,78 h330.0 a29.0,29.0 0 0 1 29.0,29.0 v0.0 a29.0,29.0 0 0 1 -29.0,29.0 h-330.0 a29.0,29.0 0 0 1 -29.0,-29.0 v-0.0 a29.0,29.0 0 0 1 29.0,-29.0 z" fill="#387AFF"/>
<circle cx="69.0" cy="107.0" r="17" fill="#FFFFFF" fill-opacity="0.20"/>
<g transform="translate(58.00,96.00) scale(0.9167)"><path d="M17.06,3.382L17.06,3.382L3.706,16.737C3.598,16.844 1.813,21.735 1.813,21.735C1.728,22.006 1.994,22.273 2.265,22.187C2.265,22.187 7.156,20.402 7.263,20.294L20.617,6.94L20.829,6.729L21.98,5.577C22.542,5.015 22.542,4.105 21.98,3.544L20.456,2.019C19.894,1.458 18.984,1.458 18.423,2.019L17.06,3.382Z" fill="#FFFFFF" fill-opacity="0.000" stroke="#FFFFFF" stroke-opacity="1.000" stroke-width="1.5" fill-rule="evenodd" />
  <path d="M11.5,12.5L7.752,16.248" fill="#FFFFFF" fill-opacity="0.000" stroke="#FFFFFF" stroke-opacity="1.000" stroke-width="1.5" stroke-linecap="round" stroke-linejoin="round" fill-rule="evenodd" /></g>
<path d="M101.224 107.96V100.202H103.492V107.96Q103.492 109.058 103.825 109.751Q104.158 110.444 104.797 110.768Q105.436 111.092 106.354 111.092Q107.254 111.092 107.884 110.768Q108.514 110.444 108.856 109.751Q109.198 109.058 109.198 107.96V100.202H111.466V107.96Q111.466 109.706 110.854 110.88499999999999Q110.242 112.064 109.108 112.649Q107.974 113.234 106.336 113.234Q104.716 113.234 103.582 112.649Q102.448 112.064 101.836 110.88499999999999Q101.224 109.706 101.224 107.96Z M114.076 100.202H116.344V113.0H114.076Z M128.116 98.924H130.38400000000001L124.714 115.34H122.446Z M136.32399999999998 107.96V100.202H138.59199999999998V107.96Q138.59199999999998 109.058 138.92499999999998 109.751Q139.25799999999998 110.444 139.897 110.768Q140.536 111.092 141.454 111.092Q142.35399999999998 111.092 142.98399999999998 110.768Q143.614 110.444 143.95600000000002 109.751Q144.298 109.058 144.298 107.96V100.202H146.566V107.96Q146.566 109.706 145.954 110.88499999999999Q145.34199999999998 112.064 144.20799999999997 112.649Q143.07399999999998 113.234 141.436 113.234Q139.816 113.234 138.68200000000002 112.649Q137.548 112.064 136.93599999999998 110.88499999999999Q136.32399999999998 109.706 136.32399999999998 107.96Z M150.76 113.0H148.27599999999998L152.68599999999998 106.052L153.28 105.728L156.736 100.202H159.22L154.792 107.114L154.19799999999998 107.438ZM154.17999999999998 105.548 154.738 105.818 159.31 113.0H156.682L153.298 107.51L152.72199999999998 107.24L148.36599999999999 100.202H150.994Z M174.304 106.61Q174.304 104.504 173.224 103.397Q172.14399999999998 102.29 170.164 102.29H167.914V110.912H170.164Q172.14399999999998 110.912 173.224 109.805Q174.304 108.69800000000001 174.304 106.61ZM170.29 113.0H165.646V100.202H170.29Q172.26999999999998 100.202 173.69199999999998 100.967Q175.11399999999998 101.732 175.86999999999998 103.163Q176.62599999999998 104.594 176.62599999999998 106.61Q176.62599999999998 108.608 175.86999999999998 110.039Q175.11399999999998 111.47 173.69199999999998 112.235Q172.26999999999998 113.0 170.29 113.0Z M178.01199999999997 108.374Q178.01199999999997 106.898 178.59699999999998 105.8Q179.182 104.702 180.226 104.09Q181.26999999999998 103.47800000000001 182.63799999999998 103.47800000000001Q184.04199999999997 103.47800000000001 185.04999999999995 104.09Q186.05799999999996 104.702 186.58899999999997 105.773Q187.11999999999998 106.844 187.11999999999998 108.194V108.968H179.182V107.402H185.878L184.97799999999998 107.96Q184.97799999999998 107.132 184.69 106.53800000000001Q184.402 105.944 183.88899999999998 105.62Q183.37599999999998 105.296 182.65599999999998 105.296Q181.93599999999998 105.296 181.378 105.638Q180.81999999999996 105.98 180.52299999999997 106.619Q180.22599999999997 107.258 180.22599999999997 108.158V108.482Q180.22599999999997 109.832 180.90099999999995 110.579Q181.57599999999996 111.326 182.78199999999998 111.326Q183.51999999999998 111.326 184.07799999999997 111.02Q184.63599999999997 110.714 185.03199999999998 110.102L186.724 111.128Q186.05799999999996 112.172 185.02299999999997 112.703Q183.98799999999997 113.234 182.70999999999998 113.234Q181.32399999999998 113.234 180.271 112.649Q179.218 112.064 178.61499999999998 110.975Q178.01199999999997 109.886 178.01199999999997 108.374Z M193.888 110.462Q193.888 110.066 193.609 109.82300000000001Q193.33 109.58 192.60999999999999 109.418L191.404 109.13Q189.874 108.77 189.163 108.077Q188.452 107.384 188.452 106.214Q188.452 105.35 188.92000000000002 104.738Q189.388 104.126 190.207 103.802Q191.026 103.47800000000001 192.088 103.47800000000001Q193.492 103.47800000000001 194.527 104.081Q195.562 104.684 196.012 105.836L194.266 106.502Q193.978 105.872 193.375 105.593Q192.772 105.31400000000001 192.124 105.31400000000001Q191.386 105.31400000000001 190.981 105.557Q190.576 105.8 190.576 106.232Q190.576 106.664 190.882 106.87100000000001Q191.188 107.078 191.87199999999999 107.24L193.078 107.528Q194.59 107.888 195.31 108.59Q196.03 109.292 196.03 110.48Q196.03 111.74 195.049 112.487Q194.068 113.234 192.358 113.234Q190.756 113.234 189.631 112.568Q188.506 111.902 188.092 110.678L189.892 110.03Q190.18 110.732 190.81 111.065Q191.44 111.398 192.322 111.398Q193.078 111.398 193.483 111.164Q193.888 110.93 193.888 110.462Z M199.882 113.0H197.686V103.73H199.882ZM197.506 101.048Q197.506 100.454 197.86599999999999 100.112Q198.226 99.77 198.802 99.77Q199.396 99.77 199.74699999999999 100.112Q200.09799999999998 100.454 200.09799999999998 101.048Q200.09799999999998 101.624 199.74699999999999 101.984Q199.396 102.344 198.802 102.344Q198.226 102.344 197.86599999999999 101.984Q197.506 101.624 197.506 101.048Z M208.54 112.622V110.282H209.02599999999998Q208.684 111.398 207.77499999999998 112.037Q206.86599999999999 112.676 205.642 112.676Q204.41799999999998 112.676 203.509 112.1Q202.6 111.524 202.096 110.489Q201.59199999999998 109.454 201.59199999999998 108.05Q201.59199999999998 106.646 202.096 105.62899999999999Q202.6 104.612 203.509 104.045Q204.41799999999998 103.47800000000001 205.642 103.47800000000001Q206.86599999999999 103.47800000000001 207.793 104.21600000000001Q208.72 104.95400000000001 209.07999999999998 106.286H208.558V103.73H210.718V112.46Q210.718 114.044 210.151 115.088Q209.584 116.132 208.594 116.62700000000001Q207.60399999999998 117.122 206.326 117.122Q204.976 117.122 203.833 116.555Q202.69 115.988 201.916 114.872L203.62599999999998 113.792Q204.058 114.422 204.733 114.773Q205.408 115.124 206.254 115.124Q207.298 115.124 207.91899999999998 114.521Q208.54 113.918 208.54 112.622ZM206.164 105.494Q205.426 105.494 204.904 105.827Q204.38199999999998 106.16 204.10299999999998 106.73599999999999Q203.82399999999998 107.312 203.82399999999998 108.05Q203.82399999999998 108.806 204.10299999999998 109.39099999999999Q204.38199999999998 109.976 204.904 110.318Q205.426 110.66 206.164 110.66Q206.902 110.66 207.433 110.327Q207.964 109.994 208.252 109.40899999999999Q208.54 108.824 208.54 108.05Q208.54 107.294 208.252 106.71799999999999Q207.964 106.142 207.433 105.818Q206.902 105.494 206.164 105.494Z M212.87800000000001 103.73H215.056V106.286H214.498Q214.822 105.008 215.722 104.243Q216.622 103.47800000000001 217.81 103.47800000000001Q221.104 103.47800000000001 221.104 107.564V113.0H218.90800000000002V107.69Q218.90800000000002 106.556 218.45800000000003 106.01599999999999Q218.008 105.476 217.09 105.476Q216.514 105.476 216.055 105.782Q215.596 106.088 215.335 106.646Q215.074 107.20400000000001 215.074 107.94200000000001V113.0H212.87800000000001Z" fill="#FFFFFF"/>
<path d="M481.0,78 h330.0 a29.0,29.0 0 0 1 29.0,29.0 v0.0 a29.0,29.0 0 0 1 -29.0,29.0 h-330.0 a29.0,29.0 0 0 1 -29.0,-29.0 v-0.0 a29.0,29.0 0 0 1 29.0,-29.0 z" fill="#387AFF"/>
<circle cx="481.0" cy="107.0" r="17" fill="#FFFFFF" fill-opacity="0.20"/>
<g transform="translate(470.00,96.00) scale(0.9167)"><path d="M6.22,10.108L6.22,11.46L6.22,20.688C6.22,21.41 6.811,22 7.532,22L16.463,22C17.185,22 17.776,21.41 17.776,20.688L17.776,3.312C17.776,2.591 17.185,2 16.463,2L7.532,2C6.811,2 6.22,2.591 6.22,3.312L6.22,8.756L6.22,10.108Z" fill="#FFFFFF" fill-opacity="0.000" stroke="#FFFFFF" stroke-opacity="1.000" stroke-width="1.5" stroke-linejoin="round" fill-rule="evenodd" />
  <path d="M12,5.578C11.503,5.578 11.1,5.175 11.1,4.678C11.1,4.181 11.503,3.778 12,3.778C12.497,3.778 12.9,4.181 12.9,4.678C12.9,5.175 12.497,5.578 12,5.578Z" fill="#FFFFFF" fill-opacity="1.000" stroke="#FFFFFF" stroke-opacity="0.000" stroke-width="1.0" fill-rule="evenodd" /></g>
<path d="M513.386 100.202H516.338L520.442 110.804H519.884L523.862 100.202H526.814V113.0H524.672V101.156H525.5L521.09 113.0H519.11L514.574 101.156H515.51V113.0H513.386Z M528.812 108.356Q528.812 106.916 529.379 105.818Q529.946 104.72 530.99 104.099Q532.034 103.47800000000001 533.402 103.47800000000001Q534.806 103.47800000000001 535.8320000000001 104.099Q536.8580000000001 104.72 537.434 105.818Q538.01 106.916 538.01 108.356Q538.01 109.796 537.434 110.894Q536.8580000000001 111.992 535.8320000000001 112.613Q534.806 113.234 533.402 113.234Q532.034 113.234 530.99 112.613Q529.946 111.992 529.379 110.894Q528.812 109.796 528.812 108.356ZM531.0440000000001 108.356Q531.0440000000001 109.202 531.3320000000001 109.85900000000001Q531.62 110.516 532.1510000000001 110.867Q532.682 111.218 533.402 111.218Q534.158 111.218 534.6800000000001 110.867Q535.202 110.516 535.49 109.85900000000001Q535.778 109.202 535.778 108.356Q535.778 107.492 535.49 106.85300000000001Q535.202 106.214 534.6800000000001 105.854Q534.158 105.494 533.402 105.494Q532.682 105.494 532.1510000000001 105.854Q531.62 106.214 531.3320000000001 106.85300000000001Q531.0440000000001 107.492 531.0440000000001 108.356Z M541.862 113.0H539.702V99.806H541.8979999999999V106.286H541.3399999999999Q541.6999999999999 104.95400000000001 542.6179999999999 104.21600000000001Q543.536 103.47800000000001 544.7779999999999 103.47800000000001Q546.02 103.47800000000001 546.929 104.081Q547.838 104.684 548.333 105.773Q548.828 106.862 548.828 108.356Q548.828 109.85 548.333 110.94800000000001Q547.838 112.046 546.929 112.64Q546.02 113.234 544.7779999999999 113.234Q543.536 113.234 542.6179999999999 112.505Q541.6999999999999 111.776 541.3399999999999 110.462H541.862ZM541.8979999999999 108.374Q541.8979999999999 109.22 542.1859999999999 109.868Q542.4739999999999 110.516 543.0049999999999 110.867Q543.536 111.218 544.274 111.218Q545.012 111.218 545.525 110.849Q546.038 110.48 546.317 109.832Q546.596 109.184 546.596 108.356Q546.596 107.528 546.317 106.88Q546.038 106.232 545.525 105.863Q545.012 105.494 544.274 105.494Q543.536 105.494 543.0049999999999 105.863Q542.4739999999999 106.232 542.1859999999999 106.87100000000001Q541.8979999999999 107.51 541.8979999999999 108.374Z M552.716 113.0H550.5200000000001V103.73H552.716ZM550.34 101.048Q550.34 100.454 550.7 100.112Q551.0600000000001 99.77 551.6360000000001 99.77Q552.2300000000001 99.77 552.5810000000001 100.112Q552.9320000000001 100.454 552.9320000000001 101.048Q552.9320000000001 101.624 552.5810000000001 101.984Q552.2300000000001 102.344 551.6360000000001 102.344Q551.0600000000001 102.344 550.7 101.984Q550.34 101.624 550.34 101.048Z M554.894 99.806H557.0899999999999V113.0H554.894Z M558.8 108.374Q558.8 106.898 559.385 105.8Q559.97 104.702 561.014 104.09Q562.058 103.47800000000001 563.4259999999999 103.47800000000001Q564.83 103.47800000000001 565.838 104.09Q566.846 104.702 567.377 105.773Q567.908 106.844 567.908 108.194V108.968H559.97V107.402H566.6659999999999L565.766 107.96Q565.766 107.132 565.478 106.53800000000001Q565.1899999999999 105.944 564.6769999999999 105.62Q564.164 105.296 563.444 105.296Q562.7239999999999 105.296 562.1659999999999 105.638Q561.608 105.98 561.3109999999999 106.619Q561.014 107.258 561.014 108.158V108.482Q561.014 109.832 561.6890000000001 110.579Q562.364 111.326 563.5699999999999 111.326Q564.308 111.326 564.866 111.02Q565.424 110.714 565.8199999999999 110.102L567.512 111.128Q566.846 112.172 565.8109999999999 112.703Q564.776 113.234 563.4979999999999 113.234Q562.112 113.234 561.059 112.649Q560.006 112.064 559.403 110.975Q558.8 109.886 558.8 108.374Z M583.0459999999999 106.61Q583.0459999999999 104.504 581.9659999999999 103.397Q580.886 102.29 578.906 102.29H576.656V110.912H578.906Q580.886 110.912 581.9659999999999 109.805Q583.0459999999999 108.69800000000001 583.0459999999999 106.61ZM579.0319999999999 113.0H574.3879999999999V100.202H579.0319999999999Q581.012 100.202 582.434 100.967Q583.856 101.732 584.612 103.163Q585.3679999999999 104.594 585.3679999999999 106.61Q585.3679999999999 108.608 584.612 110.039Q583.856 111.47 582.434 112.235Q581.012 113.0 579.0319999999999 113.0Z M586.754 108.374Q586.754 106.898 587.339 105.8Q587.9240000000001 104.702 588.9680000000001 104.09Q590.0120000000001 103.47800000000001 591.3800000000001 103.47800000000001Q592.7840000000001 103.47800000000001 593.7920000000001 104.09Q594.8000000000001 104.702 595.3310000000001 105.773Q595.8620000000001 106.844 595.8620000000001 108.194V108.968H587.9240000000001V107.402H594.62L593.72 107.96Q593.72 107.132 593.432 106.53800000000001Q593.144 105.944 592.6310000000001 105.62Q592.118 105.296 591.398 105.296Q590.678 105.296 590.12 105.638Q589.562 105.98 589.2650000000001 106.619Q588.9680000000001 107.258 588.9680000000001 108.158V108.482Q588.9680000000001 109.832 589.643 110.579Q590.3180000000001 111.326 591.524 111.326Q592.2620000000001 111.326 592.82 111.02Q593.378 110.714 593.774 110.102L595.466 111.128Q594.8000000000001 112.172 593.7650000000001 112.703Q592.73 113.234 591.452 113.234Q590.066 113.234 589.013 112.649Q587.96 112.064 587.357 110.975Q586.754 109.886 586.754 108.374Z M602.6299999999999 110.462Q602.6299999999999 110.066 602.3509999999999 109.82300000000001Q602.0719999999999 109.58 601.352 109.418L600.146 109.13Q598.616 108.77 597.905 108.077Q597.194 107.384 597.194 106.214Q597.194 105.35 597.6619999999999 104.738Q598.1299999999999 104.126 598.9489999999998 103.802Q599.7679999999999 103.47800000000001 600.8299999999999 103.47800000000001Q602.2339999999999 103.47800000000001 603.269 104.081Q604.304 104.684 604.7539999999999 105.836L603.0079999999999 106.502Q602.7199999999999 105.872 602.117 105.593Q601.5139999999999 105.31400000000001 600.866 105.31400000000001Q600.1279999999999 105.31400000000001 599.723 105.557Q599.318 105.8 599.318 106.232Q599.318 106.664 599.624 106.87100000000001Q599.93 107.078 600.6139999999999 107.24L601.8199999999999 107.528Q603.3319999999999 107.888 604.0519999999999 108.59Q604.7719999999999 109.292 604.7719999999999 110.48Q604.7719999999999 111.74 603.7909999999999 112.487Q602.81 113.234 601.0999999999999 113.234Q599.4979999999999 113.234 598.3729999999999 112.568Q597.2479999999999 111.902 596.834 110.678L598.6339999999999 110.03Q598.9219999999999 110.732 599.5519999999999 111.065Q600.1819999999999 111.398 601.064 111.398Q601.8199999999999 111.398 602.2249999999999 111.164Q602.6299999999999 110.93 602.6299999999999 110.462Z M608.6239999999999 113.0H606.428V103.73H608.6239999999999ZM606.2479999999999 101.048Q606.2479999999999 100.454 606.608 100.112Q606.968 99.77 607.544 99.77Q608.138 99.77 608.489 100.112Q608.84 100.454 608.84 101.048Q608.84 101.624 608.489 101.984Q608.138 102.344 607.544 102.344Q606.968 102.344 606.608 101.984Q606.2479999999999 101.624 606.2479999999999 101.048Z M617.2819999999999 112.622V110.282H617.768Q617.4259999999999 111.398 616.5169999999999 112.037Q615.608 112.676 614.384 112.676Q613.16 112.676 612.251 112.1Q611.342 111.524 610.838 110.489Q610.334 109.454 610.334 108.05Q610.334 106.646 610.838 105.62899999999999Q611.342 104.612 612.251 104.045Q613.16 103.47800000000001 614.384 103.47800000000001Q615.608 103.47800000000001 616.535 104.21600000000001Q617.462 104.95400000000001 617.822 106.286H617.3V103.73H619.46V112.46Q619.46 114.044 618.893 115.088Q618.326 116.132 617.336 116.62700000000001Q616.346 117.122 615.068 117.122Q613.718 117.122 612.575 116.555Q611.432 115.988 610.658 114.872L612.3679999999999 113.792Q612.8 114.422 613.4749999999999 114.773Q614.15 115.124 614.996 115.124Q616.04 115.124 616.661 114.521Q617.2819999999999 113.918 617.2819999999999 112.622ZM614.906 105.494Q614.168 105.494 613.646 105.827Q613.124 106.16 612.845 106.73599999999999Q612.566 107.312 612.566 108.05Q612.566 108.806 612.845 109.39099999999999Q613.124 109.976 613.646 110.318Q614.168 110.66 614.906 110.66Q615.644 110.66 616.175 110.327Q616.706 109.994 616.9939999999999 109.40899999999999Q617.2819999999999 108.824 617.2819999999999 108.05Q617.2819999999999 107.294 616.9939999999999 106.71799999999999Q616.706 106.142 616.175 105.818Q615.644 105.494 614.906 105.494Z M621.62 103.73H623.798V106.286H623.24Q623.564 105.008 624.4639999999999 104.243Q625.3639999999999 103.47800000000001 626.5519999999999 103.47800000000001Q629.846 103.47800000000001 629.846 107.564V113.0H627.65V107.69Q627.65 106.556 627.2 106.01599999999999Q626.75 105.476 625.832 105.476Q625.256 105.476 624.797 105.782Q624.338 106.088 624.077 106.646Q623.8159999999999 107.20400000000001 623.8159999999999 107.94200000000001V113.0H621.62Z" fill="#FFFFFF"/>
<path d="M69.0,152 h330.0 a29.0,29.0 0 0 1 29.0,29.0 v0.0 a29.0,29.0 0 0 1 -29.0,29.0 h-330.0 a29.0,29.0 0 0 1 -29.0,-29.0 v-0.0 a29.0,29.0 0 0 1 29.0,-29.0 z" fill="#387AFF"/>
<circle cx="69.0" cy="181.0" r="17" fill="#FFFFFF" fill-opacity="0.20"/>
<g transform="translate(58.00,170.00) scale(0.9167)"><path d="M13.262,6.42L17.547,10.679C17.187,11.039 16.835,11.391 16.493,11.733L14.301,13.925C14.072,14.154 13.849,14.377 13.631,14.595L9.794,18.432C9.711,18.515 9.481,18.672 9.259,18.735C9.191,18.755 9.121,18.775 9.05,18.795L8.61,18.92C7.097,19.351 5.214,19.88 4.717,20.022C4.349,20.126 3.919,19.696 4.015,19.32C4.164,18.741 4.767,16.251 5.221,14.695C5.286,14.473 5.442,14.241 5.527,14.156L13.262,6.42ZM15.125,4.558C15.814,3.772 17.085,3.765 17.863,4.543L19.411,6.092C20.189,6.87 20.183,8.043 19.397,8.829L18.572,9.654L14.299,5.383Z" fill="#FFFFFF" fill-opacity="1.000" stroke="#FFFFFF" stroke-opacity="0.000" stroke-width="1.0" fill-rule="evenodd" /></g>
<path d="M104.518 174.724H106.786V187.0H104.518ZM100.576 174.202H110.728V176.326H100.576Z M111.916 182.374Q111.916 180.898 112.501 179.8Q113.086 178.702 114.13 178.09Q115.174 177.478 116.542 177.478Q117.946 177.478 118.95400000000001 178.09Q119.962 178.702 120.493 179.773Q121.024 180.844 121.024 182.194V182.968H113.086V181.402H119.782L118.882 181.96Q118.882 181.132 118.594 180.538Q118.306 179.944 117.793 179.62Q117.28 179.296 116.56 179.296Q115.84 179.296 115.28200000000001 179.63799999999998Q114.724 179.98 114.42699999999999 180.619Q114.13 181.258 114.13 182.158V182.482Q114.13 183.832 114.805 184.579Q115.48 185.326 116.686 185.326Q117.424 185.326 117.982 185.01999999999998Q118.54 184.714 118.936 184.102L120.628 185.128Q119.962 186.172 118.92699999999999 186.703Q117.892 187.234 116.614 187.234Q115.22800000000001 187.234 114.17500000000001 186.649Q113.122 186.064 112.519 184.975Q111.916 183.886 111.916 182.374Z M122.24799999999999 182.356Q122.24799999999999 180.916 122.815 179.81799999999998Q123.38199999999999 178.72 124.42599999999999 178.099Q125.47 177.478 126.838 177.478Q128.17 177.478 129.178 178.063Q130.186 178.648 130.78 179.854L128.944 180.808Q128.602 180.124 128.07999999999998 179.809Q127.55799999999999 179.494 126.838 179.494Q126.118 179.494 125.58699999999999 179.85399999999998Q125.056 180.214 124.768 180.853Q124.47999999999999 181.492 124.47999999999999 182.356Q124.47999999999999 183.652 125.119 184.435Q125.758 185.218 126.838 185.218Q127.55799999999999 185.218 128.152 184.894Q128.74599999999998 184.57 129.142 183.85L130.96 184.822Q130.36599999999999 185.974 129.295 186.60399999999998Q128.224 187.234 126.838 187.234Q125.47 187.234 124.42599999999999 186.613Q123.38199999999999 185.992 122.815 184.894Q122.24799999999999 183.796 122.24799999999999 182.356Z M132.49 173.806H134.686V180.286H134.10999999999999Q134.434 179.008 135.334 178.243Q136.234 177.478 137.422 177.478Q140.716 177.478 140.716 181.564V187.0H138.51999999999998V181.69Q138.51999999999998 180.556 138.07 180.01600000000002Q137.62 179.476 136.702 179.476Q136.126 179.476 135.667 179.78199999999998Q135.208 180.088 134.947 180.64600000000002Q134.686 181.204 134.686 181.942V187.0H132.49Z M161.218 174.202H163.54L160.06599999999997 187.0H157.654L154.612 176.056H155.512L152.542 187.0H150.112L146.61999999999998 174.202H148.99599999999998L152.01999999999998 186.19H150.778L154.036 174.202H156.124L159.43599999999998 186.19H158.194Z M165.016 177.73H167.194V180.286H166.63599999999997Q166.79799999999997 179.566 167.22999999999996 178.945Q167.66199999999998 178.324 168.27399999999997 177.937Q168.88599999999997 177.55 169.60599999999997 177.55Q169.78599999999997 177.55 169.96599999999998 177.568Q170.146 177.586 170.34399999999997 177.64V179.728Q169.98399999999998 179.656 169.55199999999996 179.656Q168.88599999999997 179.656 168.35499999999996 179.953Q167.82399999999998 180.25 167.51799999999997 180.826Q167.212 181.402 167.212 182.248V187.0H165.016Z M174.07 187.0H171.874V177.73H174.07ZM171.694 175.048Q171.694 174.454 172.05399999999997 174.112Q172.414 173.76999999999998 172.98999999999998 173.76999999999998Q173.58399999999997 173.76999999999998 173.93499999999997 174.112Q174.28599999999997 174.454 174.28599999999997 175.048Q174.28599999999997 175.624 173.93499999999997 175.98399999999998Q173.58399999999997 176.344 172.98999999999998 176.344Q172.414 176.344 172.05399999999997 175.98399999999998Q171.694 175.624 171.694 175.048Z M176.89600000000002 183.976V175.588L179.092 174.832V183.616Q179.092 184.498 179.416 184.831Q179.74 185.164 180.424 185.164Q180.69400000000002 185.164 180.98200000000003 185.119Q181.27 185.074 181.54000000000002 185.02V186.946Q181.18 187.036 180.739 187.099Q180.298 187.162 179.92000000000002 187.162Q179.02 187.162 178.336 186.856Q177.65200000000002 186.55 177.274 185.857Q176.89600000000002 185.164 176.89600000000002 183.976ZM175.45600000000002 177.73H181.09V179.674H175.45600000000002Z M185.33800000000002 187.0H183.14200000000002V177.73H185.33800000000002ZM182.96200000000002 175.048Q182.96200000000002 174.454 183.322 174.112Q183.68200000000002 173.76999999999998 184.258 173.76999999999998Q184.852 173.76999999999998 185.203 174.112Q185.554 174.454 185.554 175.048Q185.554 175.624 185.203 175.98399999999998Q184.852 176.344 184.258 176.344Q183.68200000000002 176.344 183.322 175.98399999999998Q182.96200000000002 175.624 182.96200000000002 175.048Z M187.516 177.73H189.694V180.286H189.13599999999997Q189.45999999999998 179.008 190.35999999999999 178.243Q191.26 177.478 192.44799999999998 177.478Q195.742 177.478 195.742 181.564V187.0H193.546V181.69Q193.546 180.556 193.096 180.01600000000002Q192.646 179.476 191.72799999999998 179.476Q191.152 179.476 190.69299999999998 179.78199999999998Q190.23399999999998 180.088 189.97299999999998 180.64600000000002Q189.712 181.204 189.712 181.942V187.0H187.516Z M204.31 186.622V184.282H204.796Q204.454 185.398 203.54500000000002 186.03699999999998Q202.636 186.676 201.412 186.676Q200.188 186.676 199.279 186.1Q198.37 185.524 197.86599999999999 184.489Q197.362 183.454 197.362 182.05Q197.362 180.64600000000002 197.86599999999999 179.62900000000002Q198.37 178.612 199.279 178.04500000000002Q200.188 177.478 201.412 177.478Q202.636 177.478 203.563 178.216Q204.49 178.954 204.85 180.286H204.328V177.73H206.488V186.46Q206.488 188.044 205.921 189.08800000000002Q205.35399999999998 190.132 204.36399999999998 190.627Q203.374 191.122 202.096 191.122Q200.746 191.122 199.603 190.555Q198.46 189.988 197.686 188.872L199.396 187.792Q199.828 188.422 200.503 188.773Q201.178 189.124 202.024 189.124Q203.068 189.124 203.68900000000002 188.52100000000002Q204.31 187.918 204.31 186.622ZM201.934 179.494Q201.196 179.494 200.67399999999998 179.827Q200.152 180.16 199.873 180.736Q199.594 181.312 199.594 182.05Q199.594 182.806 199.873 183.39100000000002Q200.152 183.976 200.67399999999998 184.31799999999998Q201.196 184.66 201.934 184.66Q202.672 184.66 203.203 184.327Q203.734 183.994 204.022 183.409Q204.31 182.824 204.31 182.05Q204.31 181.294 204.022 180.71800000000002Q203.734 180.142 203.203 179.81799999999998Q202.672 179.494 201.934 179.494Z" fill="#FFFFFF"/>
<path d="M481.0,152 h330.0 a29.0,29.0 0 0 1 29.0,29.0 v0.0 a29.0,29.0 0 0 1 -29.0,29.0 h-330.0 a29.0,29.0 0 0 1 -29.0,-29.0 v-0.0 a29.0,29.0 0 0 1 29.0,-29.0 z" fill="#387AFF"/>
<circle cx="481.0" cy="181.0" r="17" fill="#FFFFFF" fill-opacity="0.20"/>
<g transform="translate(470.00,170.00) scale(0.0229)"><path d="M280,680L680,680Q697,680 708.5,668.5Q720,657 720,640Q720,623 708.5,611.5Q697,600 680,600L280,600Q263,600 251.5,611.5Q240,623 240,640Q240,657 251.5,668.5Q263,680 280,680ZM280,520L360,520Q377,520 388.5,508.5Q400,497 400,480L400,320Q400,303 388.5,291.5Q377,280 360,280L280,280Q263,280 251.5,291.5Q240,303 240,320L240,480Q240,497 251.5,508.5Q263,520 280,520ZM800,840L160,840Q127,840 103.5,816.5Q80,793 80,760L80,200Q80,167 103.5,143.5Q127,120 160,120L428,120Q446,120 455.5,135.5Q465,151 457,168Q449,190 444.5,213Q440,236 440,260Q440,313 459,359Q478,405 512,440L510,440Q493,440 481.5,451.5Q470,463 470,480Q470,497 481.5,508.5Q493,520 510,520L700,520Q700,520 700,520Q700,520 700,520Q735,520 769,511Q803,502 833,484Q849,474 864.5,482Q880,490 880,507L880,760Q880,793 856.5,816.5Q833,840 800,840ZM700,480Q700,388 636,324Q572,260 480,260Q572,260 636,196Q700,132 700,40Q700,132 764,196Q828,260 920,260Q828,260 764,324Q700,388 700,480Z" fill="#FFFFFF" /></g>
<path d="M513.386 174.202H515.96L522.548 185.578H521.45V174.202H523.61V187.0H521.036L514.466 175.624H515.546V187.0H513.386Z M525.608 182.374Q525.608 180.898 526.193 179.8Q526.778 178.702 527.822 178.09Q528.866 177.478 530.2339999999999 177.478Q531.638 177.478 532.646 178.09Q533.654 178.702 534.185 179.773Q534.716 180.844 534.716 182.194V182.968H526.778V181.402H533.4739999999999L532.574 181.96Q532.574 181.132 532.286 180.538Q531.9979999999999 179.944 531.4849999999999 179.62Q530.972 179.296 530.252 179.296Q529.5319999999999 179.296 528.9739999999999 179.63799999999998Q528.4159999999999 179.98 528.1189999999999 180.619Q527.822 181.258 527.822 182.158V182.482Q527.822 183.832 528.4970000000001 184.579Q529.172 185.326 530.3779999999999 185.326Q531.116 185.326 531.674 185.01999999999998Q532.232 184.714 532.6279999999999 184.102L534.3199999999999 185.128Q533.654 186.172 532.6189999999999 186.703Q531.584 187.234 530.3059999999999 187.234Q528.92 187.234 527.867 186.649Q526.814 186.064 526.211 184.975Q525.608 183.886 525.608 182.374Z M541.6279999999999 177.73H543.7339999999999L546.182 186.064H545.192L547.568 177.73H549.764L546.794 187.0H544.49L542.168 179.296H543.14L540.89 187.0H538.568L535.598 177.73H537.884L540.2239999999999 186.046H539.252Z M556.1899999999999 184.462Q556.1899999999999 184.066 555.911 183.823Q555.632 183.58 554.912 183.418L553.706 183.13Q552.176 182.77 551.465 182.077Q550.754 181.38400000000001 550.754 180.214Q550.754 179.35 551.222 178.738Q551.6899999999999 178.126 552.509 177.80200000000002Q553.328 177.478 554.39 177.478Q555.794 177.478 556.829 178.08100000000002Q557.864 178.684 558.314 179.836L556.568 180.502Q556.28 179.872 555.6769999999999 179.59300000000002Q555.074 179.314 554.426 179.314Q553.688 179.314 553.283 179.55700000000002Q552.878 179.8 552.878 180.232Q552.878 180.664 553.184 180.87099999999998Q553.49 181.078 554.174 181.24L555.38 181.528Q556.8919999999999 181.888 557.612 182.59Q558.332 183.292 558.332 184.48Q558.332 185.74 557.351 186.48700000000002Q556.37 187.234 554.66 187.234Q553.058 187.234 551.933 186.56799999999998Q550.808 185.902 550.394 184.678L552.194 184.03Q552.482 184.732 553.112 185.065Q553.742 185.398 554.624 185.398Q555.38 185.398 555.785 185.164Q556.1899999999999 184.93 556.1899999999999 184.462Z M564.092 183.94Q564.092 183.094 564.389 182.41Q564.686 181.726 565.379 181.10500000000002Q566.072 180.484 567.242 179.854L568.358 179.242Q569.384 178.648 569.861 178.225Q570.338 177.802 570.338 177.172Q570.338 176.524 569.96 176.137Q569.582 175.75 568.88 175.75Q568.178 175.75 567.764 176.119Q567.35 176.488 567.35 177.1Q567.35 177.496 567.521 177.83800000000002Q567.692 178.18 568.052 178.594Q568.412 179.008 568.97 179.62L575.774 187.0H573.1279999999999L567.134 180.484Q566.5939999999999 179.89 566.162 179.35899999999998Q565.73 178.828 565.4870000000001 178.279Q565.244 177.73 565.244 177.082Q565.244 176.14600000000002 565.73 175.44400000000002Q566.216 174.742 567.044 174.355Q567.872 173.968 568.898 173.968Q569.942 173.968 570.7339999999999 174.36399999999998Q571.526 174.76 571.9759999999999 175.444Q572.4259999999999 176.128 572.4259999999999 176.992Q572.4259999999999 178.072 571.661 178.909Q570.896 179.746 569.204 180.7L568.124 181.312Q567.422 181.708 567.017 182.077Q566.612 182.446 566.45 182.84199999999998Q566.288 183.238 566.288 183.742Q566.288 184.552 566.9359999999999 185.01999999999998Q567.584 185.488 568.592 185.488Q569.6179999999999 185.488 570.4639999999999 185.047Q571.31 184.606 571.913 183.75099999999998Q572.516 182.896 572.786 181.69L573.038 180.538L575.0 180.952L574.766 181.996Q574.388 183.67 573.488 184.83999999999997Q572.588 186.01 571.3009999999999 186.622Q570.014 187.234 568.412 187.234Q567.17 187.234 566.189 186.847Q565.208 186.46 564.65 185.71300000000002Q564.092 184.966 564.092 183.94Z M581.9839999999999 174.202H584.252V185.992L583.154 184.894H590.228V187.0H581.9839999999999Z M591.3439999999999 182.374Q591.3439999999999 180.898 591.929 179.8Q592.514 178.702 593.558 178.09Q594.602 177.478 595.97 177.478Q597.374 177.478 598.3820000000001 178.09Q599.39 178.702 599.921 179.773Q600.452 180.844 600.452 182.194V182.968H592.514V181.402H599.2099999999999L598.31 181.96Q598.31 181.132 598.0219999999999 180.538Q597.7339999999999 179.944 597.221 179.62Q596.708 179.296 595.9879999999999 179.296Q595.2679999999999 179.296 594.7099999999999 179.63799999999998Q594.1519999999999 179.98 593.855 180.619Q593.558 181.258 593.558 182.158V182.482Q593.558 183.832 594.233 184.579Q594.908 185.326 596.1139999999999 185.326Q596.852 185.326 597.41 185.01999999999998Q597.968 184.714 598.3639999999999 184.102L600.0559999999999 185.128Q599.39 186.172 598.355 186.703Q597.3199999999999 187.234 596.0419999999999 187.234Q594.656 187.234 593.603 186.649Q592.55 186.064 591.9469999999999 184.975Q591.3439999999999 183.886 591.3439999999999 182.374Z M607.7239999999999 181.618Q607.7239999999999 180.466 607.2289999999999 179.917Q606.7339999999999 179.368 605.78 179.368Q605.132 179.368 604.574 179.656Q604.016 179.944 603.602 180.484L601.982 179.386Q602.702 178.45 603.719 177.964Q604.736 177.478 605.9599999999999 177.478Q607.814 177.478 608.8309999999999 178.495Q609.848 179.512 609.848 181.582V187.0H607.7239999999999ZM601.73 184.462Q601.73 183.022 602.774 182.212Q603.818 181.402 605.636 181.402H608.156V182.95H605.7439999999999Q604.8259999999999 182.95 604.3399999999999 183.292Q603.8539999999999 183.63400000000001 603.8539999999999 184.282Q603.8539999999999 184.822 604.2139999999999 185.119Q604.574 185.416 605.2579999999999 185.416Q605.906 185.416 606.473 185.101Q607.04 184.786 607.382 184.21Q607.7239999999999 183.63400000000001 607.7239999999999 182.86L608.408 183.49Q608.408 184.642 607.913 185.47899999999998Q607.418 186.316 606.572 186.775Q605.726 187.234 604.682 187.234Q603.8 187.234 603.134 186.91000000000003Q602.468 186.586 602.0989999999999 185.965Q601.73 185.344 601.73 184.462Z M613.214 182.68 617.894 177.73H620.648L613.214 185.452ZM615.032 182.158 616.778 181.006 620.72 187.0H618.1460000000001ZM611.9540000000001 173.806H614.15V187.0H611.9540000000001Z M627.0559999999999 184.462Q627.0559999999999 184.066 626.7769999999999 183.823Q626.4979999999999 183.58 625.778 183.418L624.572 183.13Q623.042 182.77 622.331 182.077Q621.62 181.38400000000001 621.62 180.214Q621.62 179.35 622.088 178.738Q622.5559999999999 178.126 623.375 177.80200000000002Q624.194 177.478 625.256 177.478Q626.66 177.478 627.6949999999999 178.08100000000002Q628.73 178.684 629.18 179.836L627.434 180.502Q627.146 179.872 626.5429999999999 179.59300000000002Q625.9399999999999 179.314 625.292 179.314Q624.554 179.314 624.149 179.55700000000002Q623.744 179.8 623.744 180.232Q623.744 180.664 624.05 180.87099999999998Q624.356 181.078 625.04 181.24L626.246 181.528Q627.7579999999999 181.888 628.478 182.59Q629.198 183.292 629.198 184.48Q629.198 185.74 628.217 186.48700000000002Q627.236 187.234 625.526 187.234Q623.924 187.234 622.799 186.56799999999998Q621.674 185.902 621.26 184.678L623.06 184.03Q623.348 184.732 623.978 185.065Q624.608 185.398 625.49 185.398Q626.246 185.398 626.651 185.164Q627.0559999999999 184.93 627.0559999999999 184.462Z" fill="#FFFFFF"/>
<path d="M69.0,226 h330.0 a29.0,29.0 0 0 1 29.0,29.0 v0.0 a29.0,29.0 0 0 1 -29.0,29.0 h-330.0 a29.0,29.0 0 0 1 -29.0,-29.0 v-0.0 a29.0,29.0 0 0 1 29.0,-29.0 z" fill="#387AFF"/>
<circle cx="69.0" cy="255.0" r="17" fill="#FFFFFF" fill-opacity="0.20"/>
<g transform="translate(58.00,244.00) scale(0.9167)"><path d="M4.625,4.708L19.375,4.708A2,2 0,0 1,21.375 6.708L21.375,17.292A2,2 0,0 1,19.375 19.292L4.625,19.292A2,2 0,0 1,2.625 17.292L2.625,6.708A2,2 0,0 1,4.625 4.708z" fill="#FFFFFF" fill-opacity="0.000" stroke="#FFFFFF" stroke-opacity="1.000" stroke-width="1.5" fill-rule="evenodd" />
  <path d="M12,15.646C9.988,15.646 8.354,14.014 8.354,12C8.354,9.986 9.988,8.354 12,8.354C14.014,8.354 15.646,9.986 15.646,12C15.646,14.014 14.014,15.646 12,15.646Z" fill="#FFFFFF" fill-opacity="0.000" stroke="#FFFFFF" stroke-opacity="1.000" stroke-width="1.5" stroke-linecap="round" stroke-linejoin="round" fill-rule="evenodd" />
  <path d="M5.75,8.875C5.174,8.875 4.708,8.408 4.708,7.833C4.708,7.258 5.174,6.792 5.75,6.792C6.325,6.792 6.792,7.258 6.792,7.833C6.792,8.408 6.325,8.875 5.75,8.875" fill="#FFFFFF" fill-opacity="1.000" stroke="#FFFFFF" stroke-opacity="0.000" stroke-width="1.0" fill-rule="nonzero" /></g>
<path d="M101.386 248.202H105.76Q107.30799999999999 248.202 108.442 248.733Q109.576 249.264 110.179 250.236Q110.782 251.208 110.782 252.558Q110.782 254.628 109.441 255.798Q108.1 256.968 105.76 256.968H103.096V254.898H105.598Q107.056 254.898 107.794 254.29500000000002Q108.532 253.692 108.532 252.558Q108.532 251.46 107.794 250.857Q107.056 250.254 105.598 250.254H103.618V261.0H101.386Z M112.6 247.806H114.79599999999999V254.286H114.22Q114.544 253.008 115.44399999999999 252.243Q116.344 251.478 117.532 251.478Q120.826 251.478 120.826 255.564V261.0H118.63V255.69Q118.63 254.556 118.17999999999999 254.01600000000002Q117.72999999999999 253.476 116.812 253.476Q116.23599999999999 253.476 115.77699999999999 253.78199999999998Q115.318 254.088 115.05699999999999 254.64600000000002Q114.79599999999999 255.204 114.79599999999999 255.942V261.0H112.6Z M122.446 256.356Q122.446 254.916 123.013 253.81799999999998Q123.58 252.72 124.624 252.099Q125.668 251.478 127.036 251.478Q128.44 251.478 129.466 252.099Q130.492 252.72 131.06799999999998 253.81799999999998Q131.644 254.916 131.644 256.356Q131.644 257.796 131.06799999999998 258.894Q130.492 259.992 129.466 260.613Q128.44 261.234 127.036 261.234Q125.668 261.234 124.624 260.613Q123.58 259.992 123.013 258.894Q122.446 257.796 122.446 256.356ZM124.678 256.356Q124.678 257.202 124.96600000000001 257.85900000000004Q125.254 258.516 125.785 258.867Q126.316 259.218 127.036 259.218Q127.792 259.218 128.31400000000002 258.867Q128.836 258.516 129.12400000000002 257.85900000000004Q129.412 257.202 129.412 256.356Q129.412 255.492 129.12400000000002 254.853Q128.836 254.214 128.31400000000002 253.85399999999998Q127.792 253.494 127.036 253.494Q126.316 253.494 125.785 253.85399999999998Q125.254 254.214 124.96600000000001 254.853Q124.678 255.492 124.678 256.356Z M133.984 257.976V249.588L136.18 248.832V257.616Q136.18 258.498 136.50400000000002 258.831Q136.828 259.164 137.512 259.164Q137.782 259.164 138.07 259.119Q138.358 259.074 138.628 259.02V260.946Q138.268 261.036 137.827 261.099Q137.386 261.162 137.008 261.162Q136.108 261.162 135.424 260.856Q134.74 260.55 134.36200000000002 259.85699999999997Q133.984 259.164 133.984 257.976ZM132.544 251.73H138.178V253.674H132.544Z M139.762 256.356Q139.762 254.916 140.329 253.81799999999998Q140.89600000000002 252.72 141.94 252.099Q142.984 251.478 144.352 251.478Q145.756 251.478 146.78199999999998 252.099Q147.808 252.72 148.38400000000001 253.81799999999998Q148.96 254.916 148.96 256.356Q148.96 257.796 148.38400000000001 258.894Q147.808 259.992 146.78199999999998 260.613Q145.756 261.234 144.352 261.234Q142.984 261.234 141.94 260.613Q140.89600000000002 259.992 140.329 258.894Q139.762 257.796 139.762 256.356ZM141.994 256.356Q141.994 257.202 142.28199999999998 257.85900000000004Q142.57 258.516 143.101 258.867Q143.632 259.218 144.352 259.218Q145.108 259.218 145.63 258.867Q146.15200000000002 258.516 146.44 257.85900000000004Q146.728 257.202 146.728 256.356Q146.728 255.492 146.44 254.853Q146.15200000000002 254.214 145.63 253.85399999999998Q145.108 253.494 144.352 253.494Q143.632 253.494 143.101 253.85399999999998Q142.57 254.214 142.28199999999998 254.853Q141.994 255.492 141.994 256.356Z M157.132 260.622V258.282H157.618Q157.276 259.398 156.36700000000002 260.03700000000003Q155.458 260.676 154.234 260.676Q153.01 260.676 152.101 260.1Q151.192 259.524 150.688 258.48900000000003Q150.184 257.454 150.184 256.05Q150.184 254.64600000000002 150.688 253.62900000000002Q151.192 252.612 152.101 252.04500000000002Q153.01 251.478 154.234 251.478Q155.458 251.478 156.385 252.216Q157.312 252.954 157.672 254.286H157.15V251.73H159.31V260.46Q159.31 262.044 158.743 263.08799999999997Q158.176 264.132 157.18599999999998 264.627Q156.196 265.122 154.918 265.122Q153.568 265.122 152.425 264.555Q151.282 263.988 150.508 262.872L152.218 261.792Q152.65 262.422 153.325 262.773Q154.0 263.124 154.846 263.124Q155.89000000000001 263.124 156.51100000000002 262.521Q157.132 261.918 157.132 260.622ZM154.756 253.494Q154.018 253.494 153.49599999999998 253.827Q152.974 254.16 152.695 254.736Q152.416 255.312 152.416 256.05Q152.416 256.806 152.695 257.39099999999996Q152.974 257.976 153.49599999999998 258.318Q154.018 258.66 154.756 258.66Q155.494 258.66 156.025 258.327Q156.556 257.994 156.844 257.409Q157.132 256.824 157.132 256.05Q157.132 255.294 156.844 254.71800000000002Q156.556 254.142 156.025 253.81799999999998Q155.494 253.494 154.756 253.494Z M161.47 251.73H163.648V254.286H163.08999999999997Q163.25199999999998 253.566 163.68399999999997 252.945Q164.11599999999999 252.324 164.72799999999998 251.937Q165.33999999999997 251.55 166.05999999999997 251.55Q166.23999999999998 251.55 166.42 251.568Q166.6 251.586 166.79799999999997 251.64V253.728Q166.438 253.656 166.00599999999997 253.656Q165.33999999999997 253.656 164.80899999999997 253.953Q164.278 254.25 163.97199999999998 254.826Q163.666 255.402 163.666 256.248V261.0H161.47Z M173.908 255.618Q173.908 254.466 173.41299999999998 253.917Q172.91799999999998 253.368 171.964 253.368Q171.316 253.368 170.75799999999998 253.656Q170.2 253.944 169.786 254.484L168.166 253.386Q168.886 252.45 169.903 251.964Q170.92 251.478 172.14399999999998 251.478Q173.998 251.478 175.015 252.495Q176.03199999999998 253.512 176.03199999999998 255.582V261.0H173.908ZM167.914 258.462Q167.914 257.022 168.95799999999997 256.212Q170.00199999999998 255.402 171.82 255.402H174.34V256.95H171.928Q171.01 256.95 170.524 257.29200000000003Q170.03799999999998 257.634 170.03799999999998 258.282Q170.03799999999998 258.822 170.39799999999997 259.119Q170.75799999999998 259.416 171.44199999999998 259.416Q172.09 259.416 172.65699999999998 259.101Q173.224 258.786 173.56599999999997 258.21000000000004Q173.908 257.634 173.908 256.86L174.59199999999998 257.49Q174.59199999999998 258.642 174.09699999999998 259.479Q173.60199999999998 260.316 172.75599999999997 260.775Q171.91 261.234 170.86599999999999 261.234Q169.98399999999998 261.234 169.31799999999998 260.90999999999997Q168.652 260.586 168.283 259.96500000000003Q167.914 259.344 167.914 258.462Z M178.138 251.73H180.316V254.286H179.77599999999998Q180.136 252.954 181.063 252.216Q181.98999999999998 251.478 183.214 251.478Q184.456 251.478 185.365 252.08100000000002Q186.274 252.684 186.769 253.773Q187.26399999999998 254.862 187.26399999999998 256.374Q187.26399999999998 257.85 186.769 258.948Q186.274 260.046 185.365 260.64Q184.456 261.234 183.214 261.234Q181.97199999999998 261.234 181.05399999999997 260.505Q180.136 259.776 179.77599999999998 258.462H180.334V264.924H178.138ZM180.334 256.374Q180.334 257.22 180.622 257.86800000000005Q180.91 258.516 181.44099999999997 258.867Q181.97199999999998 259.218 182.70999999999998 259.218Q183.44799999999998 259.218 183.96099999999998 258.84900000000005Q184.474 258.48 184.753 257.841Q185.03199999999998 257.202 185.03199999999998 256.374Q185.03199999999998 255.528 184.753 254.88Q184.474 254.232 183.96099999999998 253.863Q183.44799999999998 253.494 182.70999999999998 253.494Q181.97199999999998 253.494 181.44099999999997 253.85399999999998Q180.91 254.214 180.622 254.862Q180.334 255.51 180.334 256.374Z M188.956 247.806H191.152V254.286H190.57599999999996Q190.89999999999998 253.008 191.79999999999998 252.243Q192.7 251.478 193.88799999999998 251.478Q197.182 251.478 197.182 255.564V261.0H194.986V255.69Q194.986 254.556 194.536 254.01600000000002Q194.08599999999998 253.476 193.16799999999998 253.476Q192.59199999999998 253.476 192.13299999999998 253.78199999999998Q191.67399999999998 254.088 191.41299999999998 254.64600000000002Q191.152 255.204 191.152 255.942V261.0H188.956Z M199.216 263.034Q199.54 263.088 199.81 263.106Q200.07999999999998 263.124 200.332 263.124Q200.85399999999998 263.124 201.178 262.881Q201.502 262.638 201.772 261.918L202.492 260.028L202.726 259.992L205.858 251.73H208.126L203.85999999999999 262.386Q203.482 263.34 203.059 263.943Q202.636 264.546 202.06 264.834Q201.484 265.122 200.584 265.122Q200.296 265.122 199.93599999999998 265.095Q199.576 265.068 199.216 264.978ZM204.058 260.01 202.654 261.9 198.46 251.73H200.87199999999999Z" fill="#FFFFFF"/>
<path d="M481.0,226 h330.0 a29.0,29.0 0 0 1 29.0,29.0 v0.0 a29.0,29.0 0 0 1 -29.0,29.0 h-330.0 a29.0,29.0 0 0 1 -29.0,-29.0 v-0.0 a29.0,29.0 0 0 1 29.0,-29.0 z" fill="#387AFF"/>
<circle cx="481.0" cy="255.0" r="17" fill="#FFFFFF" fill-opacity="0.20"/>
<g transform="translate(470.00,244.00) scale(0.0229)"><path d="M240,880Q207,880 183.5,856.5Q160,833 160,800L160,320Q160,287 183.5,263.5Q207,240 240,240L320,240L320,240Q320,174 367,127Q414,80 480,80Q546,80 593,127Q640,174 640,240L640,240L720,240Q753,240 776.5,263.5Q800,287 800,320L800,427Q800,439 790,446Q780,453 768,449Q751,444 734.5,442Q718,440 701,440Q650,440 602,459Q554,478 516,516Q481,551 460.5,598.5Q440,646 440,700Q440,735 449.5,769Q459,803 476,833Q485,849 477.5,864.5Q470,880 453,880L240,880ZM700,920Q700,828 636,764Q572,700 480,700Q572,700 636,636Q700,572 700,480Q700,572 764,636Q828,700 920,700Q828,700 764,764Q700,828 700,920ZM400,240L560,240L560,240Q560,207 536.5,183.5Q513,160 480,160Q447,160 423.5,183.5Q400,207 400,240ZM360,400Q377,400 388.5,388.5Q400,377 400,360L400,320L320,320L320,360Q320,377 331.5,388.5Q343,400 360,400ZM600,400Q617,400 628.5,388.5Q640,377 640,360L640,320L560,320L560,360Q560,377 571.5,388.5Q583,400 600,400Z" fill="#FFFFFF" /></g>
<path d="M513.386 248.202H517.994Q519.65 248.202 520.64 248.661Q521.63 249.12 522.0889999999999 249.885Q522.548 250.65 522.548 251.568Q522.548 252.522 522.107 253.25099999999998Q521.666 253.98 520.802 254.385Q519.938 254.79 518.678 254.79L518.804 254.178Q520.19 254.178 521.117 254.601Q522.044 255.024 522.512 255.762Q522.98 256.5 522.98 257.472Q522.98 258.426 522.512 259.227Q522.044 260.028 521.018 260.514Q519.992 261.0 518.282 261.0H513.386ZM520.73 257.238Q520.73 256.428 520.1 255.95999999999998Q519.47 255.492 518.174 255.492H514.808V253.602H517.94Q519.164 253.602 519.731 253.13400000000001Q520.298 252.666 520.298 251.874Q520.298 251.082 519.722 250.632Q519.146 250.182 517.94 250.182H515.6V259.02H518.174Q519.47 259.02 520.1 258.543Q520.73 258.066 520.73 257.238Z M524.9060000000001 251.73H527.0840000000001V254.286H526.5260000000001Q526.688 253.566 527.12 252.945Q527.552 252.324 528.164 251.937Q528.7760000000001 251.55 529.496 251.55Q529.676 251.55 529.856 251.568Q530.0360000000001 251.586 530.234 251.64V253.728Q529.874 253.656 529.442 253.656Q528.7760000000001 253.656 528.2450000000001 253.953Q527.714 254.25 527.408 254.826Q527.102 255.402 527.102 256.248V261.0H524.9060000000001Z M537.3439999999999 255.618Q537.3439999999999 254.466 536.8489999999999 253.917Q536.3539999999999 253.368 535.4 253.368Q534.752 253.368 534.194 253.656Q533.636 253.944 533.222 254.484L531.602 253.386Q532.322 252.45 533.3389999999999 251.964Q534.356 251.478 535.5799999999999 251.478Q537.434 251.478 538.451 252.495Q539.468 253.512 539.468 255.582V261.0H537.3439999999999ZM531.35 258.462Q531.35 257.022 532.394 256.212Q533.438 255.402 535.256 255.402H537.776V256.95H535.3639999999999Q534.4459999999999 256.95 533.9599999999999 257.29200000000003Q533.4739999999999 257.634 533.4739999999999 258.282Q533.4739999999999 258.822 533.834 259.119Q534.194 259.416 534.8779999999999 259.416Q535.526 259.416 536.093 259.101Q536.66 258.786 537.002 258.21000000000004Q537.3439999999999 257.634 537.3439999999999 256.86L538.028 257.49Q538.028 258.642 537.533 259.479Q537.038 260.316 536.192 260.775Q535.346 261.234 534.302 261.234Q533.42 261.234 532.7539999999999 260.90999999999997Q532.088 260.586 531.719 259.96500000000003Q531.35 259.344 531.35 258.462Z M541.5740000000001 251.73H543.7520000000001V254.286H543.1940000000001Q543.518 253.008 544.418 252.243Q545.318 251.478 546.506 251.478Q549.8000000000001 251.478 549.8000000000001 255.564V261.0H547.604V255.69Q547.604 254.556 547.154 254.01600000000002Q546.7040000000001 253.476 545.7860000000001 253.476Q545.21 253.476 544.751 253.78199999999998Q544.292 254.088 544.031 254.64600000000002Q543.77 255.204 543.77 255.942V261.0H541.5740000000001Z M551.42 256.356Q551.42 254.862 551.924 253.773Q552.428 252.684 553.337 252.08100000000002Q554.246 251.478 555.4879999999999 251.478Q556.712 251.478 557.639 252.207Q558.566 252.936 558.908 254.25H558.35V247.806H560.546V261.0H558.3679999999999V258.444H558.908Q558.548 259.758 557.621 260.496Q556.694 261.234 555.4879999999999 261.234Q554.246 261.234 553.337 260.64Q552.428 260.046 551.924 258.948Q551.42 257.85 551.42 256.356ZM553.652 256.356Q553.652 257.184 553.931 257.832Q554.21 258.48 554.732 258.84900000000005Q555.254 259.218 555.992 259.218Q556.73 259.218 557.261 258.867Q557.792 258.516 558.0799999999999 257.85900000000004Q558.3679999999999 257.202 558.3679999999999 256.356Q558.3679999999999 255.492 558.0799999999999 254.862Q557.792 254.232 557.261 253.863Q556.73 253.494 555.992 253.494Q555.254 253.494 554.732 253.863Q554.21 254.232 553.931 254.87099999999998Q553.652 255.51 553.652 256.356Z M564.9019999999999 261.0H562.706V251.73H564.9019999999999ZM562.526 249.048Q562.526 248.454 562.886 248.112Q563.246 247.76999999999998 563.822 247.76999999999998Q564.416 247.76999999999998 564.767 248.112Q565.118 248.454 565.118 249.048Q565.118 249.624 564.767 249.98399999999998Q564.416 250.344 563.822 250.344Q563.246 250.344 562.886 249.98399999999998Q562.526 249.624 562.526 249.048Z M567.08 251.73H569.258V254.286H568.7Q569.024 253.008 569.924 252.243Q570.824 251.478 572.012 251.478Q575.306 251.478 575.306 255.564V261.0H573.11V255.69Q573.11 254.556 572.6600000000001 254.01600000000002Q572.21 253.476 571.292 253.476Q570.716 253.476 570.2570000000001 253.78199999999998Q569.798 254.088 569.537 254.64600000000002Q569.276 255.204 569.276 255.942V261.0H567.08Z M583.8739999999999 260.622V258.282H584.36Q584.0179999999999 259.398 583.1089999999999 260.03700000000003Q582.1999999999999 260.676 580.976 260.676Q579.752 260.676 578.843 260.1Q577.934 259.524 577.43 258.48900000000003Q576.9259999999999 257.454 576.9259999999999 256.05Q576.9259999999999 254.64600000000002 577.43 253.62900000000002Q577.934 252.612 578.843 252.04500000000002Q579.752 251.478 580.976 251.478Q582.1999999999999 251.478 583.127 252.216Q584.054 252.954 584.414 254.286H583.8919999999999V251.73H586.0519999999999V260.46Q586.0519999999999 262.044 585.4849999999999 263.08799999999997Q584.918 264.132 583.928 264.627Q582.938 265.122 581.66 265.122Q580.31 265.122 579.1669999999999 264.555Q578.024 263.988 577.25 262.872L578.9599999999999 261.792Q579.3919999999999 262.422 580.067 262.773Q580.742 263.124 581.588 263.124Q582.632 263.124 583.2529999999999 262.521Q583.8739999999999 261.918 583.8739999999999 260.622ZM581.4979999999999 253.494Q580.76 253.494 580.238 253.827Q579.716 254.16 579.437 254.736Q579.158 255.312 579.158 256.05Q579.158 256.806 579.437 257.39099999999996Q579.716 257.976 580.238 258.318Q580.76 258.66 581.4979999999999 258.66Q582.236 258.66 582.767 258.327Q583.298 257.994 583.586 257.409Q583.8739999999999 256.824 583.8739999999999 256.05Q583.8739999999999 255.294 583.586 254.71800000000002Q583.298 254.142 582.767 253.81799999999998Q582.236 253.494 581.4979999999999 253.494Z" fill="#FFFFFF"/>
</svg>